<?xml version="1.0" encoding="UTF-8"?>
<svg version="1.1" xmlns="http://www.w3.org/2000/svg" width="456" height="484">
<path d="M0 0 C150.48 0 300.96 0 456 0 C456 133.32 456 266.64 456 404 C434.42739543 411.79010721 412.86216007 419.54811631 391.19855118 427.0728035 C385.03575152 429.21461349 378.87543941 431.36357956 372.71484375 433.51171875 C372.03650167 433.74819059 371.3581596 433.98466244 370.6592617 434.22830009 C357.08426494 438.96128947 343.53086499 443.75413177 329.98416138 448.56744385 C317.78907035 452.89957363 305.58423581 457.20287256 293.3671875 461.47265625 C292.6959831 461.70728388 292.02477871 461.94191151 291.33323479 462.18364906 C285.33125396 464.28159751 279.32908537 466.37900513 273.32510376 468.47122192 C270.84341595 469.33610464 268.36194992 470.20162402 265.88072205 471.06782532 C263.51767691 471.89276603 261.15413266 472.71627864 258.79005432 473.53825378 C253.57597714 475.35927668 248.38439671 477.21418095 243.23291016 479.20605469 C242.35919266 479.54144257 241.48547516 479.87683044 240.58528137 480.22238159 C239.00069803 480.83602679 237.42063862 481.4615642 235.84672546 482.1020813 C227.70230346 485.25604254 221.5560176 482.30827496 213.7265625 479.5625 C212.71232712 479.21095856 211.69809174 478.85941711 210.65312195 478.4972229 C207.30869054 477.33637569 203.96681575 476.16835374 200.625 475 C198.26856386 474.17991554 195.91203581 473.36009514 193.55541992 472.54052734 C176.49563025 466.60028778 159.46203733 460.58635361 142.43994141 454.5390625 C126.80723979 448.98603105 111.15639669 443.48583713 95.5 438 C78.22450007 431.9448761 60.95264953 425.87971843 43.69506836 419.77368164 C41.69179825 419.06493025 39.68838674 418.35657835 37.68481445 417.64868164 C34.9065912 416.66685692 32.128988 415.68329761 29.3515625 414.69921875 C28.58079376 414.42704025 27.81002502 414.15486176 27.01589966 413.87443542 C17.97849778 410.66698321 9.00055984 407.31599573 0 404 C0 270.68 0 137.36 0 0 Z " fill="#E4E8E8" transform="translate(0,0)"/>
<path d="M0 0 C150.48 0 300.96 0 456 0 C456 133.32 456 266.64 456 404 C434.42739543 411.79010721 412.86216007 419.54811631 391.19855118 427.0728035 C385.03575152 429.21461349 378.87543941 431.36357956 372.71484375 433.51171875 C372.03650167 433.74819059 371.3581596 433.98466244 370.6592617 434.22830009 C357.08426494 438.96128947 343.53086499 443.75413177 329.98416138 448.56744385 C317.78907035 452.89957363 305.58423581 457.20287256 293.3671875 461.47265625 C292.6959831 461.70728388 292.02477871 461.94191151 291.33323479 462.18364906 C285.33125396 464.28159751 279.32908537 466.37900513 273.32510376 468.47122192 C270.84341595 469.33610464 268.36194992 470.20162402 265.88072205 471.06782532 C263.51767691 471.89276603 261.15413266 472.71627864 258.79005432 473.53825378 C253.57597714 475.35927668 248.38439671 477.21418095 243.23291016 479.20605469 C242.35919266 479.54144257 241.48547516 479.87683044 240.58528137 480.22238159 C239.00069803 480.83602679 237.42063862 481.4615642 235.84672546 482.1020813 C227.70230346 485.25604254 221.5560176 482.30827496 213.7265625 479.5625 C212.71232712 479.21095856 211.69809174 478.85941711 210.65312195 478.4972229 C207.30869054 477.33637569 203.96681575 476.16835374 200.625 475 C198.26856386 474.17991554 195.91203581 473.36009514 193.55541992 472.54052734 C176.49563025 466.60028778 159.46203733 460.58635361 142.43994141 454.5390625 C126.80723979 448.98603105 111.15639669 443.48583713 95.5 438 C78.22450007 431.9448761 60.95264953 425.87971843 43.69506836 419.77368164 C41.69179825 419.06493025 39.68838674 418.35657835 37.68481445 417.64868164 C34.9065912 416.66685692 32.128988 415.68329761 29.3515625 414.69921875 C28.58079376 414.42704025 27.81002502 414.15486176 27.01589966 413.87443542 C17.97849778 410.66698321 9.00055984 407.31599573 0 404 C0 270.68 0 137.36 0 0 Z M11 14 C11 140.39 11 266.78 11 397 C23.59884912 401.76241322 23.59884912 401.76241322 36.30859375 406.15625 C37.12094986 406.42530151 37.93330597 406.69435303 38.77027893 406.97155762 C41.32504614 407.81735336 43.88111738 408.65910084 46.4375 409.5 C60.27544501 414.05877867 74.07496635 418.72368846 87.859375 423.44140625 C103.25309061 428.70937785 118.66112546 433.93325379 134.08203125 439.12109375 C135.09491148 439.46190098 136.10779171 439.80270821 137.15136528 440.15384293 C145.42643127 442.93793611 153.70216834 445.72003208 161.97814941 448.50140381 C168.23302299 450.60354605 174.48756217 452.70667745 180.74164391 454.81117439 C183.59459892 455.77077671 186.4480202 456.72898246 189.3014679 457.68711853 C190.19412196 457.98756608 191.08677603 458.28801363 192.00648022 458.59756565 C193.75722762 459.18650015 195.50858064 459.77363777 197.26057148 460.35886288 C201.698223 461.84937548 206.10436092 463.39715729 210.48861694 465.03860474 C211.38507525 465.36898019 212.28153357 465.69935564 213.20515728 466.03974247 C214.89892172 466.66690539 216.58771497 467.30774344 218.26997852 467.96513271 C225.05446329 470.4602769 230.34834967 470.14200456 237.23876953 467.75097656 C237.98149109 467.49766571 238.72421265 467.24435486 239.48944092 466.98336792 C240.27925354 466.70526276 241.06906616 466.42715759 241.8828125 466.140625 C242.74545715 465.84423126 243.60810181 465.54783752 244.49688721 465.24246216 C246.38035264 464.59432614 248.26259374 463.94262377 250.14373779 463.28778076 C253.19717889 462.22487445 256.25362424 461.17105835 259.31103516 460.11962891 C262.62988968 458.97828166 265.94855741 457.83642313 269.2663269 456.69192505 C277.98564507 453.68529776 286.71627314 450.71298725 295.453125 447.7578125 C296.10532516 447.53720091 296.75752533 447.31658932 297.42948914 447.08929253 C300.74468101 445.96807657 304.06004136 444.84735973 307.37548828 443.72689819 C314.00639086 441.48582885 320.63614874 439.2413784 327.265625 436.99609375 C327.90538773 436.77943117 328.54515045 436.56276859 329.20429993 436.33954048 C341.6732884 432.11615624 354.13095048 427.86007555 366.58566284 423.59481812 C379.70183342 419.10483689 392.84200706 414.69029034 406.00634766 410.34350586 C419.05217884 406.02261885 432.00804195 401.49721625 445 397 C445 270.61 445 144.22 445 14 C301.78 14 158.56 14 11 14 Z " fill="#25303E" transform="translate(0,0)"/>
<path d="M0 0 C4.09872294 0.62650829 7.34751615 1.9941374 11.0625 3.8125 C37.45410977 16.26193583 70.22056791 18.70127563 97.92211914 9.00073242 C99.69341657 8.3558548 101.4508902 7.67335814 103.20703125 6.98828125 C106 6 106 6 109 6 C109 7.32 109 8.64 109 10 C95.18453016 21.86505057 72.53648067 25.67455091 55 25 C34.06901789 23.25175746 15.71156081 16.17815022 0 2 C0 1.34 0 0.68 0 0 Z " fill="#2C3745" transform="translate(168,96)"/>
<path d="M0 0 C2.31 0 4.62 0 7 0 C8.98 7.92 10.96 15.84 13 24 C13.33 24 13.66 24 14 24 C14.14622803 23.30849854 14.29245605 22.61699707 14.44311523 21.90454102 C15.10404715 18.78969291 15.77069454 15.67609577 16.4375 12.5625 C16.66759766 11.47388672 16.89769531 10.38527344 17.13476562 9.26367188 C17.46831055 7.71196289 17.46831055 7.71196289 17.80859375 6.12890625 C18.11494751 4.69140015 18.11494751 4.69140015 18.42749023 3.22485352 C19 1 19 1 20 0 C22.33297433 -0.04092937 24.66705225 -0.04241723 27 0 C29.95877083 8.31273708 33 17.11532799 33 26 C33.66 26 34.32 26 35 26 C35.11214844 24.8759375 35.22429687 23.751875 35.33984375 22.59375 C35.94523424 17.75062611 37.20245056 13.17826532 38.5625 8.5 C38.91344727 7.26636719 38.91344727 7.26636719 39.27148438 6.0078125 C39.84242072 4.00370942 40.42046705 2.00163409 41 0 C43.31 0 45.62 0 48 0 C46.3220847 8.54211426 43.6698499 16.7280572 41 25 C40.68417969 25.98871094 40.36835938 26.97742188 40.04296875 27.99609375 C38.13758886 33.86241114 38.13758886 33.86241114 37 35 C34.66702567 35.04092937 32.33294775 35.04241723 30 35 C29.73445313 33.92621094 29.46890625 32.85242188 29.1953125 31.74609375 C28.83860579 30.3098799 28.48183134 28.87368288 28.125 27.4375 C27.86396484 26.38079102 27.86396484 26.38079102 27.59765625 25.30273438 C26.48705185 20.83975002 25.28798784 16.41512948 24 12 C21.65826177 15.92739953 20.91085 20.21346692 19.9375 24.625 C18.11993243 32.76013514 18.11993243 32.76013514 17 35 C13.625 35.1875 13.625 35.1875 10 35 C8.27818932 32.41728397 7.58425909 31.00097174 6.81640625 28.12109375 C6.51029419 26.9930835 6.51029419 26.9930835 6.19799805 25.84228516 C5.98828369 25.04870605 5.77856934 24.25512695 5.5625 23.4375 C5.12333125 21.8083413 4.68323302 20.17943287 4.2421875 18.55078125 C4.03045898 17.76654785 3.81873047 16.98231445 3.60058594 16.17431641 C2.6508927 12.73611805 1.58090615 9.33782116 0.48046875 5.9453125 C0 4 0 4 0 0 Z " fill="#2A3645" transform="translate(206,50)"/>
<path d="M0 0 C3.40188925 1.57548902 5.30448898 3.60897797 7 7 C7.14050291 8.60727367 7.22570442 10.21958453 7.28125 11.83203125 C7.31863281 12.79560547 7.35601562 13.75917969 7.39453125 14.75195312 C7.44673828 16.26692383 7.44673828 16.26692383 7.5 17.8125 C7.56922769 19.79830912 7.64202718 21.78399759 7.71875 23.76953125 C7.74904297 24.65229736 7.77933594 25.53506348 7.81054688 26.44458008 C8.00237405 29.03202218 8.43819994 31.46934091 9 34 C6 36 6 36 3.9375 35.75 C2 35 2 35 0 33 C-0.78375 33.66 -1.5675 34.32 -2.375 35 C-6.62755899 37.82830526 -11.06622747 37.83874133 -16 37 C-18.93423195 35.20353146 -20.47205355 34.0558929 -22 31 C-22.54399285 26.460781 -22.62289461 23.0455731 -20.25 19.0625 C-16.40607348 15.53890069 -13.63949966 14.73464694 -8.4375 14.8125 C-7.48746094 14.81894531 -6.53742188 14.82539062 -5.55859375 14.83203125 C-3 15 -3 15 0 16 C-0.254496 14.51793505 -0.52911762 13.03931385 -0.8125 11.5625 C-0.96332031 10.73878906 -1.11414063 9.91507813 -1.26953125 9.06640625 C-1.63111328 8.04353516 -1.63111328 8.04353516 -2 7 C-8.01099874 4.99633375 -13.17241292 6.09711442 -19 8 C-19.33 6.35 -19.66 4.7 -20 3 C-13.94500406 -1.36982433 -7.11642738 -0.85928322 0 0 Z " fill="#293543" transform="translate(195,49)"/>
<path d="M0 0 C2.97 0 5.94 0 9 0 C9 11.55 9 23.1 9 35 C5.7 35 2.4 35 -1 35 C-1.99 35.495 -1.99 35.495 -3 36 C-6.3125 36.375 -6.3125 36.375 -10 36 C-12.63016161 33.8272578 -14.47336894 32.05326212 -16 29 C-16.39038847 23.87047711 -16.77960947 18.50032009 -14 14 C-11.22786279 11.15085898 -9.80093862 10.07852339 -5.8125 9.6875 C-3 10 -3 10 -1 11 C-1.01160156 10.28972656 -1.02320313 9.57945312 -1.03515625 8.84765625 C-1.04869141 7.46900391 -1.04869141 7.46900391 -1.0625 6.0625 C-1.07410156 5.14597656 -1.08570313 4.22945313 -1.09765625 3.28515625 C-1 1 -1 1 0 0 Z " fill="#2E3947" transform="translate(223,290)"/>
<path d="M0 0 C2.97 0 5.94 0 9 0 C9 11.55 9 23.1 9 35 C5.7 35 2.4 35 -1 35 C-1.99 35.495 -1.99 35.495 -3 36 C-6.77160651 36.41906739 -8.50970134 36.31200824 -11.75 34.25 C-15.21569332 30.78430668 -16.29889135 28.01117546 -16.375 23.125 C-16.28356785 18.35646189 -15.19961773 15.65670597 -12 12 C-8.33134759 9.55423173 -6.32799657 9.76392746 -2 10 C-1.34 10.33 -0.68 10.66 0 11 C0 7.37 0 3.74 0 0 Z " fill="#293443" transform="translate(279,240)"/>
<path d="M0 0 C3.75212276 2.01502889 5.63644095 3.45466142 8 7 C8.57848123 11.85323218 8.64024604 16.4634095 6.75 21 C2.56587884 25.78185276 2.56587884 25.78185276 -1.046875 26.28515625 C-6.07270171 26.47910594 -9.75935509 25.92806435 -14 23 C-17.37342951 19.28922754 -17.62234823 15.34935928 -17.4921875 10.51171875 C-16.67369011 6.33478364 -14.28161205 3.61091762 -11 1 C-7.27599129 -0.24133624 -3.86824 -0.54111486 0 0 Z " fill="#2A3644" transform="translate(309,300)"/>
<path d="M0 0 C3.75212276 2.01502889 5.63644095 3.45466142 8 7 C8.64110173 11.67666844 9.11890087 16.77883619 6.94921875 21.0859375 C5.20028423 23.20116804 3.46076789 24.76961606 1 26 C-3.5470877 26.41849303 -7.67365093 26.53618367 -11.9375 24.8125 C-14.98970074 22.13026299 -16.73744042 19.97818861 -17.28515625 15.8515625 C-17.46648568 11.10546172 -17.19796935 7.73096425 -14 4 C-9.52891225 0.15278496 -5.74241359 -1.15534616 0 0 Z " fill="#2A3644" transform="translate(140,300)"/>
<path d="M0 0 C3.36444825 2.34728948 4.36990434 3.99541277 5.6875 7.875 C6.45775424 13.23468578 5.77085461 17.30312937 2.6875 21.875 C-0.9411875 25.07678309 -4.42002105 25.39793256 -9.09375 25.2265625 C-12.61992007 24.66783837 -14.69326691 23.23869816 -17.3125 20.875 C-19.76527831 16.86136277 -19.88892018 12.46834834 -19.3125 7.875 C-18.04982323 4.35279636 -16.96037596 2.43032225 -14.125 0 C-9.09366913 -2.01253235 -4.9932965 -1.69583655 0 0 Z " fill="#283442" transform="translate(227.3125,251.125)"/>
<path d="M0 0 C0.95003906 0.00644531 1.90007812 0.01289063 2.87890625 0.01953125 C5.4375 0.1875 5.4375 0.1875 8.4375 1.1875 C8.4375 3.4975 8.4375 5.8075 8.4375 8.1875 C7.67824219 8.21328125 6.91898438 8.2390625 6.13671875 8.265625 C5.14285156 8.32234375 4.14898437 8.3790625 3.125 8.4375 C2.13886719 8.48390625 1.15273437 8.5303125 0.13671875 8.578125 C-2.65043566 8.95874771 -2.65043566 8.95874771 -4.39453125 10.984375 C-5.61573465 13.28791585 -5.96776617 14.60478716 -5.9375 17.1875 C-5.94523438 17.8475 -5.95296875 18.5075 -5.9609375 19.1875 C-5.41115916 21.94717166 -4.61030153 23.24702559 -2.5625 25.1875 C0.40585863 25.67157934 0.40585863 25.67157934 3.625 25.4375 C4.71167969 25.40140625 5.79835937 25.3653125 6.91796875 25.328125 C7.74941406 25.28171875 8.58085937 25.2353125 9.4375 25.1875 C9.4375 27.8275 9.4375 30.4675 9.4375 33.1875 C3.75999989 35.08000004 -2.3929784 34.97641694 -8 32.9375 C-11.71794837 30.39841331 -14.12026876 28.51419372 -15.5625 24.1875 C-16.73011509 11.594993 -16.73011509 11.594993 -14.36328125 6.71484375 C-10.25178309 1.83697062 -6.40935055 -0.09592225 0 0 Z " fill="#293543" transform="translate(181.5625,241.8125)"/>
<path d="M0 0 C2.39453125 1.03125 2.39453125 1.03125 4 2 C4 3.65 4 5.3 4 7 C2.7625 6.7525 2.7625 6.7525 1.5 6.5 C-5.40949424 5.43255543 -5.40949424 5.43255543 -12 7 C-12 8.65 -12 10.3 -12 12 C-10.95199219 12.38671875 -9.90398437 12.7734375 -8.82421875 13.171875 C-7.44506482 13.69726697 -6.06617202 14.22334476 -4.6875 14.75 C-3.99720703 15.00265625 -3.30691406 15.2553125 -2.59570312 15.515625 C1.32100742 17.02932956 4.04413987 18.18315355 6 22 C6.51614464 26.64530178 6.67880761 28.84351295 4.3125 32.875 C0.25792436 36.60082626 -3.58766547 37.29178954 -9 37.3125 C-10.010625 37.32925781 -11.02125 37.34601563 -12.0625 37.36328125 C-15.43082617 36.94671964 -17.31928797 36.06058375 -20 34 C-20.3125 31.3125 -20.3125 31.3125 -20 29 C-19.47792969 29.16242188 -18.95585937 29.32484375 -18.41796875 29.4921875 C-15.34538339 30.13748006 -12.4504938 30.13202798 -9.3125 30.125 C-7.57419922 30.12886719 -7.57419922 30.12886719 -5.80078125 30.1328125 C-3.09500844 30.31928173 -3.09500844 30.31928173 -2 29 C-1.95936168 27.33382885 -1.957279 25.66611905 -2 24 C-2.88042969 23.69707031 -3.76085937 23.39414063 -4.66796875 23.08203125 C-17.11692472 18.59156434 -17.11692472 18.59156434 -20 14 C-20.81331329 11.09617031 -20.85314533 8.89843412 -20 6 C-15.53651201 -1.35620146 -7.75065915 -1.05368438 0 0 Z " fill="#2A3644" transform="translate(277,49)"/>
<path d="M0 0 C2.97 0 5.94 0 9 0 C9.33 5.94 9.66 11.88 10 18 C11.65 18 13.3 18 15 18 C15 12.06 15 6.12 15 0 C17.97 0 20.94 0 24 0 C24 7.92 24 15.84 24 24 C20.33333333 24 16.66666667 24 13 24 C12.34 24.33 11.68 24.66 11 25 C4.92311277 25.56267474 4.92311277 25.56267474 1.7890625 23.65234375 C-1.05207953 19.44025765 -0.42137602 15.20013049 -0.25 10.25 C-0.23195312 9.26644531 -0.21390625 8.28289062 -0.1953125 7.26953125 C-0.14825241 4.84593659 -0.07651086 2.42284375 0 0 Z " fill="#293543" transform="translate(236,251)"/>
<path d="M0 0 C2.5552187 2.18371527 3.8495672 3.91319263 4.31640625 7.28588867 C4.39376652 9.97237675 4.34869667 12.62681167 4.25 15.3125 C4.23195312 16.24384766 4.21390625 17.17519531 4.1953125 18.13476562 C4.14836161 20.42362149 4.07662323 22.71194527 4 25 C1.03 25 -1.94 25 -5 25 C-5.33 19.06 -5.66 13.12 -6 7 C-7.32 7.33 -8.64 7.66 -10 8 C-10.33 13.61 -10.66 19.22 -11 25 C-13.97 25 -16.94 25 -20 25 C-20 17.08 -20 9.16 -20 1 C-13 1 -13 1 -11 2 C-10.443125 1.690625 -9.88625 1.38125 -9.3125 1.0625 C-5.99430832 -0.46207455 -3.60586981 -0.45073373 0 0 Z " fill="#2B3645" transform="translate(200,300)"/>
<path d="M0 0 C2.97 0 5.94 0 9 0 C9 5.94 9 11.88 9 18 C10.65 18 12.3 18 14 18 C14 12.06 14 6.12 14 0 C16.97 0 19.94 0 23 0 C23 7.92 23 15.84 23 24 C19.7 24 16.4 24 13 24 C12.34 24.33 11.68 24.66 11 25 C3.62550138 25.46822213 3.62550138 25.46822213 1.39501953 23.79858398 C-0.47250457 21.39080484 -0.34539153 19.91757847 -0.29296875 16.89453125 C-0.28330078 15.91162109 -0.27363281 14.92871094 -0.26367188 13.91601562 C-0.23853516 12.89185547 -0.21339844 11.86769531 -0.1875 10.8125 C-0.17396484 9.77673828 -0.16042969 8.74097656 -0.14648438 7.67382812 C-0.11111389 5.11536301 -0.06175544 2.5579422 0 0 Z " fill="#263241" transform="translate(152,301)"/>
<path d="M0 0 C2.0625 1.625 2.0625 1.625 3.0625 3.625 C3.14622659 5.14648326 3.16980027 6.67155778 3.16015625 8.1953125 C3.15693359 9.09121094 3.15371094 9.98710937 3.15039062 10.91015625 C3.14201172 11.84730469 3.13363281 12.78445313 3.125 13.75 C3.12048828 14.69488281 3.11597656 15.63976562 3.11132812 16.61328125 C3.09952357 18.95058387 3.08305759 21.28776061 3.0625 23.625 C2.43601562 23.61339844 1.80953125 23.60179687 1.1640625 23.58984375 C-0.06183594 23.57630859 -0.06183594 23.57630859 -1.3125 23.5625 C-2.53066406 23.54509766 -2.53066406 23.54509766 -3.7734375 23.52734375 C-5.98687142 23.48033666 -5.98687142 23.48033666 -7.9375 24.625 C-11.77364957 24.98019903 -14.08379634 25.17224594 -17.375 23.0625 C-19.55749672 19.65780512 -19.57484462 17.59069988 -18.9375 13.625 C-17 11.1875 -17 11.1875 -13.9375 9.625 C-10.90469442 9.31563354 -7.97330379 9.38689774 -4.9375 9.625 C-5.2675 8.635 -5.5975 7.645 -5.9375 6.625 C-9.5675 6.625 -13.1975 6.625 -16.9375 6.625 C-16.9375 4.645 -16.9375 2.665 -16.9375 0.625 C-11.16064545 -1.68574182 -5.81943949 -2.72399295 0 0 Z " fill="#283442" transform="translate(253.9375,301.375)"/>
<path d="M0 0 C2.15527344 1.2043457 2.15527344 1.2043457 4 3 C4.45410156 5.36010742 4.45410156 5.36010742 4.390625 8.10546875 C4.37128906 9.57983398 4.37128906 9.57983398 4.3515625 11.08398438 C4.31804687 12.10814453 4.28453125 13.13230469 4.25 14.1875 C4.23195313 15.22326172 4.21390625 16.25902344 4.1953125 17.32617188 C4.14814437 19.88504284 4.08234057 22.44205842 4 25 C1.36 25 -1.28 25 -4 25 C-4.33 19.06 -4.66 13.12 -5 7 C-6.32 7.33 -7.64 7.66 -9 8 C-9.33 13.61 -9.66 19.22 -10 25 C-12.97 25 -15.94 25 -19 25 C-19 17.08 -19 9.16 -19 1 C-16.69 1 -14.38 1 -12 1 C-12 1.66 -12 2.32 -12 3 C-11.13375 2.505 -10.2675 2.01 -9.375 1.5 C-5.81315532 -0.08304208 -3.83760291 -0.5005569 0 0 Z " fill="#263241" transform="translate(340,300)"/>
<path d="M0 0 C7.26 0 14.52 0 22 0 C22 2.31 22 4.62 22 7 C17.71 7 13.42 7 9 7 C9 9.31 9 11.62 9 14 C12.3 14 15.6 14 19 14 C19 15.98 19 17.96 19 20 C15.7 20 12.4 20 9 20 C9 23.96 9 27.92 9 32 C6.03 32 3.06 32 0 32 C0 21.44 0 10.88 0 0 Z " fill="#24303F" transform="translate(100,293)"/>
<path d="M0 0 C2.31 0 4.62 0 7 0 C8.65 3.3 10.3 6.6 12 10 C14.70608417 8.64695791 14.96183047 7.19033456 16.125 4.4375 C16.47820312 3.61121094 16.83140625 2.78492188 17.1953125 1.93359375 C17.46085937 1.29550781 17.72640625 0.65742188 18 0 C20.31 0 22.62 0 25 0 C25 7.92 25 15.84 25 24 C23.02 24 21.04 24 19 24 C18.505 19.05 18.505 19.05 18 14 C17.34 15.65 16.68 17.3 16 19 C13.69 19 11.38 19 9 19 C8.34 17.35 7.68 15.7 7 14 C6.67 17.3 6.34 20.6 6 24 C4.02 24 2.04 24 0 24 C0 16.08 0 8.16 0 0 Z " fill="#2C3846" transform="translate(272,169)"/>
<path d="M0 0 C13.24210988 -0.49503214 13.24210988 -0.49503214 16.89453125 1.890625 C20.03806179 5.03998769 20.2004981 6.95621541 20.3125 11.3125 C20.28221092 15.16426071 20.15946695 16.72505698 18.1875 20.125 C13.09487924 24.49010351 6.33296244 23.0627026 0 23 C0 15.41 0 7.82 0 0 Z " fill="#273341" transform="translate(211,170)"/>
<path d="M0 0 C0.495 0.33 0.99 0.66 1.5 1 C1.5 2.98 1.5 4.96 1.5 7 C-1.8 6.67 -5.1 6.34 -8.5 6 C-8.5 6.66 -8.5 7.32 -8.5 8 C-7.87351562 8.18175781 -7.24703125 8.36351562 -6.6015625 8.55078125 C-5.78429687 8.80214844 -4.96703125 9.05351562 -4.125 9.3125 C-3.31289063 9.55613281 -2.50078125 9.79976563 -1.6640625 10.05078125 C0.5 11 0.5 11 2.5 14 C2.875 16.9375 2.875 16.9375 2.5 20 C0.6329009 22.30275556 -0.85647741 23.67823871 -3.5 25 C-4.95579587 25.09555417 -6.4160796 25.12984691 -7.875 25.125 C-8.64585937 25.12757813 -9.41671875 25.13015625 -10.2109375 25.1328125 C-12.4328189 25.00389788 -14.36618508 24.61383717 -16.5 24 C-16.5 22.02 -16.5 20.04 -16.5 18 C-13.53 18 -10.56 18 -7.5 18 C-7.17 17.34 -6.84 16.68 -6.5 16 C-7.221875 15.9175 -7.94375 15.835 -8.6875 15.75 C-12.19561738 14.81450203 -13.96965459 13.60063278 -16.5 11 C-17.5625 8.0625 -17.5625 8.0625 -17.5 5 C-13.5006133 -1.42758577 -6.92057237 -2.76822895 0 0 Z " fill="#2C3846" transform="translate(364.5,301)"/>
<path d="M0 0 C2.64 0 5.28 0 8 0 C8 1.98 8 3.96 8 6 C9.98 6 11.96 6 14 6 C14 7.98 14 9.96 14 12 C12.02 12 10.04 12 8 12 C8.33 15.96 8.66 19.92 9 24 C10.65 24 12.3 24 14 24 C14.04254356 25.99954746 14.04080783 28.00041636 14 30 C12.44049449 31.55950551 10.91122869 31.28196698 8.75 31.375 C5.39286676 31.28933153 3.99037388 30.99489226 0.9375 29.375 C-2.20064263 23.90855799 -1.37492706 18.15713548 -1 12 C-1.99 12 -2.98 12 -4 12 C-4 10.35 -4 8.7 -4 7 C-2.68 6.67 -1.36 6.34 0 6 C0 4.02 0 2.04 0 0 Z " fill="#273241" transform="translate(263,295)"/>
<path d="M0 0 C2.97 0 5.94 0 9 0 C9 9.57 9 19.14 9 29 C10.32 29 11.64 29 13 29 C13.04254356 30.99954746 13.04080783 33.00041636 13 35 C11.1496801 36.8503199 8.57527918 36.29140132 6.10546875 36.42578125 C2.98052714 35.79383573 1.94537523 34.50291732 0 32 C-0.45410156 28.60839844 -0.45410156 28.60839844 -0.390625 24.609375 C-0.38496521 23.90476135 -0.37930542 23.20014771 -0.37347412 22.47418213 C-0.35115078 20.23208572 -0.30096754 17.99161012 -0.25 15.75 C-0.22992952 14.22658565 -0.2116797 12.70314614 -0.1953125 11.1796875 C-0.15130118 7.4526017 -0.08230372 3.72645913 0 0 Z " fill="#273341" transform="translate(194,240)"/>
<path d="M0 0 C1.134375 0.020625 2.26875 0.04125 3.4375 0.0625 C4.59308273 2.93367516 5.73516867 5.81003929 6.875 8.6875 C7.36323242 9.89986328 7.36323242 9.89986328 7.86132812 11.13671875 C9.55972454 15.44399214 10.90479499 19.42571551 11.4375 24.0625 C9.1275 24.0625 6.8175 24.0625 4.4375 24.0625 C4.1075 22.7425 3.7775 21.4225 3.4375 20.0625 C0.7975 20.0625 -1.8425 20.0625 -4.5625 20.0625 C-4.5625 21.3825 -4.5625 22.7025 -4.5625 24.0625 C-6.8725 24.0625 -9.1825 24.0625 -11.5625 24.0625 C-7.02228756 0.12319803 -7.02228756 0.12319803 0 0 Z " fill="#2D3947" transform="translate(188.5625,168.9375)"/>
<path d="M0 0 C2.64 0 5.28 0 8 0 C16 16.85106383 16 16.85106383 16 23 C13.69 23 11.38 23 9 23 C8.67 21.68 8.34 20.36 8 19 C5.36 19 2.72 19 0 19 C0 20.32 0 21.64 0 23 C-2.31 23 -4.62 23 -7 23 C-6.42389687 17.45044957 -4.97901452 12.73970503 -2.9375 7.5625 C-2.65583984 6.83095703 -2.37417969 6.09941406 -2.08398438 5.34570312 C-1.39586753 3.56126454 -0.69885394 1.78026095 0 0 Z " fill="#2C3846" transform="translate(123,170)"/>
<path d="M0 0 C5.28 0 10.56 0 16 0 C16 1.98 16 3.96 16 6 C12.7 6 9.4 6 6 6 C6 6.99 6 7.98 6 9 C8.64 9 11.28 9 14 9 C14 10.98 14 12.96 14 15 C11.36 15 8.72 15 6 15 C6 16.32 6 17.64 6 19 C9.3 19 12.6 19 16 19 C16 20.65 16 22.3 16 24 C10.72 24 5.44 24 0 24 C0 16.08 0 8.16 0 0 Z " fill="#2D3947" transform="translate(244,169)"/>
<path d="M0 0 C1.18142578 0.00966797 1.18142578 0.00966797 2.38671875 0.01953125 C4.3125 0.1875 4.3125 0.1875 5.3125 1.1875 C5.3125 2.8375 5.3125 4.4875 5.3125 6.1875 C2.0125 6.5175 -1.2875 6.8475 -4.6875 7.1875 C-4.72875 8.445625 -4.77 9.70375 -4.8125 11 C-4.83570313 11.70769531 -4.85890625 12.41539062 -4.8828125 13.14453125 C-4.82004462 15.50109719 -4.82004462 15.50109719 -2.6875 18.1875 C-0.72388136 18.76498803 -0.72388136 18.76498803 1.4375 18.875 C2.71625 18.978125 3.995 19.08125 5.3125 19.1875 C5.3125 20.8375 5.3125 22.4875 5.3125 24.1875 C-5.63317589 24.97307482 -5.63317589 24.97307482 -9.875 21.8125 C-13.03610737 17.23434449 -13.36135001 13.67983912 -12.6875 8.1875 C-9.66932168 2.25893544 -6.64032534 -0.12073319 0 0 Z " fill="#2B3745" transform="translate(161.6875,168.8125)"/>
<path d="M0 0 C2.31 0 4.62 0 7 0 C10 5.75 10 5.75 10 8 C10.66 8 11.32 8 12 8 C12.309375 7.05125 12.61875 6.1025 12.9375 5.125 C14 2 14 2 15 0 C17.31 0 19.62 0 22 0 C20.70036705 3.4092697 19.18784664 6.55235181 17.4375 9.75 C14.95788745 14.60712341 14.26234324 18.57823971 14 24 C11.69 24 9.38 24 7 24 C6.99742187 23.33355469 6.99484375 22.66710937 6.9921875 21.98046875 C6.69649637 14.93316349 4.94152744 10.22410501 1.27734375 4.21484375 C0 2 0 2 0 0 Z " fill="#313D4B" transform="translate(308,169)"/>
<path d="M0 0 C2.97 0 5.94 0 9 0 C9 7.92 9 15.84 9 24 C6.03 24 3.06 24 0 24 C0 16.08 0 8.16 0 0 Z " fill="#283442" transform="translate(280,301)"/>
<path d="M0 0 C0.99 0.66 1.98 1.32 3 2 C3.90438461 8.20149447 1.86625725 13.51672525 -1 19 C-2.51171875 20.796875 -2.51171875 20.796875 -4 22 C-4.66 22 -5.32 22 -6 22 C-5.125 15.25 -5.125 15.25 -4 13 C-4 10.69 -4 8.38 -4 6 C-8.95 6 -13.9 6 -19 6 C-17 2 -17 2 -14.5625 0.75 C-9.72303615 -0.26883449 -4.92589408 -0.52584113 0 0 Z " fill="#2E3948" transform="translate(285,93)"/>
<path d="M0 0 C0.87785156 0.01546875 1.75570312 0.0309375 2.66015625 0.046875 C4.9375 0.25 4.9375 0.25 6.9375 1.25 C6.45789967 7.60470441 6.45789967 7.60470441 4.375 10.1875 C0.70876065 11.78560433 -2.07135058 11.57186689 -6.0625 11.25 C-8.0625 9.25 -8.0625 9.25 -8.375 6.3125 C-8.0625 3.25 -8.0625 3.25 -6.859375 1.57421875 C-4.46545001 -0.18999989 -2.94462596 -0.0867342 0 0 Z " fill="#E5E8E9" transform="translate(188.0625,68.75)"/>
<path d="M0 0 C0.99 0 1.98 0 3 0 C3 7.92 3 15.84 3 24 C2.01 24 1.02 24 0 24 C0 22.02 0 20.04 0 18 C-1.65 18 -3.3 18 -5 18 C-6.26237731 15.47524538 -6.09856404 13.68799534 -6.0625 10.875 C-6.05347656 9.96492188 -6.04445313 9.05484375 -6.03515625 8.1171875 C-6.02355469 7.41851562 -6.01195312 6.71984375 -6 6 C-4.02 6 -2.04 6 0 6 C0 4.02 0 2.04 0 0 Z " fill="#D4D8D9" transform="translate(277,301)"/>
<path d="M0 0 C1.65 0 3.3 0 5 0 C7 2 7 2 7.265625 4.09375 C7.26046875 4.8878125 7.2553125 5.681875 7.25 6.5 C7.25515625 7.2940625 7.2603125 8.088125 7.265625 8.90625 C7 11 7 11 5 13 C3.35 13 1.7 13 0 13 C0 8.71 0 4.42 0 0 Z " fill="#D5D9DA" transform="translate(217,175)"/>
<path d="M0 0 C3 0.25 3 0.25 5 2.25 C5.25 4.75 5.25 4.75 5 7.25 C3 9.25 3 9.25 0 9.5 C-3 9.25 -3 9.25 -5 7.25 C-5.25 4.75 -5.25 4.75 -5 2.25 C-3 0.25 -3 0.25 0 0 Z " fill="#2E3A48" transform="translate(284,288.75)"/>
<path d="M0 0 C1.32 0 2.64 0 4 0 C5.20272819 2.40545638 5.10071472 3.94996953 5.0625 6.625 C5.05347656 7.44226563 5.04445312 8.25953125 5.03515625 9.1015625 C5.02355469 9.72804688 5.01195312 10.35453125 5 11 C3.02 11.99 3.02 11.99 1 13 C-0.5 11.9375 -0.5 11.9375 -2 10 C-2.38991688 5.63293092 -2.46324069 3.69486103 0 0 Z " fill="#E2E5E6" transform="translate(134,307)"/>
<path d="M0 0 C1.65 0 3.3 0 5 0 C6.12256131 2.24512262 6.13413762 3.51456649 6.125 6 C6.12757813 6.70125 6.13015625 7.4025 6.1328125 8.125 C6 10 6 10 5 12 C3.35 12 1.7 12 0 12 C-1.12256131 9.75487738 -1.13413762 8.48543351 -1.125 6 C-1.12886719 4.948125 -1.12886719 4.948125 -1.1328125 3.875 C-1 2 -1 2 0 0 Z " fill="#DDE1E2" transform="translate(218,257)"/>
<path d="M0 0 C2.625 0.375 2.625 0.375 5 1 C5.0270043 2.45823212 5.04639787 3.91660675 5.0625 5.375 C5.07410156 6.18710937 5.08570313 6.99921875 5.09765625 7.8359375 C5 10 5 10 4 12 C-0.875 11.125 -0.875 11.125 -2 10 C-2.27314815 4.26388889 -2.27314815 4.26388889 -2 2 C-1.34 1.34 -0.68 0.68 0 0 Z " fill="#D4D9DA" transform="translate(303,307)"/>
<path d="M0 0 C1.65 0 3.3 0 5 0 C5 3.96 5 7.92 5 12 C3.35 12 1.7 12 0 12 C-2.79921583 7.80117625 -1.86558093 5.87872887 -1 1 C-0.67 0.67 -0.34 0.34 0 0 Z " fill="#DEE2E2" transform="translate(274,257)"/>
<path d="M0 0 C1.65 0 3.3 0 5 0 C5 3.96 5 7.92 5 12 C3.35 12 1.7 12 0 12 C-1.12256131 9.75487738 -1.13413762 8.48543351 -1.125 6 C-1.12886719 4.948125 -1.12886719 4.948125 -1.1328125 3.875 C-1 2 -1 2 0 0 Z " fill="#E3E7E7" transform="translate(217,307)"/>
<path d="M0 0 C1.65 0 3.3 0 5 0 C4.67 1.32 4.34 2.64 4 4 C2.35 3.67 0.7 3.34 -1 3 C-0.67 2.01 -0.34 1.02 0 0 Z " fill="#D5D9DA" transform="translate(244,316)"/>
<path d="M0 0 C2 3 2 3 2 7 C0.68 7 -0.64 7 -2 7 C-1.125 1.125 -1.125 1.125 0 0 Z " fill="#C2C7CA" transform="translate(188,177)"/>
<path d="M0 0 C0.66 0 1.32 0 2 0 C2.33 1.98 2.66 3.96 3 6 C1.68 6 0.36 6 -1 6 C-0.67 4.02 -0.34 2.04 0 0 Z " fill="#D0D3D6" transform="translate(126,178)"/>
</svg>
