<?xml version="1.0" encoding="UTF-8"?>
<svg version="1.1" xmlns="http://www.w3.org/2000/svg" width="352" height="352">
<path d="M0 0 C1.0675753 -0.00445784 2.1351506 -0.00891569 3.23507667 -0.01350862 C4.41219348 -0.01332426 5.5893103 -0.01313989 6.80209732 -0.01294994 C8.04928866 -0.01662663 9.29647999 -0.02030332 10.58146501 -0.02409142 C14.05005586 -0.03411434 17.5186294 -0.03782868 20.98723269 -0.04048073 C24.72559756 -0.04438289 28.46394872 -0.05396124 32.20230484 -0.0626936 C41.23342043 -0.08245986 50.26453714 -0.09252413 59.29566896 -0.10142139 C63.5475302 -0.10580376 67.7993902 -0.11117068 72.05125046 -0.11641026 C86.18334444 -0.13342221 100.31543764 -0.14791694 114.44754028 -0.155159 C118.11522548 -0.15706892 121.78291068 -0.15898925 125.45059586 -0.16094494 C126.81798902 -0.16167055 126.81798902 -0.16167055 128.21300629 -0.16241082 C142.98413832 -0.17071322 157.75518942 -0.19605381 172.5262861 -0.22852562 C187.68779289 -0.26158426 202.84925853 -0.27960665 218.01080155 -0.28280324 C226.52496118 -0.28496937 235.03900276 -0.29373321 243.55312729 -0.31926441 C250.80328429 -0.34095505 258.05329459 -0.34902991 265.30348036 -0.33929763 C269.00261986 -0.33474822 272.70145655 -0.336676 276.40055466 -0.35605907 C280.41156912 -0.37689507 284.42191002 -0.36672078 288.4329567 -0.35352612 C289.60115062 -0.36449536 290.76934455 -0.37546461 291.9729383 -0.38676625 C298.50618562 -0.33476183 302.57478907 0.20523065 307.87149429 4.13422108 C311.833625 8.40915158 312.99458382 11.50814464 313.00571537 17.26272678 C313.01017321 18.33030208 313.01463106 19.39787738 313.01922399 20.49780345 C313.01894744 22.26347867 313.01894744 22.26347867 313.01866531 24.0648241 C313.022342 25.31201544 313.02601869 26.55920678 313.02980679 27.84419179 C313.03982971 31.31278264 313.04354405 34.78135619 313.0461961 38.24995947 C313.05009826 41.98832434 313.05967661 45.7266755 313.06840897 49.46503162 C313.08817523 58.49614721 313.0982395 67.52726393 313.10713676 76.55839574 C313.11151913 80.81025699 313.11688605 85.06211698 313.12212563 89.31397724 C313.13913758 103.44607122 313.15363231 117.57816442 313.16087437 131.71026707 C313.16278429 135.37795227 313.16470462 139.04563746 313.16666031 142.71332264 C313.16714405 143.62491808 313.16762779 144.53651352 313.16812619 145.47573307 C313.17642859 160.2468651 313.20176919 175.0179162 313.23424099 189.78901288 C313.26729963 204.95051967 313.28532202 220.11198531 313.28851861 235.27352834 C313.29068474 243.78768796 313.29944858 252.30172955 313.32497978 260.81585407 C313.34667042 268.06601108 313.35474528 275.31602137 313.345013 282.56620714 C313.34046359 286.26534664 313.34239137 289.96418334 313.36177444 293.66328144 C313.38261044 297.67429591 313.37243615 301.6846368 313.35924149 305.69568348 C313.37569535 307.44797437 313.37569535 307.44797437 313.39248163 309.23566508 C313.3404772 315.7689124 312.80048472 319.83751585 308.87149429 325.13422108 C304.59656379 329.09635178 301.49757073 330.2573106 295.74298859 330.26844215 C294.67541329 330.2729 293.60783799 330.27735784 292.50791192 330.28195077 C291.3307951 330.28176641 290.15367829 330.28158205 288.94089127 330.2813921 C287.69369993 330.28506879 286.44650859 330.28874547 285.16152358 330.29253358 C281.69293273 330.3025565 278.22435918 330.30627083 274.7557559 330.30892289 C271.01739103 330.31282504 267.27903987 330.3224034 263.54068375 330.33113575 C254.50956816 330.35090201 245.47845144 330.36096628 236.44731963 330.36986354 C232.19545838 330.37424591 227.94359839 330.37961283 223.69173813 330.38485241 C209.55964415 330.40186436 195.42755095 330.41635909 181.2954483 330.42360115 C177.6277631 330.42551107 173.96007791 330.4274314 170.29239273 330.42938709 C169.38079729 330.42987083 168.46920185 330.43035457 167.5299823 330.43085297 C152.75885027 330.43915537 137.98779917 330.46449597 123.21670249 330.49696777 C108.0551957 330.53002641 92.89373006 330.5480488 77.73218703 330.55124539 C69.21802741 330.55341153 60.70398582 330.56217537 52.1898613 330.58770657 C44.93970429 330.60939721 37.689694 330.61747206 30.43950823 330.60773978 C26.74036873 330.60319037 23.04153203 330.60511815 19.34243393 330.62450123 C15.33141946 330.64533723 11.32107857 330.63516294 7.31003189 330.62196827 C6.14183796 330.63293752 4.97364403 330.64390676 3.77005029 330.65520841 C-2.76319703 330.60320399 -6.83180048 330.06321151 -12.12850571 326.13422108 C-16.09063641 321.85929058 -17.25159523 318.76029751 -17.26272678 313.00571537 C-17.26718463 311.93814007 -17.27164247 310.87056477 -17.2762354 309.7706387 C-17.27605104 308.59352189 -17.27586668 307.41640507 -17.27567673 306.20361805 C-17.27935342 304.95642671 -17.2830301 303.70923538 -17.28681821 302.42425036 C-17.29684113 298.95565951 -17.30055546 295.48708597 -17.30320752 292.01848269 C-17.30710967 288.28011781 -17.31668803 284.54176665 -17.32542038 280.80341053 C-17.34518664 271.77229494 -17.35525091 262.74117823 -17.36414817 253.71004641 C-17.36853054 249.45818517 -17.37389746 245.20632517 -17.37913704 240.95446491 C-17.39614899 226.82237093 -17.41064372 212.69027773 -17.41788578 198.55817509 C-17.4197957 194.89048989 -17.42171603 191.22280469 -17.42367172 187.55511951 C-17.42415546 186.64352407 -17.4246392 185.73192863 -17.4251376 184.79270908 C-17.43344 170.02157705 -17.4587806 155.25052595 -17.4912524 140.47942927 C-17.52431104 125.31792249 -17.54233343 110.15645684 -17.54553002 94.99491382 C-17.54769616 86.48075419 -17.55646 77.96671261 -17.5819912 69.45258808 C-17.60368184 62.20243108 -17.61175669 54.95242078 -17.60202441 47.70223501 C-17.597475 44.00309551 -17.59940278 40.30425882 -17.61878586 36.60516071 C-17.63962186 32.59414625 -17.62944757 28.58380535 -17.6162529 24.57275867 C-17.62722215 23.40456475 -17.63819139 22.23637082 -17.64949304 21.03277707 C-17.59748862 14.49952975 -17.05749614 10.4309263 -13.12850571 5.13422108 C-8.85357521 1.17209037 -5.75458214 0.01113155 0 0 Z " fill="#E9E9E9" transform="translate(28.12850570678711,10.865778923034668)"/>
<path d="M0 0 C1.0675753 -0.00445784 2.1351506 -0.00891569 3.23507667 -0.01350862 C4.41219348 -0.01332426 5.5893103 -0.01313989 6.80209732 -0.01294994 C8.04928866 -0.01662663 9.29647999 -0.02030332 10.58146501 -0.02409142 C14.05005586 -0.03411434 17.5186294 -0.03782868 20.98723269 -0.04048073 C24.72559756 -0.04438289 28.46394872 -0.05396124 32.20230484 -0.0626936 C41.23342043 -0.08245986 50.26453714 -0.09252413 59.29566896 -0.10142139 C63.5475302 -0.10580376 67.7993902 -0.11117068 72.05125046 -0.11641026 C86.18334444 -0.13342221 100.31543764 -0.14791694 114.44754028 -0.155159 C118.11522548 -0.15706892 121.78291068 -0.15898925 125.45059586 -0.16094494 C126.81798902 -0.16167055 126.81798902 -0.16167055 128.21300629 -0.16241082 C142.98413832 -0.17071322 157.75518942 -0.19605381 172.5262861 -0.22852562 C187.68779289 -0.26158426 202.84925853 -0.27960665 218.01080155 -0.28280324 C226.52496118 -0.28496937 235.03900276 -0.29373321 243.55312729 -0.31926441 C250.80328429 -0.34095505 258.05329459 -0.34902991 265.30348036 -0.33929763 C269.00261986 -0.33474822 272.70145655 -0.336676 276.40055466 -0.35605907 C280.41156912 -0.37689507 284.42191002 -0.36672078 288.4329567 -0.35352612 C289.60115062 -0.36449536 290.76934455 -0.37546461 291.9729383 -0.38676625 C298.50618562 -0.33476183 302.57478907 0.20523065 307.87149429 4.13422108 C311.833625 8.40915158 312.99458382 11.50814464 313.00571537 17.26272678 C313.01017321 18.33030208 313.01463106 19.39787738 313.01922399 20.49780345 C313.01894744 22.26347867 313.01894744 22.26347867 313.01866531 24.0648241 C313.022342 25.31201544 313.02601869 26.55920678 313.02980679 27.84419179 C313.03982971 31.31278264 313.04354405 34.78135619 313.0461961 38.24995947 C313.05009826 41.98832434 313.05967661 45.7266755 313.06840897 49.46503162 C313.08817523 58.49614721 313.0982395 67.52726393 313.10713676 76.55839574 C313.11151913 80.81025699 313.11688605 85.06211698 313.12212563 89.31397724 C313.13913758 103.44607122 313.15363231 117.57816442 313.16087437 131.71026707 C313.16278429 135.37795227 313.16470462 139.04563746 313.16666031 142.71332264 C313.16714405 143.62491808 313.16762779 144.53651352 313.16812619 145.47573307 C313.17642859 160.2468651 313.20176919 175.0179162 313.23424099 189.78901288 C313.26729963 204.95051967 313.28532202 220.11198531 313.28851861 235.27352834 C313.29068474 243.78768796 313.29944858 252.30172955 313.32497978 260.81585407 C313.34667042 268.06601108 313.35474528 275.31602137 313.345013 282.56620714 C313.34046359 286.26534664 313.34239137 289.96418334 313.36177444 293.66328144 C313.38261044 297.67429591 313.37243615 301.6846368 313.35924149 305.69568348 C313.37569535 307.44797437 313.37569535 307.44797437 313.39248163 309.23566508 C313.3404772 315.7689124 312.80048472 319.83751585 308.87149429 325.13422108 C304.59656379 329.09635178 301.49757073 330.2573106 295.74298859 330.26844215 C294.67541329 330.2729 293.60783799 330.27735784 292.50791192 330.28195077 C291.3307951 330.28176641 290.15367829 330.28158205 288.94089127 330.2813921 C287.69369993 330.28506879 286.44650859 330.28874547 285.16152358 330.29253358 C281.69293273 330.3025565 278.22435918 330.30627083 274.7557559 330.30892289 C271.01739103 330.31282504 267.27903987 330.3224034 263.54068375 330.33113575 C254.50956816 330.35090201 245.47845144 330.36096628 236.44731963 330.36986354 C232.19545838 330.37424591 227.94359839 330.37961283 223.69173813 330.38485241 C209.55964415 330.40186436 195.42755095 330.41635909 181.2954483 330.42360115 C177.6277631 330.42551107 173.96007791 330.4274314 170.29239273 330.42938709 C169.38079729 330.42987083 168.46920185 330.43035457 167.5299823 330.43085297 C152.75885027 330.43915537 137.98779917 330.46449597 123.21670249 330.49696777 C108.0551957 330.53002641 92.89373006 330.5480488 77.73218703 330.55124539 C69.21802741 330.55341153 60.70398582 330.56217537 52.1898613 330.58770657 C44.93970429 330.60939721 37.689694 330.61747206 30.43950823 330.60773978 C26.74036873 330.60319037 23.04153203 330.60511815 19.34243393 330.62450123 C15.33141946 330.64533723 11.32107857 330.63516294 7.31003189 330.62196827 C6.14183796 330.63293752 4.97364403 330.64390676 3.77005029 330.65520841 C-2.76319703 330.60320399 -6.83180048 330.06321151 -12.12850571 326.13422108 C-16.09063641 321.85929058 -17.25159523 318.76029751 -17.26272678 313.00571537 C-17.26718463 311.93814007 -17.27164247 310.87056477 -17.2762354 309.7706387 C-17.27605104 308.59352189 -17.27586668 307.41640507 -17.27567673 306.20361805 C-17.27935342 304.95642671 -17.2830301 303.70923538 -17.28681821 302.42425036 C-17.29684113 298.95565951 -17.30055546 295.48708597 -17.30320752 292.01848269 C-17.30710967 288.28011781 -17.31668803 284.54176665 -17.32542038 280.80341053 C-17.34518664 271.77229494 -17.35525091 262.74117823 -17.36414817 253.71004641 C-17.36853054 249.45818517 -17.37389746 245.20632517 -17.37913704 240.95446491 C-17.39614899 226.82237093 -17.41064372 212.69027773 -17.41788578 198.55817509 C-17.4197957 194.89048989 -17.42171603 191.22280469 -17.42367172 187.55511951 C-17.42415546 186.64352407 -17.4246392 185.73192863 -17.4251376 184.79270908 C-17.43344 170.02157705 -17.4587806 155.25052595 -17.4912524 140.47942927 C-17.52431104 125.31792249 -17.54233343 110.15645684 -17.54553002 94.99491382 C-17.54769616 86.48075419 -17.55646 77.96671261 -17.5819912 69.45258808 C-17.60368184 62.20243108 -17.61175669 54.95242078 -17.60202441 47.70223501 C-17.597475 44.00309551 -17.59940278 40.30425882 -17.61878586 36.60516071 C-17.63962186 32.59414625 -17.62944757 28.58380535 -17.6162529 24.57275867 C-17.62722215 23.40456475 -17.63819139 22.23637082 -17.64949304 21.03277707 C-17.59748862 14.49952975 -17.05749614 10.4309263 -13.12850571 5.13422108 C-8.85357521 1.17209037 -5.75458214 0.01113155 0 0 Z M85.16470718 36.11224842 C84.35851944 36.91274113 83.5523317 37.71323383 82.72171402 38.53798389 C80.08100605 41.16764637 77.46241027 43.81815958 74.84415054 46.47015858 C73.00584561 48.31204321 71.16642658 50.15281651 69.32594681 51.99252796 C65.48047363 55.84080029 61.64673529 59.7004499 57.8204689 63.56781483 C53.40534848 68.03018446 48.97466929 72.47660522 44.53476721 76.91430986 C40.24844984 81.19879277 35.97096486 85.49195026 31.69784737 89.78960514 C29.885155 91.6118347 28.0706482 93.43226119 26.25429344 95.25084019 C23.71939333 97.79225027 21.19461806 100.34329778 18.67251968 102.89740467 C17.54809715 104.01978786 17.54809715 104.01978786 16.40095901 105.16484547 C15.71291183 105.8656876 15.02486465 106.56652973 14.31596756 107.2886095 C13.71965058 107.88995401 13.12333361 108.49129852 12.50894642 109.11086559 C8.52419914 114.03471047 7.49542179 118.17755252 7.47708511 124.44559193 C7.47099401 125.15969561 7.46490291 125.8737993 7.45862722 126.60954249 C7.44204261 128.99081672 7.44676637 131.37155355 7.45157242 133.75287342 C7.44422942 135.46489992 7.43564251 137.17692147 7.42590714 138.88893604 C7.40370631 143.53157574 7.40075975 148.17403786 7.40265465 152.81672335 C7.40277442 156.69588373 7.39420753 160.57500659 7.38587713 164.45415652 C7.36664806 173.60795355 7.36375738 182.76165938 7.37051773 191.91547108 C7.37715784 201.35069228 7.35429423 210.78552248 7.317204 220.22066438 C7.28649015 228.3287218 7.27514881 236.43665356 7.27904081 244.54476798 C7.28110663 249.38412704 7.27565498 254.22318184 7.25114822 259.06248569 C7.22885587 263.61482349 7.23077947 268.16652639 7.25107574 272.7188673 C7.25448144 274.38612647 7.24941564 276.05342858 7.23509216 277.72062969 C6.95518999 289.87694547 6.95518999 289.87694547 12.87149429 300.13422108 C16.83214134 303.81196476 19.80869795 305.25487961 25.18510342 305.27123547 C26.07092545 305.27631001 26.95674748 305.28138455 27.8694126 305.28661287 C29.33057068 305.2873595 29.33057068 305.2873595 30.8212471 305.28812122 C31.85538815 305.29250348 32.8895292 305.29688573 33.95500785 305.30140078 C37.43718157 305.31480742 40.91932997 305.32097184 44.40152359 305.32709217 C46.89141836 305.33499164 49.38131197 305.34326049 51.87120438 305.35187244 C59.35540656 305.37584419 66.83960458 305.39102267 74.32383201 305.40393251 C76.43792043 305.40764489 78.5520082 305.41161809 80.66609597 305.41568518 C93.79600861 305.44092212 106.9259223 305.4629739 120.05585384 305.47541332 C123.09685838 305.47834299 126.13786288 305.48130466 129.17886734 305.48431873 C129.9346885 305.48506478 130.69050967 305.48581083 131.4692345 305.48657949 C143.71131143 305.49923138 155.95324307 305.53245253 168.19525208 305.57412057 C180.76564461 305.61655536 193.33596277 305.64011013 205.90642673 305.64533389 C212.96357876 305.64874626 220.02050373 305.66048069 227.07758522 305.69343662 C233.71698511 305.72439132 240.35606116 305.7298453 246.99554634 305.71805286 C249.43200276 305.71783175 251.8684773 305.72616817 254.30487061 305.7437067 C257.63266599 305.76635745 260.95902073 305.75812078 264.28682327 305.74222279 C265.24977505 305.75610487 266.21272683 305.76998696 267.20485896 305.78428972 C273.66075575 305.70835876 277.84597404 304.22506205 282.87149429 300.13422108 C288.94068951 293.90531019 289.16590895 287.25622801 289.13891983 279.01352406 C289.1457165 277.48909422 289.1457165 277.48909422 289.15265048 275.93386781 C289.16530599 272.53006559 289.16367335 269.12642313 289.16202164 265.72259998 C289.16800611 263.28152225 289.17481147 260.8404464 289.18237686 258.39937305 C289.19821547 252.45783802 289.20448554 246.51634042 289.20560162 240.57478859 C289.20655288 235.74423536 289.2106671 230.91369519 289.21700287 226.0831461 C289.23460945 212.38006909 289.24384254 198.67702337 289.24234192 184.97393496 C289.24226201 184.23566727 289.2421821 183.49739958 289.24209976 182.73676014 C289.24197712 181.62800276 289.24197712 181.62800276 289.241852 180.49684624 C289.24103905 168.51687141 289.26018045 156.53702228 289.2883765 144.5570838 C289.31711634 132.24875119 289.33091622 119.94047987 289.32918894 107.63211286 C289.32852547 100.72483946 289.33399922 93.81769789 289.35554504 86.91045475 C289.37567803 80.41466712 289.3750719 73.91908593 289.36051178 67.42328167 C289.35841899 65.04004796 289.36315242 62.65679696 289.3752327 60.27359295 C289.39066379 57.01836252 289.38139023 53.76409501 289.36597061 50.50888538 C289.3814013 49.09670937 289.3814013 49.09670937 289.39714372 47.65600455 C289.32452565 40.71131717 287.68287419 35.45909502 283.16055679 30.11078358 C282.61141617 29.66476795 282.06227554 29.21875233 281.49649429 28.75922108 C280.95250992 28.2977367 280.40852554 27.83625233 279.84805679 27.36078358 C275.06118149 24.39027203 270.37780652 23.8820067 264.83932877 23.86679554 C264.15522108 23.86226443 263.47111339 23.85773331 262.76627517 23.85306489 C260.48649982 23.84046029 258.20696457 23.84203869 255.92715836 23.84369373 C254.28734405 23.83770594 252.64753256 23.83089982 251.00772476 23.82333851 C246.56125431 23.80569506 242.11486088 23.80098378 237.6683588 23.79970694 C234.88724407 23.79828364 232.1061488 23.79401062 229.32503891 23.7887125 C219.61362341 23.77021646 209.90226276 23.7620412 200.19083023 23.76361561 C191.1533318 23.76481632 182.11607246 23.74372664 173.0786345 23.71212828 C165.30770953 23.68593113 157.53686246 23.67524978 149.7658937 23.67652643 C145.1299497 23.67703513 140.49421816 23.67140328 135.85831833 23.65017033 C131.4948304 23.63073033 127.13175631 23.6307026 122.76825333 23.64520359 C121.17278561 23.64728579 119.5772916 23.64262611 117.98186874 23.63048267 C103.66020058 23.52859292 95.26641757 25.77897782 85.16470718 36.11224842 Z " fill="#015698" transform="translate(28.12850570678711,10.865778923034668)"/>
<path d="M0 0 C0.33 0 0.66 0 1 0 C1.09129243 31.56791125 1.16206037 63.13578488 1.20426132 94.70379734 C1.20926402 98.43249597 1.21444132 102.16119434 1.21972656 105.88989258 C1.2207758 106.63219486 1.22182505 107.37449715 1.22290608 108.13929344 C1.24030118 120.15129351 1.27183391 132.16321685 1.30861118 144.17517143 C1.34604557 156.5047754 1.36824113 168.83433924 1.37635398 181.16399771 C1.38183659 188.76926524 1.39913945 196.37431584 1.43166587 203.97951657 C1.45535181 209.81572197 1.45781353 215.65181662 1.45243073 221.48807144 C1.45353037 223.87895225 1.46147636 226.26984133 1.4768219 228.66067314 C1.49676903 231.92898444 1.49192118 235.19637307 1.48101807 238.46470642 C1.49266943 239.40733697 1.5043208 240.34996753 1.51632524 241.32116264 C1.45579407 248.04969422 0.22154679 254.4577651 -4.44733977 259.59141487 C-8.49678851 263.10210101 -12.06933153 265.24739561 -17.43945026 265.25726891 C-18.77209493 265.26694224 -18.77209493 265.26694224 -20.13166171 265.276811 C-21.58947371 265.2721652 -21.58947371 265.2721652 -23.07673645 265.26742554 C-24.63028801 265.27422221 -24.63028801 265.27422221 -26.21522444 265.28115618 C-29.69666919 265.2938484 -33.17795846 265.29217669 -36.65942383 265.29052734 C-39.1510895 265.29650959 -41.64275331 265.30331443 -44.13441467 265.31088257 C-50.20690911 265.32674142 -56.27934208 265.33299232 -62.3518515 265.33410732 C-67.28829631 265.33505765 -72.2247283 265.33916719 -77.16116905 265.34550858 C-91.15781553 265.36312272 -105.15443134 265.37234726 -119.15108899 265.37084763 C-119.90568519 265.37076772 -120.66028139 265.3706878 -121.43774414 265.37060547 C-122.19326211 265.37052371 -122.94878009 265.37044195 -123.72719254 265.37035771 C-135.96986328 265.36954491 -148.21241095 265.38868056 -160.45504609 265.4168822 C-173.02660327 265.44561292 -185.59810043 265.45942237 -198.16969126 265.45769465 C-205.22730911 265.45703078 -212.28479797 265.46252163 -219.34238625 265.48405075 C-225.98014058 265.50416939 -232.61766901 265.50358689 -239.25545311 265.48901749 C-241.69231946 265.48692292 -244.12920268 265.49166864 -246.56604004 265.5037384 C-249.89178631 265.51914454 -253.21658712 265.50991236 -256.54231262 265.49447632 C-257.50749512 265.50476344 -258.47267762 265.51505057 -259.46710807 265.52564943 C-265.50915089 265.46364435 -269.04767317 264.51911246 -274 261 C-278.22667265 256.43062416 -280.25230926 252.84712236 -280.24291992 246.60473633 C-280.24599655 245.52714554 -280.24907318 244.44955475 -280.25224304 243.33930969 C-280.24505753 242.18190781 -280.23787201 241.02450592 -280.23046875 239.83203125 C-280.23001053 238.64147629 -280.22955231 237.45092133 -280.2290802 236.22428894 C-280.22606051 233.71014406 -280.21818269 231.19600101 -280.20581055 228.68188477 C-280.18752202 224.81715329 -280.1853011 220.9526609 -280.18554688 217.08789062 C-280.18063292 214.64843541 -280.17480513 212.20898183 -280.16796875 209.76953125 C-280.16629951 208.02431938 -280.16629951 208.02431938 -280.16459656 206.24385071 C-280.15821671 205.1757164 -280.15183685 204.10758209 -280.14526367 203.00708008 C-280.14145187 202.06206131 -280.13764008 201.11704254 -280.13371277 200.14338684 C-280 198 -280 198 -279 197 C-277.50914367 196.90321634 -276.01370016 196.87628252 -274.51970577 196.87695217 C-273.54584736 196.87496112 -272.57198894 196.87297007 -271.56861967 196.87091869 C-270.48595794 196.87383153 -269.4032962 196.87674437 -268.28782654 196.87974548 C-266.57757824 196.87846385 -266.57757824 196.87846385 -264.83277947 196.87715632 C-261.65398473 196.87578819 -258.47523022 196.87893545 -255.29644024 196.88393438 C-251.87379461 196.88823574 -248.45115099 196.88679268 -245.02850342 196.8860321 C-239.09386686 196.88550667 -233.15924127 196.88865551 -227.22460747 196.89426994 C-218.64402676 196.9023823 -210.06345137 196.90499989 -201.48286725 196.90625793 C-187.56287529 196.90844887 -173.64288917 196.91511008 -159.72290039 196.92456055 C-146.19751006 196.93373359 -132.67212132 196.94080349 -119.14672852 196.94506836 C-118.30511317 196.94533636 -117.46349782 196.94560435 -116.59637898 196.94588047 C-110.01481138 196.94795978 -103.43324375 196.94991675 -96.85167611 196.95183504 C-64.56777871 196.96127599 -32.28389593 196.98139257 0 197 C0 131.99 0 66.98 0 0 Z " fill="#E3E3E4" transform="translate(316,51)"/>
<path d="M0 0 C1.0675753 -0.00445784 2.1351506 -0.00891569 3.23507667 -0.01350862 C4.41219348 -0.01332426 5.5893103 -0.01313989 6.80209732 -0.01294994 C8.04928866 -0.01662663 9.29647999 -0.02030332 10.58146501 -0.02409142 C14.05005586 -0.03411434 17.5186294 -0.03782868 20.98723269 -0.04048073 C24.72559756 -0.04438289 28.46394872 -0.05396124 32.20230484 -0.0626936 C41.23342043 -0.08245986 50.26453714 -0.09252413 59.29566896 -0.10142139 C63.5475302 -0.10580376 67.7993902 -0.11117068 72.05125046 -0.11641026 C86.18334444 -0.13342221 100.31543764 -0.14791694 114.44754028 -0.155159 C118.11522548 -0.15706892 121.78291068 -0.15898925 125.45059586 -0.16094494 C126.81798902 -0.16167055 126.81798902 -0.16167055 128.21300629 -0.16241082 C142.98413832 -0.17071322 157.75518942 -0.19605381 172.5262861 -0.22852562 C187.68779289 -0.26158426 202.84925853 -0.27960665 218.01080155 -0.28280324 C226.52496118 -0.28496937 235.03900276 -0.29373321 243.55312729 -0.31926441 C250.80328429 -0.34095505 258.05329459 -0.34902991 265.30348036 -0.33929763 C269.00261986 -0.33474822 272.70145655 -0.336676 276.40055466 -0.35605907 C280.41156912 -0.37689507 284.42191002 -0.36672078 288.4329567 -0.35352612 C289.60115062 -0.36449536 290.76934455 -0.37546461 291.9729383 -0.38676625 C298.50618562 -0.33476183 302.57478907 0.20523065 307.87149429 4.13422108 C311.833625 8.40915158 312.99458382 11.50814464 313.00571537 17.26272678 C313.01017321 18.33030208 313.01463106 19.39787738 313.01922399 20.49780345 C313.01894744 22.26347867 313.01894744 22.26347867 313.01866531 24.0648241 C313.022342 25.31201544 313.02601869 26.55920678 313.02980679 27.84419179 C313.03982971 31.31278264 313.04354405 34.78135619 313.0461961 38.24995947 C313.05009826 41.98832434 313.05967661 45.7266755 313.06840897 49.46503162 C313.08817523 58.49614721 313.0982395 67.52726393 313.10713676 76.55839574 C313.11151913 80.81025699 313.11688605 85.06211698 313.12212563 89.31397724 C313.13913758 103.44607122 313.15363231 117.57816442 313.16087437 131.71026707 C313.16278429 135.37795227 313.16470462 139.04563746 313.16666031 142.71332264 C313.16714405 143.62491808 313.16762779 144.53651352 313.16812619 145.47573307 C313.17642859 160.2468651 313.20176919 175.0179162 313.23424099 189.78901288 C313.26729963 204.95051967 313.28532202 220.11198531 313.28851861 235.27352834 C313.29068474 243.78768796 313.29944858 252.30172955 313.32497978 260.81585407 C313.34667042 268.06601108 313.35474528 275.31602137 313.345013 282.56620714 C313.34046359 286.26534664 313.34239137 289.96418334 313.36177444 293.66328144 C313.38261044 297.67429591 313.37243615 301.6846368 313.35924149 305.69568348 C313.37569535 307.44797437 313.37569535 307.44797437 313.39248163 309.23566508 C313.3404772 315.7689124 312.80048472 319.83751585 308.87149429 325.13422108 C304.59656379 329.09635178 301.49757073 330.2573106 295.74298859 330.26844215 C294.67541329 330.2729 293.60783799 330.27735784 292.50791192 330.28195077 C291.3307951 330.28176641 290.15367829 330.28158205 288.94089127 330.2813921 C287.69369993 330.28506879 286.44650859 330.28874547 285.16152358 330.29253358 C281.69293273 330.3025565 278.22435918 330.30627083 274.7557559 330.30892289 C271.01739103 330.31282504 267.27903987 330.3224034 263.54068375 330.33113575 C254.50956816 330.35090201 245.47845144 330.36096628 236.44731963 330.36986354 C232.19545838 330.37424591 227.94359839 330.37961283 223.69173813 330.38485241 C209.55964415 330.40186436 195.42755095 330.41635909 181.2954483 330.42360115 C177.6277631 330.42551107 173.96007791 330.4274314 170.29239273 330.42938709 C169.38079729 330.42987083 168.46920185 330.43035457 167.5299823 330.43085297 C152.75885027 330.43915537 137.98779917 330.46449597 123.21670249 330.49696777 C108.0551957 330.53002641 92.89373006 330.5480488 77.73218703 330.55124539 C69.21802741 330.55341153 60.70398582 330.56217537 52.1898613 330.58770657 C44.93970429 330.60939721 37.689694 330.61747206 30.43950823 330.60773978 C26.74036873 330.60319037 23.04153203 330.60511815 19.34243393 330.62450123 C15.33141946 330.64533723 11.32107857 330.63516294 7.31003189 330.62196827 C6.14183796 330.63293752 4.97364403 330.64390676 3.77005029 330.65520841 C-2.76319703 330.60320399 -6.83180048 330.06321151 -12.12850571 326.13422108 C-16.09063641 321.85929058 -17.25159523 318.76029751 -17.26272678 313.00571537 C-17.26718463 311.93814007 -17.27164247 310.87056477 -17.2762354 309.7706387 C-17.27605104 308.59352189 -17.27586668 307.41640507 -17.27567673 306.20361805 C-17.27935342 304.95642671 -17.2830301 303.70923538 -17.28681821 302.42425036 C-17.29684113 298.95565951 -17.30055546 295.48708597 -17.30320752 292.01848269 C-17.30710967 288.28011781 -17.31668803 284.54176665 -17.32542038 280.80341053 C-17.34518664 271.77229494 -17.35525091 262.74117823 -17.36414817 253.71004641 C-17.36853054 249.45818517 -17.37389746 245.20632517 -17.37913704 240.95446491 C-17.39614899 226.82237093 -17.41064372 212.69027773 -17.41788578 198.55817509 C-17.4197957 194.89048989 -17.42171603 191.22280469 -17.42367172 187.55511951 C-17.42415546 186.64352407 -17.4246392 185.73192863 -17.4251376 184.79270908 C-17.43344 170.02157705 -17.4587806 155.25052595 -17.4912524 140.47942927 C-17.52431104 125.31792249 -17.54233343 110.15645684 -17.54553002 94.99491382 C-17.54769616 86.48075419 -17.55646 77.96671261 -17.5819912 69.45258808 C-17.60368184 62.20243108 -17.61175669 54.95242078 -17.60202441 47.70223501 C-17.597475 44.00309551 -17.59940278 40.30425882 -17.61878586 36.60516071 C-17.63962186 32.59414625 -17.62944757 28.58380535 -17.6162529 24.57275867 C-17.62722215 23.40456475 -17.63819139 22.23637082 -17.64949304 21.03277707 C-17.59748862 14.49952975 -17.05749614 10.4309263 -13.12850571 5.13422108 C-8.85357521 1.17209037 -5.75458214 0.01113155 0 0 Z M-13.12850571 13.13422108 C-14.37020247 15.61761461 -14.25724815 17.26953188 -14.26272678 20.04876804 C-14.26718463 21.09406862 -14.27164247 22.1393692 -14.2762354 23.21634555 C-14.27605104 24.37371164 -14.27586668 25.53107772 -14.27567673 26.72351551 C-14.27935342 27.94605667 -14.2830301 29.16859784 -14.28681821 30.4281857 C-14.2959575 33.83256897 -14.30055746 37.23690399 -14.30320752 40.64129496 C-14.30710603 44.3087648 -14.31668469 47.97622062 -14.32542038 51.64368153 C-14.3451978 60.50613111 -14.3552527 69.36858185 -14.36414817 78.23104799 C-14.36852905 82.40234825 -14.37389638 86.57364723 -14.37913704 90.74494648 C-14.39615073 104.6076414 -14.41064547 118.47033552 -14.41788578 132.33303928 C-14.41979574 135.93180562 -14.42171606 139.53057195 -14.42367172 143.12933826 C-14.42415546 144.02381783 -14.4246392 144.9182974 -14.4251376 145.8398824 C-14.43343999 160.33369368 -14.45877978 174.82742247 -14.4912524 189.32119772 C-14.52430426 204.19451489 -14.54233285 219.06779013 -14.54553002 233.94114423 C-14.54769688 242.29487962 -14.5564711 250.64849475 -14.5819912 259.0021944 C-14.60367266 266.11589519 -14.61176127 273.2294465 -14.60202441 280.34317657 C-14.59747221 283.97332831 -14.59941883 287.6031715 -14.61878586 291.23328114 C-14.63959676 295.16798037 -14.62945621 299.102252 -14.6162529 303.03699207 C-14.62722215 304.18543527 -14.63819139 305.33387847 -14.64949304 306.51712298 C-14.58958953 313.887221 -13.66770691 317.40921181 -8.56600571 322.77875233 C-3.9435397 326.53450595 -0.8701498 327.25750909 4.96687412 327.26564884 C6.00160652 327.26948999 7.03633891 327.27333113 8.10242683 327.27728868 C9.23772132 327.27642219 10.37301581 327.27555571 11.54271317 327.27466297 C13.35352852 327.27911965 13.35352852 327.27911965 15.20092601 327.28366637 C18.55325588 327.29084684 21.90553452 327.2935257 25.25786841 327.29426384 C28.87283186 327.29611512 32.48778421 327.3036628 36.10274124 327.31039906 C44.00767942 327.32397945 51.91261253 327.33000652 59.81756043 327.33440971 C64.75314393 327.33717241 69.68872546 327.34140979 74.62430763 327.34591389 C88.28892297 327.35810574 101.95353673 327.3684055 115.61815739 327.37178898 C116.4926689 327.37200854 117.36718041 327.37222811 118.26819227 327.37245433 C119.14479626 327.37267261 120.02140025 327.37289089 120.924568 327.37311578 C122.70090346 327.37355924 124.47723891 327.37400581 126.25357437 327.37445545 C127.57526006 327.3747876 127.57526006 327.3747876 128.92364647 327.37512645 C143.20324373 327.37907507 157.48278998 327.39653139 171.76236752 327.41981497 C186.42218087 327.44352569 201.08196861 327.45599069 215.74180144 327.4571569 C223.97311315 327.45807377 232.20435838 327.46382924 240.43565178 327.48197651 C247.44422418 327.49737365 254.45270955 327.50250022 261.46129564 327.49423841 C265.03685172 327.49033063 268.6122325 327.4912676 272.18776703 327.50529575 C276.0650286 327.52036856 279.94204324 327.51217197 283.81932449 327.50171375 C284.94792682 327.50977016 286.07652915 327.51782656 287.23933154 327.5261271 C294.06690502 327.48297099 299.45765809 327.06522387 304.83243179 322.45062733 C305.29907242 321.87183826 305.76571304 321.2930492 306.24649429 320.69672108 C306.72860367 320.12051014 307.21071304 319.5442992 307.70743179 318.95062733 C309.91911556 315.49951004 309.99731558 312.05925358 310.00292206 308.03884125 C310.0067632 307.00410886 310.01060435 305.96937646 310.01456189 304.90328854 C310.01326217 303.20034681 310.01326217 303.20034681 310.01193619 301.4630022 C310.01490731 300.25579197 310.01787843 299.04858173 310.02093959 297.80478936 C310.02812005 294.45245949 310.03079892 291.10018085 310.03153706 287.74784696 C310.03338834 284.13288351 310.04093601 280.51793116 310.04767227 276.90297413 C310.06125266 268.99803595 310.06727974 261.09310284 310.07168293 253.18815494 C310.07444562 248.25257144 310.07868301 243.31698991 310.0831871 238.38140774 C310.09537896 224.7167924 310.10567872 211.05217864 310.10906219 197.38755798 C310.10928176 196.51304647 310.10950133 195.63853496 310.10972755 194.7375231 C310.10994582 193.86091911 310.1101641 192.98431512 310.11038899 192.08114737 C310.11083246 190.30481191 310.11127902 188.52847646 310.11172867 186.752141 C310.1119501 185.87101721 310.11217153 184.98989341 310.11239967 184.0820689 C310.11634828 169.80247164 310.13380461 155.5229254 310.15708819 141.24334785 C310.1807989 126.5835345 310.1932639 111.92374676 310.19443011 97.26391393 C310.19534699 89.03260222 310.20110245 80.80135699 310.21924973 72.57006359 C310.23464687 65.56149119 310.23977344 58.55300582 310.23151162 51.54441973 C310.22760385 47.96886365 310.22854081 44.39348287 310.24256897 40.81794834 C310.25764178 36.94068677 310.24944519 33.06367213 310.23898697 29.18639088 C310.24704337 28.05778855 310.25509978 26.92918622 310.26340032 25.76638383 C310.22032382 18.95140632 309.84900696 13.46319961 305.11758804 8.17328358 C304.52075211 7.70664295 303.92391617 7.24000233 303.30899429 6.75922108 C302.4098732 6.03605701 302.4098732 6.03605701 301.49258804 5.29828358 C298.50298212 3.15153041 296.5970241 3.00717559 292.95694733 3 C291.91164675 2.99554216 290.86634617 2.99108431 289.78936982 2.98649138 C288.63200373 2.98667574 287.47463765 2.98686011 286.28219986 2.98705006 C285.0596587 2.98337337 283.83711753 2.97969668 282.57752967 2.97590858 C279.1731464 2.96676929 275.76881138 2.96216933 272.36442041 2.95951927 C268.69695057 2.95562075 265.02949475 2.9460421 261.36203384 2.9373064 C252.49958426 2.91752899 243.63713352 2.90747409 234.77466738 2.89857861 C230.60336712 2.89419773 226.43206814 2.8888304 222.26076889 2.88358974 C208.39807397 2.86657606 194.53537985 2.85208132 180.67267609 2.844841 C177.07390975 2.84293104 173.47514342 2.84101072 169.87637711 2.83905506 C168.53465776 2.83832945 168.53465776 2.83832945 167.16583297 2.83758918 C152.67202169 2.8292868 138.1782929 2.80394701 123.68451765 2.77147438 C108.81120048 2.73842253 93.93792524 2.72039393 79.06457114 2.71719676 C70.71083575 2.7150299 62.35722062 2.70625568 54.00352097 2.68073559 C46.88982018 2.65905412 39.77626887 2.65096551 32.6625388 2.66070237 C29.03238706 2.66525457 25.40254387 2.66330795 21.77243423 2.64394093 C17.837735 2.62313003 13.90346337 2.63327058 9.9687233 2.64647388 C8.8202801 2.63550464 7.6718369 2.62453539 6.48859239 2.61323375 C-3.20306984 2.69200672 -7.33161157 5.51544593 -13.12850571 13.13422108 Z " fill="#BCC3C8" transform="translate(28.12850570678711,10.865778923034668)"/>
<path d="M0 0 C1.56645525 -0.00214962 3.13290892 -0.00603289 4.69935608 -0.01150513 C8.92653128 -0.02114248 13.15327967 -0.00596746 17.38040328 0.01440096 C21.81604075 0.03205576 26.2516667 0.0284453 30.68733215 0.02767944 C38.13081952 0.0295482 45.57414308 0.04685728 53.01757812 0.07421875 C61.61322873 0.10569965 70.20870035 0.11621348 78.80440444 0.11474764 C87.97521156 0.11339517 97.14595008 0.12728193 106.31673646 0.14564085 C108.95200186 0.14989541 111.58725613 0.15132208 114.22252464 0.15211868 C118.36684234 0.15413284 122.51101079 0.16638538 126.65527916 0.18645096 C128.17297959 0.19227421 129.6906972 0.19475713 131.20840836 0.19359589 C133.28563599 0.19260825 135.36245107 0.20398539 137.43962097 0.21841431 C138.60007525 0.221766 139.76052954 0.22511768 140.9561491 0.22857094 C147.25235374 0.71468429 150.94867841 2.00153313 155.28833008 6.48583984 C157.93017549 7.28265302 157.93017549 7.28265302 160.28833008 7.48583984 C160.94833008 9.79583984 161.60833008 12.10583984 162.28833008 14.48583984 C161.78043945 14.07591797 161.27254883 13.66599609 160.74926758 13.24365234 C160.0609082 12.70482422 159.37254883 12.16599609 158.66333008 11.61083984 C157.99043945 11.07716797 157.31754883 10.54349609 156.62426758 9.99365234 C151.7058484 6.81888679 147.02334012 6.23425357 141.25616455 6.21841431 C140.57205686 6.21388319 139.88794918 6.20935208 139.18311095 6.20468366 C136.9033356 6.19207905 134.62380036 6.19365745 132.34399414 6.1953125 C130.70417984 6.18932471 129.06436835 6.18251858 127.42456055 6.17495728 C122.9780901 6.15731382 118.53169666 6.15260254 114.08519459 6.1513257 C111.30407985 6.14990241 108.52298459 6.14562939 105.74187469 6.14033127 C96.0304592 6.12183523 86.31909854 6.11365997 76.60766602 6.11523438 C67.57016759 6.11643509 58.53290824 6.09534541 49.49547029 6.06374705 C41.72454531 6.03754989 33.95369825 6.02686855 26.18272948 6.02814519 C21.54678548 6.02865389 16.91105394 6.02302205 12.27515411 6.00178909 C7.91166618 5.9823491 3.5485921 5.98232137 -0.81491089 5.99682236 C-2.4103786 5.99890455 -4.00587261 5.99424488 -5.60129547 5.98210144 C-18.11590294 5.8930678 -26.92760129 7.11132464 -36.11526489 16.07626343 C-36.83978851 16.81293243 -37.56431213 17.54960144 -38.31079102 18.30859375 C-39.1056189 19.09290771 -39.90044678 19.87722168 -40.71936035 20.68530273 C-43.32316414 23.2628592 -45.90458741 25.86155121 -48.48510742 28.46240234 C-50.29881774 30.2720668 -52.1134176 32.08084012 -53.92886353 33.88876343 C-57.72258865 37.67366251 -61.50558299 41.46885278 -65.28051758 45.27246094 C-69.62857469 49.65316469 -73.99782435 54.01183465 -78.37870729 58.35969222 C-82.61374782 62.56409502 -86.83163694 66.78539072 -91.04262161 71.01389694 C-92.82671999 72.80198403 -94.61524817 74.58566294 -96.40833664 76.36473465 C-98.91670905 78.85778659 -101.4049121 81.36941617 -103.88891602 83.88671875 C-104.99391953 84.97350418 -104.99391953 84.97350418 -106.12124634 86.08224487 C-115.7073684 95.90652441 -116.29977888 105.68837749 -116.22583008 118.88769531 C-116.23129881 120.52798621 -116.23854484 122.16827198 -116.24742126 123.80854797 C-116.26268932 127.32198681 -116.26558944 130.83513394 -116.25865555 134.34859848 C-116.24782737 139.90382971 -116.26529775 145.45875825 -116.28646851 151.01394653 C-116.31665785 159.79556401 -116.32841723 168.57709111 -116.33204496 177.35875618 C-116.33870931 193.10177903 -116.36767829 208.84473987 -116.41714132 224.5876857 C-116.43364306 230.1111404 -116.4390556 235.63446366 -116.43555093 241.15794063 C-116.4351144 244.58774924 -116.44266998 248.01750799 -116.45222664 251.44730186 C-116.45491246 253.03883475 -116.45415257 254.63037769 -116.44971657 256.22190666 C-116.44408497 258.39211465 -116.45061093 260.56196052 -116.46011353 262.73214722 C-116.46061675 264.55440732 -116.46061675 264.55440732 -116.46113014 266.41348076 C-116.7004527 269.34828353 -117.17081002 271.01568954 -118.71166992 273.48583984 C-119.84867074 270.0748374 -119.85954236 267.43064915 -119.89007568 263.83221436 C-119.89713036 263.1526368 -119.90418503 262.47305924 -119.91145349 261.77288842 C-119.93387477 259.49069879 -119.94924597 257.20851687 -119.96459961 254.92626953 C-119.97908826 253.29188198 -119.99396482 251.65749782 -120.00920105 250.02311707 C-120.04911458 245.57878263 -120.08244874 241.13442296 -120.11378765 236.69002056 C-120.13350644 233.91313407 -120.15435434 231.13625825 -120.17554474 228.35938263 C-120.24151856 219.67066616 -120.30347638 210.98193469 -120.35972381 202.29314971 C-120.42468246 192.26440382 -120.50280226 182.23587533 -120.59240603 172.20731997 C-120.66087745 164.45525893 -120.71765054 156.70316691 -120.76557279 148.95095181 C-120.79444962 144.32119328 -120.82826007 139.69159664 -120.87422943 135.06197357 C-120.91716225 130.70524446 -120.94555288 126.34865837 -120.9628849 121.99175453 C-120.97171654 120.39499705 -120.98572639 118.7982583 -121.00536919 117.20159721 C-121.0314417 115.01667666 -121.03860301 112.83245688 -121.04119873 110.6473999 C-121.05003963 109.42623348 -121.05888054 108.20506706 -121.06798935 106.9468956 C-120.65821533 102.96661665 -119.41411808 100.090364 -117.71166992 96.48583984 C-117.13609149 94.84544658 -116.56206865 93.20450602 -115.99014282 91.56283569 C-113.77130187 86.02026406 -110.47278429 82.3973485 -106.25610352 78.25390625 C-105.51080383 77.49809265 -104.76550415 76.74227905 -103.99761963 75.96356201 C-101.54990641 73.48961757 -99.08111048 71.03806823 -96.61010742 68.58740234 C-94.89012413 66.86337271 -93.17103197 65.13845363 -91.45278931 63.41268921 C-87.85620641 59.80728248 -84.24905255 56.2128946 -80.6340332 52.62597656 C-76.01369254 48.03981844 -71.42081527 43.42724662 -66.83554649 38.80605507 C-63.29294909 35.24172059 -59.73611539 31.69186906 -56.1748848 28.14616013 C-54.47611328 26.45137567 -52.78174478 24.75216542 -51.09199142 23.04838943 C-48.72346218 20.66452957 -46.33637882 18.30089631 -43.94360352 15.94140625 C-43.25648285 15.2421402 -42.56936218 14.54287415 -41.86141968 13.82241821 C-37.64840272 9.71670672 -33.8138056 7.30769166 -28.2515173 5.37808228 C-25.71349235 4.53905696 -25.71349235 4.53905696 -23.40556431 3.37579346 C-15.79498276 -0.23778027 -8.24085024 -0.06603196 0 0 Z " fill="#01457B" transform="translate(151.711669921875,29.51416015625)"/>
<path d="M0 0 C85.47 0.33 170.94 0.66 259 1 C256 5 256 5 254.01617581 5.50254732 C252.87286271 5.50433455 252.87286271 5.50433455 251.70645237 5.50615788 C250.82513033 5.51720556 249.9438083 5.52825325 249.03577954 5.53963572 C248.06672757 5.53139495 247.0976756 5.52315418 246.09925842 5.5146637 C244.55606411 5.52508199 244.55606411 5.52508199 242.98169416 5.53571075 C239.51760799 5.55407799 236.05419916 5.54368915 232.59008789 5.53344727 C230.11340316 5.5405008 227.63672275 5.54924342 225.16004944 5.55955505 C219.1211059 5.57977599 213.08243068 5.58106054 207.0434807 5.57292951 C202.13605415 5.56663568 197.22868259 5.56776085 192.32125664 5.57420158 C191.62342697 5.57510324 190.9255973 5.57600489 190.20662127 5.57693387 C188.78908478 5.57878503 187.37154831 5.58064759 185.95401185 5.58252143 C172.65329406 5.59911048 159.35268226 5.59037151 146.05197083 5.57353585 C133.87830163 5.5588395 121.70487925 5.57346429 109.53124184 5.60230602 C97.03768347 5.63168572 84.54423908 5.64267639 72.05064768 5.63312382 C70.63795151 5.63210124 69.22525533 5.63110663 67.81255913 5.6301403 C67.11745115 5.62966391 66.42234318 5.62918752 65.70617132 5.6286967 C60.80426937 5.62653058 55.90247507 5.63634714 51.000597 5.65091133 C44.40384299 5.67023739 37.80747488 5.66337888 31.21071434 5.63871193 C28.78549558 5.63368605 26.3602421 5.63723947 23.93505096 5.64986038 C20.63207339 5.66569331 17.33062911 5.65093081 14.02772522 5.62818909 C12.57749335 5.64594268 12.57749335 5.64594268 11.09796387 5.66405493 C10.21403409 5.65163289 9.3301043 5.63921085 8.41938877 5.62641239 C7.65701768 5.6261427 6.8946466 5.62587301 6.10917336 5.62559515 C4 5 4 5 0 0 Z " fill="#1A527E" transform="translate(46,315)"/>
<path d="M0 0 C2.97 0 5.94 0 9 0 C9 4.95 9 9.9 9 15 C11.31 15 13.62 15 16 15 C16 10.05 16 5.1 16 0 C19.3 0 22.6 0 26 0 C26 13.2 26 26.4 26 40 C22.7 40 19.4 40 16 40 C16 34.39 16 28.78 16 23 C13.69 23 11.38 23 9 23 C9 28.61 9 34.22 9 40 C6.03 40 3.06 40 0 40 C0 26.8 0 13.6 0 0 Z " fill="#060606" transform="translate(201,156)"/>
<path d="M0 0 C0.99 0.495 0.99 0.495 2 1 C2 1.99 2 2.98 2 4 C2.66 4.33 3.32 4.66 4 5 C4.95266751 7.77472222 5.1277516 10.3562835 5.13701439 13.27324581 C5.14208893 14.12459164 5.14716347 14.97593746 5.15239179 15.85308164 C5.15288955 16.78352012 5.15338731 17.71395859 5.15390015 18.67259216 C5.1582824 19.66478526 5.16266465 20.65697835 5.1671797 21.6792379 C5.18056458 25.01329268 5.18674579 28.34732102 5.19287109 31.68139648 C5.20077205 34.06793334 5.209041 36.45446901 5.21765137 38.84100342 C5.24160097 46.00737584 5.25679488 53.1737535 5.26971143 60.34015259 C5.2734246 62.36406402 5.2773977 64.38797476 5.2814641 66.4118855 C5.30669399 78.98100397 5.32874616 91.55012355 5.34119225 104.11926174 C5.3441219 107.028808 5.34708358 109.93835422 5.35009766 112.84790039 C5.35084371 113.57104622 5.35158976 114.29419205 5.35235842 115.03925139 C5.36502145 126.76273904 5.39825981 138.48607535 5.43989949 150.2094922 C5.48229901 162.24540608 5.50588467 174.28124239 5.51111281 186.31723076 C5.51452841 193.07525779 5.52630143 199.83304796 5.55921555 206.59100151 C5.58919448 212.94481518 5.59564419 219.29821513 5.58383179 225.65208435 C5.58361023 227.98659873 5.59198282 230.32113175 5.60948563 232.65558052 C5.63204961 235.83769866 5.62394091 239.0183002 5.60800171 242.20042419 C5.6218838 243.12863194 5.63576588 244.05683969 5.65006864 245.01317495 C5.6394967 245.86712852 5.62892476 246.72108209 5.61803246 247.60091305 C5.61938898 248.33502248 5.62074551 249.06913191 5.62214315 249.82548708 C5 252 5 252 0 257 C0 172.19 0 87.38 0 0 Z " fill="#014071" transform="translate(316,48)"/>
<path d="M0 0 C7.26 0 14.52 0 22 0 C22 2.64 22 5.28 22 8 C17.71 8 13.42 8 9 8 C9 10.31 9 12.62 9 15 C12.96 15 16.92 15 21 15 C21 17.31 21 19.62 21 22 C17.04 22 13.08 22 9 22 C9 24.97 9 27.94 9 31 C13.29 31 17.58 31 22 31 C22 33.64 22 36.28 22 39 C14.74 39 7.48 39 0 39 C0 26.13 0 13.26 0 0 Z " fill="#010101" transform="translate(168,156)"/>
<path d="M0 0 C0.99 0.33 1.98 0.66 3 1 C3 3.97 3 6.94 3 10 C0.69 9.67 -1.62 9.34 -4 9 C-8.2797995 14.39626893 -8.64223997 19.27788833 -8 26 C-6.68772566 29.03465702 -6.68772566 29.03465702 -5 31 C-1.04 30.505 -1.04 30.505 3 30 C3.08096803 31.45742463 3.13917774 32.91612807 3.1875 34.375 C3.23970703 35.59316406 3.23970703 35.59316406 3.29296875 36.8359375 C3.19628906 37.55007812 3.09960938 38.26421875 3 39 C-0.75456567 41.50304378 -2.54745934 41.45280074 -7 41 C-12.7212369 38.08329099 -15.97377774 34.07866678 -18 28 C-18.67779859 18.63304574 -18.89001506 10.87380507 -12.6796875 3.4140625 C-8.59564528 -0.62534538 -5.37888554 -0.52907071 0 0 Z " fill="#070707" transform="translate(146,155)"/>
<path d="M0 0 C11.0438247 -0.60680356 11.0438247 -0.60680356 15.25 2.0625 C17.44810144 5.75217028 17.60485655 7.76600414 17 12 C15.34860695 15.5386994 14.28394771 16.81070153 11 19 C7.31619572 19.26655603 3.69863419 19.08702669 0 19 C0 12.73 0 6.46 0 0 Z " fill="#080808" transform="translate(238,274)"/>
<path d="M0 0 C1.13472628 2.26945256 1.12902122 3.50740252 1.13701439 6.02715015 C1.14208893 6.87451388 1.14716347 7.72187761 1.15239179 8.59491903 C1.15288955 9.53118318 1.15338731 10.46744733 1.15390015 11.43208313 C1.1582824 12.42256737 1.16266465 13.41305162 1.1671797 14.43355054 C1.18060281 17.77381745 1.18675441 21.11405797 1.19287109 24.4543457 C1.20076921 26.84058757 1.20903797 29.22682823 1.21765137 31.61306763 C1.24163563 38.78917422 1.25680311 45.9652861 1.26971143 53.14141944 C1.27342265 55.16767097 1.27739593 57.1939218 1.2814641 59.22017264 C1.30669857 71.79844115 1.32875528 84.37671073 1.34119225 96.95499897 C1.34412202 99.86900652 1.34708367 102.78301402 1.35009766 105.69702148 C1.35084371 106.42129832 1.35158976 107.14557515 1.35235842 107.89179977 C1.36501587 119.62834762 1.39824374 131.36474411 1.43989949 143.10122118 C1.48230008 155.14611185 1.50588505 167.19092498 1.51111281 179.23589009 C1.51452895 186.00065371 1.52630775 192.76518074 1.55921555 199.52987099 C1.58919639 205.89186575 1.59564349 212.25344734 1.58383179 218.61549759 C1.58361023 220.95323536 1.591983 223.29099176 1.60948563 225.62866402 C1.63204972 228.81526753 1.62394074 232.00035658 1.60800171 235.18696594 C1.6218838 236.11653793 1.63576588 237.04610992 1.65006864 238.00385076 C1.59748693 242.25729763 1.54650434 244.99530779 -1.53800011 248.11331463 C-2.35046007 248.7359208 -3.16292004 249.35852697 -4 250 C-4.20086443 246.28400809 -4.1519437 245.22791555 -2 242 C-1.69871007 240.03978649 -1.69871007 240.03978649 -1.74108028 237.86986351 C-1.73423149 237.02500873 -1.7273827 236.18015395 -1.72032636 235.30969751 C-1.72294322 234.38139961 -1.72556007 233.45310172 -1.72825623 232.49667358 C-1.72316939 231.51067976 -1.71808255 230.52468593 -1.71284157 229.5088135 C-1.69812498 226.18991857 -1.69764607 222.87117143 -1.69702148 219.55224609 C-1.68936412 217.17906911 -1.68081849 214.80589484 -1.67144775 212.432724 C-1.65075168 206.64754052 -1.63910098 200.86238848 -1.63115769 195.07717465 C-1.62131723 188.34542494 -1.59942091 181.61373106 -1.57652331 174.88201506 C-1.5359148 162.87546012 -1.50345646 150.86889826 -1.47680664 138.86230469 C-1.47520934 138.14352534 -1.47361204 137.424746 -1.47196633 136.68418546 C-1.47036743 135.96448644 -1.46876853 135.24478741 -1.46712118 134.50327933 C-1.44442305 124.29449811 -1.41979207 114.085724 -1.39282227 103.87695312 C-1.39092612 103.15844076 -1.38902997 102.4399284 -1.38707637 101.69964294 C-1.35534116 89.73609129 -1.31959539 77.77255357 -1.28178078 65.80901968 C-1.25663912 57.76503754 -1.23738911 49.72106628 -1.22239864 41.67705894 C-1.21223077 36.68502117 -1.19808527 31.69300027 -1.18292236 26.70097542 C-1.17674053 24.3760893 -1.17229607 22.05119786 -1.16966438 19.72630501 C-1.16588258 16.56729142 -1.15609555 13.40835325 -1.14476013 10.24935913 C-1.14533933 8.85022012 -1.14533933 8.85022012 -1.14593023 7.42281568 C-1.11406452 1.11406452 -1.11406452 1.11406452 0 0 Z " fill="#01477C" transform="translate(320,55)"/>
<path d="M0 0 C0.99 0.33 1.98 0.66 3 1 C-24.72 28.72 -52.44 56.44 -81 85 C-81.33 84.01 -81.66 83.02 -82 82 C-54.94 54.94 -27.88 27.88 0 0 Z " fill="#013F70" transform="translate(120,38)"/>
<path d="M0 0 C9.1796875 -0.1953125 9.1796875 -0.1953125 12 0 C14 2 14 2 14.1875 4.9375 C14 8 14 8 13 11 C13.30806453 13.07647876 13.30806453 13.07647876 13.9375 15.1875 C14.288125 16.445625 14.63875 17.70375 15 19 C13.35 19 11.7 19 10 19 C9.5978125 17.5459375 9.5978125 17.5459375 9.1875 16.0625 C8.795625 15.051875 8.40375 14.04125 8 13 C7.01 12.67 6.02 12.34 5 12 C5 14.31 5 16.62 5 19 C3.35 19 1.7 19 0 19 C0 12.73 0 6.46 0 0 Z " fill="#171717" transform="translate(137,274)"/>
<path d="M0 0 C0.99 0.66 1.98 1.32 3 2 C3.1875 5.625 3.1875 5.625 3 9 C1.35 9 -0.3 9 -2 9 C-2 7.35 -2 5.7 -2 4 C-2.66 4 -3.32 4 -4 4 C-4 8.62 -4 13.24 -4 18 C-3.34 18 -2.68 18 -2 18 C-2 16.35 -2 14.7 -2 13 C-0.35 13 1.3 13 3 13 C3.35789474 18.36842105 3.35789474 18.36842105 1.9375 20.875 C-1.1069286 22.64273274 -3.5631012 22.36823916 -7 22 C-8.6953125 20.9765625 -8.6953125 20.9765625 -10 19 C-10.29834873 16.23881175 -10.41911153 13.75451984 -10.375 11 C-10.38660156 10.27554688 -10.39820313 9.55109375 -10.41015625 8.8046875 C-10.39353024 5.80092139 -10.37538622 3.56982279 -8.6953125 1.01953125 C-5.83852427 -0.69849116 -3.23377716 -0.2887301 0 0 Z " fill="#EC2A30" transform="translate(223,53)"/>
<path d="M0 0 C1.9375 1.125 1.9375 1.125 3 3 C3.1875 6.1875 3.1875 6.1875 3 9 C1.02 9 -0.96 9 -3 9 C-3 7.35 -3 5.7 -3 4 C-3.66 4 -4.32 4 -5 4 C-5 8.62 -5 13.24 -5 18 C-4.34 18 -3.68 18 -3 18 C-3 16.35 -3 14.7 -3 13 C-1.02 13 0.96 13 3 13 C3.35789474 18.36842105 3.35789474 18.36842105 1.9375 20.875 C-1.1069286 22.64273274 -3.5631012 22.36823916 -7 22 C-8.6953125 20.9765625 -8.6953125 20.9765625 -10 19 C-10.29834873 16.23881175 -10.41911153 13.75451984 -10.375 11 C-10.38660156 10.27554688 -10.39820313 9.55109375 -10.41015625 8.8046875 C-10.39353737 5.80221031 -10.37716456 3.57139302 -8.6953125 1.0234375 C-5.80368073 -0.72220196 -3.2703039 -0.3503897 0 0 Z " fill="#EC282D" transform="translate(200,53)"/>
<path d="M0 0 C3.5625 0.25 3.5625 0.25 6.5625 2.25 C6.9609375 5.18359375 6.9609375 5.18359375 6.9375 8.6875 C6.94523438 9.84121094 6.95296875 10.99492188 6.9609375 12.18359375 C6.5625 15.25 6.5625 15.25 5.26171875 17.13671875 C2.40260723 19.00992975 -0.1420657 18.60950192 -3.4375 18.25 C-5.82604824 14.66717765 -5.70648802 12.93606967 -5.6875 8.6875 C-5.69265625 7.53121094 -5.6978125 6.37492187 -5.703125 5.18359375 C-5.30664423 0.80481349 -4.33668051 0.31539495 0 0 Z " fill="#ED3339" transform="translate(233.4375,56.75)"/>
<path d="M0 0 C3.63 0 7.26 0 11 0 C12.59412284 3.18824568 12.10174735 6.62896662 12.0625 10.125 C12.05798828 10.87910156 12.05347656 11.63320312 12.04882812 12.41015625 C12.03703499 14.27347127 12.01909942 16.13674555 12 18 C8.04 18 4.08 18 0 18 C0 12.06 0 6.12 0 0 Z " fill="#ED3238" transform="translate(257,57)"/>
<path d="M0 0 C3.96 0 7.92 0 12 0 C12 5.94 12 11.88 12 18 C10.39125 18.04125 8.7825 18.0825 7.125 18.125 C6.22007812 18.14820312 5.31515625 18.17140625 4.3828125 18.1953125 C2 18 2 18 0 16 C-0.14507695 13.25514407 -0.18652423 10.61519457 -0.125 7.875 C-0.11146484 6.74384766 -0.11146484 6.74384766 -0.09765625 5.58984375 C-0.0740687 3.72642746 -0.03819719 1.86317407 0 0 Z " fill="#ED3035" transform="translate(242,57)"/>
<path d="M0 0 C3.96 0 7.92 0 12 0 C12 0.99 12 1.98 12 3 C9.69 3 7.38 3 5 3 C5 4.32 5 5.64 5 7 C7.31 7 9.62 7 12 7 C12 8.32 12 9.64 12 11 C9.69 11 7.38 11 5 11 C5 12.32 5 13.64 5 15 C7.64 15 10.28 15 13 15 C13 16.32 13 17.64 13 19 C8.71 19 4.42 19 0 19 C0 12.73 0 6.46 0 0 Z " fill="#1B1B1B" transform="translate(118,274)"/>
<path d="M0 0 C3.96 0 7.92 0 12 0 C12 0.99 12 1.98 12 3 C9.36 3 6.72 3 4 3 C4 4.32 4 5.64 4 7 C6.64 7 9.28 7 12 7 C12 8.32 12 9.64 12 11 C9.69 11 7.38 11 5 11 C5 12.32 5 13.64 5 15 C7.64 15 10.28 15 13 15 C13 16.32 13 17.64 13 19 C8.71 19 4.42 19 0 19 C0 12.73 0 6.46 0 0 Z " fill="#181818" transform="translate(219,274)"/>
<path d="M0 0 C1.32 0.33 2.64 0.66 4 1 C4 14.53 4 28.06 4 42 C2.02 42.495 2.02 42.495 0 43 C0 28.81 0 14.62 0 0 Z " fill="#F4D1D1" transform="translate(157,129)"/>
<path d="M0 0 C2.97 0 5.94 0 9 0 C9 1.32 9 2.64 9 4 C7.68 4 6.36 4 5 4 C5 5.65 5 7.3 5 9 C6.32 9 7.64 9 9 9 C9 10.32 9 11.64 9 13 C7.68 13 6.36 13 5 13 C5 14.65 5 16.3 5 18 C6.65 18 8.3 18 10 18 C10 19.32 10 20.64 10 22 C6.7 22 3.4 22 0 22 C0 14.74 0 7.48 0 0 Z " fill="#EC292F" transform="translate(179,53)"/>
<path d="M0 0 C3.5625 0.375 3.5625 0.375 5.5 2.1875 C6.5625 4.375 6.5625 4.375 6.5625 7.375 C4.5825 7.375 2.6025 7.375 0.5625 7.375 C0.2325 10.015 -0.0975 12.655 -0.4375 15.375 C0.2225 15.375 0.8825 15.375 1.5625 15.375 C1.5625 13.725 1.5625 12.075 1.5625 10.375 C2.8825 10.375 4.2025 10.375 5.5625 10.375 C5.75 13.25 5.75 13.25 5.5625 16.375 C2.11004176 18.67663882 0.61511287 18.71990322 -3.4375 18.375 C-5.4375 16.375 -5.4375 16.375 -5.703125 13.1875 C-5.69796875 11.929375 -5.6928125 10.67125 -5.6875 9.375 C-5.69265625 8.116875 -5.6978125 6.85875 -5.703125 5.5625 C-5.3253722 1.02946636 -4.49241292 0.49008141 0 0 Z " fill="#EC2A2F" transform="translate(276.4375,56.625)"/>
<path d="M0 0 C1.22589844 0.01353516 1.22589844 0.01353516 2.4765625 0.02734375 C3.41628906 0.04474609 3.41628906 0.04474609 4.375 0.0625 C4.375 1.0525 4.375 2.0425 4.375 3.0625 C1.405 3.7225 -1.565 4.3825 -4.625 5.0625 C-4.645625 6.361875 -4.66625 7.66125 -4.6875 9 C-4.69910156 9.73089844 -4.71070312 10.46179688 -4.72265625 11.21484375 C-4.83061184 13.07982141 -4.83061184 13.07982141 -3.625 14.0625 C-2.27752916 14.29325082 -0.92122435 14.47403063 0.4375 14.625 C1.736875 14.769375 3.03625 14.91375 4.375 15.0625 C4.375 16.3825 4.375 17.7025 4.375 19.0625 C-4.53392963 19.67456387 -4.53392963 19.67456387 -8.1875 17.625 C-10.29111953 13.87506953 -10.96929202 10.35467387 -10.625 6.0625 C-7.67847526 1.18549354 -5.53092441 -0.07901321 0 0 Z " fill="#101010" transform="translate(107.625,273.9375)"/>
<path d="M0 0 C3.96 0 7.92 0 12 0 C12 0.99 12 1.98 12 3 C9.36 3 6.72 3 4 3 C4 4.65 4 6.3 4 8 C6.31 8 8.62 8 11 8 C11 8.99 11 9.98 11 11 C8.69 11 6.38 11 4 11 C4 13.64 4 16.28 4 19 C2.68 19 1.36 19 0 19 C0 12.73 0 6.46 0 0 Z " fill="#010101" transform="translate(189,274)"/>
<path d="M0 0 C1.65 0 3.3 0 5 0 C5 7.26 5 14.52 5 22 C3.35 22 1.7 22 0 22 C0 14.74 0 7.48 0 0 Z " fill="#EC2328" transform="translate(292,53)"/>
<path d="M0 0 C1.98 0 3.96 0 6 0 C6 5.94 6 11.88 6 18 C4.02 18 2.04 18 0 18 C0 12.06 0 6.12 0 0 Z " fill="#ED3338" transform="translate(284,57)"/>
<path d="M0 0 C4.62 0 9.24 0 14 0 C14 0.99 14 1.98 14 3 C12.35 3 10.7 3 9 3 C9 8.28 9 13.56 9 19 C7.68 19 6.36 19 5 19 C5 13.72 5 8.44 5 3 C3.35 3 1.7 3 0 3 C0 2.01 0 1.02 0 0 Z " fill="#000000" transform="translate(157,274)"/>
<path d="M0 0 C1.98 0 3.96 0 6 0 C8 2 8 2 8.3125 5.9375 C8.23719217 8.53091352 8.15247863 9.74319388 6.8125 12 C5 13 5 13 0 13 C0 8.71 0 4.42 0 0 Z " fill="#D6D6D6" transform="translate(242,277)"/>
<path d="M0 0 C1.65 0 3.3 0 5 0 C5 6.27 5 12.54 5 19 C3.35 19 1.7 19 0 19 C0 12.73 0 6.46 0 0 Z " fill="#222222" transform="translate(207,274)"/>
<path d="M0 0 C1.65 0 3.3 0 5 0 C5 6.27 5 12.54 5 19 C3.35 19 1.7 19 0 19 C0 12.73 0 6.46 0 0 Z " fill="#222222" transform="translate(177,274)"/>
<path d="M0 0 C2.64 0 5.28 0 8 0 C7.01 1.485 7.01 1.485 6 3 C5.70008931 5.58885171 5.49134775 8.09149082 5.375 10.6875 C5.33632813 11.38939453 5.29765625 12.09128906 5.2578125 12.81445312 C5.1637666 14.54254655 5.0808032 16.27123675 5 18 C3.35 18 1.7 18 0 18 C0 12.06 0 6.12 0 0 Z " fill="#EC2127" transform="translate(257,57)"/>
<path d="M0 0 C1.65 0 3.3 0 5 0 C5 5.94 5 11.88 5 18 C3.35 18 1.7 18 0 18 C-1.23102992 14.30691024 -0.87175152 11.11949288 -0.5625 7.3125 C-0.51029297 6.61060547 -0.45808594 5.90871094 -0.40429688 5.18554688 C-0.27492135 3.45661946 -0.13817469 1.72824645 0 0 Z " fill="#EC2126" transform="translate(249,57)"/>
<path d="M0 0 C2.31 0 4.62 0 7 0 C7.33 0.66 7.66 1.32 8 2 C10.02463255 2.65213292 10.02463255 2.65213292 12 3 C12.66 2.01 13.32 1.02 14 0 C14.66 0 15.32 0 16 0 C16 2.31 16 4.62 16 7 C10.72 7 5.44 7 0 7 C0 4.69 0 2.38 0 0 Z " fill="#343434" transform="translate(134,206)"/>
<path d="M0 0 C0.99 0 1.98 0 3 0 C3 9.24 3 18.48 3 28 C2.01 28 1.02 28 0 28 C0 18.76 0 9.52 0 0 Z " fill="#FF5959" transform="translate(157,190)"/>
<path d="M0 0 C0.99 0 1.98 0 3 0 C3 9.24 3 18.48 3 28 C2.01 28 1.02 28 0 28 C0 18.76 0 9.52 0 0 Z " fill="#FF8181" transform="translate(157,129)"/>
<path d="M0 0 C0.66 0 1.32 0 2 0 C2 1.65 2 3.3 2 5 C3.98 5 5.96 5 8 5 C8.33 4.01 8.66 3.02 9 2 C9 5.63 9 9.26 9 13 C8.01 13.495 8.01 13.495 7 14 C7 12.35 7 10.7 7 9 C5.35 9 3.7 9 2 9 C2 10.65 2 12.3 2 14 C1.34 14 0.68 14 0 14 C0 9.38 0 4.76 0 0 Z " fill="#F8E5E6" transform="translate(219,57)"/>
<path d="M0 0 C1.32 0.33 2.64 0.66 4 1 C4 13.21 4 25.42 4 38 C2.68 37.67 1.36 37.34 0 37 C0.99 37 1.98 37 3 37 C3 27.76 3 18.52 3 9 C2.01 9 1.02 9 0 9 C0 6.03 0 3.06 0 0 Z " fill="#F1BBBB" transform="translate(157,181)"/>
<path d="M0 0 C0.66 0.33 1.32 0.66 2 1 C0.67667408 5.99923125 -2.60768155 9.39786925 -7 12 C-7.99 11.67 -8.98 11.34 -10 11 C-9.64701919 8.0991395 -9.11271704 7.10483324 -6.93359375 5.078125 C-6.10988281 4.47484375 -5.28617187 3.8715625 -4.4375 3.25 C-3.61121094 2.63640625 -2.78492188 2.0228125 -1.93359375 1.390625 C-1.29550781 0.93171875 -0.65742188 0.4728125 0 0 Z " fill="#0A4879" transform="translate(316,306)"/>
<path d="M0 0 C0.99 0 1.98 0 3 0 C3 3.96 3 7.92 3 12 C2.01 12 1.02 12 0 12 C0 8.04 0 4.08 0 0 Z " fill="#FF1D1D" transform="translate(157,206)"/>
<path d="M0 0 C0.66 0 1.32 0 2 0 C2 2.31 2 4.62 2 7 C-0.31 6.67 -2.62 6.34 -5 6 C-5.33 4.68 -5.66 3.36 -6 2 C-4.68 2.33 -3.36 2.66 -2 3 C-1.34 2.01 -0.68 1.02 0 0 Z " fill="#272727" transform="translate(148,206)"/>
<path d="M0 0 C0.66 0 1.32 0 2 0 C2 0.66 2 1.32 2 2 C1.34 2 0.68 2 0 2 C0 2.99 0 3.98 0 5 C0.66 5 1.32 5 2 5 C2.33 4.01 2.66 3.02 3 2 C3.99 2 4.98 2 6 2 C6 3.65 6 5.3 6 7 C3.69 7 1.38 7 -1 7 C-1.625 4.625 -1.625 4.625 -2 2 C-1.34 1.34 -0.68 0.68 0 0 Z " fill="#272727" transform="translate(120,206)"/>
<path d="M0 0 C0.99 0 1.98 0 3 0 C3 3.96 3 7.92 3 12 C2.01 12 1.02 12 0 12 C0 8.04 0 4.08 0 0 Z " fill="#FE2121" transform="translate(157,129)"/>
<path d="M0 0 C2.31 0 4.62 0 7 0 C7 1.65 7 3.3 7 5 C4.69 5 2.38 5 0 5 C0 3.35 0 1.7 0 0 Z " fill="#292929" transform="translate(207,208)"/>
<path d="M0 0 C1.98 0 3.96 0 6 0 C5.67 1.65 5.34 3.3 5 5 C3.02 5 1.04 5 -1 5 C-0.67 3.35 -0.34 1.7 0 0 Z " fill="#303030" transform="translate(220,208)"/>
<path d="M0 0 C1.65 0 3.3 0 5 0 C5 2.31 5 4.62 5 7 C3.35 7 1.7 7 0 7 C0 4.69 0 2.38 0 0 Z " fill="#2D2D2D" transform="translate(201,206)"/>
<path d="M0 0 C0.66 0 1.32 0 2 0 C2 1.98 2 3.96 2 6 C0.02 6 -1.96 6 -4 6 C-4 4.68 -4 3.36 -4 2 C-2.68 2 -1.36 2 0 2 C0 1.34 0 0.68 0 0 Z " fill="#222222" transform="translate(190,207)"/>
<path d="M0 0 C0 0.66 0 1.32 0 2 C0.66 2 1.32 2 2 2 C1.67 3.32 1.34 4.64 1 6 C-0.65 6 -2.3 6 -4 6 C-4.33 4.68 -4.66 3.36 -5 2 C-2 0 -2 0 0 0 Z " fill="#202020" transform="translate(177,207)"/>
<path d="M0 0 C2.31 0 4.62 0 7 0 C7 1.32 7 2.64 7 4 C4.69 4 2.38 4 0 4 C0 2.68 0 1.36 0 0 Z " fill="#EC2B31" transform="translate(205,64)"/>
<path d="M0 0 C0 3.63053243 -1.2278255 4.95750337 -3.5546875 7.63671875 C-5.49136818 9.46347972 -7.46012234 10.27432067 -10 11 C-9 8 -9 8 -6.6875 6.625 C-3.68360048 4.80868866 -2.05456408 2.81551374 0 0 Z " fill="#014983" transform="translate(317,307)"/>
<path d="M0 0 C0.99 0 1.98 0 3 0 C3 2.97 3 5.94 3 9 C2.01 8.67 1.02 8.34 0 8 C0 5.36 0 2.72 0 0 Z " fill="#FFB1B1" transform="translate(157,157)"/>
<path d="M0 0 C2.97 0.33 5.94 0.66 9 1 C9.66 3.31 10.32 5.62 11 8 C10.45730469 7.59007812 9.91460937 7.18015625 9.35546875 6.7578125 C8.64003906 6.21898437 7.92460937 5.68015625 7.1875 5.125 C6.47980469 4.59132813 5.77210938 4.05765625 5.04296875 3.5078125 C3.39543703 2.29185219 1.70375789 1.13583859 0 0 Z " fill="#104D7C" transform="translate(303,36)"/>
<path d="M0 0 C0 1.98 0 3.96 0 6 C-0.66 6 -1.32 6 -2 6 C-2 5.01 -2 4.02 -2 3 C-2.66 3 -3.32 3 -4 3 C-4 3.99 -4 4.98 -4 6 C-4.66 6 -5.32 6 -6 6 C-6 4.35 -6 2.7 -6 1 C-3.92446352 0.4465236 -2.15634036 0 0 0 Z " fill="#272727" transform="translate(133,207)"/>
<path d="M0 0 C0.99 0 1.98 0 3 0 C3 2.64 3 5.28 3 8 C2.01 8 1.02 8 0 8 C0 5.36 0 2.72 0 0 Z " fill="#FF8888" transform="translate(157,190)"/>
<path d="M0 0 C0.99 0 1.98 0 3 0 C3 2.64 3 5.28 3 8 C2.01 8 1.02 8 0 8 C0 5.36 0 2.72 0 0 Z " fill="#FF5151" transform="translate(157,141)"/>
<path d="M0 0 C2.475 0.495 2.475 0.495 5 1 C4.67 2.32 4.34 3.64 4 5 C2.68 5 1.36 5 0 5 C0 3.35 0 1.7 0 0 Z " fill="#E1E1E1" transform="translate(142,277)"/>
<path d="M0 0 C-2.93720508 1.52299523 -5.9168649 2.80100302 -9 4 C-9.66 3.34 -10.32 2.68 -11 2 C-7.374967 -1.625033 -4.81746234 -1.01907857 0 0 Z " fill="#114E7E" transform="translate(132,35)"/>
<path d="M0 0 C0.66 0 1.32 0 2 0 C2.33 0.66 2.66 1.32 3 2 C3.66 2.33 4.32 2.66 5 3 C5 3.99 5 4.98 5 6 C3.35 6 1.7 6 0 6 C0 4.02 0 2.04 0 0 Z " fill="#242424" transform="translate(180,207)"/>
<path d="M0 0 C2.97 0.495 2.97 0.495 6 1 C6 1.99 6 2.98 6 4 C4.02 4 2.04 4 0 4 C0 2.68 0 1.36 0 0 Z " fill="#7D7D7D" transform="translate(228,134)"/>
<path d="M0 0 C0.66 0.33 1.32 0.66 2 1 C0.515 4.96 0.515 4.96 -1 9 C-1.66 8.67 -2.32 8.34 -3 8 C-3.1875 5.125 -3.1875 5.125 -3 2 C-2.01 1.34 -1.02 0.68 0 0 Z " fill="#124D7D" transform="translate(37,123)"/>
<path d="M0 0 C1.32 0.33 2.64 0.66 4 1 C4 2.32 4 3.64 4 5 C2.68 5.33 1.36 5.66 0 6 C0 4.02 0 2.04 0 0 Z " fill="#1A1A1A" transform="translate(168,207)"/>
<path d="M0 0 C1.98 0 3.96 0 6 0 C6 0.99 6 1.98 6 3 C4.02 3 2.04 3 0 3 C0 2.01 0 1.02 0 0 Z " fill="#EE4146" transform="translate(284,53)"/>
</svg>
