<?xml version="1.0" encoding="UTF-8"?>
<svg version="1.1" xmlns="http://www.w3.org/2000/svg" width="352" height="352">
<path d="M0 0 C1.0675753 -0.00445784 2.1351506 -0.00891569 3.23507667 -0.01350862 C4.41219348 -0.01332426 5.5893103 -0.01313989 6.80209732 -0.01294994 C8.04928866 -0.01662663 9.29647999 -0.02030332 10.58146501 -0.02409142 C14.05005586 -0.03411434 17.5186294 -0.03782868 20.98723269 -0.04048073 C24.72559756 -0.04438289 28.46394872 -0.05396124 32.20230484 -0.0626936 C41.23342043 -0.08245986 50.26453714 -0.09252413 59.29566896 -0.10142139 C63.5475302 -0.10580376 67.7993902 -0.11117068 72.05125046 -0.11641026 C86.18334444 -0.13342221 100.31543764 -0.14791694 114.44754028 -0.155159 C118.11522548 -0.15706892 121.78291068 -0.15898925 125.45059586 -0.16094494 C126.81798902 -0.16167055 126.81798902 -0.16167055 128.21300629 -0.16241082 C142.98413832 -0.17071322 157.75518942 -0.19605381 172.5262861 -0.22852562 C187.68779289 -0.26158426 202.84925853 -0.27960665 218.01080155 -0.28280324 C226.52496118 -0.28496937 235.03900276 -0.29373321 243.55312729 -0.31926441 C250.80328429 -0.34095505 258.05329459 -0.34902991 265.30348036 -0.33929763 C269.00261986 -0.33474822 272.70145655 -0.336676 276.40055466 -0.35605907 C280.41156912 -0.37689507 284.42191002 -0.36672078 288.4329567 -0.35352612 C289.60115062 -0.36449536 290.76934455 -0.37546461 291.9729383 -0.38676625 C298.50618562 -0.33476183 302.57478907 0.20523065 307.87149429 4.13422108 C311.833625 8.40915158 312.99458382 11.50814464 313.00571537 17.26272678 C313.01017321 18.33030208 313.01463106 19.39787738 313.01922399 20.49780345 C313.01894744 22.26347867 313.01894744 22.26347867 313.01866531 24.0648241 C313.022342 25.31201544 313.02601869 26.55920678 313.02980679 27.84419179 C313.03982971 31.31278264 313.04354405 34.78135619 313.0461961 38.24995947 C313.05009826 41.98832434 313.05967661 45.7266755 313.06840897 49.46503162 C313.08817523 58.49614721 313.0982395 67.52726393 313.10713676 76.55839574 C313.11151913 80.81025699 313.11688605 85.06211698 313.12212563 89.31397724 C313.13913758 103.44607122 313.15363231 117.57816442 313.16087437 131.71026707 C313.16278429 135.37795227 313.16470462 139.04563746 313.16666031 142.71332264 C313.16714405 143.62491808 313.16762779 144.53651352 313.16812619 145.47573307 C313.17642859 160.2468651 313.20176919 175.0179162 313.23424099 189.78901288 C313.26729963 204.95051967 313.28532202 220.11198531 313.28851861 235.27352834 C313.29068474 243.78768796 313.29944858 252.30172955 313.32497978 260.81585407 C313.34667042 268.06601108 313.35474528 275.31602137 313.345013 282.56620714 C313.34046359 286.26534664 313.34239137 289.96418334 313.36177444 293.66328144 C313.38261044 297.67429591 313.37243615 301.6846368 313.35924149 305.69568348 C313.37569535 307.44797437 313.37569535 307.44797437 313.39248163 309.23566508 C313.3404772 315.7689124 312.80048472 319.83751585 308.87149429 325.13422108 C304.59656379 329.09635178 301.49757073 330.2573106 295.74298859 330.26844215 C294.67541329 330.2729 293.60783799 330.27735784 292.50791192 330.28195077 C291.3307951 330.28176641 290.15367829 330.28158205 288.94089127 330.2813921 C287.69369993 330.28506879 286.44650859 330.28874547 285.16152358 330.29253358 C281.69293273 330.3025565 278.22435918 330.30627083 274.7557559 330.30892289 C271.01739103 330.31282504 267.27903987 330.3224034 263.54068375 330.33113575 C254.50956816 330.35090201 245.47845144 330.36096628 236.44731963 330.36986354 C232.19545838 330.37424591 227.94359839 330.37961283 223.69173813 330.38485241 C209.55964415 330.40186436 195.42755095 330.41635909 181.2954483 330.42360115 C177.6277631 330.42551107 173.96007791 330.4274314 170.29239273 330.42938709 C169.38079729 330.42987083 168.46920185 330.43035457 167.5299823 330.43085297 C152.75885027 330.43915537 137.98779917 330.46449597 123.21670249 330.49696777 C108.0551957 330.53002641 92.89373006 330.5480488 77.73218703 330.55124539 C69.21802741 330.55341153 60.70398582 330.56217537 52.1898613 330.58770657 C44.93970429 330.60939721 37.689694 330.61747206 30.43950823 330.60773978 C26.74036873 330.60319037 23.04153203 330.60511815 19.34243393 330.62450123 C15.33141946 330.64533723 11.32107857 330.63516294 7.31003189 330.62196827 C6.14183796 330.63293752 4.97364403 330.64390676 3.77005029 330.65520841 C-2.76319703 330.60320399 -6.83180048 330.06321151 -12.12850571 326.13422108 C-16.09063641 321.85929058 -17.25159523 318.76029751 -17.26272678 313.00571537 C-17.26718463 311.93814007 -17.27164247 310.87056477 -17.2762354 309.7706387 C-17.27605104 308.59352189 -17.27586668 307.41640507 -17.27567673 306.20361805 C-17.27935342 304.95642671 -17.2830301 303.70923538 -17.28681821 302.42425036 C-17.29684113 298.95565951 -17.30055546 295.48708597 -17.30320752 292.01848269 C-17.30710967 288.28011781 -17.31668803 284.54176665 -17.32542038 280.80341053 C-17.34518664 271.77229494 -17.35525091 262.74117823 -17.36414817 253.71004641 C-17.36853054 249.45818517 -17.37389746 245.20632517 -17.37913704 240.95446491 C-17.39614899 226.82237093 -17.41064372 212.69027773 -17.41788578 198.55817509 C-17.4197957 194.89048989 -17.42171603 191.22280469 -17.42367172 187.55511951 C-17.42415546 186.64352407 -17.4246392 185.73192863 -17.4251376 184.79270908 C-17.43344 170.02157705 -17.4587806 155.25052595 -17.4912524 140.47942927 C-17.52431104 125.31792249 -17.54233343 110.15645684 -17.54553002 94.99491382 C-17.54769616 86.48075419 -17.55646 77.96671261 -17.5819912 69.45258808 C-17.60368184 62.20243108 -17.61175669 54.95242078 -17.60202441 47.70223501 C-17.597475 44.00309551 -17.59940278 40.30425882 -17.61878586 36.60516071 C-17.63962186 32.59414625 -17.62944757 28.58380535 -17.6162529 24.57275867 C-17.62722215 23.40456475 -17.63819139 22.23637082 -17.64949304 21.03277707 C-17.59748862 14.49952975 -17.05749614 10.4309263 -13.12850571 5.13422108 C-8.85357521 1.17209037 -5.75458214 0.01113155 0 0 Z " fill="#EAE9E9" transform="translate(28.12850570678711,10.865778923034668)"/>
<path d="M0 0 C1.0675753 -0.00445784 2.1351506 -0.00891569 3.23507667 -0.01350862 C4.41219348 -0.01332426 5.5893103 -0.01313989 6.80209732 -0.01294994 C8.04928866 -0.01662663 9.29647999 -0.02030332 10.58146501 -0.02409142 C14.05005586 -0.03411434 17.5186294 -0.03782868 20.98723269 -0.04048073 C24.72559756 -0.04438289 28.46394872 -0.05396124 32.20230484 -0.0626936 C41.23342043 -0.08245986 50.26453714 -0.09252413 59.29566896 -0.10142139 C63.5475302 -0.10580376 67.7993902 -0.11117068 72.05125046 -0.11641026 C86.18334444 -0.13342221 100.31543764 -0.14791694 114.44754028 -0.155159 C118.11522548 -0.15706892 121.78291068 -0.15898925 125.45059586 -0.16094494 C126.81798902 -0.16167055 126.81798902 -0.16167055 128.21300629 -0.16241082 C142.98413832 -0.17071322 157.75518942 -0.19605381 172.5262861 -0.22852562 C187.68779289 -0.26158426 202.84925853 -0.27960665 218.01080155 -0.28280324 C226.52496118 -0.28496937 235.03900276 -0.29373321 243.55312729 -0.31926441 C250.80328429 -0.34095505 258.05329459 -0.34902991 265.30348036 -0.33929763 C269.00261986 -0.33474822 272.70145655 -0.336676 276.40055466 -0.35605907 C280.41156912 -0.37689507 284.42191002 -0.36672078 288.4329567 -0.35352612 C289.60115062 -0.36449536 290.76934455 -0.37546461 291.9729383 -0.38676625 C298.50618562 -0.33476183 302.57478907 0.20523065 307.87149429 4.13422108 C311.833625 8.40915158 312.99458382 11.50814464 313.00571537 17.26272678 C313.01017321 18.33030208 313.01463106 19.39787738 313.01922399 20.49780345 C313.01894744 22.26347867 313.01894744 22.26347867 313.01866531 24.0648241 C313.022342 25.31201544 313.02601869 26.55920678 313.02980679 27.84419179 C313.03982971 31.31278264 313.04354405 34.78135619 313.0461961 38.24995947 C313.05009826 41.98832434 313.05967661 45.7266755 313.06840897 49.46503162 C313.08817523 58.49614721 313.0982395 67.52726393 313.10713676 76.55839574 C313.11151913 80.81025699 313.11688605 85.06211698 313.12212563 89.31397724 C313.13913758 103.44607122 313.15363231 117.57816442 313.16087437 131.71026707 C313.16278429 135.37795227 313.16470462 139.04563746 313.16666031 142.71332264 C313.16714405 143.62491808 313.16762779 144.53651352 313.16812619 145.47573307 C313.17642859 160.2468651 313.20176919 175.0179162 313.23424099 189.78901288 C313.26729963 204.95051967 313.28532202 220.11198531 313.28851861 235.27352834 C313.29068474 243.78768796 313.29944858 252.30172955 313.32497978 260.81585407 C313.34667042 268.06601108 313.35474528 275.31602137 313.345013 282.56620714 C313.34046359 286.26534664 313.34239137 289.96418334 313.36177444 293.66328144 C313.38261044 297.67429591 313.37243615 301.6846368 313.35924149 305.69568348 C313.37569535 307.44797437 313.37569535 307.44797437 313.39248163 309.23566508 C313.3404772 315.7689124 312.80048472 319.83751585 308.87149429 325.13422108 C304.59656379 329.09635178 301.49757073 330.2573106 295.74298859 330.26844215 C294.67541329 330.2729 293.60783799 330.27735784 292.50791192 330.28195077 C291.3307951 330.28176641 290.15367829 330.28158205 288.94089127 330.2813921 C287.69369993 330.28506879 286.44650859 330.28874547 285.16152358 330.29253358 C281.69293273 330.3025565 278.22435918 330.30627083 274.7557559 330.30892289 C271.01739103 330.31282504 267.27903987 330.3224034 263.54068375 330.33113575 C254.50956816 330.35090201 245.47845144 330.36096628 236.44731963 330.36986354 C232.19545838 330.37424591 227.94359839 330.37961283 223.69173813 330.38485241 C209.55964415 330.40186436 195.42755095 330.41635909 181.2954483 330.42360115 C177.6277631 330.42551107 173.96007791 330.4274314 170.29239273 330.42938709 C169.38079729 330.42987083 168.46920185 330.43035457 167.5299823 330.43085297 C152.75885027 330.43915537 137.98779917 330.46449597 123.21670249 330.49696777 C108.0551957 330.53002641 92.89373006 330.5480488 77.73218703 330.55124539 C69.21802741 330.55341153 60.70398582 330.56217537 52.1898613 330.58770657 C44.93970429 330.60939721 37.689694 330.61747206 30.43950823 330.60773978 C26.74036873 330.60319037 23.04153203 330.60511815 19.34243393 330.62450123 C15.33141946 330.64533723 11.32107857 330.63516294 7.31003189 330.62196827 C6.14183796 330.63293752 4.97364403 330.64390676 3.77005029 330.65520841 C-2.76319703 330.60320399 -6.83180048 330.06321151 -12.12850571 326.13422108 C-16.09063641 321.85929058 -17.25159523 318.76029751 -17.26272678 313.00571537 C-17.26718463 311.93814007 -17.27164247 310.87056477 -17.2762354 309.7706387 C-17.27605104 308.59352189 -17.27586668 307.41640507 -17.27567673 306.20361805 C-17.27935342 304.95642671 -17.2830301 303.70923538 -17.28681821 302.42425036 C-17.29684113 298.95565951 -17.30055546 295.48708597 -17.30320752 292.01848269 C-17.30710967 288.28011781 -17.31668803 284.54176665 -17.32542038 280.80341053 C-17.34518664 271.77229494 -17.35525091 262.74117823 -17.36414817 253.71004641 C-17.36853054 249.45818517 -17.37389746 245.20632517 -17.37913704 240.95446491 C-17.39614899 226.82237093 -17.41064372 212.69027773 -17.41788578 198.55817509 C-17.4197957 194.89048989 -17.42171603 191.22280469 -17.42367172 187.55511951 C-17.42415546 186.64352407 -17.4246392 185.73192863 -17.4251376 184.79270908 C-17.43344 170.02157705 -17.4587806 155.25052595 -17.4912524 140.47942927 C-17.52431104 125.31792249 -17.54233343 110.15645684 -17.54553002 94.99491382 C-17.54769616 86.48075419 -17.55646 77.96671261 -17.5819912 69.45258808 C-17.60368184 62.20243108 -17.61175669 54.95242078 -17.60202441 47.70223501 C-17.597475 44.00309551 -17.59940278 40.30425882 -17.61878586 36.60516071 C-17.63962186 32.59414625 -17.62944757 28.58380535 -17.6162529 24.57275867 C-17.62722215 23.40456475 -17.63819139 22.23637082 -17.64949304 21.03277707 C-17.59748862 14.49952975 -17.05749614 10.4309263 -13.12850571 5.13422108 C-8.85357521 1.17209037 -5.75458214 0.01113155 0 0 Z M90.87149429 31.13422108 C90.20056307 31.73207196 89.52963184 32.32992285 88.83836937 32.94589043 C86.68517149 34.93286833 84.6164879 36.98342454 82.5536232 39.06390858 C81.38845169 40.22119465 81.38845169 40.22119465 80.19974136 41.40186024 C77.65829608 43.93020221 75.12786443 46.4692388 72.59805679 49.00922108 C70.82492489 50.7803301 69.05134802 52.55099375 67.27734756 54.3212328 C63.0995951 58.49401257 58.92960368 62.67443905 54.7623409 66.85769176 C50.97001053 70.66291336 47.16673977 74.45704376 43.36063826 78.24848461 C39.22699487 82.36684671 35.10185781 86.49363399 30.98023987 90.62402821 C29.23215595 92.37411099 27.4818473 94.12197456 25.72927094 95.86755848 C23.28317665 98.30602762 20.84691567 100.75391827 18.4129982 103.20453358 C17.68986435 103.92159473 16.9667305 104.63865589 16.2216835 105.37744617 C15.55743362 106.05015553 14.89318375 106.72286488 14.20880508 107.41595936 C13.34556594 108.28089512 13.34556594 108.28089512 12.46488762 109.16330433 C8.50358728 114.0631574 7.49531243 118.21493669 7.47708511 124.44559193 C7.47099401 125.15969561 7.46490291 125.8737993 7.45862722 126.60954249 C7.44204261 128.99081672 7.44676637 131.37155355 7.45157242 133.75287342 C7.44422942 135.46489992 7.43564251 137.17692147 7.42590714 138.88893604 C7.40370631 143.53157574 7.40075975 148.17403786 7.40265465 152.81672335 C7.40277442 156.69588373 7.39420753 160.57500659 7.38587713 164.45415652 C7.36664806 173.60795355 7.36375738 182.76165938 7.37051773 191.91547108 C7.37715784 201.35069228 7.35429423 210.78552248 7.317204 220.22066438 C7.28649015 228.3287218 7.27514881 236.43665356 7.27904081 244.54476798 C7.28110663 249.38412704 7.27565498 254.22318184 7.25114822 259.06248569 C7.22885587 263.61482349 7.23077947 268.16652639 7.25107574 272.7188673 C7.25448144 274.38612647 7.24941564 276.05342858 7.23509216 277.72062969 C6.9137029 289.93092003 6.9137029 289.93092003 12.87149429 300.13422108 C18.7853516 305.06004931 23.8911989 305.85668259 31.42251968 305.76913929 C32.46093286 305.77693924 33.49934603 305.7847392 34.56922626 305.79277551 C38.03623246 305.81266159 41.5021369 305.79694321 44.96915054 305.78119373 C47.45978815 305.7879713 49.95042074 305.79687521 52.44104385 305.80774403 C58.49607977 305.82816251 64.550686 305.8251936 70.60570502 305.81068082 C75.52824046 305.79937251 80.45068909 305.79786453 85.3732338 305.8032999 C86.42555587 305.80444915 86.42555587 305.80444915 87.49913698 305.80562162 C88.92447689 305.8072203 90.34981677 305.80884137 91.77515662 305.81048457 C105.12945894 305.82473019 118.48358943 305.80836807 131.83786356 305.78148274 C143.28763639 305.75914497 154.73715573 305.76302544 166.18692398 305.78607655 C179.49458455 305.81285563 192.80209465 305.82335701 206.1097784 305.80801523 C207.52977051 305.80642254 208.94976264 305.80485069 210.36975479 305.8032999 C211.41765241 305.80214284 211.41765241 305.80214284 212.48671967 305.8009624 C217.40132047 305.7966517 222.31582555 305.8039183 227.23041153 305.81569767 C233.84942029 305.83121404 240.46802509 305.82011095 247.08701324 305.79122639 C249.51538804 305.78461825 251.94380314 305.78650849 254.37216187 305.79753971 C257.68880672 305.81121639 261.00392138 305.79405126 264.3204689 305.76913929 C265.28001008 305.7802929 266.23955126 305.79144651 267.22816944 305.8029381 C273.65518819 305.70938784 277.88004039 304.23262161 282.87149429 300.13422108 C286.55181986 296.17079354 287.99418025 293.19547085 288.00292206 287.81502533 C288.0067632 286.9279699 288.01060435 286.04091447 288.01456189 285.12697858 C288.01326217 283.66377414 288.01326217 283.66377414 288.01193619 282.17101002 C288.01490731 281.13545784 288.01787843 280.09990566 288.02093959 279.03297311 C288.02964489 275.54612516 288.03113638 272.05931147 288.03262711 268.5724535 C288.03725396 266.07931412 288.04227844 263.58617545 288.04767227 261.09303761 C288.06081052 254.3079035 288.06728048 247.52278286 288.07168293 240.73763919 C288.07444509 236.50142177 288.0786824 232.26520663 288.0831871 228.02899075 C288.09537985 216.30140768 288.10567921 204.57382645 288.10906219 192.84623718 C288.10928176 192.09557866 288.10950133 191.34492014 288.10972755 190.57151439 C288.10994582 189.81905465 288.1101641 189.06659492 288.11038899 188.29133338 C288.11083246 186.7665505 288.11127902 185.24176762 288.11172867 183.71698475 C288.1119501 182.96063896 288.11217153 182.20429318 288.11239967 181.42502782 C288.11634793 169.16871031 288.13380277 156.91245224 288.15708819 144.65615769 C288.18079898 132.07447331 288.19326392 119.49281875 288.19443011 106.91111165 C288.19534702 99.84626485 288.20110323 92.78149551 288.21924973 85.71667004 C288.2362558 79.07239902 288.23790536 72.42824917 288.22911072 65.78395367 C288.22833821 63.34344305 288.23271104 60.90292465 288.24256897 58.46243382 C288.25522563 55.1342401 288.24944552 51.80657272 288.23898697 48.47838306 C288.24704337 47.50960561 288.25509978 46.54082815 288.26340032 45.54269379 C288.21834448 39.42426305 287.46482072 34.94562268 283.15274429 30.27093983 C282.56493179 29.79269764 281.97711929 29.31445545 281.37149429 28.82172108 C280.78368179 28.33058826 280.19586929 27.83945545 279.59024429 27.33343983 C275.87283991 24.73970541 272.31403933 24.99721118 267.92761612 24.9735918 C266.86136385 24.96596007 266.86136385 24.96596007 265.77357113 24.95817417 C263.38547845 24.94244578 260.99741604 24.93392356 258.60928726 24.92548084 C256.89932946 24.91594258 255.18937359 24.90605143 253.47941971 24.89583302 C247.85753039 24.86444098 242.23562624 24.84417862 236.61368179 24.82562733 C235.65694266 24.82233001 234.70020352 24.81903268 233.71447229 24.81563544 C224.68963167 24.78485142 215.66478771 24.75814621 206.63990974 24.74121666 C195.10103776 24.71931682 183.56263149 24.67736137 172.02394569 24.60777909 C163.90831538 24.56050353 155.79281057 24.53627825 147.6770469 24.52901977 C142.83135813 24.52406839 137.98619421 24.50903668 133.14065552 24.46927547 C128.57848189 24.43233343 124.01713121 24.42402408 119.45483589 24.43728161 C117.78474569 24.43722778 116.11461833 24.42698154 114.44466591 24.40552998 C105.14726698 24.29253027 97.99749836 24.45099602 90.87149429 31.13422108 Z " fill="#66306A" transform="translate(28.12850570678711,10.865778923034668)"/>
<path d="M0 0 C0.84715606 0.00037972 1.69431211 0.00075944 2.56713957 0.00115067 C3.54099798 -0.00084038 4.51485639 -0.00283143 5.51822567 -0.00488281 C6.6008874 -0.00196997 7.68354914 0.00094287 8.7990188 0.00394398 C10.5092671 0.00266234 10.5092671 0.00266234 12.25406587 0.00135481 C15.43286061 -0.00001331 18.61161512 0.00313395 21.79040509 0.00813287 C25.21305073 0.01243423 28.63569434 0.01099118 32.05834192 0.0102306 C37.99297848 0.00970516 43.92760407 0.012854 49.86223787 0.01846844 C58.44281858 0.0265808 67.02339396 0.02919839 75.60397809 0.03045643 C89.52397005 0.03264737 103.44395616 0.03930858 117.36394495 0.04875904 C130.88933527 0.05793208 144.41472402 0.06501344 157.94011682 0.06926686 C159.18978039 0.06966094 159.18978039 0.06966094 160.46468968 0.07006299 C164.64397492 0.07136798 168.82326016 0.0726317 173.00254542 0.07387489 C207.69731623 0.0842488 242.39208024 0.10186825 277.08684534 0.1241985 C277.1884568 7.82875484 277.25840013 15.53313768 277.3065719 23.23821217 C277.32665861 25.85806953 277.35393323 28.47788221 277.38860315 31.09758717 C277.43724813 34.86828867 277.45984442 38.63839617 277.47747034 42.40935475 C277.49811548 43.57628361 277.51876062 44.74321247 277.54003137 45.94550282 C277.54185462 52.58742924 277.106186 56.75111518 273.08684534 62.1241985 C268.96003886 65.94149448 265.33819456 68.36976896 259.65018839 68.38426071 C258.76237531 68.39132631 257.87456223 68.3983919 256.95984572 68.4056716 C255.98865318 68.40325651 255.01746063 68.40084143 254.01683801 68.39835316 C252.46434481 68.40620818 252.46434481 68.40620818 250.8804881 68.41422188 C247.40138354 68.42926157 243.92242553 68.42992791 240.44329065 68.43059498 C237.95324702 68.43821383 235.46320574 68.44664085 232.97316736 68.45581776 C226.20034505 68.47779769 219.42758193 68.48658813 212.65473264 68.4916442 C208.42468862 68.49490177 204.19465369 68.50142464 199.96461481 68.50864559 C188.24986432 68.52821164 176.53512228 68.54461565 164.8203544 68.54752213 C164.07073412 68.5477097 163.32111385 68.54789727 162.5487778 68.54809052 C161.02914916 68.54845677 159.50952051 68.54882047 157.98989186 68.54918163 C157.23555838 68.54936444 156.4812249 68.54954725 155.70403284 68.54973561 C154.94877718 68.54991615 154.19352151 68.5500967 153.41537932 68.55028272 C141.17982452 68.55382373 128.94444579 68.58084141 116.70895204 68.61823349 C104.14303945 68.6563276 91.57721419 68.67567969 79.01124257 68.67598164 C71.95747006 68.67656599 64.90390756 68.68504307 57.85018915 68.7139793 C51.21486487 68.74107418 44.57988382 68.7423886 37.94449991 68.72632366 C35.50966099 68.72450574 33.07479838 68.73123065 30.64001077 68.74714237 C27.31444238 68.76754964 23.99033675 68.7570808 20.66478723 68.73892933 C19.22138275 68.75872928 19.22138275 68.75872928 17.74881858 68.77892923 C11.35132608 68.69924127 7.00507058 67.30150581 2.08684534 63.1241985 C-3.57695143 56.87130728 -3.59936698 50.72795544 -3.43659216 42.56560475 C-3.4318891 41.38070957 -3.42718603 40.1958144 -3.42234045 38.97501332 C-3.40108029 35.21163787 -3.34446605 31.44969498 -3.28815466 27.6866985 C-3.27164044 25.13007109 -3.25729422 22.57342869 -3.24518591 20.01677662 C-3.21126048 15.36693755 -3.17680086 10.71723796 -3.10602576 6.06780201 C-3.09316534 5.13484806 -3.08030493 4.20189411 -3.06705481 3.24066883 C-2.86902904 0.51737282 -2.72834414 0.1771191 0 0 Z " fill="#E5E5E5" transform="translate(38.913154661655426,247.8758015036583)"/>
<path d="M0 0 C1.0675753 -0.00445784 2.1351506 -0.00891569 3.23507667 -0.01350862 C4.41219348 -0.01332426 5.5893103 -0.01313989 6.80209732 -0.01294994 C8.04928866 -0.01662663 9.29647999 -0.02030332 10.58146501 -0.02409142 C14.05005586 -0.03411434 17.5186294 -0.03782868 20.98723269 -0.04048073 C24.72559756 -0.04438289 28.46394872 -0.05396124 32.20230484 -0.0626936 C41.23342043 -0.08245986 50.26453714 -0.09252413 59.29566896 -0.10142139 C63.5475302 -0.10580376 67.7993902 -0.11117068 72.05125046 -0.11641026 C86.18334444 -0.13342221 100.31543764 -0.14791694 114.44754028 -0.155159 C118.11522548 -0.15706892 121.78291068 -0.15898925 125.45059586 -0.16094494 C126.81798902 -0.16167055 126.81798902 -0.16167055 128.21300629 -0.16241082 C142.98413832 -0.17071322 157.75518942 -0.19605381 172.5262861 -0.22852562 C187.68779289 -0.26158426 202.84925853 -0.27960665 218.01080155 -0.28280324 C226.52496118 -0.28496937 235.03900276 -0.29373321 243.55312729 -0.31926441 C250.80328429 -0.34095505 258.05329459 -0.34902991 265.30348036 -0.33929763 C269.00261986 -0.33474822 272.70145655 -0.336676 276.40055466 -0.35605907 C280.41156912 -0.37689507 284.42191002 -0.36672078 288.4329567 -0.35352612 C289.60115062 -0.36449536 290.76934455 -0.37546461 291.9729383 -0.38676625 C298.50618562 -0.33476183 302.57478907 0.20523065 307.87149429 4.13422108 C311.833625 8.40915158 312.99458382 11.50814464 313.00571537 17.26272678 C313.01017321 18.33030208 313.01463106 19.39787738 313.01922399 20.49780345 C313.01894744 22.26347867 313.01894744 22.26347867 313.01866531 24.0648241 C313.022342 25.31201544 313.02601869 26.55920678 313.02980679 27.84419179 C313.03982971 31.31278264 313.04354405 34.78135619 313.0461961 38.24995947 C313.05009826 41.98832434 313.05967661 45.7266755 313.06840897 49.46503162 C313.08817523 58.49614721 313.0982395 67.52726393 313.10713676 76.55839574 C313.11151913 80.81025699 313.11688605 85.06211698 313.12212563 89.31397724 C313.13913758 103.44607122 313.15363231 117.57816442 313.16087437 131.71026707 C313.16278429 135.37795227 313.16470462 139.04563746 313.16666031 142.71332264 C313.16714405 143.62491808 313.16762779 144.53651352 313.16812619 145.47573307 C313.17642859 160.2468651 313.20176919 175.0179162 313.23424099 189.78901288 C313.26729963 204.95051967 313.28532202 220.11198531 313.28851861 235.27352834 C313.29068474 243.78768796 313.29944858 252.30172955 313.32497978 260.81585407 C313.34667042 268.06601108 313.35474528 275.31602137 313.345013 282.56620714 C313.34046359 286.26534664 313.34239137 289.96418334 313.36177444 293.66328144 C313.38261044 297.67429591 313.37243615 301.6846368 313.35924149 305.69568348 C313.37569535 307.44797437 313.37569535 307.44797437 313.39248163 309.23566508 C313.3404772 315.7689124 312.80048472 319.83751585 308.87149429 325.13422108 C304.59656379 329.09635178 301.49757073 330.2573106 295.74298859 330.26844215 C294.67541329 330.2729 293.60783799 330.27735784 292.50791192 330.28195077 C291.3307951 330.28176641 290.15367829 330.28158205 288.94089127 330.2813921 C287.69369993 330.28506879 286.44650859 330.28874547 285.16152358 330.29253358 C281.69293273 330.3025565 278.22435918 330.30627083 274.7557559 330.30892289 C271.01739103 330.31282504 267.27903987 330.3224034 263.54068375 330.33113575 C254.50956816 330.35090201 245.47845144 330.36096628 236.44731963 330.36986354 C232.19545838 330.37424591 227.94359839 330.37961283 223.69173813 330.38485241 C209.55964415 330.40186436 195.42755095 330.41635909 181.2954483 330.42360115 C177.6277631 330.42551107 173.96007791 330.4274314 170.29239273 330.42938709 C169.38079729 330.42987083 168.46920185 330.43035457 167.5299823 330.43085297 C152.75885027 330.43915537 137.98779917 330.46449597 123.21670249 330.49696777 C108.0551957 330.53002641 92.89373006 330.5480488 77.73218703 330.55124539 C69.21802741 330.55341153 60.70398582 330.56217537 52.1898613 330.58770657 C44.93970429 330.60939721 37.689694 330.61747206 30.43950823 330.60773978 C26.74036873 330.60319037 23.04153203 330.60511815 19.34243393 330.62450123 C15.33141946 330.64533723 11.32107857 330.63516294 7.31003189 330.62196827 C6.14183796 330.63293752 4.97364403 330.64390676 3.77005029 330.65520841 C-2.76319703 330.60320399 -6.83180048 330.06321151 -12.12850571 326.13422108 C-16.09063641 321.85929058 -17.25159523 318.76029751 -17.26272678 313.00571537 C-17.26718463 311.93814007 -17.27164247 310.87056477 -17.2762354 309.7706387 C-17.27605104 308.59352189 -17.27586668 307.41640507 -17.27567673 306.20361805 C-17.27935342 304.95642671 -17.2830301 303.70923538 -17.28681821 302.42425036 C-17.29684113 298.95565951 -17.30055546 295.48708597 -17.30320752 292.01848269 C-17.30710967 288.28011781 -17.31668803 284.54176665 -17.32542038 280.80341053 C-17.34518664 271.77229494 -17.35525091 262.74117823 -17.36414817 253.71004641 C-17.36853054 249.45818517 -17.37389746 245.20632517 -17.37913704 240.95446491 C-17.39614899 226.82237093 -17.41064372 212.69027773 -17.41788578 198.55817509 C-17.4197957 194.89048989 -17.42171603 191.22280469 -17.42367172 187.55511951 C-17.42415546 186.64352407 -17.4246392 185.73192863 -17.4251376 184.79270908 C-17.43344 170.02157705 -17.4587806 155.25052595 -17.4912524 140.47942927 C-17.52431104 125.31792249 -17.54233343 110.15645684 -17.54553002 94.99491382 C-17.54769616 86.48075419 -17.55646 77.96671261 -17.5819912 69.45258808 C-17.60368184 62.20243108 -17.61175669 54.95242078 -17.60202441 47.70223501 C-17.597475 44.00309551 -17.59940278 40.30425882 -17.61878586 36.60516071 C-17.63962186 32.59414625 -17.62944757 28.58380535 -17.6162529 24.57275867 C-17.62722215 23.40456475 -17.63819139 22.23637082 -17.64949304 21.03277707 C-17.59748862 14.49952975 -17.05749614 10.4309263 -13.12850571 5.13422108 C-8.85357521 1.17209037 -5.75458214 0.01113155 0 0 Z M-13.12850571 13.13422108 C-14.37020247 15.61761461 -14.25724815 17.26953188 -14.26272678 20.04876804 C-14.26718463 21.09406862 -14.27164247 22.1393692 -14.2762354 23.21634555 C-14.27605104 24.37371164 -14.27586668 25.53107772 -14.27567673 26.72351551 C-14.27935342 27.94605667 -14.2830301 29.16859784 -14.28681821 30.4281857 C-14.2959575 33.83256897 -14.30055746 37.23690399 -14.30320752 40.64129496 C-14.30710603 44.3087648 -14.31668469 47.97622062 -14.32542038 51.64368153 C-14.3451978 60.50613111 -14.3552527 69.36858185 -14.36414817 78.23104799 C-14.36852905 82.40234825 -14.37389638 86.57364723 -14.37913704 90.74494648 C-14.39615073 104.6076414 -14.41064547 118.47033552 -14.41788578 132.33303928 C-14.41979574 135.93180562 -14.42171606 139.53057195 -14.42367172 143.12933826 C-14.42415546 144.02381783 -14.4246392 144.9182974 -14.4251376 145.8398824 C-14.43343999 160.33369368 -14.45877978 174.82742247 -14.4912524 189.32119772 C-14.52430426 204.19451489 -14.54233285 219.06779013 -14.54553002 233.94114423 C-14.54769688 242.29487962 -14.5564711 250.64849475 -14.5819912 259.0021944 C-14.60367266 266.11589519 -14.61176127 273.2294465 -14.60202441 280.34317657 C-14.59747221 283.97332831 -14.59941883 287.6031715 -14.61878586 291.23328114 C-14.63959676 295.16798037 -14.62945621 299.102252 -14.6162529 303.03699207 C-14.62722215 304.18543527 -14.63819139 305.33387847 -14.64949304 306.51712298 C-14.58958953 313.887221 -13.66770691 317.40921181 -8.56600571 322.77875233 C-3.9435397 326.53450595 -0.8701498 327.25750909 4.96687412 327.26564884 C6.00160652 327.26948999 7.03633891 327.27333113 8.10242683 327.27728868 C9.23772132 327.27642219 10.37301581 327.27555571 11.54271317 327.27466297 C13.35352852 327.27911965 13.35352852 327.27911965 15.20092601 327.28366637 C18.55325588 327.29084684 21.90553452 327.2935257 25.25786841 327.29426384 C28.87283186 327.29611512 32.48778421 327.3036628 36.10274124 327.31039906 C44.00767942 327.32397945 51.91261253 327.33000652 59.81756043 327.33440971 C64.75314393 327.33717241 69.68872546 327.34140979 74.62430763 327.34591389 C88.28892297 327.35810574 101.95353673 327.3684055 115.61815739 327.37178898 C116.4926689 327.37200854 117.36718041 327.37222811 118.26819227 327.37245433 C119.14479626 327.37267261 120.02140025 327.37289089 120.924568 327.37311578 C122.70090346 327.37355924 124.47723891 327.37400581 126.25357437 327.37445545 C127.57526006 327.3747876 127.57526006 327.3747876 128.92364647 327.37512645 C143.20324373 327.37907507 157.48278998 327.39653139 171.76236752 327.41981497 C186.42218087 327.44352569 201.08196861 327.45599069 215.74180144 327.4571569 C223.97311315 327.45807377 232.20435838 327.46382924 240.43565178 327.48197651 C247.44422418 327.49737365 254.45270955 327.50250022 261.46129564 327.49423841 C265.03685172 327.49033063 268.6122325 327.4912676 272.18776703 327.50529575 C276.0650286 327.52036856 279.94204324 327.51217197 283.81932449 327.50171375 C284.94792682 327.50977016 286.07652915 327.51782656 287.23933154 327.5261271 C294.06690502 327.48297099 299.45765809 327.06522387 304.83243179 322.45062733 C305.29907242 321.87183826 305.76571304 321.2930492 306.24649429 320.69672108 C306.72860367 320.12051014 307.21071304 319.5442992 307.70743179 318.95062733 C309.91911556 315.49951004 309.99731558 312.05925358 310.00292206 308.03884125 C310.0067632 307.00410886 310.01060435 305.96937646 310.01456189 304.90328854 C310.01326217 303.20034681 310.01326217 303.20034681 310.01193619 301.4630022 C310.01490731 300.25579197 310.01787843 299.04858173 310.02093959 297.80478936 C310.02812005 294.45245949 310.03079892 291.10018085 310.03153706 287.74784696 C310.03338834 284.13288351 310.04093601 280.51793116 310.04767227 276.90297413 C310.06125266 268.99803595 310.06727974 261.09310284 310.07168293 253.18815494 C310.07444562 248.25257144 310.07868301 243.31698991 310.0831871 238.38140774 C310.09537896 224.7167924 310.10567872 211.05217864 310.10906219 197.38755798 C310.10928176 196.51304647 310.10950133 195.63853496 310.10972755 194.7375231 C310.10994582 193.86091911 310.1101641 192.98431512 310.11038899 192.08114737 C310.11083246 190.30481191 310.11127902 188.52847646 310.11172867 186.752141 C310.1119501 185.87101721 310.11217153 184.98989341 310.11239967 184.0820689 C310.11634828 169.80247164 310.13380461 155.5229254 310.15708819 141.24334785 C310.1807989 126.5835345 310.1932639 111.92374676 310.19443011 97.26391393 C310.19534699 89.03260222 310.20110245 80.80135699 310.21924973 72.57006359 C310.23464687 65.56149119 310.23977344 58.55300582 310.23151162 51.54441973 C310.22760385 47.96886365 310.22854081 44.39348287 310.24256897 40.81794834 C310.25764178 36.94068677 310.24944519 33.06367213 310.23898697 29.18639088 C310.24704337 28.05778855 310.25509978 26.92918622 310.26340032 25.76638383 C310.22032382 18.95140632 309.84900696 13.46319961 305.11758804 8.17328358 C304.52075211 7.70664295 303.92391617 7.24000233 303.30899429 6.75922108 C302.4098732 6.03605701 302.4098732 6.03605701 301.49258804 5.29828358 C298.50298212 3.15153041 296.5970241 3.00717559 292.95694733 3 C291.91164675 2.99554216 290.86634617 2.99108431 289.78936982 2.98649138 C288.63200373 2.98667574 287.47463765 2.98686011 286.28219986 2.98705006 C285.0596587 2.98337337 283.83711753 2.97969668 282.57752967 2.97590858 C279.1731464 2.96676929 275.76881138 2.96216933 272.36442041 2.95951927 C268.69695057 2.95562075 265.02949475 2.9460421 261.36203384 2.9373064 C252.49958426 2.91752899 243.63713352 2.90747409 234.77466738 2.89857861 C230.60336712 2.89419773 226.43206814 2.8888304 222.26076889 2.88358974 C208.39807397 2.86657606 194.53537985 2.85208132 180.67267609 2.844841 C177.07390975 2.84293104 173.47514342 2.84101072 169.87637711 2.83905506 C168.53465776 2.83832945 168.53465776 2.83832945 167.16583297 2.83758918 C152.67202169 2.8292868 138.1782929 2.80394701 123.68451765 2.77147438 C108.81120048 2.73842253 93.93792524 2.72039393 79.06457114 2.71719676 C70.71083575 2.7150299 62.35722062 2.70625568 54.00352097 2.68073559 C46.88982018 2.65905412 39.77626887 2.65096551 32.6625388 2.66070237 C29.03238706 2.66525457 25.40254387 2.66330795 21.77243423 2.64394093 C17.837735 2.62313003 13.90346337 2.63327058 9.9687233 2.64647388 C8.8202801 2.63550464 7.6718369 2.62453539 6.48859239 2.61323375 C-3.20306984 2.69200672 -7.33161157 5.51544593 -13.12850571 13.13422108 Z " fill="#C4C0C4" transform="translate(28.12850570678711,10.865778923034668)"/>
<path d="M0 0 C2.64 0 5.28 0 8 0 C8 4.29 8 8.58 8 13 C10.31 13 12.62 13 15 13 C15 8.71 15 4.42 15 0 C17.64 0 20.28 0 23 0 C23 11.55 23 23.1 23 35 C20.36 35 17.72 35 15 35 C15 30.05 15 25.1 15 20 C12.69 20 10.38 20 8 20 C8 24.95 8 29.9 8 35 C5.36 35 2.72 35 0 35 C0 23.45 0 11.9 0 0 Z " fill="#030303" transform="translate(165,159)"/>
<path d="M0 0 C0 2.64 0 5.28 0 8 C-1.6396875 8.37125 -1.6396875 8.37125 -3.3125 8.75 C-6.90193958 9.7182912 -6.90193958 9.7182912 -8.9375 11.625 C-10.97587758 16.18137342 -10.5584277 20.35961864 -9 24.9375 C-5.95925449 28.0732688 -3.29225612 27.78890544 1 28 C1 30.64 1 33.28 1 36 C-2.10953379 37.5547669 -4.56266761 37.28644437 -8 37 C-11.25 35.1875 -11.25 35.1875 -14 33 C-14.5775 32.54625 -15.155 32.0925 -15.75 31.625 C-19.86353411 26.27740566 -19.58853158 19.41779672 -19 13 C-17.73108156 7.29519863 -14.5781041 4.31181999 -10 1 C-6.78548731 -0.60725635 -3.56387464 -0.05748185 0 0 Z " fill="#090909" transform="translate(141,158)"/>
<path d="M0 0 C5.28 0 10.56 0 16 0 C16 2.64 16 5.28 16 8 C13.36 8 10.72 8 8 8 C8 9.98 8 11.96 8 14 C10.31 14 12.62 14 15 14 C15 16.64 15 19.28 15 22 C12.69 22 10.38 22 8 22 C8 26.29 8 30.58 8 35 C5.36 35 2.72 35 0 35 C0 23.45 0 11.9 0 0 Z " fill="#040404" transform="translate(198,159)"/>
<path d="M0 0 C11.0438247 -0.60680356 11.0438247 -0.60680356 15.25 2.0625 C17.44810144 5.75217028 17.60485655 7.76600414 17 12 C15.34860695 15.5386994 14.28394771 16.81070153 11 19 C7.31619572 19.26655603 3.69863419 19.08702669 0 19 C0 12.73 0 6.46 0 0 Z " fill="#080808" transform="translate(238,274)"/>
<path d="M0 0 C2.64 0 5.28 0 8 0 C8 11.55 8 23.1 8 35 C5.36 35 2.72 35 0 35 C0 23.45 0 11.9 0 0 Z " fill="#000000" transform="translate(222,159)"/>
<path d="M0 0 C0.99 0.495 0.99 0.495 2 1 C-26 29 -54 57 -82 85 C-81.79128396 79.32816073 -78.00955936 76.46763027 -74.20458984 72.73461914 C-73.49392365 72.02176254 -72.78325745 71.30890594 -72.05105591 70.57444763 C-69.69719285 68.21827171 -67.32934574 65.87670384 -64.9609375 63.53515625 C-63.31923709 61.89838069 -61.67834857 60.26079043 -60.03823853 58.62242126 C-56.59576912 55.18759718 -53.1469407 51.75933982 -49.69287109 48.33618164 C-45.276161 43.95893726 -40.87018823 39.57109103 -36.46831322 35.17893314 C-32.26102561 30.9816517 -28.04882614 26.78931471 -23.8359375 22.59765625 C-23.03671246 21.80182695 -22.23748741 21.00599766 -21.41404343 20.18605232 C-19.13593979 17.91960301 -16.85443646 15.65663553 -14.57177734 13.39477539 C-13.90656067 12.73224762 -13.24134399 12.06971985 -12.55596924 11.38711548 C-8.5179578 7.39490629 -4.3516105 3.64866006 0 0 Z " fill="#4C234F" transform="translate(120,39)"/>
<path d="M0 0 C9.1796875 -0.1953125 9.1796875 -0.1953125 12 0 C14 2 14 2 14.1875 4.9375 C14 8 14 8 13 11 C13.30806453 13.07647876 13.30806453 13.07647876 13.9375 15.1875 C14.288125 16.445625 14.63875 17.70375 15 19 C13.35 19 11.7 19 10 19 C9.5978125 17.5459375 9.5978125 17.5459375 9.1875 16.0625 C8.795625 15.051875 8.40375 14.04125 8 13 C7.01 12.67 6.02 12.34 5 12 C5 14.31 5 16.62 5 19 C3.35 19 1.7 19 0 19 C0 12.73 0 6.46 0 0 Z " fill="#171717" transform="translate(137,274)"/>
<path d="M0 0 C0.99 0.66 1.98 1.32 3 2 C3.1875 5.625 3.1875 5.625 3 9 C1.35 9 -0.3 9 -2 9 C-2 7.35 -2 5.7 -2 4 C-2.66 4 -3.32 4 -4 4 C-4 8.62 -4 13.24 -4 18 C-3.34 18 -2.68 18 -2 18 C-2 16.35 -2 14.7 -2 13 C-0.35 13 1.3 13 3 13 C3.35789474 18.36842105 3.35789474 18.36842105 1.9375 20.875 C-1.1069286 22.64273274 -3.5631012 22.36823916 -7 22 C-8.6953125 20.9765625 -8.6953125 20.9765625 -10 19 C-10.29834873 16.23881175 -10.41911153 13.75451984 -10.375 11 C-10.38660156 10.27554688 -10.39820313 9.55109375 -10.41015625 8.8046875 C-10.39353024 5.80092139 -10.37538622 3.56982279 -8.6953125 1.01953125 C-5.83852427 -0.69849116 -3.23377716 -0.2887301 0 0 Z " fill="#EC2A30" transform="translate(223,53)"/>
<path d="M0 0 C1.9375 1.125 1.9375 1.125 3 3 C3.1875 6.1875 3.1875 6.1875 3 9 C1.02 9 -0.96 9 -3 9 C-3 7.35 -3 5.7 -3 4 C-3.66 4 -4.32 4 -5 4 C-5 8.62 -5 13.24 -5 18 C-4.34 18 -3.68 18 -3 18 C-3 16.35 -3 14.7 -3 13 C-1.02 13 0.96 13 3 13 C3.35789474 18.36842105 3.35789474 18.36842105 1.9375 20.875 C-1.1069286 22.64273274 -3.5631012 22.36823916 -7 22 C-8.6953125 20.9765625 -8.6953125 20.9765625 -10 19 C-10.29834873 16.23881175 -10.41911153 13.75451984 -10.375 11 C-10.38660156 10.27554688 -10.39820313 9.55109375 -10.41015625 8.8046875 C-10.39353737 5.80221031 -10.37716456 3.57139302 -8.6953125 1.0234375 C-5.80368073 -0.72220196 -3.2703039 -0.3503897 0 0 Z " fill="#EC282D" transform="translate(200,53)"/>
<path d="M0 0 C3.5625 0.25 3.5625 0.25 6.5625 2.25 C6.9609375 5.18359375 6.9609375 5.18359375 6.9375 8.6875 C6.94523438 9.84121094 6.95296875 10.99492188 6.9609375 12.18359375 C6.5625 15.25 6.5625 15.25 5.26171875 17.13671875 C2.40260723 19.00992975 -0.1420657 18.60950192 -3.4375 18.25 C-5.82604824 14.66717765 -5.70648802 12.93606967 -5.6875 8.6875 C-5.69265625 7.53121094 -5.6978125 6.37492187 -5.703125 5.18359375 C-5.30664423 0.80481349 -4.33668051 0.31539495 0 0 Z " fill="#ED3339" transform="translate(233.4375,56.75)"/>
<path d="M0 0 C3.63 0 7.26 0 11 0 C12.59412284 3.18824568 12.10174735 6.62896662 12.0625 10.125 C12.05798828 10.87910156 12.05347656 11.63320312 12.04882812 12.41015625 C12.03703499 14.27347127 12.01909942 16.13674555 12 18 C8.04 18 4.08 18 0 18 C0 12.06 0 6.12 0 0 Z " fill="#ED3238" transform="translate(257,57)"/>
<path d="M0 0 C3.96 0 7.92 0 12 0 C12 5.94 12 11.88 12 18 C10.39125 18.04125 8.7825 18.0825 7.125 18.125 C6.22007812 18.14820312 5.31515625 18.17140625 4.3828125 18.1953125 C2 18 2 18 0 16 C-0.14507695 13.25514407 -0.18652423 10.61519457 -0.125 7.875 C-0.11146484 6.74384766 -0.11146484 6.74384766 -0.09765625 5.58984375 C-0.0740687 3.72642746 -0.03819719 1.86317407 0 0 Z " fill="#ED3035" transform="translate(242,57)"/>
<path d="M0 0 C3.96 0 7.92 0 12 0 C12 0.99 12 1.98 12 3 C9.69 3 7.38 3 5 3 C5 4.32 5 5.64 5 7 C7.31 7 9.62 7 12 7 C12 8.32 12 9.64 12 11 C9.69 11 7.38 11 5 11 C5 12.32 5 13.64 5 15 C7.64 15 10.28 15 13 15 C13 16.32 13 17.64 13 19 C8.71 19 4.42 19 0 19 C0 12.73 0 6.46 0 0 Z " fill="#1B1B1B" transform="translate(118,274)"/>
<path d="M0 0 C3.96 0 7.92 0 12 0 C12 0.99 12 1.98 12 3 C9.36 3 6.72 3 4 3 C4 4.32 4 5.64 4 7 C6.64 7 9.28 7 12 7 C12 8.32 12 9.64 12 11 C9.69 11 7.38 11 5 11 C5 12.32 5 13.64 5 15 C7.64 15 10.28 15 13 15 C13 16.32 13 17.64 13 19 C8.71 19 4.42 19 0 19 C0 12.73 0 6.46 0 0 Z " fill="#181818" transform="translate(219,274)"/>
<path d="M0 0 C2.97 0 5.94 0 9 0 C9 1.32 9 2.64 9 4 C7.68 4 6.36 4 5 4 C5 5.65 5 7.3 5 9 C6.32 9 7.64 9 9 9 C9 10.32 9 11.64 9 13 C7.68 13 6.36 13 5 13 C5 14.65 5 16.3 5 18 C6.65 18 8.3 18 10 18 C10 19.32 10 20.64 10 22 C6.7 22 3.4 22 0 22 C0 14.74 0 7.48 0 0 Z " fill="#EC292F" transform="translate(179,53)"/>
<path d="M0 0 C3.5625 0.375 3.5625 0.375 5.5 2.1875 C6.5625 4.375 6.5625 4.375 6.5625 7.375 C4.5825 7.375 2.6025 7.375 0.5625 7.375 C0.2325 10.015 -0.0975 12.655 -0.4375 15.375 C0.2225 15.375 0.8825 15.375 1.5625 15.375 C1.5625 13.725 1.5625 12.075 1.5625 10.375 C2.8825 10.375 4.2025 10.375 5.5625 10.375 C5.75 13.25 5.75 13.25 5.5625 16.375 C2.11004176 18.67663882 0.61511287 18.71990322 -3.4375 18.375 C-5.4375 16.375 -5.4375 16.375 -5.703125 13.1875 C-5.69796875 11.929375 -5.6928125 10.67125 -5.6875 9.375 C-5.69265625 8.116875 -5.6978125 6.85875 -5.703125 5.5625 C-5.3253722 1.02946636 -4.49241292 0.49008141 0 0 Z " fill="#EC2A2F" transform="translate(276.4375,56.625)"/>
<path d="M0 0 C1.22589844 0.01353516 1.22589844 0.01353516 2.4765625 0.02734375 C3.41628906 0.04474609 3.41628906 0.04474609 4.375 0.0625 C4.375 1.0525 4.375 2.0425 4.375 3.0625 C1.405 3.7225 -1.565 4.3825 -4.625 5.0625 C-4.645625 6.361875 -4.66625 7.66125 -4.6875 9 C-4.69910156 9.73089844 -4.71070312 10.46179688 -4.72265625 11.21484375 C-4.83061184 13.07982141 -4.83061184 13.07982141 -3.625 14.0625 C-2.27752916 14.29325082 -0.92122435 14.47403063 0.4375 14.625 C1.736875 14.769375 3.03625 14.91375 4.375 15.0625 C4.375 16.3825 4.375 17.7025 4.375 19.0625 C-4.53392963 19.67456387 -4.53392963 19.67456387 -8.1875 17.625 C-10.29111953 13.87506953 -10.96929202 10.35467387 -10.625 6.0625 C-7.67847526 1.18549354 -5.53092441 -0.07901321 0 0 Z " fill="#101010" transform="translate(107.625,273.9375)"/>
<path d="M0 0 C3.96 0 7.92 0 12 0 C12 0.99 12 1.98 12 3 C9.36 3 6.72 3 4 3 C4 4.65 4 6.3 4 8 C6.31 8 8.62 8 11 8 C11 8.99 11 9.98 11 11 C8.69 11 6.38 11 4 11 C4 13.64 4 16.28 4 19 C2.68 19 1.36 19 0 19 C0 12.73 0 6.46 0 0 Z " fill="#010101" transform="translate(189,274)"/>
<path d="M0 0 C1.65 0 3.3 0 5 0 C5 7.26 5 14.52 5 22 C3.35 22 1.7 22 0 22 C0 14.74 0 7.48 0 0 Z " fill="#EC2328" transform="translate(292,53)"/>
<path d="M0 0 C1.98 0 3.96 0 6 0 C6 5.94 6 11.88 6 18 C4.02 18 2.04 18 0 18 C0 12.06 0 6.12 0 0 Z " fill="#ED3338" transform="translate(284,57)"/>
<path d="M0 0 C4.62 0 9.24 0 14 0 C14 0.99 14 1.98 14 3 C12.35 3 10.7 3 9 3 C9 8.28 9 13.56 9 19 C7.68 19 6.36 19 5 19 C5 13.72 5 8.44 5 3 C3.35 3 1.7 3 0 3 C0 2.01 0 1.02 0 0 Z " fill="#000000" transform="translate(157,274)"/>
<path d="M0 0 C1.32 0 2.64 0 4 0 C4 0.66 4 1.32 4 2 C9.61 2 15.22 2 21 2 C21 2.99 21 3.98 21 5 C20.67 4.67 20.34 4.34 20 4 C19.67 5.65 19.34 7.3 19 9 C18.34 9 17.68 9 17 9 C17 8.34 17 7.68 17 7 C15.78441406 7.01160156 14.56882812 7.02320313 13.31640625 7.03515625 C11.73177236 7.04453278 10.14713682 7.05363313 8.5625 7.0625 C7.76005859 7.07087891 6.95761719 7.07925781 6.13085938 7.08789062 C4.08704779 7.0965143 2.04316098 7.0522815 0 7 C-1 6 -1 6 -1.125 3.5 C-1 1 -1 1 0 0 Z " fill="#B2B2B2" transform="translate(111,203)"/>
<path d="M0 0 C0.99 0 1.98 0 3 0 C3 11.22 3 22.44 3 34 C1.515 34.495 1.515 34.495 0 35 C0 23.45 0 11.9 0 0 Z " fill="#ED494E" transform="translate(152,139)"/>
<path d="M0 0 C0.66 0 1.32 0 2 0 C2 0.66 2 1.32 2 2 C2.99 2 3.98 2 5 2 C5.33 1.34 5.66 0.68 6 0 C6.33 0.66 6.66 1.32 7 2 C10.28414305 2.95067299 11.69693408 3.10102197 15 2 C15.33 3.98 15.66 5.96 16 8 C15.18917969 7.9278125 14.37835938 7.855625 13.54296875 7.78125 C6.33964043 7.17747859 -0.77252181 6.86964468 -8 7 C-7.67 5.35 -7.34 3.7 -7 2 C-4.69 2 -2.38 2 0 2 C0 1.34 0 0.68 0 0 Z " fill="#868686" transform="translate(179,199)"/>
<path d="M0 0 C1.98 0 3.96 0 6 0 C8 2 8 2 8.3125 5.9375 C8.23719217 8.53091352 8.15247863 9.74319388 6.8125 12 C5 13 5 13 0 13 C0 8.71 0 4.42 0 0 Z " fill="#D6D6D6" transform="translate(242,277)"/>
<path d="M0 0 C1.65 0 3.3 0 5 0 C5 6.27 5 12.54 5 19 C3.35 19 1.7 19 0 19 C0 12.73 0 6.46 0 0 Z " fill="#222222" transform="translate(207,274)"/>
<path d="M0 0 C1.65 0 3.3 0 5 0 C5 6.27 5 12.54 5 19 C3.35 19 1.7 19 0 19 C0 12.73 0 6.46 0 0 Z " fill="#222222" transform="translate(177,274)"/>
<path d="M0 0 C2.64 0 5.28 0 8 0 C7.01 1.485 7.01 1.485 6 3 C5.70008931 5.58885171 5.49134775 8.09149082 5.375 10.6875 C5.33632813 11.38939453 5.29765625 12.09128906 5.2578125 12.81445312 C5.1637666 14.54254655 5.0808032 16.27123675 5 18 C3.35 18 1.7 18 0 18 C0 12.06 0 6.12 0 0 Z " fill="#EC2127" transform="translate(257,57)"/>
<path d="M0 0 C1.65 0 3.3 0 5 0 C5 5.94 5 11.88 5 18 C3.35 18 1.7 18 0 18 C-1.23102992 14.30691024 -0.87175152 11.11949288 -0.5625 7.3125 C-0.51029297 6.61060547 -0.45808594 5.90871094 -0.40429688 5.18554688 C-0.27492135 3.45661946 -0.13817469 1.72824645 0 0 Z " fill="#EC2126" transform="translate(249,57)"/>
<path d="M0 0 C0.66 0 1.32 0 2 0 C2.33 0.66 2.66 1.32 3 2 C3.33 1.34 3.66 0.68 4 0 C5.32 0 6.64 0 8 0 C8.66 0.66 9.32 1.32 10 2 C10.66 1.34 11.32 0.68 12 0 C14.3828125 -0.1953125 14.3828125 -0.1953125 17.125 -0.125 C18.03507812 -0.10695312 18.94515625 -0.08890625 19.8828125 -0.0703125 C20.58148438 -0.04710937 21.28015625 -0.02390625 22 0 C21.67 2.31 21.34 4.62 21 7 C20.01 7 19.02 7 18 7 C17.67 5.35 17.34 3.7 17 2 C16.01 2 15.02 2 14 2 C14.66 2.33 15.32 2.66 16 3 C15.67 4.32 15.34 5.64 15 7 C12.03 7 9.06 7 6 7 C5.67 5.68 5.34 4.36 5 3 C4.01 3.99 3.02 4.98 2 6 C1.34 4.02 0.68 2.04 0 0 Z " fill="#868686" transform="translate(175,209)"/>
<path d="M0 0 C0.66 0 1.32 0 2 0 C3.07917226 3.23751678 3.11425601 5.57751771 3.09765625 8.98046875 C3.09282227 10.72553711 3.09282227 10.72553711 3.08789062 12.50585938 C3.07951172 13.72080078 3.07113281 14.93574219 3.0625 16.1875 C3.05798828 17.41404297 3.05347656 18.64058594 3.04882812 19.90429688 C3.03703065 22.93624668 3.02056921 25.96809906 3 29 C2.01 29 1.02 29 0 29 C0 19.43 0 9.86 0 0 Z " fill="#EC2228" transform="translate(152,192)"/>
<path d="M0 0 C0.66 0 1.32 0 2 0 C2 1.65 2 3.3 2 5 C3.98 5 5.96 5 8 5 C8.33 4.01 8.66 3.02 9 2 C9 5.63 9 9.26 9 13 C8.01 13.495 8.01 13.495 7 14 C7 12.35 7 10.7 7 9 C5.35 9 3.7 9 2 9 C2 10.65 2 12.3 2 14 C1.34 14 0.68 14 0 14 C0 9.38 0 4.76 0 0 Z " fill="#F8E5E6" transform="translate(219,57)"/>
<path d="M0 0 C5.28 0.33 10.56 0.66 16 1 C15.67 2.65 15.34 4.3 15 6 C14.01 5.34 13.02 4.68 12 4 C11.67 4.66 11.34 5.32 11 6 C7.28400809 6.20086443 6.22791555 6.1519437 3 4 C2.67 4.66 2.34 5.32 2 6 C1.34 6 0.68 6 0 6 C0 4.02 0 2.04 0 0 Z " fill="#969696" transform="translate(200,200)"/>
<path d="M0 0 C0.99 0.33 1.98 0.66 3 1 C3 4.3 3 7.6 3 11 C2.67 10.01 2.34 9.02 2 8 C1.34 8 0.68 8 0 8 C0 17.57 0 27.14 0 37 C-0.33 37 -0.66 37 -1 37 C-1.02471738 32.21281308 -1.04286825 27.4256633 -1.05493164 22.63842773 C-1.05996065 21.00984042 -1.06678465 19.38125763 -1.07543945 17.75268555 C-1.08756769 15.41193528 -1.09324263 13.0712447 -1.09765625 10.73046875 C-1.10281754 10.00224411 -1.10797882 9.27401947 -1.11329651 8.52372742 C-1.11364279 5.40397712 -0.99455604 2.98366812 0 0 Z " fill="#E3B6B7" transform="translate(152,184)"/>
<path d="M0 0 C0.99 0.33 1.98 0.66 3 1 C0.61001006 7.21397384 -3.83090169 11.87791204 -9 16 C-12.29296875 17.265625 -12.29296875 17.265625 -15 18 C-15 17.01 -15 16.02 -15 15 C-14.39671875 14.69707031 -13.7934375 14.39414062 -13.171875 14.08203125 C-6.46716503 10.56746554 -2.52362062 7.36056014 0 0 Z " fill="#58315B" transform="translate(316,301)"/>
<path d="M0 0 C0.33 1.32 0.66 2.64 1 4 C2.98 4 4.96 4 7 4 C7.33 3.01 7.66 2.02 8 1 C8 4.63 8 8.26 8 12 C7.01 12.495 7.01 12.495 6 13 C6 11.02 6 9.04 6 7 C4.68 7 3.36 7 2 7 C2 8.65 2 10.3 2 12 C1.34 12 0.68 12 0 12 C0 8.04 0 4.08 0 0 Z " fill="#F8E8E8" transform="translate(276,60)"/>
<path d="M0 0 C1.62463842 -0.05395478 3.24978541 -0.09277195 4.875 -0.125 C5.77992188 -0.14820313 6.68484375 -0.17140625 7.6171875 -0.1953125 C10 0 10 0 12 2 C11.8125 4.0625 11.8125 4.0625 11 6 C10.01 6.33 9.02 6.66 8 7 C6.5 5.625 6.5 5.625 5 4 C5 3.34 5 2.68 5 2 C4.34 2 3.68 2 3 2 C2.67 3.32 2.34 4.64 2 6 C1.34 4.02 0.68 2.04 0 0 Z " fill="#B6B6B6" transform="translate(213,209)"/>
<path d="M0 0 C0.33 0.66 0.66 1.32 1 2 C1.99 1.34 2.98 0.68 4 0 C5.32 0 6.64 0 8 0 C8.625 1.8125 8.625 1.8125 9 4 C8.01 5.485 8.01 5.485 7 7 C5.0546875 7.29296875 5.0546875 7.29296875 2.875 7.1875 C1.59625 7.125625 0.3175 7.06375 -1 7 C-0.67 4.69 -0.34 2.38 0 0 Z " fill="#A5A5A5" transform="translate(198,209)"/>
<path d="M0 0 C0.33 0 0.66 0 1 0 C1 11.22 1 22.44 1 34 C2.485 33.505 2.485 33.505 4 33 C4 34.32 4 35.64 4 37 C2.68 37 1.36 37 0 37 C0 24.79 0 12.58 0 0 Z " fill="#EABABB" transform="translate(151,140)"/>
<path d="M0 0 C3.63 0 7.26 0 11 0 C11 0.99 11 1.98 11 3 C10.67 2.67 10.34 2.34 10 2 C9.67 3.65 9.34 5.3 9 7 C8.34 7 7.68 7 7 7 C7 6.34 7 5.68 7 5 C6.21625 5.020625 5.4325 5.04125 4.625 5.0625 C2 5 2 5 0 4 C0 2.68 0 1.36 0 0 Z " fill="#7B7B7B" transform="translate(121,205)"/>
<path d="M0 0 C0.66 0.33 1.32 0.66 2 1 C1.67 2.98 1.34 4.96 1 7 C-1.97 7 -4.94 7 -8 7 C-7.67 5.35 -7.34 3.7 -7 2 C-4.69 2 -2.38 2 0 2 C0 1.34 0 0.68 0 0 Z " fill="#9E9E9E" transform="translate(179,199)"/>
<path d="M0 0 C0.66 0 1.32 0 2 0 C3.07917226 3.23751678 3.11425601 5.57751771 3.09765625 8.98046875 C3.09282227 10.72553711 3.09282227 10.72553711 3.08789062 12.50585938 C3.07951172 13.72080078 3.07113281 14.93574219 3.0625 16.1875 C3.05798828 17.41404297 3.05347656 18.64058594 3.04882812 19.90429688 C3.03703065 22.93624668 3.02056921 25.96809906 3 29 C2.67 29 2.34 29 2 29 C1.67 21.74 1.34 14.48 1 7 C0.67 7 0.34 7 0 7 C0 4.69 0 2.38 0 0 Z " fill="#EB5357" transform="translate(152,192)"/>
<path d="M0 0 C1.65 0 3.3 0 5 0 C5.33 2.31 5.66 4.62 6 7 C3.69 7 1.38 7 -1 7 C-0.67 4.69 -0.34 2.38 0 0 Z " fill="#9D9D9D" transform="translate(165,209)"/>
<path d="M0 0 C0.66 0 1.32 0 2 0 C2.33 0.66 2.66 1.32 3 2 C3.33 1.34 3.66 0.68 4 0 C5.32 0 6.64 0 8 0 C8.66 1.32 9.32 2.64 10 4 C9.34 4 8.68 4 8 4 C8 4.66 8 5.32 8 6 C8.99 5.67 9.98 5.34 11 5 C11 5.66 11 6.32 11 7 C9.35 7 7.7 7 6 7 C5.67 5.68 5.34 4.36 5 3 C4.01 3.99 3.02 4.98 2 6 C1.34 4.02 0.68 2.04 0 0 Z " fill="#7F7F7F" transform="translate(175,209)"/>
<path d="M0 0 C0.33 0.66 0.66 1.32 1 2 C2.32 2 3.64 2 5 2 C4 4 4 4 3 5 C3.99 5.33 4.98 5.66 6 6 C5 7 5 7 2.6875 7.1875 C-0.0779203 6.9945637 -1.64045051 6.39825155 -4 5 C-4 4.01 -4 3.02 -4 2 C-2.68 2 -1.36 2 0 2 C0 1.34 0 0.68 0 0 Z " fill="#808080" transform="translate(226,199)"/>
<path d="M0 0 C1.134375 0.020625 2.26875 0.04125 3.4375 0.0625 C2.4475 0.5575 2.4475 0.5575 1.4375 1.0625 C1.7675 2.3825 2.0975 3.7025 2.4375 5.0625 C0.4575 5.0625 -1.5225 5.0625 -3.5625 5.0625 C-4.125 3.125 -4.125 3.125 -4.5625 1.0625 C-3.5625 0.0625 -3.5625 0.0625 0 0 Z " fill="#919191" transform="translate(145.5625,204.9375)"/>
<path d="M0 0 C2.625 -0.1875 2.625 -0.1875 5 0 C5.33 1.65 5.66 3.3 6 5 C3.125 5.125 3.125 5.125 0 5 C-0.66 4.34 -1.32 3.68 -2 3 C-1.34 2.01 -0.68 1.02 0 0 Z " fill="#A0A0A0" transform="translate(116,205)"/>
<path d="M0 0 C0.33 1.98 0.66 3.96 1 6 C-1.31 6 -3.62 6 -6 6 C-6 4.35 -6 2.7 -6 1 C-3.92446352 0.4465236 -2.15634036 0 0 0 Z " fill="#7A7A7A" transform="translate(140,204)"/>
<path d="M0 0 C2.31 0 4.62 0 7 0 C7 1.32 7 2.64 7 4 C4.69 4 2.38 4 0 4 C0 2.68 0 1.36 0 0 Z " fill="#EC2B31" transform="translate(205,64)"/>
<path d="M0 0 C1.32 0 2.64 0 4 0 C4.33 2.31 4.66 4.62 5 7 C2 7 2 7 -1 6 C-0.67 4.02 -0.34 2.04 0 0 Z " fill="#878787" transform="translate(226,209)"/>
<path d="M0 0 C0.99 0 1.98 0 3 0 C3 2.64 3 5.28 3 8 C2.01 7.67 1.02 7.34 0 7 C-0.33 7.99 -0.66 8.98 -1 10 C-0.67 6.7 -0.34 3.4 0 0 Z " fill="#F6DDDD" transform="translate(152,177)"/>
<path d="M0 0 C0.99 0.33 1.98 0.66 3 1 C3 4.3 3 7.6 3 11 C2.67 10.01 2.34 9.02 2 8 C1.34 8 0.68 8 0 8 C0 5.36 0 2.72 0 0 Z " fill="#F39698" transform="translate(152,184)"/>
<path d="M0 0 C1.65 0 3.3 0 5 0 C5 1.98 5 3.96 5 6 C3.35 6 1.7 6 0 6 C0 4.02 0 2.04 0 0 Z " fill="#818181" transform="translate(165,200)"/>
<path d="M0 0 C0.763125 0.20625 1.52625 0.4125 2.3125 0.625 C1.9825 1.945 1.6525 3.265 1.3125 4.625 C0.3225 4.625 -0.6675 4.625 -1.6875 4.625 C-1.6875 3.965 -1.6875 3.305 -1.6875 2.625 C-3.0075 2.955 -4.3275 3.285 -5.6875 3.625 C-5.6875 2.965 -5.6875 2.305 -5.6875 1.625 C-2.6875 -0.375 -2.6875 -0.375 0 0 Z " fill="#AFAFAF" transform="translate(188.6875,211.375)"/>
<path d="M0 0 C2.475 0.495 2.475 0.495 5 1 C4.67 2.32 4.34 3.64 4 5 C2.68 5 1.36 5 0 5 C0 3.35 0 1.7 0 0 Z " fill="#E1E1E1" transform="translate(142,277)"/>
<path d="M0 0 C1.98 0 3.96 0 6 0 C6.66 1.98 7.32 3.96 8 6 C7.34 6 6.68 6 6 6 C5.67 4.68 5.34 3.36 5 2 C4.34 2 3.68 2 3 2 C2.67 3.32 2.34 4.64 2 6 C1.34 4.02 0.68 2.04 0 0 Z " fill="#797979" transform="translate(213,209)"/>
<path d="M0 0 C0.33 1.98 0.66 3.96 1 6 C-1.97 5.505 -1.97 5.505 -5 5 C-4.625 3.0625 -4.625 3.0625 -4 1 C-2 0 -2 0 0 0 Z " fill="#737373" transform="translate(194,201)"/>
<path d="M0 0 C2.31 0 4.62 0 7 0 C7 1.32 7 2.64 7 4 C5.02 4 3.04 4 1 4 C0.67 2.68 0.34 1.36 0 0 Z " fill="#989898" transform="translate(235,139)"/>
<path d="M0 0 C1.32 0 2.64 0 4 0 C3 2 3 2 2 3 C2.99 3.33 3.98 3.66 5 4 C3.35 4.33 1.7 4.66 0 5 C0 3.35 0 1.7 0 0 Z " fill="#A2A2A2" transform="translate(227,201)"/>
<path d="M0 0 C0.33 0 0.66 0 1 0 C1 1.65 1 3.3 1 5 C1.99 4.67 2.98 4.34 4 4 C4 5.32 4 6.64 4 8 C2.68 8 1.36 8 0 8 C0 5.36 0 2.72 0 0 Z " fill="#F1C3C4" transform="translate(151,169)"/>
<path d="M0 0 C1.98 0 3.96 0 6 0 C6 0.99 6 1.98 6 3 C4.02 3 2.04 3 0 3 C0 2.01 0 1.02 0 0 Z " fill="#EE4146" transform="translate(284,53)"/>
<path d="M0 0 C0.33 0.66 0.66 1.32 1 2 C1.66 2 2.32 2 3 2 C2.67 3.65 2.34 5.3 2 7 C1.01 6.67 0.02 6.34 -1 6 C-0.67 4.02 -0.34 2.04 0 0 Z " fill="#949494" transform="translate(198,209)"/>
</svg>
