<?xml version="1.0" encoding="UTF-8"?>
<svg version="1.1" xmlns="http://www.w3.org/2000/svg" width="352" height="352">
<path d="M0 0 C1.0675753 -0.00445784 2.1351506 -0.00891569 3.23507667 -0.01350862 C4.41219348 -0.01332426 5.5893103 -0.01313989 6.80209732 -0.01294994 C8.04928866 -0.01662663 9.29647999 -0.02030332 10.58146501 -0.02409142 C14.05005586 -0.03411434 17.5186294 -0.03782868 20.98723269 -0.04048073 C24.72559756 -0.04438289 28.46394872 -0.05396124 32.20230484 -0.0626936 C41.23342043 -0.08245986 50.26453714 -0.09252413 59.29566896 -0.10142139 C63.5475302 -0.10580376 67.7993902 -0.11117068 72.05125046 -0.11641026 C86.18334444 -0.13342221 100.31543764 -0.14791694 114.44754028 -0.155159 C118.11522548 -0.15706892 121.78291068 -0.15898925 125.45059586 -0.16094494 C126.81798902 -0.16167055 126.81798902 -0.16167055 128.21300629 -0.16241082 C142.98413832 -0.17071322 157.75518942 -0.19605381 172.5262861 -0.22852562 C187.68779289 -0.26158426 202.84925853 -0.27960665 218.01080155 -0.28280324 C226.52496118 -0.28496937 235.03900276 -0.29373321 243.55312729 -0.31926441 C250.80328429 -0.34095505 258.05329459 -0.34902991 265.30348036 -0.33929763 C269.00261986 -0.33474822 272.70145655 -0.336676 276.40055466 -0.35605907 C280.41156912 -0.37689507 284.42191002 -0.36672078 288.4329567 -0.35352612 C289.60115062 -0.36449536 290.76934455 -0.37546461 291.9729383 -0.38676625 C298.50618562 -0.33476183 302.57478907 0.20523065 307.87149429 4.13422108 C311.833625 8.40915158 312.99458382 11.50814464 313.00571537 17.26272678 C313.01017321 18.33030208 313.01463106 19.39787738 313.01922399 20.49780345 C313.01894744 22.26347867 313.01894744 22.26347867 313.01866531 24.0648241 C313.022342 25.31201544 313.02601869 26.55920678 313.02980679 27.84419179 C313.03982971 31.31278264 313.04354405 34.78135619 313.0461961 38.24995947 C313.05009826 41.98832434 313.05967661 45.7266755 313.06840897 49.46503162 C313.08817523 58.49614721 313.0982395 67.52726393 313.10713676 76.55839574 C313.11151913 80.81025699 313.11688605 85.06211698 313.12212563 89.31397724 C313.13913758 103.44607122 313.15363231 117.57816442 313.16087437 131.71026707 C313.16278429 135.37795227 313.16470462 139.04563746 313.16666031 142.71332264 C313.16714405 143.62491808 313.16762779 144.53651352 313.16812619 145.47573307 C313.17642859 160.2468651 313.20176919 175.0179162 313.23424099 189.78901288 C313.26729963 204.95051967 313.28532202 220.11198531 313.28851861 235.27352834 C313.29068474 243.78768796 313.29944858 252.30172955 313.32497978 260.81585407 C313.34667042 268.06601108 313.35474528 275.31602137 313.345013 282.56620714 C313.34046359 286.26534664 313.34239137 289.96418334 313.36177444 293.66328144 C313.38261044 297.67429591 313.37243615 301.6846368 313.35924149 305.69568348 C313.37569535 307.44797437 313.37569535 307.44797437 313.39248163 309.23566508 C313.3404772 315.7689124 312.80048472 319.83751585 308.87149429 325.13422108 C304.59656379 329.09635178 301.49757073 330.2573106 295.74298859 330.26844215 C294.67541329 330.2729 293.60783799 330.27735784 292.50791192 330.28195077 C291.3307951 330.28176641 290.15367829 330.28158205 288.94089127 330.2813921 C287.69369993 330.28506879 286.44650859 330.28874547 285.16152358 330.29253358 C281.69293273 330.3025565 278.22435918 330.30627083 274.7557559 330.30892289 C271.01739103 330.31282504 267.27903987 330.3224034 263.54068375 330.33113575 C254.50956816 330.35090201 245.47845144 330.36096628 236.44731963 330.36986354 C232.19545838 330.37424591 227.94359839 330.37961283 223.69173813 330.38485241 C209.55964415 330.40186436 195.42755095 330.41635909 181.2954483 330.42360115 C177.6277631 330.42551107 173.96007791 330.4274314 170.29239273 330.42938709 C169.38079729 330.42987083 168.46920185 330.43035457 167.5299823 330.43085297 C152.75885027 330.43915537 137.98779917 330.46449597 123.21670249 330.49696777 C108.0551957 330.53002641 92.89373006 330.5480488 77.73218703 330.55124539 C69.21802741 330.55341153 60.70398582 330.56217537 52.1898613 330.58770657 C44.93970429 330.60939721 37.689694 330.61747206 30.43950823 330.60773978 C26.74036873 330.60319037 23.04153203 330.60511815 19.34243393 330.62450123 C15.33141946 330.64533723 11.32107857 330.63516294 7.31003189 330.62196827 C6.14183796 330.63293752 4.97364403 330.64390676 3.77005029 330.65520841 C-2.76319703 330.60320399 -6.83180048 330.06321151 -12.12850571 326.13422108 C-16.09063641 321.85929058 -17.25159523 318.76029751 -17.26272678 313.00571537 C-17.26718463 311.93814007 -17.27164247 310.87056477 -17.2762354 309.7706387 C-17.27605104 308.59352189 -17.27586668 307.41640507 -17.27567673 306.20361805 C-17.27935342 304.95642671 -17.2830301 303.70923538 -17.28681821 302.42425036 C-17.29684113 298.95565951 -17.30055546 295.48708597 -17.30320752 292.01848269 C-17.30710967 288.28011781 -17.31668803 284.54176665 -17.32542038 280.80341053 C-17.34518664 271.77229494 -17.35525091 262.74117823 -17.36414817 253.71004641 C-17.36853054 249.45818517 -17.37389746 245.20632517 -17.37913704 240.95446491 C-17.39614899 226.82237093 -17.41064372 212.69027773 -17.41788578 198.55817509 C-17.4197957 194.89048989 -17.42171603 191.22280469 -17.42367172 187.55511951 C-17.42415546 186.64352407 -17.4246392 185.73192863 -17.4251376 184.79270908 C-17.43344 170.02157705 -17.4587806 155.25052595 -17.4912524 140.47942927 C-17.52431104 125.31792249 -17.54233343 110.15645684 -17.54553002 94.99491382 C-17.54769616 86.48075419 -17.55646 77.96671261 -17.5819912 69.45258808 C-17.60368184 62.20243108 -17.61175669 54.95242078 -17.60202441 47.70223501 C-17.597475 44.00309551 -17.59940278 40.30425882 -17.61878586 36.60516071 C-17.63962186 32.59414625 -17.62944757 28.58380535 -17.6162529 24.57275867 C-17.62722215 23.40456475 -17.63819139 22.23637082 -17.64949304 21.03277707 C-17.59748862 14.49952975 -17.05749614 10.4309263 -13.12850571 5.13422108 C-8.85357521 1.17209037 -5.75458214 0.01113155 0 0 Z " fill="#E9E9E9" transform="translate(28.12850570678711,10.865778923034668)"/>
<path d="M0 0 C1.0675753 -0.00445784 2.1351506 -0.00891569 3.23507667 -0.01350862 C4.41219348 -0.01332426 5.5893103 -0.01313989 6.80209732 -0.01294994 C8.04928866 -0.01662663 9.29647999 -0.02030332 10.58146501 -0.02409142 C14.05005586 -0.03411434 17.5186294 -0.03782868 20.98723269 -0.04048073 C24.72559756 -0.04438289 28.46394872 -0.05396124 32.20230484 -0.0626936 C41.23342043 -0.08245986 50.26453714 -0.09252413 59.29566896 -0.10142139 C63.5475302 -0.10580376 67.7993902 -0.11117068 72.05125046 -0.11641026 C86.18334444 -0.13342221 100.31543764 -0.14791694 114.44754028 -0.155159 C118.11522548 -0.15706892 121.78291068 -0.15898925 125.45059586 -0.16094494 C126.81798902 -0.16167055 126.81798902 -0.16167055 128.21300629 -0.16241082 C142.98413832 -0.17071322 157.75518942 -0.19605381 172.5262861 -0.22852562 C187.68779289 -0.26158426 202.84925853 -0.27960665 218.01080155 -0.28280324 C226.52496118 -0.28496937 235.03900276 -0.29373321 243.55312729 -0.31926441 C250.80328429 -0.34095505 258.05329459 -0.34902991 265.30348036 -0.33929763 C269.00261986 -0.33474822 272.70145655 -0.336676 276.40055466 -0.35605907 C280.41156912 -0.37689507 284.42191002 -0.36672078 288.4329567 -0.35352612 C289.60115062 -0.36449536 290.76934455 -0.37546461 291.9729383 -0.38676625 C298.50618562 -0.33476183 302.57478907 0.20523065 307.87149429 4.13422108 C311.833625 8.40915158 312.99458382 11.50814464 313.00571537 17.26272678 C313.01017321 18.33030208 313.01463106 19.39787738 313.01922399 20.49780345 C313.01894744 22.26347867 313.01894744 22.26347867 313.01866531 24.0648241 C313.022342 25.31201544 313.02601869 26.55920678 313.02980679 27.84419179 C313.03982971 31.31278264 313.04354405 34.78135619 313.0461961 38.24995947 C313.05009826 41.98832434 313.05967661 45.7266755 313.06840897 49.46503162 C313.08817523 58.49614721 313.0982395 67.52726393 313.10713676 76.55839574 C313.11151913 80.81025699 313.11688605 85.06211698 313.12212563 89.31397724 C313.13913758 103.44607122 313.15363231 117.57816442 313.16087437 131.71026707 C313.16278429 135.37795227 313.16470462 139.04563746 313.16666031 142.71332264 C313.16714405 143.62491808 313.16762779 144.53651352 313.16812619 145.47573307 C313.17642859 160.2468651 313.20176919 175.0179162 313.23424099 189.78901288 C313.26729963 204.95051967 313.28532202 220.11198531 313.28851861 235.27352834 C313.29068474 243.78768796 313.29944858 252.30172955 313.32497978 260.81585407 C313.34667042 268.06601108 313.35474528 275.31602137 313.345013 282.56620714 C313.34046359 286.26534664 313.34239137 289.96418334 313.36177444 293.66328144 C313.38261044 297.67429591 313.37243615 301.6846368 313.35924149 305.69568348 C313.37569535 307.44797437 313.37569535 307.44797437 313.39248163 309.23566508 C313.3404772 315.7689124 312.80048472 319.83751585 308.87149429 325.13422108 C304.59656379 329.09635178 301.49757073 330.2573106 295.74298859 330.26844215 C294.67541329 330.2729 293.60783799 330.27735784 292.50791192 330.28195077 C291.3307951 330.28176641 290.15367829 330.28158205 288.94089127 330.2813921 C287.69369993 330.28506879 286.44650859 330.28874547 285.16152358 330.29253358 C281.69293273 330.3025565 278.22435918 330.30627083 274.7557559 330.30892289 C271.01739103 330.31282504 267.27903987 330.3224034 263.54068375 330.33113575 C254.50956816 330.35090201 245.47845144 330.36096628 236.44731963 330.36986354 C232.19545838 330.37424591 227.94359839 330.37961283 223.69173813 330.38485241 C209.55964415 330.40186436 195.42755095 330.41635909 181.2954483 330.42360115 C177.6277631 330.42551107 173.96007791 330.4274314 170.29239273 330.42938709 C169.38079729 330.42987083 168.46920185 330.43035457 167.5299823 330.43085297 C152.75885027 330.43915537 137.98779917 330.46449597 123.21670249 330.49696777 C108.0551957 330.53002641 92.89373006 330.5480488 77.73218703 330.55124539 C69.21802741 330.55341153 60.70398582 330.56217537 52.1898613 330.58770657 C44.93970429 330.60939721 37.689694 330.61747206 30.43950823 330.60773978 C26.74036873 330.60319037 23.04153203 330.60511815 19.34243393 330.62450123 C15.33141946 330.64533723 11.32107857 330.63516294 7.31003189 330.62196827 C6.14183796 330.63293752 4.97364403 330.64390676 3.77005029 330.65520841 C-2.76319703 330.60320399 -6.83180048 330.06321151 -12.12850571 326.13422108 C-16.09063641 321.85929058 -17.25159523 318.76029751 -17.26272678 313.00571537 C-17.26718463 311.93814007 -17.27164247 310.87056477 -17.2762354 309.7706387 C-17.27605104 308.59352189 -17.27586668 307.41640507 -17.27567673 306.20361805 C-17.27935342 304.95642671 -17.2830301 303.70923538 -17.28681821 302.42425036 C-17.29684113 298.95565951 -17.30055546 295.48708597 -17.30320752 292.01848269 C-17.30710967 288.28011781 -17.31668803 284.54176665 -17.32542038 280.80341053 C-17.34518664 271.77229494 -17.35525091 262.74117823 -17.36414817 253.71004641 C-17.36853054 249.45818517 -17.37389746 245.20632517 -17.37913704 240.95446491 C-17.39614899 226.82237093 -17.41064372 212.69027773 -17.41788578 198.55817509 C-17.4197957 194.89048989 -17.42171603 191.22280469 -17.42367172 187.55511951 C-17.42415546 186.64352407 -17.4246392 185.73192863 -17.4251376 184.79270908 C-17.43344 170.02157705 -17.4587806 155.25052595 -17.4912524 140.47942927 C-17.52431104 125.31792249 -17.54233343 110.15645684 -17.54553002 94.99491382 C-17.54769616 86.48075419 -17.55646 77.96671261 -17.5819912 69.45258808 C-17.60368184 62.20243108 -17.61175669 54.95242078 -17.60202441 47.70223501 C-17.597475 44.00309551 -17.59940278 40.30425882 -17.61878586 36.60516071 C-17.63962186 32.59414625 -17.62944757 28.58380535 -17.6162529 24.57275867 C-17.62722215 23.40456475 -17.63819139 22.23637082 -17.64949304 21.03277707 C-17.59748862 14.49952975 -17.05749614 10.4309263 -13.12850571 5.13422108 C-8.85357521 1.17209037 -5.75458214 0.01113155 0 0 Z M91.45132828 30.75458241 C90.18021698 31.95638645 90.18021698 31.95638645 88.88342667 33.18246937 C87.87784336 34.16474533 86.87401863 35.14882328 85.87149429 36.13422108 C84.97987532 37.00377745 84.97987532 37.00377745 84.07024384 37.89090061 C78.87696673 42.96211453 73.7327571 48.0819246 68.59415054 53.20843983 C67.77962355 54.02013945 66.96509655 54.83183907 66.12588692 55.66813564 C61.82737812 59.95174743 57.53167947 64.23815294 53.23843765 68.52704334 C48.81120438 72.94876172 44.37474512 77.36110261 39.93612385 81.77138519 C36.51246458 85.17643087 33.09552186 88.58815618 29.68039131 92.00175381 C28.04701813 93.63210429 26.41114881 95.25995805 24.77272606 96.88523388 C22.48739299 99.15351104 20.21171298 101.43106446 17.93814468 103.71112537 C17.26333557 104.3767197 16.58852646 105.04231403 15.89326859 105.72807789 C15.27253464 106.35438099 14.65180069 106.98068409 14.01225662 107.62596607 C13.4749344 108.16182174 12.93761217 108.6976774 12.38400745 109.24977112 C8.47251796 114.12312126 7.49557399 118.27752165 7.48381424 124.45232105 C7.4784287 125.1671303 7.47304316 125.88193956 7.46749443 126.61840969 C7.45324222 129.00203159 7.46031154 131.38509599 7.46744156 133.76874256 C7.46173655 135.48239048 7.45477178 137.1960346 7.44664383 138.90967274 C7.42871184 143.55638834 7.42988087 148.20291511 7.43558621 152.84965491 C7.43867798 156.73139271 7.43258575 160.61309422 7.42654747 164.49482685 C7.41250374 173.65338287 7.41406229 182.81184561 7.42544937 191.97040272 C7.43693095 201.41354671 7.4228539 210.85640671 7.3960529 220.29951328 C7.37389012 228.41264801 7.36725981 236.52569362 7.37312931 244.63885647 C7.37649864 249.48204541 7.37408534 254.32505231 7.35687828 259.16821575 C7.341402 263.72294784 7.34537223 268.27725947 7.36418343 272.83197498 C7.3678674 274.5012609 7.36476639 276.17057801 7.35429764 277.83983517 C7.34107213 280.12341854 7.35264721 282.40561308 7.37028885 284.68913746 C7.37049813 285.96540217 7.37070742 287.24166689 7.37092304 288.55660629 C8.12410496 293.93964568 10.5427541 298.61332866 14.93399429 302.00922108 C18.50135494 304.58986495 20.89870866 305.25819559 25.18510342 305.27123547 C26.07092545 305.27631001 26.95674748 305.28138455 27.8694126 305.28661287 C29.33057068 305.2873595 29.33057068 305.2873595 30.8212471 305.28812122 C31.85538815 305.29250348 32.8895292 305.29688573 33.95500785 305.30140078 C37.43718157 305.31480742 40.91932997 305.32097184 44.40152359 305.32709217 C46.89141836 305.33499164 49.38131197 305.34326049 51.87120438 305.35187244 C59.35540656 305.37584419 66.83960458 305.39102267 74.32383201 305.40393251 C76.43792043 305.40764489 78.5520082 305.41161809 80.66609597 305.41568518 C93.79600861 305.44092212 106.9259223 305.4629739 120.05585384 305.47541332 C123.09685838 305.47834299 126.13786288 305.48130466 129.17886734 305.48431873 C129.9346885 305.48506478 130.69050967 305.48581083 131.4692345 305.48657949 C143.71131143 305.49923138 155.95324307 305.53245253 168.19525208 305.57412057 C180.76564461 305.61655536 193.33596277 305.64011013 205.90642673 305.64533389 C212.96357876 305.64874626 220.02050373 305.66048069 227.07758522 305.69343662 C233.71698511 305.72439132 240.35606116 305.7298453 246.99554634 305.71805286 C249.43200276 305.71783175 251.8684773 305.72616817 254.30487061 305.7437067 C257.63266599 305.76635745 260.95902073 305.75812078 264.28682327 305.74222279 C265.24977505 305.75610487 266.21272683 305.76998696 267.20485896 305.78428972 C273.66075575 305.70835876 277.84597404 304.22506205 282.87149429 300.13422108 C288.94068951 293.90531019 289.16590895 287.25622801 289.13891983 279.01352406 C289.1457165 277.48909422 289.1457165 277.48909422 289.15265048 275.93386781 C289.16530599 272.53006559 289.16367335 269.12642313 289.16202164 265.72259998 C289.16800611 263.28152225 289.17481147 260.8404464 289.18237686 258.39937305 C289.19821547 252.45783802 289.20448554 246.51634042 289.20560162 240.57478859 C289.20655288 235.74423536 289.2106671 230.91369519 289.21700287 226.0831461 C289.23460945 212.38006909 289.24384254 198.67702337 289.24234192 184.97393496 C289.24226201 184.23566727 289.2421821 183.49739958 289.24209976 182.73676014 C289.24197712 181.62800276 289.24197712 181.62800276 289.241852 180.49684624 C289.24103905 168.51687141 289.26018045 156.53702228 289.2883765 144.5570838 C289.31711634 132.24875119 289.33091622 119.94047987 289.32918894 107.63211286 C289.32852547 100.72483946 289.33399922 93.81769789 289.35554504 86.91045475 C289.37567803 80.41466712 289.3750719 73.91908593 289.36051178 67.42328167 C289.35841899 65.04004796 289.36315242 62.65679696 289.3752327 60.27359295 C289.39066379 57.01836252 289.38139023 53.76409501 289.36597061 50.50888538 C289.3814013 49.09670937 289.3814013 49.09670937 289.39714372 47.65600455 C289.32452565 40.71131717 287.68287419 35.45909502 283.16055679 30.11078358 C282.61141617 29.66476795 282.06227554 29.21875233 281.49649429 28.75922108 C280.95250992 28.2977367 280.40852554 27.83625233 279.84805679 27.36078358 C275.05483648 24.38633461 270.37151998 23.88283357 264.82587051 23.87352467 C264.14035169 23.86969912 263.45483288 23.86587357 262.74854076 23.8619321 C260.46408795 23.85165866 258.17988914 23.85558339 255.89542007 23.85956287 C254.25236149 23.85521324 252.60930493 23.85002925 250.96625137 23.8440752 C246.51164322 23.83070044 242.05711999 23.83010488 237.60249567 23.8326385 C233.87992004 23.83370933 230.1573615 23.82882194 226.43478954 23.82403308 C217.65016896 23.81294298 208.86559114 23.81249758 200.08096695 23.81854725 C191.02756288 23.8245863 181.97431425 23.81227663 172.9209367 23.79097718 C165.13985331 23.77334612 157.35881933 23.76736223 149.57771671 23.77061492 C144.93405421 23.77242565 140.29050258 23.76981264 135.64685822 23.75590038 C131.27850299 23.74330232 126.91038958 23.74528481 122.54203796 23.75831127 C120.9425104 23.76067236 119.34296572 23.75795915 117.74345779 23.74968815 C103.43761217 23.58403314 103.43761217 23.58403314 91.45132828 30.75458241 Z " fill="#953202" transform="translate(28.12850570678711,10.865778923034668)"/>
<path d="M0 0 C0.33 0 0.66 0 1 0 C1.09129243 31.56791125 1.16206037 63.13578488 1.20426132 94.70379734 C1.20926402 98.43249597 1.21444132 102.16119434 1.21972656 105.88989258 C1.2207758 106.63219486 1.22182505 107.37449715 1.22290608 108.13929344 C1.24030118 120.15129351 1.27183391 132.16321685 1.30861118 144.17517143 C1.34604557 156.5047754 1.36824113 168.83433924 1.37635398 181.16399771 C1.38183659 188.76926524 1.39913945 196.37431584 1.43166587 203.97951657 C1.45535181 209.81572197 1.45781353 215.65181662 1.45243073 221.48807144 C1.45353037 223.87895225 1.46147636 226.26984133 1.4768219 228.66067314 C1.49676903 231.92898444 1.49192118 235.19637307 1.48101807 238.46470642 C1.49266943 239.40733697 1.5043208 240.34996753 1.51632524 241.32116264 C1.45579407 248.04969422 0.22154679 254.4577651 -4.44733977 259.59141487 C-8.49678851 263.10210101 -12.06933153 265.24739561 -17.43945026 265.25726891 C-18.77209493 265.26694224 -18.77209493 265.26694224 -20.13166171 265.276811 C-21.58947371 265.2721652 -21.58947371 265.2721652 -23.07673645 265.26742554 C-24.63028801 265.27422221 -24.63028801 265.27422221 -26.21522444 265.28115618 C-29.69666919 265.2938484 -33.17795846 265.29217669 -36.65942383 265.29052734 C-39.1510895 265.29650959 -41.64275331 265.30331443 -44.13441467 265.31088257 C-50.20690911 265.32674142 -56.27934208 265.33299232 -62.3518515 265.33410732 C-67.28829631 265.33505765 -72.2247283 265.33916719 -77.16116905 265.34550858 C-91.15781553 265.36312272 -105.15443134 265.37234726 -119.15108899 265.37084763 C-119.90568519 265.37076772 -120.66028139 265.3706878 -121.43774414 265.37060547 C-122.19326211 265.37052371 -122.94878009 265.37044195 -123.72719254 265.37035771 C-135.96986328 265.36954491 -148.21241095 265.38868056 -160.45504609 265.4168822 C-173.02660327 265.44561292 -185.59810043 265.45942237 -198.16969126 265.45769465 C-205.22730911 265.45703078 -212.28479797 265.46252163 -219.34238625 265.48405075 C-225.98014058 265.50416939 -232.61766901 265.50358689 -239.25545311 265.48901749 C-241.69231946 265.48692292 -244.12920268 265.49166864 -246.56604004 265.5037384 C-249.89178631 265.51914454 -253.21658712 265.50991236 -256.54231262 265.49447632 C-257.50749512 265.50476344 -258.47267762 265.51505057 -259.46710807 265.52564943 C-266.27230399 265.45581266 -270.61249861 264.10647549 -275.7421875 259.40234375 C-279.12437995 255.02881903 -280.12482351 252.17426982 -280.12939453 246.71826172 C-280.13254669 245.6405954 -280.13569885 244.56292908 -280.13894653 243.4526062 C-280.1369223 242.29004303 -280.13489807 241.12747986 -280.1328125 239.9296875 C-280.13376923 238.73771759 -280.13472595 237.54574768 -280.13571167 236.31765747 C-280.13639249 233.79754585 -280.13454505 231.27743247 -280.13037109 228.75732422 C-280.1250121 224.88374938 -280.13032428 221.01029001 -280.13671875 217.13671875 C-280.13605814 214.69270808 -280.13477732 212.24869747 -280.1328125 209.8046875 C-280.13483673 208.63807587 -280.13686096 207.47146423 -280.13894653 206.26950073 C-280.13421829 204.66245773 -280.13421829 204.66245773 -280.12939453 203.02294922 C-280.12859894 202.07491425 -280.12780334 201.12687927 -280.12698364 200.15011597 C-280 198 -280 198 -279 197 C-277.50914367 196.90321634 -276.01370016 196.87628252 -274.51970577 196.87695217 C-273.54584736 196.87496112 -272.57198894 196.87297007 -271.56861967 196.87091869 C-270.48595794 196.87383153 -269.4032962 196.87674437 -268.28782654 196.87974548 C-266.57757824 196.87846385 -266.57757824 196.87846385 -264.83277947 196.87715632 C-261.65398473 196.87578819 -258.47523022 196.87893545 -255.29644024 196.88393438 C-251.87379461 196.88823574 -248.45115099 196.88679268 -245.02850342 196.8860321 C-239.09386686 196.88550667 -233.15924127 196.88865551 -227.22460747 196.89426994 C-218.64402676 196.9023823 -210.06345137 196.90499989 -201.48286725 196.90625793 C-187.56287529 196.90844887 -173.64288917 196.91511008 -159.72290039 196.92456055 C-146.19751006 196.93373359 -132.67212132 196.94080349 -119.14672852 196.94506836 C-118.30511317 196.94533636 -117.46349782 196.94560435 -116.59637898 196.94588047 C-110.01481138 196.94795978 -103.43324375 196.94991675 -96.85167611 196.95183504 C-64.56777871 196.96127599 -32.28389593 196.98139257 0 197 C0 131.99 0 66.98 0 0 Z " fill="#E4E3E3" transform="translate(316,51)"/>
<path d="M0 0 C1.0675753 -0.00445784 2.1351506 -0.00891569 3.23507667 -0.01350862 C4.41219348 -0.01332426 5.5893103 -0.01313989 6.80209732 -0.01294994 C8.04928866 -0.01662663 9.29647999 -0.02030332 10.58146501 -0.02409142 C14.05005586 -0.03411434 17.5186294 -0.03782868 20.98723269 -0.04048073 C24.72559756 -0.04438289 28.46394872 -0.05396124 32.20230484 -0.0626936 C41.23342043 -0.08245986 50.26453714 -0.09252413 59.29566896 -0.10142139 C63.5475302 -0.10580376 67.7993902 -0.11117068 72.05125046 -0.11641026 C86.18334444 -0.13342221 100.31543764 -0.14791694 114.44754028 -0.155159 C118.11522548 -0.15706892 121.78291068 -0.15898925 125.45059586 -0.16094494 C126.81798902 -0.16167055 126.81798902 -0.16167055 128.21300629 -0.16241082 C142.98413832 -0.17071322 157.75518942 -0.19605381 172.5262861 -0.22852562 C187.68779289 -0.26158426 202.84925853 -0.27960665 218.01080155 -0.28280324 C226.52496118 -0.28496937 235.03900276 -0.29373321 243.55312729 -0.31926441 C250.80328429 -0.34095505 258.05329459 -0.34902991 265.30348036 -0.33929763 C269.00261986 -0.33474822 272.70145655 -0.336676 276.40055466 -0.35605907 C280.41156912 -0.37689507 284.42191002 -0.36672078 288.4329567 -0.35352612 C289.60115062 -0.36449536 290.76934455 -0.37546461 291.9729383 -0.38676625 C298.50618562 -0.33476183 302.57478907 0.20523065 307.87149429 4.13422108 C311.833625 8.40915158 312.99458382 11.50814464 313.00571537 17.26272678 C313.01017321 18.33030208 313.01463106 19.39787738 313.01922399 20.49780345 C313.01894744 22.26347867 313.01894744 22.26347867 313.01866531 24.0648241 C313.022342 25.31201544 313.02601869 26.55920678 313.02980679 27.84419179 C313.03982971 31.31278264 313.04354405 34.78135619 313.0461961 38.24995947 C313.05009826 41.98832434 313.05967661 45.7266755 313.06840897 49.46503162 C313.08817523 58.49614721 313.0982395 67.52726393 313.10713676 76.55839574 C313.11151913 80.81025699 313.11688605 85.06211698 313.12212563 89.31397724 C313.13913758 103.44607122 313.15363231 117.57816442 313.16087437 131.71026707 C313.16278429 135.37795227 313.16470462 139.04563746 313.16666031 142.71332264 C313.16714405 143.62491808 313.16762779 144.53651352 313.16812619 145.47573307 C313.17642859 160.2468651 313.20176919 175.0179162 313.23424099 189.78901288 C313.26729963 204.95051967 313.28532202 220.11198531 313.28851861 235.27352834 C313.29068474 243.78768796 313.29944858 252.30172955 313.32497978 260.81585407 C313.34667042 268.06601108 313.35474528 275.31602137 313.345013 282.56620714 C313.34046359 286.26534664 313.34239137 289.96418334 313.36177444 293.66328144 C313.38261044 297.67429591 313.37243615 301.6846368 313.35924149 305.69568348 C313.37569535 307.44797437 313.37569535 307.44797437 313.39248163 309.23566508 C313.3404772 315.7689124 312.80048472 319.83751585 308.87149429 325.13422108 C304.59656379 329.09635178 301.49757073 330.2573106 295.74298859 330.26844215 C294.67541329 330.2729 293.60783799 330.27735784 292.50791192 330.28195077 C291.3307951 330.28176641 290.15367829 330.28158205 288.94089127 330.2813921 C287.69369993 330.28506879 286.44650859 330.28874547 285.16152358 330.29253358 C281.69293273 330.3025565 278.22435918 330.30627083 274.7557559 330.30892289 C271.01739103 330.31282504 267.27903987 330.3224034 263.54068375 330.33113575 C254.50956816 330.35090201 245.47845144 330.36096628 236.44731963 330.36986354 C232.19545838 330.37424591 227.94359839 330.37961283 223.69173813 330.38485241 C209.55964415 330.40186436 195.42755095 330.41635909 181.2954483 330.42360115 C177.6277631 330.42551107 173.96007791 330.4274314 170.29239273 330.42938709 C169.38079729 330.42987083 168.46920185 330.43035457 167.5299823 330.43085297 C152.75885027 330.43915537 137.98779917 330.46449597 123.21670249 330.49696777 C108.0551957 330.53002641 92.89373006 330.5480488 77.73218703 330.55124539 C69.21802741 330.55341153 60.70398582 330.56217537 52.1898613 330.58770657 C44.93970429 330.60939721 37.689694 330.61747206 30.43950823 330.60773978 C26.74036873 330.60319037 23.04153203 330.60511815 19.34243393 330.62450123 C15.33141946 330.64533723 11.32107857 330.63516294 7.31003189 330.62196827 C6.14183796 330.63293752 4.97364403 330.64390676 3.77005029 330.65520841 C-2.76319703 330.60320399 -6.83180048 330.06321151 -12.12850571 326.13422108 C-16.09063641 321.85929058 -17.25159523 318.76029751 -17.26272678 313.00571537 C-17.26718463 311.93814007 -17.27164247 310.87056477 -17.2762354 309.7706387 C-17.27605104 308.59352189 -17.27586668 307.41640507 -17.27567673 306.20361805 C-17.27935342 304.95642671 -17.2830301 303.70923538 -17.28681821 302.42425036 C-17.29684113 298.95565951 -17.30055546 295.48708597 -17.30320752 292.01848269 C-17.30710967 288.28011781 -17.31668803 284.54176665 -17.32542038 280.80341053 C-17.34518664 271.77229494 -17.35525091 262.74117823 -17.36414817 253.71004641 C-17.36853054 249.45818517 -17.37389746 245.20632517 -17.37913704 240.95446491 C-17.39614899 226.82237093 -17.41064372 212.69027773 -17.41788578 198.55817509 C-17.4197957 194.89048989 -17.42171603 191.22280469 -17.42367172 187.55511951 C-17.42415546 186.64352407 -17.4246392 185.73192863 -17.4251376 184.79270908 C-17.43344 170.02157705 -17.4587806 155.25052595 -17.4912524 140.47942927 C-17.52431104 125.31792249 -17.54233343 110.15645684 -17.54553002 94.99491382 C-17.54769616 86.48075419 -17.55646 77.96671261 -17.5819912 69.45258808 C-17.60368184 62.20243108 -17.61175669 54.95242078 -17.60202441 47.70223501 C-17.597475 44.00309551 -17.59940278 40.30425882 -17.61878586 36.60516071 C-17.63962186 32.59414625 -17.62944757 28.58380535 -17.6162529 24.57275867 C-17.62722215 23.40456475 -17.63819139 22.23637082 -17.64949304 21.03277707 C-17.59748862 14.49952975 -17.05749614 10.4309263 -13.12850571 5.13422108 C-8.85357521 1.17209037 -5.75458214 0.01113155 0 0 Z M-13.12850571 13.13422108 C-14.37020247 15.61761461 -14.25724815 17.26953188 -14.26272678 20.04876804 C-14.26718463 21.09406862 -14.27164247 22.1393692 -14.2762354 23.21634555 C-14.27605104 24.37371164 -14.27586668 25.53107772 -14.27567673 26.72351551 C-14.27935342 27.94605667 -14.2830301 29.16859784 -14.28681821 30.4281857 C-14.2959575 33.83256897 -14.30055746 37.23690399 -14.30320752 40.64129496 C-14.30710603 44.3087648 -14.31668469 47.97622062 -14.32542038 51.64368153 C-14.3451978 60.50613111 -14.3552527 69.36858185 -14.36414817 78.23104799 C-14.36852905 82.40234825 -14.37389638 86.57364723 -14.37913704 90.74494648 C-14.39615073 104.6076414 -14.41064547 118.47033552 -14.41788578 132.33303928 C-14.41979574 135.93180562 -14.42171606 139.53057195 -14.42367172 143.12933826 C-14.42415546 144.02381783 -14.4246392 144.9182974 -14.4251376 145.8398824 C-14.43343999 160.33369368 -14.45877978 174.82742247 -14.4912524 189.32119772 C-14.52430426 204.19451489 -14.54233285 219.06779013 -14.54553002 233.94114423 C-14.54769688 242.29487962 -14.5564711 250.64849475 -14.5819912 259.0021944 C-14.60367266 266.11589519 -14.61176127 273.2294465 -14.60202441 280.34317657 C-14.59747221 283.97332831 -14.59941883 287.6031715 -14.61878586 291.23328114 C-14.63959676 295.16798037 -14.62945621 299.102252 -14.6162529 303.03699207 C-14.62722215 304.18543527 -14.63819139 305.33387847 -14.64949304 306.51712298 C-14.58958953 313.887221 -13.66770691 317.40921181 -8.56600571 322.77875233 C-3.9435397 326.53450595 -0.8701498 327.25750909 4.96687412 327.26564884 C6.00160652 327.26948999 7.03633891 327.27333113 8.10242683 327.27728868 C9.23772132 327.27642219 10.37301581 327.27555571 11.54271317 327.27466297 C13.35352852 327.27911965 13.35352852 327.27911965 15.20092601 327.28366637 C18.55325588 327.29084684 21.90553452 327.2935257 25.25786841 327.29426384 C28.87283186 327.29611512 32.48778421 327.3036628 36.10274124 327.31039906 C44.00767942 327.32397945 51.91261253 327.33000652 59.81756043 327.33440971 C64.75314393 327.33717241 69.68872546 327.34140979 74.62430763 327.34591389 C88.28892297 327.35810574 101.95353673 327.3684055 115.61815739 327.37178898 C116.4926689 327.37200854 117.36718041 327.37222811 118.26819227 327.37245433 C119.14479626 327.37267261 120.02140025 327.37289089 120.924568 327.37311578 C122.70090346 327.37355924 124.47723891 327.37400581 126.25357437 327.37445545 C127.57526006 327.3747876 127.57526006 327.3747876 128.92364647 327.37512645 C143.20324373 327.37907507 157.48278998 327.39653139 171.76236752 327.41981497 C186.42218087 327.44352569 201.08196861 327.45599069 215.74180144 327.4571569 C223.97311315 327.45807377 232.20435838 327.46382924 240.43565178 327.48197651 C247.44422418 327.49737365 254.45270955 327.50250022 261.46129564 327.49423841 C265.03685172 327.49033063 268.6122325 327.4912676 272.18776703 327.50529575 C276.0650286 327.52036856 279.94204324 327.51217197 283.81932449 327.50171375 C284.94792682 327.50977016 286.07652915 327.51782656 287.23933154 327.5261271 C294.06690502 327.48297099 299.45765809 327.06522387 304.83243179 322.45062733 C305.29907242 321.87183826 305.76571304 321.2930492 306.24649429 320.69672108 C306.72860367 320.12051014 307.21071304 319.5442992 307.70743179 318.95062733 C309.91911556 315.49951004 309.99731558 312.05925358 310.00292206 308.03884125 C310.0067632 307.00410886 310.01060435 305.96937646 310.01456189 304.90328854 C310.01326217 303.20034681 310.01326217 303.20034681 310.01193619 301.4630022 C310.01490731 300.25579197 310.01787843 299.04858173 310.02093959 297.80478936 C310.02812005 294.45245949 310.03079892 291.10018085 310.03153706 287.74784696 C310.03338834 284.13288351 310.04093601 280.51793116 310.04767227 276.90297413 C310.06125266 268.99803595 310.06727974 261.09310284 310.07168293 253.18815494 C310.07444562 248.25257144 310.07868301 243.31698991 310.0831871 238.38140774 C310.09537896 224.7167924 310.10567872 211.05217864 310.10906219 197.38755798 C310.10928176 196.51304647 310.10950133 195.63853496 310.10972755 194.7375231 C310.10994582 193.86091911 310.1101641 192.98431512 310.11038899 192.08114737 C310.11083246 190.30481191 310.11127902 188.52847646 310.11172867 186.752141 C310.1119501 185.87101721 310.11217153 184.98989341 310.11239967 184.0820689 C310.11634828 169.80247164 310.13380461 155.5229254 310.15708819 141.24334785 C310.1807989 126.5835345 310.1932639 111.92374676 310.19443011 97.26391393 C310.19534699 89.03260222 310.20110245 80.80135699 310.21924973 72.57006359 C310.23464687 65.56149119 310.23977344 58.55300582 310.23151162 51.54441973 C310.22760385 47.96886365 310.22854081 44.39348287 310.24256897 40.81794834 C310.25764178 36.94068677 310.24944519 33.06367213 310.23898697 29.18639088 C310.24704337 28.05778855 310.25509978 26.92918622 310.26340032 25.76638383 C310.22032382 18.95140632 309.84900696 13.46319961 305.11758804 8.17328358 C304.52075211 7.70664295 303.92391617 7.24000233 303.30899429 6.75922108 C302.4098732 6.03605701 302.4098732 6.03605701 301.49258804 5.29828358 C298.50298212 3.15153041 296.5970241 3.00717559 292.95694733 3 C291.91164675 2.99554216 290.86634617 2.99108431 289.78936982 2.98649138 C288.63200373 2.98667574 287.47463765 2.98686011 286.28219986 2.98705006 C285.0596587 2.98337337 283.83711753 2.97969668 282.57752967 2.97590858 C279.1731464 2.96676929 275.76881138 2.96216933 272.36442041 2.95951927 C268.69695057 2.95562075 265.02949475 2.9460421 261.36203384 2.9373064 C252.49958426 2.91752899 243.63713352 2.90747409 234.77466738 2.89857861 C230.60336712 2.89419773 226.43206814 2.8888304 222.26076889 2.88358974 C208.39807397 2.86657606 194.53537985 2.85208132 180.67267609 2.844841 C177.07390975 2.84293104 173.47514342 2.84101072 169.87637711 2.83905506 C168.53465776 2.83832945 168.53465776 2.83832945 167.16583297 2.83758918 C152.67202169 2.8292868 138.1782929 2.80394701 123.68451765 2.77147438 C108.81120048 2.73842253 93.93792524 2.72039393 79.06457114 2.71719676 C70.71083575 2.7150299 62.35722062 2.70625568 54.00352097 2.68073559 C46.88982018 2.65905412 39.77626887 2.65096551 32.6625388 2.66070237 C29.03238706 2.66525457 25.40254387 2.66330795 21.77243423 2.64394093 C17.837735 2.62313003 13.90346337 2.63327058 9.9687233 2.64647388 C8.8202801 2.63550464 7.6718369 2.62453539 6.48859239 2.61323375 C-3.20306984 2.69200672 -7.33161157 5.51544593 -13.12850571 13.13422108 Z " fill="#C8C0BC" transform="translate(28.12850570678711,10.865778923034668)"/>
<path d="M0 0 C0.66 0 1.32 0 2 0 C4.6041579 6.52481168 5.4325679 12.19084378 5.38095093 19.18447876 C5.3856309 20.17136574 5.39031087 21.15825272 5.39513266 22.17504537 C5.40703931 25.46139995 5.39764229 28.74733419 5.38818359 32.03369141 C5.39225115 34.3980178 5.39759407 36.7623423 5.40411377 39.12666321 C5.4177696 45.5334683 5.41249617 51.94012818 5.40297651 58.34693575 C5.39763549 62.35035626 5.39865183 66.35376689 5.4014473 70.35718918 C5.401907 71.02281077 5.40236669 71.68843236 5.40284032 72.3742243 C5.40379954 73.72660738 5.40477218 75.07899046 5.4057581 76.43137352 C5.41430113 89.09554444 5.40449426 101.75965008 5.388357 114.42381029 C5.3749486 125.28257283 5.37728828 136.14123918 5.39111328 147 C5.40717766 159.62350655 5.41348376 172.24695601 5.40427649 184.87047136 C5.40332088 186.21712835 5.40237777 187.56378535 5.4014473 188.91044235 C5.40098447 189.57295305 5.40052164 190.23546375 5.40004479 190.91805054 C5.39745793 195.57964135 5.40196632 200.24117592 5.40888596 204.90275955 C5.41755154 211.17861975 5.41154091 217.45429821 5.39420319 223.73013878 C5.39023654 226.03316 5.3913754 228.33619652 5.39799118 230.63921165 C5.40618926 233.78284377 5.39590562 236.9258935 5.38095093 240.06948853 C5.38764309 240.9806781 5.39433526 241.89186767 5.40123022 242.83066905 C5.35032677 248.3476002 4.45699794 252.05896273 2 257 C1.731875 258.010625 1.46375 259.02125 1.1875 260.0625 C-0.39210864 263.96995296 -2.64069435 266.47634252 -6 269 C-8.4375 269.6875 -8.4375 269.6875 -11 270 C-12.00077481 270.49386578 -13.00154963 270.98773155 -14.03265095 271.49656296 C-18.6599256 273.51667702 -23.05667176 273.41101953 -28.04008484 273.36749268 C-29.53327774 273.37239594 -29.53327774 273.37239594 -31.05663615 273.37739825 C-34.38386095 273.38466655 -37.71064405 273.37053348 -41.0378418 273.35644531 C-43.42644323 273.35723635 -45.81504453 273.35933409 -48.2036438 273.36264038 C-54.01206682 273.36723973 -59.82034703 273.35797908 -65.62874826 273.34235242 C-72.39364348 273.32479016 -79.15851322 273.32339269 -85.92342768 273.32273683 C-97.99203048 273.32105013 -110.06057306 273.30525026 -122.12915039 273.28125 C-133.84009298 273.25797787 -145.55099737 273.24382292 -157.26196289 273.24023438 C-157.98370214 273.24001161 -158.70544139 273.23978884 -159.44905152 273.23955932 C-160.9030157 273.23911672 -162.35697989 273.2386747 -163.81094407 273.23823325 C-164.52817219 273.23801369 -165.2454003 273.23779412 -165.9843626 273.2375679 C-167.05748963 273.23724392 -167.05748963 273.23724392 -168.15229599 273.2369134 C-179.3149551 273.2332131 -190.47760805 273.22185481 -201.64026039 273.2094375 C-205.68588249 273.20500299 -209.73150401 273.20156443 -213.77712759 273.19881538 C-220.79145876 273.19396943 -227.80575726 273.18385927 -234.82007217 273.16798782 C-237.15176565 273.16346019 -239.48346311 273.16062506 -241.81516075 273.15958023 C-244.99042565 273.15783785 -248.16561638 273.14996372 -251.34086609 273.14044189 C-252.26994032 273.14130838 -253.19901455 273.14217486 -254.15624255 273.1430676 C-255.43141119 273.13730588 -255.43141119 273.13730588 -256.73234081 273.13142776 C-257.46520374 273.13018127 -258.19806668 273.12893477 -258.95313758 273.1276505 C-261.07540896 272.9952972 -262.95806511 272.57936372 -265 272 C-265 271.01 -265 270.02 -265 269 C-263.72593859 268.99945523 -262.45187717 268.99891047 -261.13920784 268.99834919 C-230.87514789 268.98429594 -200.61124295 268.94450378 -170.34726799 268.87314438 C-166.61985877 268.86437794 -162.89244909 268.85582808 -159.16503906 268.84741211 C-158.42299909 268.84573305 -157.68095911 268.84405398 -156.91643308 268.84232404 C-144.91160877 268.81567604 -132.90683222 268.80656054 -120.90198137 268.80395857 C-108.57795119 268.80089587 -96.25405876 268.77891265 -83.93009079 268.73947543 C-76.32944605 268.71574606 -68.72907653 268.7066611 -61.12839989 268.71648689 C-55.29383042 268.72244609 -49.45953697 268.7020425 -43.62503624 268.67193985 C-41.23621574 268.66370869 -38.84734833 268.66395406 -36.45853233 268.67340279 C-33.19031813 268.68504813 -29.92364308 268.6658685 -26.6555481 268.63923645 C-25.71583038 268.64990971 -24.77611267 268.66058297 -23.80791867 268.67157966 C-15.92180693 268.552137 -9.20907741 266.12885047 -3.5 260.5625 C0.13650507 254.35013717 0.28287912 248.71576431 0.24050903 241.71157837 C0.24221788 240.67739663 0.24392673 239.64321488 0.24568737 238.5776943 C0.24898055 235.11373734 0.23798121 231.64997426 0.22705078 228.18603516 C0.22648663 225.70242314 0.2268033 223.21881079 0.22793579 220.73519897 C0.22839117 215.38885634 0.22271979 210.04257402 0.21146011 204.6962471 C0.19519124 196.96640966 0.18999569 189.23659582 0.18748413 181.50674312 C0.18310921 168.96493124 0.1698056 156.4231454 0.15087891 143.88134766 C0.13251487 131.69970835 0.11836093 119.51807613 0.10986328 107.33642578 C0.10933783 106.58527924 0.10881239 105.83413269 0.10827102 105.06022413 C0.1056609 101.29186203 0.1031335 97.52349987 0.10064721 93.75513768 C0.07992102 62.50340618 0.0445521 31.25170705 0 0 Z " fill="#762701" transform="translate(316,48)"/>
<path d="M0 0 C1.65 0.66 3.3 1.32 5 2 C0.76987875 6.24261261 -3.49170891 10.45275757 -7.75610352 14.66088867 C-15.55199962 22.35854823 -23.33243584 30.07164954 -31.10437107 37.79349804 C-35.80186154 42.45964979 -40.50480547 47.12002135 -45.22045898 51.76782227 C-49.79115139 56.27318424 -54.34690339 60.79317196 -58.8928051 65.32354164 C-60.62304311 67.04273065 -62.35853633 68.756648 -64.09942818 70.46504784 C-66.53831668 72.860187 -68.95758048 75.27365446 -71.37329102 77.69213867 C-72.08976303 78.38703903 -72.80623505 79.08193939 -73.54441833 79.79789734 C-83.16798493 89.54118658 -83.59128284 99.63098674 -83.54589844 112.64892578 C-83.55464598 114.31541401 -83.56513586 115.98189386 -83.57722473 117.64836121 C-83.60496082 122.14562702 -83.60849217 126.6426171 -83.60750484 131.139956 C-83.61064465 135.84986626 -83.636285 140.55965427 -83.65948486 145.26950073 C-83.69996685 154.17628191 -83.7203672 163.08299001 -83.73345876 171.98984897 C-83.74935528 182.135056 -83.78778205 192.28013914 -83.82805204 202.42527413 C-83.91034418 223.28347517 -83.96450299 244.14167026 -84 265 C-84.99 265.33 -85.98 265.66 -87 266 C-87.04671756 243.93838717 -87.08198766 221.87678249 -87.10362434 199.81513023 C-87.11393758 189.57156089 -87.12799886 179.32802228 -87.15087891 169.08447266 C-87.17081129 160.15635934 -87.18371609 151.22826829 -87.18817699 142.30013335 C-87.19078462 137.57262328 -87.19691474 132.84517689 -87.21146011 128.11768723 C-87.22504158 123.66739827 -87.22922148 119.21719919 -87.22621536 114.76689148 C-87.22676527 113.13427365 -87.23073935 111.50165279 -87.23841095 109.86905289 C-87.2483811 107.6377201 -87.24596143 105.40672535 -87.24050903 103.17538452 C-87.24235262 101.92727682 -87.24419621 100.67916912 -87.24609566 99.39323997 C-86.88253452 94.38035109 -85.21649814 90.43299627 -83 86 C-82.8453125 85.0409375 -82.8453125 85.0409375 -82.6875 84.0625 C-81.66239798 80.98719395 -79.28136902 79.20880718 -77 77 C-75.91046078 75.91416803 -74.82289299 74.82635555 -73.73693848 73.73693848 C-49.15795898 49.15795898 -24.57897949 24.57897949 0 0 Z " fill="#702401" transform="translate(119,36)"/>
<path d="M0 0 C1.31488907 -0.00281982 2.62977814 -0.00563965 3.98451233 -0.00854492 C5.43496718 -0.00660073 6.88542189 -0.00455256 8.33587646 -0.00241089 C9.8687901 -0.00376647 11.4017034 -0.0055473 12.93461609 -0.00772095 C17.09389069 -0.01227807 21.25314047 -0.01051237 25.4124155 -0.00734186 C29.77107878 -0.00480756 34.12973996 -0.00715896 38.48840332 -0.00872803 C45.81207663 -0.01054736 53.13573985 -0.00815039 60.45941162 -0.00338745 C68.91230717 0.00204659 77.36517856 0.00029781 85.81807351 -0.00521386 C93.08449899 -0.0097614 100.35091722 -0.01038726 107.61734366 -0.00777519 C111.95305257 -0.0062204 116.28875015 -0.00599657 120.62445831 -0.00931168 C124.70546146 -0.01221395 128.78643371 -0.01017159 132.86743355 -0.00441742 C134.36011008 -0.00310207 135.85278924 -0.00346297 137.34546471 -0.00568008 C158.28667824 -0.0339011 158.28667824 -0.0339011 161.04445267 2.60694695 C161.52444088 3.10855906 162.00442909 3.61017117 162.4989624 4.12698364 C163.4889624 4.45698364 164.4789624 4.78698364 165.4989624 5.12698364 C165.4989624 5.78698364 165.4989624 6.44698364 165.4989624 7.12698364 C167.1489624 7.45698364 168.7989624 7.78698364 170.4989624 8.12698364 C170.4989624 9.77698364 170.4989624 11.42698364 170.4989624 13.12698364 C169.99107178 12.71706177 169.48318115 12.30713989 168.9598999 11.88479614 C168.27154053 11.34596802 167.58318115 10.80713989 166.8739624 10.25198364 C166.20107178 9.71831177 165.52818115 9.18463989 164.8348999 8.63479614 C159.90603701 5.45328933 155.2258398 4.8765759 149.4466095 4.87301636 C148.76038511 4.86989638 148.07416073 4.86677639 147.36714166 4.86356187 C145.08034531 4.85561965 142.79381711 4.86189065 140.50701904 4.86819458 C138.86233872 4.86548301 137.21765961 4.86192115 135.57298279 4.85757446 C131.11430223 4.84846721 126.65571437 4.85198805 122.19703221 4.85833263 C117.52646847 4.86340208 112.85591257 4.85869847 108.18534851 4.8555603 C100.34138568 4.85192306 92.49746053 4.85671306 84.65350342 4.86624146 C75.59215684 4.87712174 66.5309003 4.87360255 57.46955591 4.86258864 C49.68339489 4.85350438 41.89726093 4.85223619 34.11109632 4.85746598 C29.4635813 4.8605799 24.81610855 4.86101099 20.16859627 4.85439301 C15.79782091 4.84860374 11.42716128 4.85264536 7.05639839 4.86418152 C5.45484102 4.86681981 3.85327387 4.86607723 2.25172043 4.86165619 C0.06044967 4.85616627 -2.13045352 4.86307625 -4.32170105 4.87301636 C-5.54634536 4.87377041 -6.77098967 4.87452446 -8.03274441 4.87530136 C-11.8319172 5.15099445 -14.88827655 5.96176692 -18.5010376 7.12698364 C-18.8310376 6.46698364 -19.1610376 5.80698364 -19.5010376 5.12698364 C-18.27596862 4.47341086 -17.04574244 3.82950131 -15.8135376 3.18948364 C-15.12904541 2.82983521 -14.44455322 2.47018677 -13.73931885 2.09963989 C-9.23357639 0.1416471 -4.86596393 0.00160721 0 0 Z " fill="#762701" transform="translate(143.50103759765625,30.873016357421875)"/>
<path d="M0 0 C6.93 0 13.86 0 21 0 C21 1.65 21 3.3 21 5 C16.71 5 12.42 5 8 5 C8 7.64 8 10.28 8 13 C11.3 13 14.6 13 18 13 C18 14.98 18 16.96 18 19 C14.7 19 11.4 19 8 19 C8 21.64 8 24.28 8 27 C12.29 27 16.58 27 21 27 C21 29.31 21 31.62 21 34 C14.07 34 7.14 34 0 34 C0 22.78 0 11.56 0 0 Z " fill="#121212" transform="translate(112,163)"/>
<path d="M0 0 C3.58552881 1.63687185 4.79315055 2.68972583 7 6 C7 6.99 7 7.98 7 9 C4.1875 9.6875 4.1875 9.6875 1 10 C-0.625 8.5 -0.625 8.5 -2 7 C-4.16299211 7.22757731 -4.16299211 7.22757731 -6 8 C-5.87232069 9.93569219 -5.87232069 9.93569219 -5 12 C-2.79642194 13.43201697 -2.79642194 13.43201697 -0.125 14.5 C3.65877349 16.13264862 5.87963721 17.40222314 8 21 C8.49500009 24.34125063 8.72317495 26.75868821 6.98046875 29.75 C4.28914666 33.13244709 2.24869132 34.74312702 -2.0859375 35.23828125 C-6.06184639 35.36719297 -8.4382947 35.30425704 -12 33.375 C-14.37473207 30.55500567 -14.75210718 28.63576129 -15 25 C-13.02 24.67 -11.04 24.34 -9 24 C-8.67 25.32 -8.34 26.64 -8 28 C-5.36 28 -2.72 28 0 28 C-0.03223238 25.59231244 -0.03223238 25.59231244 -1 23 C-3.70695173 21.15750797 -3.70695173 21.15750797 -7 19.8125 C-12.91571754 17.16856492 -12.91571754 17.16856492 -14 15 C-14.55512815 10.36786507 -14.6364242 7.01827873 -12.125 3 C-8.42047303 -0.48661362 -4.9162465 -0.5378619 0 0 Z " fill="#0A0A0A" transform="translate(203,162)"/>
<path d="M0 0 C5.56701031 2.88659794 5.56701031 2.88659794 6.875 6.25 C6.91625 6.8275 6.9575 7.405 7 8 C4 10 4 10 1 10 C0.34 9.01 -0.32 8.02 -1 7 C-2.32 7 -3.64 7 -5 7 C-5.33 8.65 -5.66 10.3 -6 12 C-5.40832031 12.15855469 -4.81664062 12.31710938 -4.20703125 12.48046875 C0.99089504 14.01525612 4.80524068 15.36244615 8 20 C8.62617406 23.94489659 8.9464094 26.33028912 6.97265625 29.8125 C4.83786933 32.51180504 3.28514401 33.904952 0 35 C-4.65362019 35.45773313 -7.65174441 35.72954356 -11.4375 32.8125 C-13.99909564 30.00099259 -14.78698668 28.72773314 -15 25 C-11.535 24.505 -11.535 24.505 -8 24 C-7.34 25.32 -6.68 26.64 -6 28 C-4.35 28 -2.7 28 -1 28 C-0.67 26.68 -0.34 25.36 0 24 C-0.75925781 23.62488281 -1.51851562 23.24976563 -2.30078125 22.86328125 C-3.79158203 22.09564453 -3.79158203 22.09564453 -5.3125 21.3125 C-6.29863281 20.81363281 -7.28476563 20.31476563 -8.30078125 19.80078125 C-11.30797515 17.79453467 -12.52091578 16.27511506 -14 13 C-14.39714989 10.12746381 -13.98247222 7.72238113 -13 5 C-8.9965882 0.42467222 -6.03128647 -0.9693139 0 0 Z " fill="#080808" transform="translate(237,162)"/>
<path d="M0 0 C3.31213515 1.96274676 5.40447913 3.45107313 6.8125 7.11328125 C7.30852905 9.05261706 7.66548838 11.02638145 8 13 C5.29120665 14.35439668 2.99066732 14.06501451 0 14 C-0.66 11.69 -1.32 9.38 -2 7 C-3.32 7 -4.64 7 -6 7 C-8.30598416 10.65114159 -8.26789474 13.8080257 -8.25 18.0625 C-8.25515625 19.29097656 -8.2603125 20.51945312 -8.265625 21.78515625 C-8.24874264 25.15154667 -8.24874264 25.15154667 -6 28 C-3.54775306 27.89386164 -3.54775306 27.89386164 -1 27 C0.37466625 24.52363988 0.37466625 24.52363988 1 22 C2.98 22 4.96 22 7 22 C7.33 22.66 7.66 23.32 8 24 C6.32304382 29.03086854 4.80638317 32.32978713 0 35 C-6.36477987 35.90925427 -6.36477987 35.90925427 -9.77734375 34.01171875 C-12.70868757 31.69674551 -14.72773713 29.48137386 -16 26 C-16.2446335 23.16111358 -16.3701245 20.46254244 -16.375 17.625 C-16.39949219 16.8825 -16.42398438 16.14 -16.44921875 15.375 C-16.48204855 9.18111144 -14.5064934 5.68552865 -10.25 1.125 C-6.83506395 -0.58246802 -3.67705344 -0.73541069 0 0 Z " fill="#0A0A0A" transform="translate(169,162)"/>
<path d="M0 0 C11.0438247 -0.60680356 11.0438247 -0.60680356 15.25 2.0625 C17.44810144 5.75217028 17.60485655 7.76600414 17 12 C15.34860695 15.5386994 14.28394771 16.81070153 11 19 C7.31619572 19.26655603 3.69863419 19.08702669 0 19 C0 12.73 0 6.46 0 0 Z " fill="#080808" transform="translate(238,274)"/>
<path d="M0 0 C9.1796875 -0.1953125 9.1796875 -0.1953125 12 0 C14 2 14 2 14.1875 4.9375 C14 8 14 8 13 11 C13.30806453 13.07647876 13.30806453 13.07647876 13.9375 15.1875 C14.288125 16.445625 14.63875 17.70375 15 19 C13.35 19 11.7 19 10 19 C9.5978125 17.5459375 9.5978125 17.5459375 9.1875 16.0625 C8.795625 15.051875 8.40375 14.04125 8 13 C7.01 12.67 6.02 12.34 5 12 C5 14.31 5 16.62 5 19 C3.35 19 1.7 19 0 19 C0 12.73 0 6.46 0 0 Z " fill="#171717" transform="translate(137,274)"/>
<path d="M0 0 C0.99 0.66 1.98 1.32 3 2 C3.1875 5.625 3.1875 5.625 3 9 C1.35 9 -0.3 9 -2 9 C-2 7.35 -2 5.7 -2 4 C-2.66 4 -3.32 4 -4 4 C-4 8.62 -4 13.24 -4 18 C-3.34 18 -2.68 18 -2 18 C-2 16.35 -2 14.7 -2 13 C-0.35 13 1.3 13 3 13 C3.35789474 18.36842105 3.35789474 18.36842105 1.9375 20.875 C-1.1069286 22.64273274 -3.5631012 22.36823916 -7 22 C-8.6953125 20.9765625 -8.6953125 20.9765625 -10 19 C-10.29834873 16.23881175 -10.41911153 13.75451984 -10.375 11 C-10.38660156 10.27554688 -10.39820313 9.55109375 -10.41015625 8.8046875 C-10.39353024 5.80092139 -10.37538622 3.56982279 -8.6953125 1.01953125 C-5.83852427 -0.69849116 -3.23377716 -0.2887301 0 0 Z " fill="#EC2A30" transform="translate(223,53)"/>
<path d="M0 0 C2.475 0.99 2.475 0.99 5 2 C2.4345406 4.5654594 0.52313332 4.54046087 -3 5 C-1.125 1.125 -1.125 1.125 0 0 Z M-6 6 C-5.01 6.495 -5.01 6.495 -4 7 C-27.76 30.76 -51.52 54.52 -76 79 C-76 76 -76 76 -74.90678406 74.53764057 C-74.39057999 74.02420188 -73.87437592 73.51076319 -73.3425293 72.98176575 C-72.75353851 72.38865097 -72.16454773 71.79553619 -71.55770874 71.18444824 C-70.90315704 70.54068237 -70.24860535 69.8969165 -69.57421875 69.23364258 C-68.89146881 68.55045456 -68.20871887 67.86726654 -67.50527954 67.16337585 C-65.23972265 64.8999142 -62.96371358 62.6472718 -60.6875 60.39453125 C-59.11743091 58.83005548 -57.5480215 57.26491741 -55.97924805 55.69914246 C-51.84296568 51.57432959 -47.69775404 47.45860354 -43.55065918 43.34466553 C-39.32264498 39.14730671 -35.10308162 34.94147168 -30.8828125 30.73632812 C-22.59682041 22.48253734 -14.30137653 14.23831543 -6 6 Z M-80 80 C-79.34 80.33 -78.68 80.66 -78 81 C-78.73386826 83.20160479 -79.46874913 85.40274276 -80.2109375 87.6015625 C-80.8530243 89.55325209 -81.43555887 91.52445604 -82 93.5 C-82.495 94.7375 -82.495 94.7375 -83 96 C-83.99 96.33 -84.98 96.66 -86 97 C-86.31451716 92.38708167 -85.8619665 90.54883846 -83 87 C-82.64386903 85.33805547 -82.30791692 83.671549 -82 82 C-81.34 81.34 -80.68 80.68 -80 80 Z " fill="#802A01" transform="translate(119,36)"/>
<path d="M0 0 C1.9375 1.125 1.9375 1.125 3 3 C3.1875 6.1875 3.1875 6.1875 3 9 C1.02 9 -0.96 9 -3 9 C-3 7.35 -3 5.7 -3 4 C-3.66 4 -4.32 4 -5 4 C-5 8.62 -5 13.24 -5 18 C-4.34 18 -3.68 18 -3 18 C-3 16.35 -3 14.7 -3 13 C-1.02 13 0.96 13 3 13 C3.35789474 18.36842105 3.35789474 18.36842105 1.9375 20.875 C-1.1069286 22.64273274 -3.5631012 22.36823916 -7 22 C-8.6953125 20.9765625 -8.6953125 20.9765625 -10 19 C-10.29834873 16.23881175 -10.41911153 13.75451984 -10.375 11 C-10.38660156 10.27554688 -10.39820313 9.55109375 -10.41015625 8.8046875 C-10.39353737 5.80221031 -10.37716456 3.57139302 -8.6953125 1.0234375 C-5.80368073 -0.72220196 -3.2703039 -0.3503897 0 0 Z " fill="#EC282D" transform="translate(200,53)"/>
<path d="M0 0 C3.5625 0.25 3.5625 0.25 6.5625 2.25 C6.9609375 5.18359375 6.9609375 5.18359375 6.9375 8.6875 C6.94523438 9.84121094 6.95296875 10.99492188 6.9609375 12.18359375 C6.5625 15.25 6.5625 15.25 5.26171875 17.13671875 C2.40260723 19.00992975 -0.1420657 18.60950192 -3.4375 18.25 C-5.82604824 14.66717765 -5.70648802 12.93606967 -5.6875 8.6875 C-5.69265625 7.53121094 -5.6978125 6.37492187 -5.703125 5.18359375 C-5.30664423 0.80481349 -4.33668051 0.31539495 0 0 Z " fill="#ED3339" transform="translate(233.4375,56.75)"/>
<path d="M0 0 C3.63 0 7.26 0 11 0 C12.59412284 3.18824568 12.10174735 6.62896662 12.0625 10.125 C12.05798828 10.87910156 12.05347656 11.63320312 12.04882812 12.41015625 C12.03703499 14.27347127 12.01909942 16.13674555 12 18 C8.04 18 4.08 18 0 18 C0 12.06 0 6.12 0 0 Z " fill="#ED3238" transform="translate(257,57)"/>
<path d="M0 0 C3.96 0 7.92 0 12 0 C12 5.94 12 11.88 12 18 C10.39125 18.04125 8.7825 18.0825 7.125 18.125 C6.22007812 18.14820312 5.31515625 18.17140625 4.3828125 18.1953125 C2 18 2 18 0 16 C-0.14507695 13.25514407 -0.18652423 10.61519457 -0.125 7.875 C-0.11146484 6.74384766 -0.11146484 6.74384766 -0.09765625 5.58984375 C-0.0740687 3.72642746 -0.03819719 1.86317407 0 0 Z " fill="#ED3035" transform="translate(242,57)"/>
<path d="M0 0 C3.96 0 7.92 0 12 0 C12 0.99 12 1.98 12 3 C9.69 3 7.38 3 5 3 C5 4.32 5 5.64 5 7 C7.31 7 9.62 7 12 7 C12 8.32 12 9.64 12 11 C9.69 11 7.38 11 5 11 C5 12.32 5 13.64 5 15 C7.64 15 10.28 15 13 15 C13 16.32 13 17.64 13 19 C8.71 19 4.42 19 0 19 C0 12.73 0 6.46 0 0 Z " fill="#1B1B1B" transform="translate(118,274)"/>
<path d="M0 0 C3.96 0 7.92 0 12 0 C12 0.99 12 1.98 12 3 C9.36 3 6.72 3 4 3 C4 4.32 4 5.64 4 7 C6.64 7 9.28 7 12 7 C12 8.32 12 9.64 12 11 C9.69 11 7.38 11 5 11 C5 12.32 5 13.64 5 15 C7.64 15 10.28 15 13 15 C13 16.32 13 17.64 13 19 C8.71 19 4.42 19 0 19 C0 12.73 0 6.46 0 0 Z " fill="#181818" transform="translate(219,274)"/>
<path d="M0 0 C2.97 0 5.94 0 9 0 C9 1.32 9 2.64 9 4 C7.68 4 6.36 4 5 4 C5 5.65 5 7.3 5 9 C6.32 9 7.64 9 9 9 C9 10.32 9 11.64 9 13 C7.68 13 6.36 13 5 13 C5 14.65 5 16.3 5 18 C6.65 18 8.3 18 10 18 C10 19.32 10 20.64 10 22 C6.7 22 3.4 22 0 22 C0 14.74 0 7.48 0 0 Z " fill="#EC292F" transform="translate(179,53)"/>
<path d="M0 0 C3.5625 0.375 3.5625 0.375 5.5 2.1875 C6.5625 4.375 6.5625 4.375 6.5625 7.375 C4.5825 7.375 2.6025 7.375 0.5625 7.375 C0.2325 10.015 -0.0975 12.655 -0.4375 15.375 C0.2225 15.375 0.8825 15.375 1.5625 15.375 C1.5625 13.725 1.5625 12.075 1.5625 10.375 C2.8825 10.375 4.2025 10.375 5.5625 10.375 C5.75 13.25 5.75 13.25 5.5625 16.375 C2.11004176 18.67663882 0.61511287 18.71990322 -3.4375 18.375 C-5.4375 16.375 -5.4375 16.375 -5.703125 13.1875 C-5.69796875 11.929375 -5.6928125 10.67125 -5.6875 9.375 C-5.69265625 8.116875 -5.6978125 6.85875 -5.703125 5.5625 C-5.3253722 1.02946636 -4.49241292 0.49008141 0 0 Z " fill="#EC2A2F" transform="translate(276.4375,56.625)"/>
<path d="M0 0 C1.32 0 2.64 0 4 0 C4 11.88 4 23.76 4 36 C2.68 36 1.36 36 0 36 C0 24.12 0 12.24 0 0 Z " fill="#F78080" transform="translate(141,142)"/>
<path d="M0 0 C1.22589844 0.01353516 1.22589844 0.01353516 2.4765625 0.02734375 C3.41628906 0.04474609 3.41628906 0.04474609 4.375 0.0625 C4.375 1.0525 4.375 2.0425 4.375 3.0625 C1.405 3.7225 -1.565 4.3825 -4.625 5.0625 C-4.645625 6.361875 -4.66625 7.66125 -4.6875 9 C-4.69910156 9.73089844 -4.71070312 10.46179688 -4.72265625 11.21484375 C-4.83061184 13.07982141 -4.83061184 13.07982141 -3.625 14.0625 C-2.27752916 14.29325082 -0.92122435 14.47403063 0.4375 14.625 C1.736875 14.769375 3.03625 14.91375 4.375 15.0625 C4.375 16.3825 4.375 17.7025 4.375 19.0625 C-4.53392963 19.67456387 -4.53392963 19.67456387 -8.1875 17.625 C-10.29111953 13.87506953 -10.96929202 10.35467387 -10.625 6.0625 C-7.67847526 1.18549354 -5.53092441 -0.07901321 0 0 Z " fill="#101010" transform="translate(107.625,273.9375)"/>
<path d="M0 0 C0.99 0 1.98 0 3 0 C4.50606515 3.01213029 4.12160331 6.11282622 4.09765625 9.4140625 C4.0962413 10.14370209 4.09482635 10.87334167 4.09336853 11.62509155 C4.08776531 13.95843585 4.07521235 16.29168464 4.0625 18.625 C4.05748541 20.20572778 4.05292243 21.78645707 4.04882812 23.3671875 C4.03779484 27.24482854 4.02052811 31.12239807 4 35 C2.68 35 1.36 35 0 35 C0 23.45 0 11.9 0 0 Z " fill="#F57272" transform="translate(141,182)"/>
<path d="M0 0 C3.96 0 7.92 0 12 0 C12 0.99 12 1.98 12 3 C9.36 3 6.72 3 4 3 C4 4.65 4 6.3 4 8 C6.31 8 8.62 8 11 8 C11 8.99 11 9.98 11 11 C8.69 11 6.38 11 4 11 C4 13.64 4 16.28 4 19 C2.68 19 1.36 19 0 19 C0 12.73 0 6.46 0 0 Z " fill="#010101" transform="translate(189,274)"/>
<path d="M0 0 C1.65 0 3.3 0 5 0 C5 7.26 5 14.52 5 22 C3.35 22 1.7 22 0 22 C0 14.74 0 7.48 0 0 Z " fill="#EC2328" transform="translate(292,53)"/>
<path d="M0 0 C1.98 0 3.96 0 6 0 C6 5.94 6 11.88 6 18 C4.02 18 2.04 18 0 18 C0 12.06 0 6.12 0 0 Z " fill="#ED3338" transform="translate(284,57)"/>
<path d="M0 0 C4.62 0 9.24 0 14 0 C14 0.99 14 1.98 14 3 C12.35 3 10.7 3 9 3 C9 8.28 9 13.56 9 19 C7.68 19 6.36 19 5 19 C5 13.72 5 8.44 5 3 C3.35 3 1.7 3 0 3 C0 2.01 0 1.02 0 0 Z " fill="#000000" transform="translate(157,274)"/>
<path d="M0 0 C1.98 0 3.96 0 6 0 C8 2 8 2 8.3125 5.9375 C8.23719217 8.53091352 8.15247863 9.74319388 6.8125 12 C5 13 5 13 0 13 C0 8.71 0 4.42 0 0 Z " fill="#D6D6D6" transform="translate(242,277)"/>
<path d="M0 0 C1.65 0 3.3 0 5 0 C5 6.27 5 12.54 5 19 C3.35 19 1.7 19 0 19 C0 12.73 0 6.46 0 0 Z " fill="#222222" transform="translate(207,274)"/>
<path d="M0 0 C1.65 0 3.3 0 5 0 C5 6.27 5 12.54 5 19 C3.35 19 1.7 19 0 19 C0 12.73 0 6.46 0 0 Z " fill="#222222" transform="translate(177,274)"/>
<path d="M0 0 C2.64 0 5.28 0 8 0 C7.01 1.485 7.01 1.485 6 3 C5.70008931 5.58885171 5.49134775 8.09149082 5.375 10.6875 C5.33632813 11.38939453 5.29765625 12.09128906 5.2578125 12.81445312 C5.1637666 14.54254655 5.0808032 16.27123675 5 18 C3.35 18 1.7 18 0 18 C0 12.06 0 6.12 0 0 Z " fill="#EC2127" transform="translate(257,57)"/>
<path d="M0 0 C1.65 0 3.3 0 5 0 C5 5.94 5 11.88 5 18 C3.35 18 1.7 18 0 18 C-1.23102992 14.30691024 -0.87175152 11.11949288 -0.5625 7.3125 C-0.51029297 6.61060547 -0.45808594 5.90871094 -0.40429688 5.18554688 C-0.27492135 3.45661946 -0.13817469 1.72824645 0 0 Z " fill="#EC2126" transform="translate(249,57)"/>
<path d="M0 0 C-0.33 1.98 -0.66 3.96 -1 6 C-2.91697937 5.85833643 -4.83357723 5.71150416 -6.75 5.5625 C-7.81734375 5.48128906 -8.8846875 5.40007812 -9.984375 5.31640625 C-12.43679962 5.05909227 -14.63921291 4.68187782 -17 4 C-16.67 2.68 -16.34 1.36 -16 0 C-10.39436958 -0.82622671 -5.57710648 -1.06795656 0 0 Z " fill="#7A7A7A" transform="translate(211,206)"/>
<path d="M0 0 C2.1385485 2.1385485 2.42655063 3.13275314 3 6 C-3 6 -9 6 -15 6 C-14.67 4.35 -14.34 2.7 -14 1 C-9.45352102 -0.1732849 -4.66972706 -0.54128467 0 0 Z " fill="#484848" transform="translate(168,205)"/>
<path d="M0 0 C2.0797611 3.42548887 2.0797611 3.42548887 1.73046875 5.94140625 C0.47693494 9.47409243 -2.07735615 11.73776125 -5 14 C-7.75 14.8125 -7.75 14.8125 -10 15 C-10.99 15.495 -10.99 15.495 -12 16 C-12.99 15.01 -13.98 14.02 -15 13 C-14.32453125 12.69707031 -13.6490625 12.39414062 -12.953125 12.08203125 C-5.94745068 8.8157394 -5.94745068 8.8157394 -1 3 C-0.67 2.01 -0.34 1.02 0 0 Z " fill="#7B2E09" transform="translate(315,303)"/>
<path d="M0 0 C0.66 0 1.32 0 2 0 C2 1.65 2 3.3 2 5 C3.98 5 5.96 5 8 5 C8.33 4.01 8.66 3.02 9 2 C9 5.63 9 9.26 9 13 C8.01 13.495 8.01 13.495 7 14 C7 12.35 7 10.7 7 9 C5.35 9 3.7 9 2 9 C2 10.65 2 12.3 2 14 C1.34 14 0.68 14 0 14 C0 9.38 0 4.76 0 0 Z " fill="#F8E5E6" transform="translate(219,57)"/>
<path d="M0 0 C0.7425 0.185625 1.485 0.37125 2.25 0.5625 C4.94990963 0.99203108 6.44631077 0.85122974 9 0 C9 0.66 9 1.32 9 2 C9.99 2.33 10.98 2.66 12 3 C12 3.99 12 4.98 12 6 C8.04 6 4.08 6 0 6 C0 4.02 0 2.04 0 0 Z " fill="#5B5B5B" transform="translate(234,205)"/>
<path d="M0 0 C0 1.98 0 3.96 0 6 C-3.63 6 -7.26 6 -11 6 C-11 4.35 -11 2.7 -11 1 C-10.05125 1.020625 -9.1025 1.04125 -8.125 1.0625 C-4.96309465 0.99926189 -3.14866406 0 0 0 Z " fill="#F54444" transform="translate(128,205)"/>
<path d="M0 0 C1.32 0 2.64 0 4 0 C4 2.31 4 4.62 4 7 C1.69 7 -0.62 7 -3 7 C-3 5.35 -3 3.7 -3 2 C-2.01 2 -1.02 2 0 2 C0 1.34 0 0.68 0 0 Z " fill="#F25A5A" transform="translate(132,204)"/>
<path d="M0 0 C2.31 0.33 4.62 0.66 7 1 C6.67 2.98 6.34 4.96 6 7 C3.03 6.505 3.03 6.505 0 6 C0 4.02 0 2.04 0 0 Z " fill="#707070" transform="translate(204,205)"/>
<path d="M0 0 C1.65 0 3.3 0 5 0 C5.93423645 3.01031744 6.04449911 3.86650268 5 7 C3.35 7 1.7 7 0 7 C0 4.69 0 2.38 0 0 Z " fill="#F25757" transform="translate(103,204)"/>
<path d="M0 0 C2.31 0.33 4.62 0.66 7 1 C6.625 3.4375 6.625 3.4375 6 6 C5.01 6.495 5.01 6.495 4 7 C4 6.34 4 5.68 4 5 C2.68 4.67 1.36 4.34 0 4 C0 2.68 0 1.36 0 0 Z " fill="#515151" transform="translate(219,205)"/>
<path d="M0 0 C1.07033136 3.21822604 0.95795392 5.03142433 -0.25 8.1875 C-0.62898438 9.22970703 -0.62898438 9.22970703 -1.015625 10.29296875 C-2 12 -2 12 -5 13 C-5.36905871 7.58713886 -5.36905871 7.58713886 -3.625 4.8125 C-2.820625 3.9153125 -2.820625 3.9153125 -2 3 C-1.34 2.01 -0.68 1.02 0 0 Z " fill="#792E0B" transform="translate(38,120)"/>
<path d="M0 0 C0.66 0.33 1.32 0.66 2 1 C2.66 1 3.32 1 4 1 C4.66 1 5.32 1 6 1 C6 2.65 6 4.3 6 6 C4.02 6 2.04 6 0 6 C-0.38218767 4.34385343 -0.71395102 2.67542976 -1 1 C-0.67 0.67 -0.34 0.34 0 0 Z " fill="#4A4A4A" transform="translate(187,205)"/>
<path d="M0 0 C2.31 0 4.62 0 7 0 C7 1.32 7 2.64 7 4 C4.69 4 2.38 4 0 4 C0 2.68 0 1.36 0 0 Z " fill="#EC2B31" transform="translate(205,64)"/>
<path d="M0 0 C1.98 0 3.96 0 6 0 C6 0.66 6 1.32 6 2 C7.65 2.33 9.3 2.66 11 3 C11 4.65 11 6.3 11 8 C10.45730469 7.59007812 9.91460937 7.18015625 9.35546875 6.7578125 C8.64003906 6.21898437 7.92460937 5.68015625 7.1875 5.125 C6.47980469 4.59132813 5.77210938 4.05765625 5.04296875 3.5078125 C3.39543703 2.29185219 1.70375789 1.13583859 0 0 Z " fill="#7A310F" transform="translate(303,36)"/>
<path d="M0 0 C1.98 0 3.96 0 6 0 C6 1.65 6 3.3 6 5 C4.02 5 2.04 5 0 5 C0 3.35 0 1.7 0 0 Z " fill="#4E4E4E" transform="translate(227,206)"/>
<path d="M0 0 C0 0.99 0 1.98 0 3 C-3 5.1875 -3 5.1875 -6 7 C-6.99 6.01 -7.98 5.02 -9 4 C-6.03 2.68 -3.06 1.36 0 0 Z " fill="#7A3615" transform="translate(309,312)"/>
<path d="M0 0 C2.475 0.495 2.475 0.495 5 1 C4.67 2.32 4.34 3.64 4 5 C2.68 5 1.36 5 0 5 C0 3.35 0 1.7 0 0 Z " fill="#E1E1E1" transform="translate(142,277)"/>
<path d="M0 0 C0.99 0 1.98 0 3 0 C3 1.98 3 3.96 3 6 C1.68 6 0.36 6 -1 6 C-1.042721 4.33388095 -1.04063832 2.66617115 -1 1 C-0.67 0.67 -0.34 0.34 0 0 Z " fill="#F06A6A" transform="translate(125,205)"/>
<path d="M0 0 C2.64 1.98 5.28 3.96 8 6 C5.3333581 7.33332095 3.83319697 6.67102033 1 6 C0.67 4.02 0.34 2.04 0 0 Z " fill="#78310F" transform="translate(38,308)"/>
<path d="M0 0 C1.65 0 3.3 0 5 0 C4.01 0.495 4.01 0.495 3 1 C3.33 2.32 3.66 3.64 4 5 C2.35 5 0.7 5 -1 5 C-0.67 3.35 -0.34 1.7 0 0 Z " fill="#6F6F6F" transform="translate(154,206)"/>
<path d="M0 0 C1.65 0 3.3 0 5 0 C5 1.32 5 2.64 5 4 C3.35 4 1.7 4 0 4 C0 2.68 0 1.36 0 0 Z " fill="#515151" transform="translate(198,207)"/>
<path d="M0 0 C1.32 0 2.64 0 4 0 C4 2.31 4 4.62 4 7 C2.68 6.67 1.36 6.34 0 6 C0.66 6 1.32 6 2 6 C2 4.68 2 3.36 2 2 C1.34 2 0.68 2 0 2 C0 1.34 0 0.68 0 0 Z " fill="#EE7676" transform="translate(132,204)"/>
<path d="M0 0 C0.66 0 1.32 0 2 0 C2 1.98 2 3.96 2 6 C1.34 6 0.68 6 0 6 C-0.33 6.99 -0.66 7.98 -1 9 C-1.09765625 2.84765625 -1.09765625 2.84765625 -1 1 C-0.67 0.67 -0.34 0.34 0 0 Z " fill="#F9B3B3" transform="translate(142,185)"/>
<path d="M0 0 C1.98 0 3.96 0 6 0 C6 0.99 6 1.98 6 3 C4.02 3 2.04 3 0 3 C0 2.01 0 1.02 0 0 Z " fill="#EE4146" transform="translate(284,53)"/>
<path d="M0 0 C0.556875 0.226875 1.11375 0.45375 1.6875 0.6875 C1.3575 1.3475 1.0275 2.0075 0.6875 2.6875 C-1.6265622 3.41825648 -3.96078869 4.08888258 -6.3125 4.6875 C-6.6425 4.0275 -6.9725 3.3675 -7.3125 2.6875 C-2.88173077 -0.38942308 -2.88173077 -0.38942308 0 0 Z " fill="#7B3411" transform="translate(131.3125,33.3125)"/>
<path d="M0 0 C0.99 0 1.98 0 3 0 C3 1.98 3 3.96 3 6 C2.01 6 1.02 6 0 6 C0 4.02 0 2.04 0 0 Z " fill="#484848" transform="translate(204,205)"/>
<path d="M0 0 C2.475 0.99 2.475 0.99 5 2 C4.34 2.66 3.68 3.32 3 4 C0.375 3.625 0.375 3.625 -2 3 C-1.34 2.01 -0.68 1.02 0 0 Z " fill="#82320C" transform="translate(119,36)"/>
</svg>
