<?xml version="1.0" encoding="UTF-8"?>
<svg version="1.1" xmlns="http://www.w3.org/2000/svg" width="3959" height="2885">
<path d="M0 0 C5.92747989 5.92747989 7.35914285 12.18142579 7.37442017 20.39323425 C7.37082489 21.18877213 7.36722961 21.98431 7.36352539 22.80395508 C7.36367142 23.65324585 7.36381744 24.50253662 7.3639679 25.37756348 C7.36327319 28.17491237 7.35550149 30.97219404 7.34765625 33.76953125 C7.3457905 35.7129462 7.34436734 37.65636163 7.34336853 39.59977722 C7.33955571 44.70760401 7.32973597 49.81540224 7.31866455 54.92321777 C7.30842387 60.13826104 7.30386522 65.35330894 7.29882812 70.56835938 C7.2881126 80.79558545 7.27105101 91.02279035 7.25 101.25 C8.1936441 100.57434998 9.13728821 99.89869995 10.10952759 99.20257568 C11.36938718 98.30136653 12.62926571 97.40018386 13.88916016 96.49902344 C14.50851944 96.05545502 15.12787872 95.6118866 15.76600647 95.15487671 C32.99058647 82.83897307 50.78775484 71.61202026 69.25 61.25 C69.98669922 60.83202148 70.72339844 60.41404297 71.48242188 59.98339844 C124.98029744 29.79127366 186.554299 12.99326827 247.125 5 C248.26171143 4.84893799 249.39842285 4.69787598 250.56958008 4.54223633 C254.45848332 4.05922229 258.35042784 3.63516512 262.25 3.25 C263.13231293 3.16279694 264.01462585 3.07559387 264.92367554 2.98574829 C282.83546502 1.2794436 300.68448661 0.88476726 318.66034698 0.93194199 C320.84760105 0.93759065 323.03484734 0.94040564 325.22210693 0.94302368 C346.0325924 0.97923471 366.60591119 1.32869333 387.25 4.25 C389.21138916 4.51538574 389.21138916 4.51538574 391.21240234 4.78613281 C489.00755187 18.13330702 584.91649095 57.45460887 667.49707031 124.80126953 C670.00011324 126.86994039 672.53420376 128.89982215 675.0625 130.9375 C679.66773356 134.70604698 684.07873534 138.65788304 688.44921875 142.6953125 C690.59692541 144.65430853 692.7669167 146.5631746 694.96777344 148.46069336 C698.98735467 151.97437908 702.79853925 155.6533218 706.56640625 159.43359375 C707.22656235 160.09279312 707.88671844 160.75199249 708.56687927 161.4311676 C709.95035506 162.81396835 711.33259083 164.19801076 712.71362305 165.58325195 C714.80731669 167.68230343 716.90629874 169.7759594 719.00585938 171.86914062 C720.35969571 173.22363786 721.71322175 174.57844531 723.06640625 175.93359375 C723.68326797 176.54843124 724.3001297 177.16326874 724.9356842 177.79673767 C729.2363798 182.12024438 733.27623499 186.62570693 737.25 191.25 C738.22333114 192.36773398 739.19718204 193.48501587 740.171875 194.6015625 C747.12365225 202.62648171 753.7892573 210.82581982 760.25 219.25 C760.80526367 219.96865234 761.36052734 220.68730469 761.93261719 221.42773438 C776.63893838 240.50314934 790.03746657 260.4900308 802.25 281.25 C802.72356934 282.054375 803.19713867 282.85875 803.68505859 283.6875 C844.56681067 353.47051046 870.89590691 430.53068084 890.5 555.1875 C890.5772229 555.87619171 890.6544458 556.56488342 890.73400879 557.27444458 C893.6812739 583.96486139 894.60667494 610.62563553 894.56567383 637.45410156 C894.56105324 640.72409869 894.56795304 643.99372275 894.58618164 647.26367188 C894.75629917 678.15339697 893.1225846 708.80035698 888.5 739.375 C888.37372223 740.23256897 888.24744446 741.09013794 888.11734009 741.97369385 C881.87052264 784.29893148 871.82016298 825.68557445 858.25 866.25 C857.84168945 867.47090332 857.43337891 868.69180664 857.01269531 869.94970703 C843.96251811 908.50704875 827.67443251 946.45022152 807.58642578 981.87841797 C806.28384442 984.18994069 805.01025494 986.51493618 803.74609375 988.84765625 C787.81522914 1018.16261459 769.12121816 1046.40091683 748.51074219 1072.64208984 C747.19082099 1074.32547502 745.88012883 1076.01577453 744.5703125 1077.70703125 C738.7878923 1085.15053445 732.82818347 1092.4150713 726.68994141 1099.56738281 C725.16525974 1101.34902168 723.65044495 1103.1387341 722.13671875 1104.9296875 C712.99716457 1115.71396443 712.99716457 1115.71396443 707.91723633 1120.58178711 C706.28903117 1122.21094597 704.81345517 1123.90057082 703.328125 1125.66015625 C698.62623439 1131.06699004 693.55397206 1136.09581865 688.48022461 1141.15014648 C686.81573723 1142.8092732 685.15666553 1144.47368051 683.49804688 1146.13867188 C677.91971203 1151.72049823 672.25544972 1157.12592311 666.25 1162.25 C664.47429779 1163.86967817 662.70291693 1165.49411718 660.9375 1167.125 C656.50368689 1171.16402153 651.96945416 1175.02506878 647.30078125 1178.7890625 C645.07711326 1180.58280236 642.86801522 1182.38872383 640.66796875 1184.2109375 C615.28996173 1205.16850904 587.82282226 1223.91110469 559.25 1240.25 C558.13939209 1240.88591064 558.13939209 1240.88591064 557.00634766 1241.53466797 C551.78947582 1244.50581371 546.52890273 1247.39087313 541.25 1250.25 C540.47172852 1250.67603516 539.69345703 1251.10207031 538.89160156 1251.54101562 C466.12850129 1291.26207724 384.1274754 1312.94423298 287.25 1321.25 C286.34056641 1321.30639648 285.43113281 1321.36279297 284.49414062 1321.42089844 C197.59803687 1326.61744534 108.69505305 1318.07988061 26.15234375 1290.01953125 C25.50225845 1289.79990219 24.85217316 1289.58027313 24.18238831 1289.35398865 C20.41013978 1288.05905645 16.69991087 1286.64775741 12.99928284 1285.15971375 C12.10735513 1284.80149882 11.21542742 1284.4432839 10.2964716 1284.07421398 C9.62113597 1283.80222337 8.94580034 1283.53023275 8.25 1283.25 C8.21574628 1333.90585021 8.18390726 1384.56170122 8.16531372 1435.21755981 C8.16503761 1435.96787463 8.16476149 1436.71818946 8.16447701 1437.49124109 C8.15849051 1453.79954605 8.15295024 1470.10785114 8.14786934 1486.4161564 C8.14537478 1494.41431914 8.14278165 1502.41248184 8.14013672 1510.41064453 C8.13974444 1511.60448303 8.13974444 1511.60448303 8.13934424 1512.82243949 C8.13082908 1538.59659439 8.1158121 1564.3707405 8.09740556 1590.14489008 C8.07851709 1616.64212873 8.06622372 1643.13936252 8.06217002 1669.63660779 C8.06159375 1673.3834112 8.06094248 1677.13021459 8.06024551 1680.87701797 C8.06011067 1681.61440672 8.05997582 1682.35179546 8.05983689 1683.11152932 C8.05747801 1694.95777493 8.04821422 1706.80400545 8.03633593 1718.65024492 C8.02452841 1730.5740476 8.02007229 1742.4978354 8.02299725 1754.42164372 C8.02427615 1760.87639029 8.02233798 1767.33109276 8.01158905 1773.78583145 C8.00180526 1779.70444918 8.0013982 1785.62299344 8.00820221 1791.54161467 C8.00904226 1793.67382 8.0065489 1795.80603006 8.00023364 1797.93822621 C7.92036727 1826.58753781 10.8817281 1855.25226635 31.25 1877.25 C31.68296387 1877.7238916 32.11592773 1878.1977832 32.56201172 1878.68603516 C43.46263881 1890.50484942 55.84719329 1898.50195813 70.30639648 1905.31787109 C72.97038867 1906.59548976 75.6074007 1907.92870035 78.25 1909.25 C78.25 1923.11 78.25 1936.97 78.25 1951.25 C-27.32711031 1969.10845383 -132.90616416 1986.95525119 -238.49765778 2004.72849274 C-243.81470482 2005.62347489 -249.13172274 2006.51862992 -254.44872928 2007.41385269 C-258.58512378 2008.11028733 -262.72152937 2008.80665605 -266.85793829 2009.50300503 C-268.88751575 2009.84468261 -270.91709016 2010.18637828 -272.94666147 2010.52809238 C-283.59492199 2012.32085235 -294.243488 2014.11175139 -304.89306641 2015.89666748 C-308.53988767 2016.50802956 -312.18669429 2017.11947888 -315.83349609 2017.73095703 C-316.71740509 2017.87912652 -317.60131408 2018.02729601 -318.51200819 2018.17995548 C-329.65350203 2020.04826722 -340.79121 2021.93722812 -351.92501736 2023.85081196 C-357.40898201 2024.79319742 -362.89425416 2025.72785464 -368.37992769 2026.66023654 C-372.64580631 2027.38598628 -376.90974079 2028.12193828 -381.17238474 2028.86643839 C-384.33373118 2029.41538342 -387.49774721 2029.94852746 -390.66137695 2030.48413086 C-392.31929103 2030.7791578 -392.31929103 2030.7791578 -394.01069832 2031.08014488 C-401.80136151 2032.37675672 -409.74294152 2033.38300423 -416.5625 2028.5625 C-421.45053229 2025.0052409 -424.58135384 2021.31617328 -425.75 2015.25 C-425.83955453 2013.49563691 -425.87555808 2011.73820901 -425.87588384 2009.98156171 C-425.87982085 2008.36665501 -425.87982085 2008.36665501 -425.8838374 2006.71912393 C-425.88053136 2004.9412065 -425.88053136 2004.9412065 -425.87715852 2003.12737155 C-425.87875834 2001.86316688 -425.88035816 2000.59896221 -425.88200646 1999.29644831 C-425.88633428 1995.76346085 -425.8843939 1992.23049969 -425.88149292 1988.69751178 C-425.87943269 1984.84858079 -425.88316679 1980.99965478 -425.88617444 1977.15072501 C-425.89066736 1970.3709365 -425.89142413 1963.59115537 -425.88980167 1956.81136569 C-425.88739675 1946.66157248 -425.89077091 1936.51178686 -425.89531859 1926.36199466 C-425.90290707 1909.06625026 -425.90580506 1891.7705079 -425.90620613 1874.47476196 C-425.90663954 1856.93825426 -425.90927268 1839.40174892 -425.91462898 1821.865242 C-425.91496617 1820.75908236 -425.91530337 1819.65292271 -425.91565078 1818.51324307 C-425.91738333 1812.87323464 -425.91915814 1807.23322622 -425.92095293 1801.5932178 C-425.92462103 1790.02785193 -425.92799586 1778.46248598 -425.93127275 1766.89712 C-425.93160317 1765.73215484 -425.9319336 1764.56718969 -425.93227405 1763.36692256 C-425.93946658 1737.75414447 -425.94379301 1712.14136603 -425.94799107 1686.5285873 C-425.95777758 1626.93295647 -425.97631163 1567.33733104 -425.99812304 1507.7417035 C-426.0066745 1484.3614861 -426.01494518 1460.98126859 -426.02324013 1437.60105109 C-426.02463831 1433.66208087 -426.02603913 1429.72311066 -426.02744028 1425.78414045 C-426.04897122 1365.2077312 -426.06840938 1304.63132138 -426.08665313 1244.05491106 C-426.0876841 1240.63207258 -426.08871831 1237.2092341 -426.08975336 1233.78639562 C-426.10908622 1169.83896159 -426.12630223 1105.89152757 -426.13873291 1041.9440918 C-426.13900055 1040.56982197 -426.13926822 1039.19555214 -426.13953592 1037.82128231 C-426.14247399 1022.7285405 -426.14536578 1007.63579869 -426.14824052 992.54305688 C-426.14836968 991.86507459 -426.14849884 991.1870923 -426.14863192 990.48856509 C-426.14980508 984.3298099 -426.15097811 978.17105472 -426.15214511 972.01229953 C-426.16411776 908.83365382 -426.1779847 845.65501054 -426.2017765 782.47636795 C-426.20226471 781.17735748 -426.20275292 779.878347 -426.20325593 778.53997258 C-426.21351405 751.30515259 -426.22439223 724.0703329 -426.23608314 696.8355135 C-426.24155511 684.08194445 -426.24688227 671.32837535 -426.25212479 658.57480621 C-426.25264338 657.31912115 -426.25316197 656.06343608 -426.25369627 654.76969995 C-426.27033475 614.3033673 -426.27700491 573.83704044 -426.27829961 533.37070461 C-426.27963185 492.61479567 -426.2900349 451.85890044 -426.31324512 411.10299774 C-426.31644803 405.47252213 -426.31954179 399.84204645 -426.32256889 394.21157074 C-426.32346448 392.55595756 -426.32346448 392.55595756 -426.32437817 390.86689766 C-426.3335567 373.38175565 -426.33264551 355.89662922 -426.32752821 338.41148616 C-426.32270219 321.22288085 -426.32850503 304.03430655 -426.34564828 286.84570881 C-426.3553782 276.76573787 -426.35689432 266.68584631 -426.34628604 256.6058758 C-426.34005612 249.91054318 -426.34469142 243.21527483 -426.35813966 236.51995295 C-426.36545763 232.72505757 -426.36819084 228.93032164 -426.357508 225.13543059 C-426.28295047 196.50732882 -428.69427917 168.45627501 -449.95703125 146.95703125 C-463.37926638 133.94778797 -479.65771117 126.56408089 -497.1640625 120.52734375 C-500.75 119.25 -500.75 119.25 -501.75 118.25 C-501.83861992 115.4383662 -501.86522355 112.65141745 -501.84765625 109.83984375 C-501.8462413 108.99780899 -501.84482635 108.15577423 -501.84336853 107.28822327 C-501.83775263 104.58794665 -501.82519748 101.88775172 -501.8125 99.1875 C-501.80748705 97.36132932 -501.80292379 95.53515734 -501.79882812 93.70898438 C-501.78862721 89.22262351 -501.76966743 84.736328 -501.75 80.25 C-482.38853158 76.22210561 -462.94819623 72.76276523 -443.46345568 69.39776301 C-439.05743923 68.63606356 -434.65209712 67.87048178 -430.24667358 67.10536194 C-422.61888874 65.78107426 -414.99072875 64.45896704 -407.36230469 63.1383667 C-395.19927521 61.03267972 -383.03706268 58.92229808 -370.875 56.81103516 C-367.73340422 56.26569808 -364.59180751 55.72036629 -361.45021081 55.17503452 C-359.33344991 54.80759598 -357.21669014 54.44015096 -355.09993148 54.07269955 C-348.64212486 52.95170964 -342.18425678 51.83107456 -335.72634006 50.71071911 C-289.84803452 42.75148383 -243.97582504 34.7573874 -198.10475862 26.75655121 C-189.95348694 25.33483099 -181.80214136 23.9135349 -173.65076554 22.49241191 C-165.86113981 21.13434599 -158.07158027 19.77590072 -150.28203666 18.41736382 C-144.65025809 17.43522525 -139.01836483 16.45374748 -133.38638246 15.47277826 C-114.7300214 12.22296621 -96.07630508 8.95915914 -77.42875671 5.65911937 C-71.80751922 4.66491667 -66.18576447 3.67364177 -60.56401825 2.68232024 C-55.27150685 1.7486022 -49.97997048 0.80959297 -44.68912888 -0.13353825 C-41.45939133 -0.70802392 -38.22880375 -1.27760935 -34.99796295 -1.84585428 C-33.51068113 -2.10850927 -32.02376379 -2.37323815 -30.53725433 -2.6402297 C-28.50721266 -3.00459881 -26.47599518 -3.36154452 -24.44433594 -3.71676636 C-23.31316345 -3.9175926 -22.18199097 -4.11841885 -21.01654053 -4.32533073 C-12.80876346 -5.39238949 -6.92295919 -4.40551949 0 0 Z M28.5625 289.75 C27.92248047 290.23509033 27.28246094 290.72018066 26.62304688 291.2199707 C25.31138751 292.229534 24.02298406 293.26996207 22.75832891 294.33781773 C20.25 296.25 20.25 296.25 17.03160715 297.94528192 C11.92713971 300.90629363 8.0781536 304.18789079 6.49324214 310.04812248 C5.31285917 318.31934012 5.48656385 326.68185231 5.59232452 335.01683352 C5.62721259 338.90113502 5.58645844 342.78478252 5.55549288 346.66901582 C5.5116686 353.47220306 5.51606502 360.2740274 5.55228806 367.07723999 C5.60600383 377.1935136 5.58528461 387.30868729 5.5499127 397.42499258 C5.48920861 415.49254403 5.50255801 433.55947106 5.54702163 451.62703601 C5.58569945 467.4374916 5.59937949 483.24772598 5.58827209 499.05822563 C5.58756934 500.10686911 5.58686658 501.15551258 5.58614253 502.23593313 C5.58325868 506.49268243 5.58026186 510.74943161 5.57709303 515.0061807 C5.54774899 554.93870206 5.59260244 594.87083582 5.67182443 634.80327307 C5.74178809 670.28477235 5.75043339 705.76577706 5.70605469 741.24731445 C5.65645531 781.10812713 5.641812 820.96868063 5.6863122 860.82950872 C5.68981165 864.01904382 5.69328566 867.20857894 5.69672382 870.3981141 C5.69900499 872.51398224 5.70132141 874.62985034 5.70367333 876.74571841 C5.7206816 892.547337 5.7113618 908.34879945 5.68962097 924.15040779 C5.66512179 942.11592103 5.68035214 960.08091994 5.74781328 978.04633314 C5.78449296 988.10265769 5.79098485 998.15792618 5.75400535 1008.21425569 C5.73237034 1014.93000559 5.75068987 1021.64487731 5.80163589 1028.36046691 C5.82956806 1032.18832194 5.84020852 1036.01405849 5.80246085 1039.84187747 C5.76221976 1043.96714603 5.80703819 1048.08716027 5.86016083 1052.21228123 C5.8349797 1053.39896061 5.80979856 1054.58564 5.78385437 1055.80827937 C5.91539089 1060.99536361 6.28073835 1064.07280248 9.64146954 1068.15451192 C12.41098515 1070.70157579 15.23476182 1073.0022426 18.25 1075.25 C19.67425689 1076.40331474 21.0967082 1077.55887169 22.515625 1078.71875 C23.83843228 1079.73611854 25.16660861 1080.74654334 26.5 1081.75 C27.22541992 1082.29769043 27.95083984 1082.84538086 28.69824219 1083.40966797 C57.7350533 1105.14612077 89.78098361 1119.90302233 126.25 1123.25 C127.25933594 1123.35957031 128.26867187 1123.46914062 129.30859375 1123.58203125 C190.43489138 1129.42212338 254.84448373 1111.43101178 302.58203125 1072.56640625 C339.11465891 1042.27079352 365.00517386 1005.47227762 386.25 963.25 C386.84675537 962.07848389 386.84675537 962.07848389 387.45556641 960.88330078 C424.48680826 887.79996998 438.18772488 802.31539806 414.4296875 453.421875 C409.21153102 437.59331467 403.53303497 422.03400542 396.48876953 406.9140625 C395.21828757 404.18180014 393.98188007 401.43560554 392.74609375 398.6875 C383.37097984 378.160879 371.988548 358.18316472 358.25 340.25 C357.07630859 338.67025391 357.07630859 338.67025391 355.87890625 337.05859375 C341.8712286 318.32336018 325.8510358 300.50987826 307.25 286.25 C305.80173828 285.07630859 305.80173828 285.07630859 304.32421875 283.87890625 C295.50340879 276.78378572 286.04435129 270.90327165 276.25 265.25 C275.55922363 264.84894043 274.86844727 264.44788086 274.15673828 264.03466797 C193.84574343 217.95205282 99.63387036 235.77796319 28.5625 289.75 Z " fill="#B30537" transform="translate(501.75,547.75)"/>
<path d="M0 0 C5.24914717 5.24914717 6.76445627 10.81806329 6.84728962 18.11515856 C6.83838591 19.10167139 6.8294822 20.08818421 6.82030869 21.10459137 C6.82661244 22.1741208 6.83291619 23.24365023 6.83941096 24.34558964 C6.85569704 27.93589345 6.8434978 31.52553225 6.83148193 35.11584473 C6.83735626 37.71312821 6.84498282 40.31040822 6.854213 42.90768194 C6.8714681 48.55779699 6.87393919 54.20776797 6.86669731 59.85790253 C6.85599612 68.25938853 6.86819239 76.66073257 6.88506903 85.06220288 C6.91281117 99.19526861 6.92200064 113.32828953 6.92061615 127.46138 C6.91930597 141.45487776 6.92624196 155.44833141 6.94419098 169.44181824 C6.94530237 170.3118941 6.94641376 171.18196996 6.94755882 172.07841175 C6.95324591 176.49708845 6.95908032 180.91576494 6.96497145 185.33444136 C7.00643317 216.63181076 7.02940621 247.92916914 7.04150391 279.2265625 C7.05329896 309.63152314 7.07347013 340.03645937 7.10498047 370.44140625 C7.10594842 371.37862115 7.10691637 372.31583606 7.10791365 373.28145141 C7.11764347 382.69334977 7.12754356 392.10524794 7.13756842 401.51714599 C7.15798632 420.69026269 7.17726769 439.86338047 7.19586182 459.03649902 C7.19714631 460.35882211 7.19714631 460.35882211 7.19845675 461.70785879 C7.25551055 520.57605906 7.28607081 579.44427899 7.3125 638.3125 C8.30418576 637.66432359 8.30418576 637.66432359 9.31590557 637.00305271 C12.33930857 635.02747538 15.36337398 633.05291429 18.38745117 631.07836914 C19.42746025 630.39858253 20.46746933 629.71879593 21.53899384 629.01840973 C28.49916149 624.47516463 35.4822349 620.00213336 42.625 615.75 C43.64948242 615.13979004 44.67396484 614.52958008 45.72949219 613.90087891 C106.35686916 578.09404407 172.00619228 556.77670318 241.8125 548.125 C243.04299072 547.97015137 244.27348145 547.81530273 245.54125977 547.65576172 C269.30888975 544.85095248 293.03837624 543.95733785 316.9465332 543.99682617 C319.97337745 544.00144892 322.99981889 543.99454023 326.02661133 543.97631836 C353.9209459 543.81039018 381.52337333 545.3489766 409.0625 550.0625 C409.81735687 550.1881131 410.57221375 550.3137262 411.34994507 550.44314575 C460.71285654 558.68533699 507.60748153 575.02473649 552.3125 597.3125 C553.16150879 597.73499023 554.01051758 598.15748047 554.88525391 598.59277344 C574.23293553 608.29985769 592.74485046 619.6735991 610.3125 632.3125 C611.05951172 632.84842773 611.80652344 633.38435547 612.57617188 633.93652344 C623.80243071 642.02182818 634.69973539 650.43829767 645.3125 659.3125 C645.90337402 659.80427734 646.49424805 660.29605469 647.10302734 660.80273438 C660.65885712 672.11877394 673.36893492 684.29220313 685.875 696.75 C686.70789551 697.57822266 687.54079102 698.40644531 688.39892578 699.25976562 C693.24358373 704.11714435 697.84202082 709.11113642 702.3125 714.3125 C703.76695517 715.92018373 705.22470895 717.52489715 706.6875 719.125 C711.41763275 724.37448855 715.89798951 729.79618606 720.3125 735.3125 C720.72193848 735.82232422 721.13137695 736.33214844 721.55322266 736.85742188 C740.19702475 760.12124213 757.18105399 784.62073941 772.3125 810.3125 C772.77543457 811.09560547 773.23836914 811.87871094 773.71533203 812.68554688 C797.73091221 853.49336612 817.02490299 896.52876255 832.3125 941.3125 C832.72886719 942.5288916 833.14523437 943.7452832 833.57421875 944.99853516 C849.96320135 993.27669581 860.66245424 1043.56642026 866.5625 1094.1875 C866.71356201 1095.46608887 866.86462402 1096.74467773 867.02026367 1098.06201172 C869.81418226 1123.42946881 870.69162741 1148.74485369 870.63035583 1174.24053192 C870.6249047 1176.60381734 870.6225448 1178.96709271 870.6204834 1181.3303833 C870.58787582 1205.35154647 870.01285165 1229.21582609 867.53710938 1253.12750244 C867.31329109 1255.30480427 867.10063534 1257.48294782 866.890625 1259.66162109 C859.26027076 1337.91424857 838.59203306 1415.07142123 805.3125 1486.3125 C804.86293945 1487.27865234 804.41337891 1488.24480469 803.95019531 1489.24023438 C796.94392726 1504.23943518 789.50113604 1518.92334748 781.3125 1533.3125 C780.87067383 1534.09238281 780.42884766 1534.87226562 779.97363281 1535.67578125 C762.75451972 1565.82527979 742.5423616 1594.66784599 720.3125 1621.3125 C719.82120605 1621.90289063 719.32991211 1622.49328125 718.82373047 1623.1015625 C713.53268058 1629.44726536 708.14647005 1635.69533205 702.578125 1641.80078125 C701.31768845 1643.19812728 700.06359175 1644.60153898 698.83561707 1646.02749634 C694.56798758 1650.98052061 690.10146753 1655.67007393 685.47265625 1660.28515625 C684.74686874 1661.01190048 684.02108124 1661.73864471 683.27330017 1662.4874115 C681.74926444 1664.01212296 680.22398431 1665.5355915 678.69750977 1667.05786133 C676.38117537 1669.36883891 674.07022922 1671.68510771 671.75976562 1674.00195312 C670.26854966 1675.4925082 668.77702347 1676.982753 667.28515625 1678.47265625 C666.60469742 1679.15513931 665.92423859 1679.83762238 665.22315979 1680.54078674 C660.74639595 1684.99608851 656.10764059 1689.20320279 651.3125 1693.3125 C650.2182804 1694.2624802 649.12444797 1695.21290682 648.03125 1696.1640625 C633.28201433 1708.90234862 618.12465375 1720.91665073 602.3125 1732.3125 C601.57854004 1732.84262695 600.84458008 1733.37275391 600.08837891 1733.91894531 C534.72738183 1780.99539161 460.16948981 1815.6044387 356.3125 1843.3125 C355.56826782 1843.48738953 354.82403564 1843.66227905 354.05725098 1843.84246826 C306.19451816 1855.0357784 257.41825981 1861.91674718 208.3125 1864.3125 C207.24032227 1864.36889648 206.16814453 1864.42529297 205.06347656 1864.48339844 C115.96541459 1869.06155972 25.94851251 1859.54705791 -70.6875 1836.3125 C-71.94016663 1836.00472626 -71.94016663 1836.00472626 -73.21813965 1835.69073486 C-142.91558709 1818.5094337 -211.21751053 1794.74615262 -276.6875 1765.3125 C-277.99067511 1764.72873499 -279.29389909 1764.14507906 -280.59716797 1763.56152344 C-289.64227816 1759.50647873 -298.65929367 1755.39200311 -307.66229248 1751.24438477 C-309.60333837 1750.35122637 -311.54582488 1749.46128454 -313.48876953 1748.57226562 C-333.3409235 1739.47659705 -352.90729588 1729.8067773 -372.4441185 1720.05690384 C-374.40495688 1719.07873423 -376.36643051 1718.10184894 -378.32803345 1717.12521362 C-390.95558237 1710.83456781 -403.55032421 1704.49223885 -415.953125 1697.765625 C-416.81460144 1697.30033386 -417.67607788 1696.83504272 -418.56365967 1696.35565186 C-420.95899326 1695.04079391 -423.32679757 1693.6884473 -425.6875 1692.3125 C-426.49989136 1691.85339233 -427.31228271 1691.39428467 -428.14929199 1690.92126465 C-428.94017212 1690.44290161 -429.73105225 1689.96453857 -430.54589844 1689.47167969 C-431.24696716 1689.05682312 -431.94803589 1688.64196655 -432.67034912 1688.21453857 C-436.92465822 1684.20300919 -438.88391201 1679.23698115 -439.18787 1673.43812317 C-439.20837239 1671.58188094 -439.20715716 1669.72531756 -439.18840468 1667.86905682 C-439.19396299 1666.83539913 -439.1995213 1665.80174144 -439.20524804 1664.73676079 C-439.2190364 1661.26144727 -439.20426871 1657.78684267 -439.18972206 1654.3115406 C-439.19378119 1651.7887434 -439.19959521 1649.26594851 -439.2070086 1646.74315894 C-439.21914649 1641.23482566 -439.21881211 1635.72670761 -439.20762999 1630.21837617 C-439.19097236 1621.97210204 -439.19744387 1613.72595633 -439.20846271 1605.47967849 C-439.22657654 1591.42564178 -439.22578195 1577.37166273 -439.21478081 1563.31762123 C-439.20371234 1549.07239796 -439.20137361 1534.82721295 -439.20974541 1520.58198738 C-439.21026916 1519.68268387 -439.2107929 1518.78338036 -439.21133252 1517.85682523 C-439.21404551 1513.27132278 -439.21690512 1508.68582043 -439.21981989 1504.1003181 C-439.2406557 1470.89435855 -439.24244295 1437.68842013 -439.23448563 1404.48245621 C-439.22668403 1371.5821476 -439.22802566 1338.68185845 -439.24131393 1305.78155136 C-439.24192844 1304.24901472 -439.24192844 1304.24901472 -439.24255536 1302.68551774 C-439.24672859 1292.31215212 -439.25109692 1281.9387866 -439.25559463 1271.56542112 C-439.26519769 1249.40677302 -439.27349586 1227.24812447 -439.28120995 1205.08947563 C-439.2815792 1204.03290363 -439.28194846 1202.97633163 -439.28232891 1201.8877423 C-439.29981999 1151.5892637 -439.30423665 1101.2907856 -439.30649089 1050.99230433 C-439.30664066 1047.65443958 -439.30679422 1044.31657484 -439.30694905 1040.97871009 C-439.30715569 1036.52348854 -439.30736154 1032.06826698 -439.30756648 1027.61304542 C-439.30802926 1017.56976651 -439.30849736 1007.52648759 -439.30898179 997.48320868 C-439.30908932 995.24832434 -439.30919585 993.01344 -439.30930139 990.77855566 C-439.31173894 939.38868063 -439.31900383 887.99880683 -439.32848684 836.60893265 C-439.3291014 833.27429969 -439.3297107 829.93966673 -439.33031921 826.60503376 C-439.33951527 776.37117341 -439.35111989 726.13731433 -439.36737633 675.90345573 C-439.36806368 673.77117805 -439.36875101 671.63890037 -439.36943832 669.50662269 C-439.37557162 650.51774415 -439.38180723 631.52886564 -439.38855521 612.53998731 C-439.39297736 600.08719369 -439.39726028 587.63440004 -439.4013176 575.18160629 C-439.40165049 574.16083839 -439.40198339 573.14007048 -439.40232638 572.08837021 C-439.41327605 538.19084222 -439.41524487 504.29331977 -439.4126381 470.39579033 C-439.41096915 448.63175671 -439.41020974 426.86772506 -439.41528487 405.10369182 C-439.41550522 404.1584146 -439.41572557 403.21313739 -439.41595259 402.23921541 C-439.41818835 392.85634146 -439.42077564 383.47346766 -439.42382545 374.09059394 C-439.42530678 369.51273706 -439.42670763 364.93488016 -439.42805672 360.35702324 C-439.42845602 359.01096083 -439.42845602 359.01096083 -439.42886339 357.63770524 C-439.43287986 343.43584981 -439.43012961 329.234004 -439.42451869 315.03214945 C-439.41912903 301.06289491 -439.4208045 287.09365609 -439.42995259 273.12440336 C-439.43509368 264.93799037 -439.43476433 256.75162209 -439.42626477 248.56521165 C-439.42055694 242.48111637 -439.42530238 236.39707575 -439.43404596 230.31298214 C-439.43594768 227.87169632 -439.43451942 225.43040497 -439.42929924 222.98912399 C-439.37382555 195.1233184 -440.10516664 166.46880505 -460.7109375 145.2265625 C-472.73696733 133.89517699 -487.4863655 129.05711478 -502.6875 123.3125 C-502.6875 108.1325 -502.6875 92.9525 -502.6875 77.3125 C-489.56701567 74.81336013 -476.46829391 72.36693419 -463.29956055 70.16577148 C-461.56253715 69.8736458 -459.82554802 69.58131629 -458.08858967 69.28880405 C-453.400298 68.49984308 -448.71154471 67.71365825 -444.02270317 66.92797279 C-438.97798225 66.08211304 -433.93371927 65.23353058 -428.8894043 64.38525391 C-420.23065244 62.92949905 -411.57164125 61.47529575 -402.91244507 60.02218628 C-389.25413929 57.73012764 -375.59637622 55.43484579 -361.9387207 53.13891602 C-358.47428794 52.55654246 -355.00985457 51.97417248 -351.54542118 51.39180261 C-349.23016028 51.00260665 -346.91490014 50.61340608 -344.59964079 50.2242009 C-337.61770798 49.05052944 -330.63573278 47.87711053 -323.65372294 46.70389742 C-285.2083124 40.24376618 -246.76600165 33.7654125 -208.32582664 27.27420616 C-197.61371053 25.46533829 -186.90136303 23.6578472 -176.18883681 21.85140967 C-169.08679003 20.65377326 -161.98479314 19.45584105 -154.8828125 18.2578125 C-153.74511941 18.06590167 -153.74511941 18.06590167 -152.58444262 17.87011385 C-133.49767589 14.65033167 -114.41290079 11.4191701 -95.3311615 8.16972351 C-86.80189748 6.71729133 -78.27189149 5.26924194 -69.74166203 3.82249165 C-63.24403128 2.72001679 -56.74751373 1.61128732 -50.25187302 0.49715042 C-46.40025448 -0.16197481 -42.54763547 -0.81508819 -38.6946907 -1.46641159 C-36.9550518 -1.76178148 -35.21584082 -2.05968573 -33.47712326 -2.36043167 C-10.17404923 -6.38835649 -10.17404923 -6.38835649 0 0 Z M21.45361936 806.73013359 C19.3125 808.3125 19.3125 808.3125 16.15180075 809.88192266 C11.87897001 812.28448204 8.69087294 814.96881834 6.3125 819.3125 C3.85838021 828.84968582 4.53085028 839.17520267 4.6424218 848.9660507 C4.67547709 853.12754011 4.63299098 857.28838487 4.60025847 861.44978231 C4.55334268 868.7395904 4.55470518 876.02814673 4.58787155 883.31801224 C4.6370555 894.15795175 4.61190119 904.99683566 4.57216356 915.83676814 C4.50370568 935.19640829 4.50964253 954.5554908 4.54718942 973.91518402 C4.57988472 990.85636715 4.5884321 1007.79734581 4.57289505 1024.738554 C4.57190204 1025.8620602 4.57090904 1026.9855664 4.56988594 1028.14311825 C4.56583858 1032.7037227 4.56169938 1037.26432705 4.55740901 1041.82493128 C4.51763797 1084.61064849 4.55370362 1127.39601039 4.62366867 1170.18167275 C4.68536647 1208.20081395 4.67983858 1246.21938913 4.61767578 1284.23852539 C4.54807895 1326.94718167 4.52045423 1369.65552403 4.56063521 1412.36422914 C4.56480458 1416.91623995 4.5688715 1421.46825083 4.57289505 1426.02026176 C4.57392306 1427.14109422 4.57495106 1428.26192668 4.57601022 1429.41672375 C4.5908026 1446.34867789 4.57349434 1463.28040523 4.54066086 1480.21232796 C4.50351829 1499.46246115 4.5127227 1518.71194921 4.58331053 1537.96200187 C4.62152164 1548.73831188 4.62392144 1559.51322525 4.57491026 1570.2894994 C4.54579059 1577.48516967 4.56383996 1584.67971873 4.62047226 1591.87522263 C4.65144223 1595.97737491 4.6618986 1600.07675078 4.61519448 1604.17881692 C3.4813918 1620.76524929 3.4813918 1620.76524929 9.15050054 1635.38318717 C12.2081898 1638.09918207 15.54435013 1639.73007844 19.3125 1641.3125 C20.90394471 1642.30760262 22.48295955 1643.32362862 24.03515625 1644.37890625 C25.4743538 1645.22370219 26.92108614 1646.05579048 28.375 1646.875 C29.17099609 1647.32770264 29.96699219 1647.78040527 30.78710938 1648.24682617 C49.25690215 1658.55214741 68.39411422 1665.47242598 89 1670.0625 C89.88921143 1670.26133789 90.77842285 1670.46017578 91.69458008 1670.66503906 C106.21943381 1673.73676835 120.51270028 1674.72332085 135.3125 1674.6875 C136.16422791 1674.68695618 137.01595581 1674.68641235 137.89349365 1674.68585205 C152.02459101 1674.64454368 165.53272424 1673.64557006 179.3125 1670.3125 C180.18358398 1670.10882812 181.05466797 1669.90515625 181.95214844 1669.6953125 C220.85471962 1660.34830986 256.48406972 1639.1792918 285.50390625 1611.93359375 C288.12686811 1609.48573922 290.80251001 1607.11497967 293.5 1604.75 C298.49625055 1600.25416882 302.91628949 1595.38890595 307.3125 1590.3125 C308.23630422 1589.27413871 309.16081712 1588.23640759 310.0859375 1587.19921875 C363.28484921 1527.00905614 390.44637121 1447.77514963 406.3125 1370.3125 C406.55838867 1369.11753906 406.80427734 1367.92257812 407.05761719 1366.69140625 C412.43691168 1340.14025226 415.8753191 1313.2620369 418.5 1286.3125 C418.57872345 1285.52301971 418.6574469 1284.73353943 418.73855591 1283.9201355 C421.86269193 1252.21828479 422.69241522 1220.50827091 422.63035583 1188.67206573 C422.62491164 1185.76532359 422.62254743 1182.8585896 422.6204834 1179.95184326 C422.5907191 1153.05549602 422.36348842 1126.26638049 419.54034424 1099.4911499 C419.30865448 1097.27572912 419.09015836 1095.05932108 418.87451172 1092.84228516 C414.79266063 1051.31955627 407.07068726 1010.06510674 394.3125 970.3125 C393.99168457 969.31283203 393.67086914 968.31316406 393.34033203 967.28320312 C386.71714854 946.92591188 378.34559159 927.22566802 368.3125 908.3125 C367.93125977 907.59255859 367.55001953 906.87261719 367.15722656 906.13085938 C356.10739835 885.42022246 342.94711371 866.0586451 326.8046875 848.95703125 C324.51029345 846.52238427 322.31157581 844.03115293 320.125 841.5 C316.46959702 837.38030188 312.5265592 833.84687223 308.3125 830.3125 C307.37792969 829.49007812 306.44335938 828.66765625 305.48046875 827.8203125 C264.11341596 791.60376747 209.09427002 771.64159358 154.3125 770.3125 C153.66216797 770.29203613 153.01183594 770.27157227 152.34179688 770.25048828 C107.08974375 768.94306268 57.40898529 777.13776318 21.45361936 806.73013359 Z " fill="#B30537" transform="translate(3088.6875,4.6875)"/>
<path d="M0 0 C2.60883648 0.0056567 5.21766642 0.00846689 7.82650757 0.0110817 C33.05251287 0.04780522 58.11297234 0.51070769 83.22854614 3.06482315 C85.90057914 3.33309332 88.57371175 3.58692487 91.24740601 3.83807755 C161.385542 10.4614665 230.88381748 22.00248153 299.25082397 39.00555801 C300.8866745 39.41069122 300.8866745 39.41069122 302.55557251 39.82400894 C313.26125693 42.48598537 323.92567228 45.2466749 334.46957397 48.49774551 C335.2398291 48.73075867 336.01008423 48.96377182 336.80368042 49.20384598 C342.43663157 50.99462842 347.31121178 53.3052141 350.75082397 58.31805801 C353.57608463 63.88149594 354.24300483 68.39886033 354.3795929 74.59225845 C354.41142227 75.53678316 354.44325165 76.48130787 354.47604555 77.45445454 C354.58217135 80.74204529 354.66667416 84.02983477 354.75082397 87.31805801 C354.82488997 89.84772016 354.89969381 92.37736077 354.97513008 94.90698242 C355.21409527 103.08675177 355.42197669 111.26724317 355.6277765 119.44790292 C355.73592398 123.72753795 355.84662627 128.00710709 355.95697021 132.28668594 C356.17194666 140.64036314 356.38455726 148.99409887 356.59624619 157.34785996 C356.76855426 164.14634627 356.94166894 170.9448116 357.11533928 177.74326324 C357.14018204 178.715831 357.1650248 179.68839875 357.19062037 180.69043825 C357.24111102 182.66704497 357.29160248 184.64365167 357.34209477 186.62025835 C357.81401292 205.09872413 358.28311705 223.57726054 358.75132685 242.0558206 C359.17844871 258.90944905 359.60900788 275.76298762 360.04120816 292.61648653 C360.48654189 309.98327032 360.929595 327.35011091 361.37019771 344.71701539 C361.61697541 354.44258431 361.8646117 364.16812941 362.11462593 373.89361572 C362.32739937 382.17149205 362.53798361 390.44942071 362.74586529 398.72742139 C362.85168777 402.93909254 362.95843164 407.15073431 363.06790352 411.36231232 C363.53482541 429.35203099 363.84363803 447.32018536 363.75082397 465.31805801 C348.24082397 465.31805801 332.73082397 465.31805801 316.75082397 465.31805801 C314.35832397 459.58430801 311.96582397 453.85055801 309.50082397 447.94305801 C303.34230232 433.2721326 297.00875546 418.72198943 290.18637085 404.34491348 C288.70287984 401.21696764 287.23453787 398.08216451 285.76644897 394.94696426 C279.25175922 381.11499694 272.25204322 367.63844613 264.75082397 354.31805801 C264.19056519 353.31194473 263.6303064 352.30583145 263.05307007 351.26922989 C247.63951272 323.63348732 230.25748385 296.4814999 209.75082397 272.31805801 C208.88031588 271.27438433 208.01056048 270.23008249 207.14144897 269.18524551 C193.63928749 253.00960312 179.40414053 237.30395444 162.75082397 224.31805801 C161.68418427 223.451455 160.61915263 222.58286998 159.55551147 221.71258926 C136.99451478 203.39338574 111.61792313 189.6482067 83.37582397 182.44305801 C82.25566895 182.15640274 82.25566895 182.15640274 81.11288452 181.86395645 C68.1995971 178.79009475 55.33567149 177.93847683 42.12582397 178.00555801 C41.37336395 178.00738083 40.62090393 178.00920364 39.84564209 178.0110817 C-4.5354048 178.19010572 -53.28038584 185.32271809 -86.46401978 217.44305801 C-104.87169004 236.00881545 -111.70103075 260.27128819 -111.61270142 285.75336075 C-111.11019464 316.11147031 -94.99398658 340.48069174 -73.68667603 361.13055801 C-68.20835843 366.29831338 -62.28660863 370.82998694 -56.24917603 375.31805801 C-55.58853149 375.81773087 -54.92788696 376.31740372 -54.2472229 376.83221817 C-41.78728167 386.24164228 -28.70056795 394.40835933 -15.24917603 402.31805801 C-14.41644165 402.81096329 -13.58370728 403.30386856 -12.72573853 403.81171036 C12.54138163 418.71951568 38.83033734 431.90312029 64.93832397 445.25555801 C65.97422668 445.78596695 67.01012939 446.31637589 68.0774231 446.86285782 C71.04397218 448.38064905 74.01228144 449.89493359 76.98129272 451.40790176 C77.86533279 451.86025696 78.74937286 452.31261215 79.66020203 452.77867508 C84.29658744 455.13513041 88.94328266 457.33289076 93.75082397 459.31805801 C93.75082397 459.97805801 93.75082397 460.63805801 93.75082397 461.31805801 C94.52297241 461.53204239 95.29512085 461.74602676 96.09066772 461.96649551 C101.10685276 463.8187901 105.63667597 466.36520587 110.31332397 468.94305801 C111.35690063 469.51354874 112.40047729 470.08403946 113.47567749 470.67181778 C116.31351162 472.22525759 119.1487103 473.78336463 121.98239136 475.34436417 C123.75573812 476.32076373 125.52998921 477.29549951 127.30453491 478.26971817 C135.21615542 482.61386001 143.11678 486.97758057 151.01065063 491.35388565 C152.68566787 492.28195717 154.36153945 493.20848622 156.03744507 494.13495255 C172.46176249 503.22069121 188.67169979 512.63459767 204.75082397 522.31805801 C205.83508667 522.97032364 206.91934937 523.62258926 208.03646851 524.29462051 C230.86302308 538.06944293 253.14746007 552.68943849 274.75082397 568.31805801 C275.87810913 569.12871719 275.87810913 569.12871719 277.02816772 569.95575333 C287.95416303 577.82731399 298.52560499 586.02228794 308.82553101 594.69696426 C310.63782858 596.22291606 312.45690206 597.74033104 314.27816772 599.25555801 C321.11497249 604.96474565 327.73224101 610.877816 334.25814819 616.93866348 C335.76996322 618.33574476 337.29177001 619.72105339 338.81723022 621.10321426 C347.25538175 628.75582813 355.5151338 636.54158423 362.92269897 645.21258926 C365.06103268 647.67532829 367.28166996 650.05293145 369.50082397 652.44305801 C374.79395136 658.24945835 379.62615264 664.35712391 384.41146851 670.58465958 C385.6770774 672.22261495 386.95853064 673.84642924 388.24691772 675.46649551 C435.98286746 736.11024606 463.64183645 814.46466872 463.95394897 891.66962051 C463.95964905 892.80797348 463.96534912 893.94632645 463.97122192 895.11917496 C463.98060147 897.51749133 463.98717755 899.91582019 463.99105835 902.31415176 C464.00067046 905.88601193 464.03172454 909.45727201 464.06332397 913.02899551 C464.15906346 933.81943365 462.46636659 954.45133007 458.50082397 974.88055801 C458.29247925 975.97440811 458.08413452 977.06825821 457.86947632 978.19525528 C445.74350992 1039.63846793 416.50495832 1095.84310811 374.75082397 1142.31805801 C374.25614624 1142.87058243 373.76146851 1143.42310684 373.25180054 1143.99237442 C362.74016551 1155.68718279 351.80760397 1167.20449531 339.75082397 1177.31805801 C338.70525359 1178.22541684 337.66112323 1179.13443628 336.61801147 1180.04462051 C328.88286121 1186.7753606 320.98631471 1193.2073549 312.75082397 1199.31805801 C312.09130737 1199.80886856 311.43179077 1200.29967911 310.75228882 1200.8053627 C283.37278501 1221.09818358 254.18560128 1238.03869378 223.75082397 1253.31805801 C222.85363647 1253.77132462 221.95644897 1254.22459122 221.03207397 1254.69159317 C149.38307931 1290.66812348 68.04878603 1311.34425019 -346.04669189 1278.25720596 C-390.22896286 1263.59506643 -432.74372553 1245.01634119 -474.43667603 1224.38055801 C-475.46889282 1223.87331192 -476.50110962 1223.36606583 -477.56460571 1222.84344864 C-499.38022684 1211.92490556 -499.38022684 1211.92490556 -503.24917603 1200.31805801 C-503.35883964 1198.83985249 -503.41544781 1197.35739051 -503.43906307 1195.8753109 C-503.45590849 1194.95962751 -503.47275391 1194.04394412 -503.4901098 1193.10051274 C-503.50373139 1192.09215894 -503.51735297 1191.08380515 -503.53138733 1190.04489517 C-503.5495049 1188.9737814 -503.56762246 1187.90266763 -503.58628905 1186.79909587 C-503.6460082 1183.18063953 -503.69854869 1179.56211647 -503.75088501 1175.9435463 C-503.79178097 1173.33996114 -503.83294035 1170.73638011 -503.87434292 1168.13280296 C-504.00925284 1159.52802685 -504.13082967 1150.92307607 -504.24917603 1142.31805801 C-504.2592079 1141.58895796 -504.26923977 1140.85985791 -504.27957565 1140.10866392 C-504.58546405 1117.80801501 -504.85916355 1095.50697578 -505.12688813 1073.20584094 C-505.20163994 1066.980434 -505.27701638 1060.75503488 -505.3527813 1054.5296402 C-505.36923023 1053.17801803 -505.36923023 1053.17801803 -505.38601146 1051.79909036 C-505.40831659 1049.96646688 -505.43062307 1048.13384341 -505.45293086 1046.30121996 C-505.65940718 1029.33335408 -505.86410498 1012.36546713 -506.06813609 995.3975717 C-506.24238904 980.90962404 -506.41820253 966.42169599 -506.59512329 951.93378067 C-506.80245762 934.95526 -507.00883638 917.97672815 -507.21371454 900.99817765 C-507.23560405 899.18436502 -507.25749471 897.37055241 -507.27938652 895.55673981 C-507.29014797 894.6650698 -507.30090943 893.77339978 -507.31199699 892.85470947 C-507.38711805 886.635616 -507.46290235 880.41653083 -507.5389576 874.19744873 C-507.63156863 866.6230775 -507.72311768 859.04869427 -507.81336839 851.47429453 C-507.85923539 847.62695271 -507.9055336 843.77961757 -507.95313263 839.93229675 C-508.16565562 822.72653007 -508.28698185 805.52540731 -508.24917603 788.31805801 C-493.39917603 788.31805801 -478.54917603 788.31805801 -463.24917603 788.31805801 C-462.04541275 792.53122949 -460.85191839 796.7421859 -459.69058228 800.96649551 C-440.27862551 870.82745691 -410.47914321 937.47758238 -366.24917603 995.31805801 C-365.80799438 995.89668594 -365.36681274 996.47531387 -364.91226196 997.07147598 C-348.44156766 1018.58047397 -330.15606236 1039.98826353 -309.24917603 1057.31805801 C-308.71904907 1057.76197891 -308.18892212 1058.20589981 -307.64273071 1058.66327286 C-251.53064937 1105.54459852 -187.65253726 1129.35653155 -114.35464478 1123.79999161 C-110.30076531 1123.42093792 -106.27698892 1122.9110858 -102.24917603 1122.31805801 C-101.33071899 1122.18383438 -100.41226196 1122.04961075 -99.4659729 1121.91131973 C-53.48209772 1114.96760079 -7.41529701 1097.54132481 21.19613647 1058.97430801 C39.24241901 1033.76158222 47.3501352 1003.7584497 42.87973022 972.95697403 C39.696854 953.93969873 32.03101935 938.03495357 19.75082397 923.31805801 C19.04570679 922.47114395 18.3405896 921.62422989 17.61410522 920.75165176 C-10.60683591 887.98431147 -55.14609487 866.69368559 -92.43325806 845.88934708 C-95.40412057 844.23159858 -98.37183599 842.56831886 -101.33901978 840.90399551 C-107.63991517 837.37089339 -113.9442307 833.84392657 -120.24917603 830.31805801 C-133.37773391 822.9762704 -146.49965585 815.62379809 -159.58779907 808.21014786 C-164.51741746 805.41986151 -169.45350021 802.642007 -174.40151978 799.88446426 C-185.95756903 793.44363843 -197.44958301 786.91257832 -208.86001587 780.21673965 C-214.3108829 777.02061092 -219.78438221 773.8797488 -225.31167603 770.81805801 C-272.2707874 744.67030122 -318.31410627 713.88567976 -359.18276978 678.91571426 C-361.90688588 676.5915306 -364.69587595 674.35882218 -367.49917603 672.13055801 C-379.31145951 662.48300758 -390.07996936 651.57037642 -400.87417603 640.81805801 C-401.70296265 639.99394424 -402.53174927 639.16983047 -403.38565063 638.32074356 C-408.21293296 633.48070752 -412.81002629 628.51487137 -417.24917603 623.31805801 C-418.10640259 622.3422377 -418.96362915 621.36641739 -419.84683228 620.36102676 C-469.85429108 562.42845563 -496.42914524 491.20047569 -502.24917603 415.31805801 C-502.30702271 414.63598282 -502.36486938 413.95390762 -502.42446899 413.25116348 C-507.58227672 351.55643665 -498.26390857 288.25703749 -471.24917603 232.31805801 C-470.91031372 231.61004044 -470.57145142 230.90202286 -470.22232056 230.1725502 C-456.78902375 202.23076837 -439.74486801 176.58834202 -419.24917603 153.31805801 C-418.43577759 152.39251114 -417.62237915 151.46696426 -416.78433228 150.51337051 C-404.85529313 137.24254423 -392.36280679 124.26657271 -378.24917603 113.31805801 C-377.0622247 112.33511927 -375.87890342 111.34778766 -374.69839478 110.35712051 C-304.76338309 51.89582169 -213.62972413 22.34699636 -87.31167603 4.06805801 C-86.58164368 3.99092575 -85.85161133 3.91379349 -85.09945679 3.83432388 C-79.48865438 3.2506306 -73.87262809 2.7626435 -68.24917603 2.31805801 C-66.60059097 2.18725342 -66.60059097 2.18725342 -64.91870117 2.0538063 C-43.27374852 0.3936692 -21.70328933 -0.04786701 0 0 Z " fill="#B30537" transform="translate(2025.2491760253906,548.681941986084)"/>
<path d="M0 0 C43.56 0 87.12 0 132 0 C135.75375 20.79 139.5075 41.58 143.375 63 C145.95530587 77.28523284 148.53574831 91.57044072 151.1171875 105.85546875 C151.28445642 106.78110367 151.45172534 107.70673858 151.62406301 108.66042304 C161.24118517 161.87926348 170.86777851 215.09639046 180.5 268.3125 C180.72060026 269.53128468 180.94120052 270.75006935 181.16848564 272.0057869 C200.0545977 376.34769197 219.01048086 480.67686906 238 585 C238.21486557 583.7423584 238.42973114 582.4847168 238.65110779 581.18896484 C251.12077242 508.2361494 263.90679396 435.34349698 277 362.5 C277.17285192 361.53828967 277.34570384 360.57657933 277.5237937 359.58572626 C280.88091495 340.9079607 284.2407661 322.23068647 287.6030426 303.55384827 C292.54911315 276.07835054 297.48280117 248.60065411 302.40625 221.12109375 C302.576764 220.16940441 302.747278 219.21771508 302.92295909 218.23718667 C304.95323504 206.90539046 306.98300167 195.57350306 309.01259977 184.24158543 C310.64531714 175.12578156 312.27861944 166.01008253 313.91200483 156.89439833 C319.51538104 125.62274229 325.11733645 94.35083214 330.71484375 63.078125 C330.91226229 61.97516838 331.10968082 60.87221176 331.31308174 59.73583221 C334.876944 39.82416646 338.43822136 19.91203866 342 0 C384.9 0 427.8 0 472 0 C472 243.21 472 486.42 472 737 C443.95 737 415.9 737 387 737 C386.505 463.76 386.505 463.76 386 185 C378.08 228.23 370.16 271.46 362 316 C356.80818896 343.02646571 351.60111188 370.04507976 346.26548004 397.04273605 C344.47371538 406.11492831 342.69453519 415.18959812 340.91357422 424.26391602 C340.17898298 428.00616076 339.44431896 431.74839122 338.70962524 435.49061584 C338.52758903 436.41787576 338.34555281 437.34513567 338.15800035 438.30049437 C336.88481142 444.78513247 335.61006498 451.26946313 334.33456421 457.75364685 C327.65341621 491.72117776 321.03588303 525.70094494 314.43651605 559.68444723 C312.99784207 567.09278824 311.55820062 574.50094112 310.11849928 581.90908253 C307.13650833 597.25347943 304.15614071 612.59819135 301.17627072 627.94300026 C299.8677079 634.6813696 298.5589094 641.41969316 297.25009036 648.15801275 C296.10680204 654.04413828 294.96355729 659.93027227 293.8203125 665.81640625 C293.48446955 667.54552907 293.48446955 667.54552907 293.14184189 669.30958366 C288.75954833 691.87272988 284.37999166 714.43640662 280 737 C250.3 737 220.6 737 190 737 C184.25180259 709.40865243 184.25180259 709.40865243 181.78735352 696.74658203 C181.49980893 695.27534237 181.21213283 693.80412841 180.92434025 692.33293724 C180.15240462 688.3848412 179.38230113 684.43638994 178.61257029 680.48786354 C177.77937259 676.21553262 176.94441938 671.94354471 176.10971069 667.67150879 C174.48819214 659.37109422 172.8683006 651.07036296 171.24901795 642.76951194 C169.93002988 636.00823565 168.61038731 629.24708738 167.29031372 622.48602295 C167.10125995 621.51773493 166.91220617 620.5494469 166.7174235 619.55181682 C166.33374988 617.58673928 165.95007575 615.62166184 165.56640112 613.6565845 C161.27410145 591.67196294 156.98508294 569.68670181 152.6971032 547.70123732 C151.41046166 541.10434792 150.12367448 534.50748694 148.83679199 527.91064453 C141.28954138 489.22149071 133.74790158 450.53125464 126.22273129 411.83779943 C123.61441073 398.42633963 121.00523229 385.01506197 118.38232422 371.60644531 C118.07940098 370.05726756 118.07940098 370.05726756 117.77035809 368.47679329 C116.88189862 363.93353866 115.99270799 359.39043143 115.10133362 354.8477478 C104.17169648 298.99310632 94.18301059 243.00655823 84 187 C83.67 368.5 83.34 550 83 737 C55.61 737 28.22 737 0 737 C0 493.79 0 250.58 0 0 Z " fill="#606A70" transform="translate(3038,2135)"/>
<path d="M0 0 C253.89655172 0 253.89655172 0 297 42 C340.54515753 86.59286057 343.16128596 148.35408747 343.14538372 207.02018845 C343.14517767 211.77231196 343.15071771 216.5244296 343.15544128 221.27655029 C343.16370486 230.56448885 343.16649418 239.85242105 343.16705366 249.14036297 C343.1675309 256.70021545 343.16959594 264.26006586 343.17275429 271.81991768 C343.18154937 293.31347402 343.18617549 314.80702538 343.18542381 336.30058353 C343.18536388 338.03426905 343.18536388 338.03426905 343.18530273 339.80297852 C343.18526185 340.9602009 343.18522097 342.11742328 343.18517885 343.30971301 C343.18477277 362.0457579 343.19433572 380.78178265 343.2084411 399.51782172 C343.22285255 418.81465162 343.22970866 438.11147173 343.22884732 457.40830714 C343.22851698 468.21831366 343.23119204 479.02829907 343.24202538 489.8383007 C343.25119344 499.04468986 343.25325446 508.25104835 343.24651595 517.45744013 C343.24328215 522.14145376 343.24307816 526.82540877 343.2518692 531.50941658 C343.34747863 585.99482344 340.44665608 643.21780459 304 687 C303.25878906 687.89460938 302.51757812 688.78921875 301.75390625 689.7109375 C296.40756258 695.90545334 290.4959807 701.04180526 284 706 C283.25621094 706.58265625 282.51242187 707.1653125 281.74609375 707.765625 C208.24665258 762.47477425 62.40322229 737 0 737 C0 493.79 0 250.58 0 0 Z M94 87 C94 272.79 94 458.58 94 650 C162.64088963 656.25654256 162.64088963 656.25654256 227.75 630.9375 C247.02521597 610.60686875 250.15713594 582.31121719 250.14044189 555.53216553 C250.14302923 553.86454457 250.14604342 552.19692423 250.1494453 550.52930474 C250.15747554 545.96532965 250.15930264 541.40137031 250.16004276 536.83738899 C250.16190033 531.90730497 250.16945127 526.97722899 250.17617798 522.04714966 C250.18973457 511.27388208 250.19578213 500.50061824 250.20018864 489.72734356 C250.20295616 482.99222167 250.20719449 476.25710121 250.21169281 469.52198029 C250.22388307 450.85167913 250.23418216 432.18137911 250.2375679 413.51107407 C250.23778747 412.31710947 250.23800703 411.12314488 250.23823325 409.89299954 C250.23845153 408.69627177 250.23866981 407.49954399 250.2388947 406.26655173 C250.23933816 403.84176365 250.23978472 401.41697558 250.24023438 398.9921875 C250.2404558 397.78942375 250.24067723 396.58665999 250.24090537 395.34744886 C250.24484935 375.8792855 250.26229224 356.41115966 250.2855939 336.94301078 C250.30935833 316.92554681 250.3217721 296.90810162 250.32293582 276.89062333 C250.32384984 265.66371252 250.32953281 254.43685059 250.34775543 243.20995331 C250.36322543 233.64560529 250.36823653 224.08132125 250.36001733 214.51696309 C250.35613482 209.64537889 250.35692163 204.77392323 250.37107468 199.90235519 C251.20855982 149.36574404 251.20855982 149.36574404 228.11328125 105.91796875 C193.43008178 74.44024058 132.651745 87 94 87 Z " fill="#606A70" transform="translate(2254,2135)"/>
<path d="M0 0 C32.34 0 64.68 0 98 0 C99.45713288 4.37139865 100.51759303 8.19329994 101.34718323 12.66767883 C101.52913739 13.6392267 101.52913739 13.6392267 101.7147674 14.63040179 C102.1193206 16.79624343 102.51777219 18.96316177 102.91625977 21.13012695 C103.20822211 22.70013919 103.50056345 24.27008099 103.79325104 25.83995819 C104.59495017 30.14594991 105.39134482 34.45290822 106.18690038 38.76003861 C107.04263193 43.38762259 107.90335936 48.01427733 108.76353455 52.64103699 C110.25144556 60.64789183 111.7363482 68.65529975 113.21923828 76.66308594 C115.58708467 89.44938309 117.96104179 102.23454182 120.3359375 115.01953125 C121.14642782 119.38308066 121.95687554 123.74663798 122.76730347 128.11019897 C122.96904045 129.19638594 123.17077743 130.28257291 123.37862766 131.40167463 C124.82309846 139.17940976 126.26672878 146.95730062 127.70999146 154.73526001 C132.93879117 182.91306398 138.17876084 211.08875801 143.43359375 239.26171875 C143.6013478 240.16112946 143.76910185 241.06054017 143.94193935 241.98720574 C145.79095303 251.90050317 147.64040561 261.81371867 149.49005127 271.72689819 C152.71539736 289.01328017 155.93866899 306.30004904 159.16176128 323.58685136 C159.50426407 325.42383345 159.84677111 327.26081475 160.18928242 329.09779525 C169.61055281 379.62661213 179.01622444 430.15833273 188.42180723 480.69007164 C190.40875723 491.36500531 192.39575808 502.03992952 194.3828125 512.71484375 C194.56054207 513.66965409 194.73827164 514.62446443 194.92138696 515.60820842 C200.54583265 545.82406013 206.17388001 576.03923944 211.8046875 606.25390625 C212.16142365 608.16816579 212.51815952 610.08242538 212.8748951 611.99668503 C216.08806311 629.23859211 219.30146582 646.48045543 222.51564407 663.72217423 C223.74146268 670.29783106 224.96712959 676.87351616 226.19268513 683.44922203 C227.02797849 687.93091101 227.86348173 692.41256079 228.69916242 696.89417756 C229.32445494 700.24785661 229.94943411 703.60159405 230.57446289 706.95532227 C230.90211403 708.71188644 230.90211403 708.71188644 231.23638439 710.50393677 C231.63810956 712.66010802 232.03814486 714.81659508 232.43617439 716.97345161 C232.81318153 718.99718083 233.19927378 721.0192379 233.59426689 723.03953362 C233.77818552 723.996784 233.96210415 724.95403439 234.15159607 725.94029236 C234.39720355 727.19072279 234.39720355 727.19072279 234.64777279 728.46641445 C235 731 235 731 235 737 C203.65 737 172.3 737 140 737 C132.72754138 696.07450781 132.72754138 696.07450781 129.69140625 678.94726562 C127.59349678 667.1129148 125.49468851 655.2787283 123.39013672 643.44555664 C121.85753165 634.8282213 120.32793367 626.21035857 118.8019557 617.59184712 C117.99373863 613.02776276 117.18401054 608.46395809 116.37068176 603.90078163 C115.60529295 599.60629731 114.84392514 595.3111196 114.08564186 591.01537514 C113.80656337 589.43851437 113.52601393 587.86191313 113.24388695 586.28559494 C112.85893966 584.13352571 112.47929429 581.98058556 112.10095215 579.8273468 C111.88709618 578.62256337 111.6732402 577.41777994 111.45290375 576.17648792 C111 573 111 573 111 568 C68.1 568 25.2 568 -19 568 C-19.66 572.62 -20.32 577.24 -21 582 C-21.4142634 584.51079152 -21.84276184 587.01935942 -22.29676819 589.52326965 C-22.41211094 590.1633931 -22.52745369 590.80351654 -22.64629167 591.46303767 C-23.02224099 593.54587907 -23.40182275 595.62803924 -23.78149414 597.71020508 C-24.05623717 599.22783131 -24.33076169 600.74549711 -24.60508728 602.26319885 C-25.34219104 606.33714187 -26.08259638 610.41047786 -26.8238709 614.4836638 C-27.44376539 617.89146824 -28.06207983 621.29955864 -28.6804294 624.70764369 C-30.13746717 632.737912 -31.59728185 640.76767205 -33.05883789 648.79711914 C-34.5670521 657.08319056 -36.07037878 665.37013848 -37.57139117 673.65751725 C-38.86285654 680.78693704 -40.15736299 687.91580001 -41.45432943 695.0442211 C-42.22796598 699.29649858 -43.00041674 703.54898294 -43.76991463 707.80201149 C-44.49117603 711.78771205 -45.21621359 715.77270687 -45.94423866 719.75717735 C-46.21127904 721.2223317 -46.47695453 722.68773552 -46.74119949 724.15339661 C-47.10056243 726.14543083 -47.46523051 728.13650588 -47.83021545 730.1275177 C-48.03317765 731.2440614 -48.23613985 732.36060511 -48.44525242 733.51098347 C-49 736 -49 736 -50 737 C-52.7388842 737.09516211 -55.45247941 737.12554594 -58.19165039 737.11352539 C-59.05011063 737.11367142 -59.90857086 737.11381744 -60.79304504 737.1139679 C-63.64460738 737.11326847 -66.49610525 737.1054747 -69.34765625 737.09765625 C-71.31920842 737.09579218 -73.29076105 737.09436822 -75.26231384 737.09336853 C-80.46226267 737.08954251 -85.66218375 737.07971152 -90.86212158 737.06866455 C-96.16393661 737.05845222 -101.4657561 737.05387129 -106.76757812 737.04882812 C-117.17839763 737.03808933 -127.58919651 737.02101191 -138 737 C-137.21317691 728.06270821 -135.4622793 719.30818109 -133.79833984 710.50292969 C-133.46323615 708.71620776 -133.12842549 706.92943085 -132.79388237 705.14260387 C-131.87923583 700.262026 -130.96046448 695.38223255 -130.04098988 690.50256228 C-129.05834758 685.28369973 -128.0795399 680.06411797 -127.10028076 674.84461975 C-125.41425471 665.86089986 -123.72581139 656.87763706 -122.03570557 647.89468384 C-119.57175727 634.79869884 -117.11159207 621.7020053 -114.65230823 608.60514367 C-110.57071245 586.86919088 -106.48589731 565.13384444 -102.39919353 543.39885151 C-98.49133245 522.61498246 -94.58609043 501.83062263 -90.68246555 481.04595757 C-89.34081837 473.90252731 -87.99902705 466.75912412 -86.65722656 459.61572266 C-86.51139366 458.83933992 -86.36556075 458.06295718 -86.21530867 457.2630477 C-83.98496339 445.38928156 -81.7539188 433.51564694 -79.52246094 421.64208984 C-79.21257136 419.99316281 -78.90268188 418.34423576 -78.59279251 416.69530869 C-78.43768511 415.86997973 -78.2825777 415.04465078 -78.12277007 414.19431186 C-67.59428732 358.17202174 -57.07283344 302.14841186 -46.55370903 246.1243639 C-46.00242023 243.18824569 -45.45113094 240.25212757 -44.89984131 237.31600952 C-44.76370134 236.5909392 -44.62756137 235.86586889 -44.48729594 235.11882674 C-42.474839 224.40068011 -40.46213688 213.68257954 -38.44927979 202.96450806 C-35.76744267 188.68422021 -33.08605655 174.40384774 -30.40500238 160.12341288 C-29.54157164 155.52446991 -28.67800531 150.92555241 -27.8143959 146.32664299 C-22.99877594 120.68148419 -18.18801315 95.03545632 -13.4083693 69.38356471 C-12.79042365 66.06716955 -12.17225483 62.75081606 -11.55402946 59.43447304 C-9.85088171 50.29728853 -8.14851587 41.15996488 -6.45173836 32.021595 C-5.78560589 28.4360481 -5.11782731 24.85080919 -4.44962549 21.26564741 C-4.14408877 19.62412946 -3.8393096 17.98247029 -3.5353446 16.34066057 C-3.12520134 14.12559976 -2.71250339 11.91102995 -2.29916382 9.69656372 C-2.0706391 8.46628511 -1.84211437 7.23600651 -1.60666466 5.96844673 C-1 3 -1 3 0 0 Z M46 177 C41.07396859 206.79096116 36.14837819 236.58199522 31.22336248 266.37312431 C30.63540233 269.92965826 30.0474386 273.48619162 29.45947266 277.04272461 C29.34247117 277.75045245 29.22546968 278.45818029 29.1049227 279.18735442 C27.23661485 290.48847024 25.36802084 301.78953872 23.49931164 313.09058817 C21.56663071 324.77854953 19.63427908 336.46656529 17.70220315 348.15462667 C16.62339513 354.68080422 15.54444866 361.20695884 14.46513748 367.73305321 C12.2582882 381.07741327 10.05387572 394.42216953 7.85404956 407.76768929 C6.65594753 415.0331923 5.45361947 422.29798047 4.2478695 429.56221708 C3.30170104 435.26354735 2.35841638 440.96535041 1.41706514 446.667478 C0.85231687 450.08757717 0.2861681 453.50743079 -0.2834537 456.92672193 C-0.91080638 460.69670876 -1.53320144 464.46748273 -2.15444946 468.23847961 C-2.34227816 469.35982115 -2.53010685 470.48116268 -2.72362733 471.63648427 C-2.89283684 472.66967632 -3.06204636 473.70286837 -3.23638344 474.76736927 C-3.38469506 475.66228669 -3.53300668 476.55720411 -3.68581259 477.47924024 C-4.10306913 480.40355741 -4.10306913 480.40355741 -4 485 C29 485 62 485 96 485 C93.70259538 467.94207496 93.70259538 467.94207496 91.15432739 450.9269104 C90.99194985 449.89346886 90.82957231 448.86002732 90.66227424 447.79526937 C90.13262025 444.42778778 89.59978561 441.06081836 89.06689453 437.69384766 C88.68028509 435.24012281 88.29387757 432.78636615 87.90765381 430.33258057 C87.08237932 425.0922616 86.25573981 419.85216091 85.42779922 414.61226273 C84.22531359 407.00188382 83.02546178 399.39109138 81.82619928 391.78020398 C79.87206139 379.37906983 77.9159369 366.97824993 75.95849609 354.57763672 C74.07213119 342.62726531 72.18658567 330.67676516 70.30224609 318.72607422 C70.18638146 317.99125016 70.07051682 317.2564261 69.95114113 316.49933465 C69.13796125 311.34201051 68.32483475 306.18467796 67.51171875 301.02734375 C66.60124697 295.25255013 65.69075751 289.47775929 64.78024292 283.70297241 C64.66938378 282.99985811 64.55852463 282.29674381 64.44430612 281.57232301 C62.92986561 271.96723901 61.4147373 262.36226376 59.8990206 252.75738107 C51.92621036 202.23407145 51.92621036 202.23407145 48 177 C47.34 177 46.68 177 46 177 Z " fill="#606A70" transform="translate(1955,2135)"/>
<path d="M0 0 C1.36916565 0.00539291 1.36916565 0.00539291 2.76599121 0.01089478 C3.72198715 0.01074875 4.67798309 0.01060272 5.66294861 0.01045227 C8.83916452 0.01115181 12.01532259 0.01894614 15.19152832 0.02676392 C17.387283 0.02862795 19.58303809 0.03005192 21.77879333 0.03105164 C27.5705784 0.03487798 33.36233857 0.04470926 39.15411377 0.05575562 C45.05915998 0.06596724 50.9642102 0.07054872 56.8692627 0.07559204 C68.46497679 0.08633142 80.06067236 0.10340923 91.65637207 0.12442017 C95.63737536 19.63297468 99.33049932 39.19058718 102.97834301 58.76345825 C103.80361379 63.18961549 104.63073105 67.61542775 105.45758057 72.04129028 C107.06853317 80.66588952 108.67771598 89.29081803 110.28625381 97.91586792 C111.60597801 104.99204952 112.92645934 112.06808948 114.24740601 119.14404297 C126.25178602 183.44899253 138.22563794 247.75961296 150.1842469 312.07308853 C151.67618777 320.09672243 153.16820177 328.12034274 154.66027832 336.14395142 C154.8243116 337.02604286 154.98834488 337.90813431 155.15734887 338.8169558 C162.11138223 376.21177211 169.08125642 413.60362799 176.05498981 450.99477482 C178.44750203 463.82279696 180.83937892 476.65093742 183.23083496 489.47915649 C183.57042357 491.30074669 183.91001269 493.1223368 184.24960232 494.94392681 C185.61104665 502.24686188 186.97248277 509.54979849 188.33387566 516.85274315 C192.48022176 539.09489186 196.62869496 561.33664205 200.78002644 583.57786083 C203.99045075 600.7783198 207.19842944 617.97923363 210.40425873 635.18054962 C212.37414483 645.74976217 214.34597148 656.31860874 216.32041693 666.88697052 C217.65644133 674.03911751 218.99008196 681.19170637 220.32183313 688.34465027 C221.08905341 692.46504539 221.85734081 696.58523403 222.62849426 700.70489502 C223.33550166 704.48199587 224.03946924 708.25965034 224.74106121 712.03776073 C224.99474926 713.4009306 225.24953642 714.76389649 225.50555897 716.12662983 C225.8545274 717.98498424 226.19902153 719.84417715 226.54333496 721.70339966 C226.83162926 723.24869984 226.83162926 723.24869984 227.12574768 724.8252182 C227.78178059 728.90415825 228.20013974 733.01832918 228.65637207 737.12442017 C197.30637207 737.12442017 165.95637207 737.12442017 133.65637207 737.12442017 C131.27518365 725.21847807 128.91933632 713.34356834 126.81555176 701.39151001 C126.5589929 699.94351468 126.30224208 698.49555336 126.0453186 697.04762268 C125.36170808 693.19171844 124.68084003 689.33533507 124.00063992 685.47882795 C123.28405864 681.418352 122.56516064 677.35828609 121.84661865 673.29815674 C120.64491216 666.50582115 119.44500214 659.71317014 118.24621582 652.9203186 C116.86025306 645.06696805 115.47142825 637.21412762 114.08111644 629.36154592 C112.73826967 621.77669797 111.39735431 614.19150984 110.05735016 606.60615921 C109.48859434 603.38678698 108.91916827 600.16753438 108.34920502 596.9483757 C107.68111252 593.17445305 107.01470938 589.40023596 106.34963608 585.62578011 C106.10512215 584.23969829 105.8600207 582.85371998 105.61429977 581.46785164 C105.28012229 579.58252604 104.94825267 577.69679179 104.61651611 575.81103516 C104.42997845 574.75482656 104.24344078 573.69861797 104.05125046 572.61040306 C103.65637207 570.12442017 103.65637207 570.12442017 103.65637207 568.12442017 C61.08637207 568.45442017 18.51637207 568.78442017 -25.34362793 569.12442017 C-28.57466309 586.81293579 -28.57466309 586.81293579 -31.87097168 604.85879517 C-33.23345905 612.31455048 -34.59601192 619.77029372 -35.9588623 627.22598267 C-38.12360451 639.06861719 -40.28807364 650.91130117 -42.45080566 662.75430298 C-44.02574918 671.37860022 -45.60160137 680.00273084 -47.17855078 688.62666154 C-48.01370927 693.19410874 -48.84840855 697.7616388 -49.68202019 702.32936859 C-50.46638446 706.62716884 -51.25196197 710.92474554 -52.03847694 715.22215271 C-52.32716083 716.80069535 -52.61539857 718.37931966 -52.9031601 719.9580307 C-53.29572774 722.11135093 -53.68989101 724.26437314 -54.0844574 726.41732788 C-54.30476592 727.6230331 -54.52507444 728.82873833 -54.75205898 730.07098007 C-55.21049451 732.43723921 -55.75905441 734.78612608 -56.34362793 737.12442017 C-85.38362793 737.12442017 -114.42362793 737.12442017 -144.34362793 737.12442017 C-143.21864116 723.62457889 -143.21864116 723.62457889 -142.11047363 717.76896667 C-141.98908705 717.1183622 -141.86770046 716.46775773 -141.74263549 715.79743797 C-141.34063126 713.65083086 -140.93005524 711.50596166 -140.51940918 709.36099243 C-140.22272707 707.7866393 -139.92658834 706.21218368 -139.63093948 704.63763618 C-138.98801062 701.22019787 -138.34119015 697.80352718 -137.69135284 694.38739586 C-136.62527199 688.7831051 -135.56778479 683.1772106 -134.51104736 677.57115173 C-132.95554028 669.32409503 -131.39577059 661.0778538 -129.83325195 652.8321228 C-127.29531594 639.43811694 -124.76649712 626.04239751 -122.23913574 612.64639282 C-121.35421319 607.95638544 -120.46925328 603.26638511 -119.58428955 598.5763855 C-119.36174067 597.39690417 -119.13919178 596.21742284 -118.909899 595.00219965 C-117.29268828 586.4316677 -115.67433749 577.86135145 -114.05560303 569.29110718 C-107.14569154 532.70442679 -100.26051261 496.11314058 -93.39050293 459.51895142 C-93.26510673 458.85101682 -93.13971053 458.18308221 -93.01051444 457.49490717 C-89.94000785 441.13945626 -86.87045453 424.7838265 -83.80131646 408.42811873 C-81.86570695 398.11312023 -79.92969991 387.79819641 -77.99334717 377.4833374 C-77.80135525 376.46060501 -77.80135525 376.46060501 -77.60548471 375.41721136 C-77.08815859 372.66144608 -76.57083002 369.90568127 -76.05349862 367.14991698 C-65.53124305 311.09902866 -55.01470822 255.04706873 -44.50515604 198.99379712 C-44.13377329 197.01300815 -43.76238817 195.03221963 -43.39100266 193.05143118 C-38.4925567 166.92546269 -33.59464639 140.79939388 -28.69821358 114.67304802 C-27.22224414 106.79762735 -25.74607899 98.92224338 -24.26986301 91.04686892 C-23.30337075 85.89069684 -22.33699263 80.73450343 -21.37092972 75.57825089 C-21.01040238 73.65403427 -20.64987158 71.72981831 -20.28933716 69.80560303 C-20.11452116 68.8725754 -19.93970515 67.93954777 -19.7595917 66.97824657 C-18.43610061 59.9158362 -17.10958609 52.85399637 -15.78212202 45.79233181 C-14.79079155 40.51549806 -13.80531805 35.23760163 -12.8234328 29.95900249 C-12.17188015 26.45957687 -11.51725972 22.96072949 -10.86202168 19.46199226 C-10.55441268 17.81545716 -10.24817975 16.16866431 -9.94339252 14.52160454 C-9.52782219 12.2766337 -9.10752824 10.03259769 -8.68606567 7.78872681 C-8.44990351 6.52033463 -8.21374134 5.25194244 -7.97042274 3.94511414 C-6.85445159 -1.07696493 -4.7570004 0.00791717 0 0 Z M39.65637207 175.12442017 C35.36869267 200.96004789 31.08158239 226.79577 26.79506683 252.63159084 C24.80263069 264.64039075 22.81003622 276.64916434 20.8170166 288.65786743 C15.42523216 321.14590626 10.03730429 353.63458202 4.65637207 386.12442017 C4.46161789 387.30027081 4.26686371 388.47612146 4.06620789 389.68760395 C1.56621323 404.78207781 -0.93149626 419.87692712 -3.42564392 434.97236824 C-4.13796368 439.28328988 -4.85101583 443.59408936 -5.56471252 447.90478325 C-6.39071857 452.89409236 -7.21519699 457.88365138 -8.03842545 462.87341952 C-8.33952714 464.69688172 -8.64117599 466.52025365 -8.94340134 468.34352994 C-9.35323917 470.81660193 -9.76111205 473.28998989 -10.16845703 475.76347351 C-10.28905125 476.48831654 -10.40964547 477.21315958 -10.53389406 477.95996755 C-11.13582124 481.52358584 -11.13582124 481.52358584 -11.34362793 485.12442017 C21.65637207 485.12442017 54.65637207 485.12442017 88.65637207 485.12442017 C88.01057531 476.72906225 87.25743498 468.63121945 85.93058777 460.35847473 C85.75696286 459.24949099 85.58333794 458.14050726 85.40445167 456.99791795 C84.82749321 453.32079971 84.24329271 449.64487113 83.65905762 445.96890259 C83.24132413 443.31637207 82.8239959 440.66378069 82.40716553 438.0111084 C81.39480963 431.57454521 80.37706862 425.13884483 79.35751589 418.70341816 C78.16648632 411.18410722 76.98112918 403.66390533 75.79603527 396.14365701 C73.67780338 382.70308537 71.55486291 369.26326185 69.42907715 355.82388306 C67.37472449 342.83606163 65.32307716 329.8478172 63.27478027 316.85903931 C63.1488638 316.0605746 63.02294733 315.26210988 62.8932152 314.43944927 C62.38680589 311.22815042 61.88040375 308.01685044 61.374014 304.8055485 C59.17498734 290.86075432 56.97365135 276.91632457 54.77205423 262.97193602 C54.4186503 260.73343276 54.06530149 258.4949208 53.71196723 256.25640655 C52.47092984 248.39424026 51.22917373 240.53218842 49.98556336 232.67042866 C49.47218649 229.42498886 48.95919124 226.17948972 48.44687843 222.93388176 C45.92884156 206.98384847 43.34039841 191.04740012 40.65637207 175.12442017 C40.32637207 175.12442017 39.99637207 175.12442017 39.65637207 175.12442017 Z " fill="#606A70" transform="translate(1155.3436279296875,2134.8755798339844)"/>
<path d="M0 0 C0.95148926 0.00182281 1.90297852 0.00364563 2.88330078 0.00552368 C16.74435808 0.05027533 30.34250413 0.34653139 43.9375 3.3125 C44.7227002 3.47878906 45.50790039 3.64507813 46.31689453 3.81640625 C83.31428584 11.92624644 118.42160286 31.62924567 139.69921875 63.75 C146.5181578 74.45480839 152.36676576 85.45003723 156.9375 97.3125 C157.36675781 98.42238281 157.79601563 99.53226563 158.23828125 100.67578125 C160.99508913 108.34875426 162.91687853 116.09886656 164.625 124.0625 C164.82746338 124.9891748 165.02992676 125.91584961 165.23852539 126.87060547 C169.01777806 145.34940241 169.2139444 163.75742691 169.1328125 182.54296875 C169.12907318 185.11656076 169.12623056 187.69015421 169.12423706 190.26374817 C169.11744149 196.29095479 169.10176071 202.31807179 169.08153808 208.3452428 C169.05675836 215.89876717 169.04599147 223.45230435 169.03515625 231.00585938 C169.01582319 244.44146413 168.97573568 257.87690629 168.9375 271.3125 C141.5475 271.3125 114.1575 271.3125 85.9375 271.3125 C85.91171875 263.24296875 85.8859375 255.1734375 85.859375 246.859375 C85.83096004 241.05325174 85.80007923 235.24718197 85.7656765 229.44109535 C85.72158758 221.94559348 85.68305674 214.45020859 85.66650391 206.95458984 C85.65194918 200.37323644 85.61657723 193.79217536 85.56919098 187.21097565 C85.55449417 184.71555876 85.54646581 182.22009229 85.54561615 179.72463226 C85.52888398 155.19541993 83.61399407 132.26767021 67.9375 112.3125 C67.47859375 111.68988281 67.0196875 111.06726562 66.546875 110.42578125 C55.89979592 96.81098185 38.35355339 89.88591178 21.8828125 86.7265625 C-3.89295674 84.02138276 -30.32922435 86.00040406 -51.5625 102.1875 C-53.09291811 103.5285613 -54.59390447 104.90400713 -56.0625 106.3125 C-56.82820313 107.03824219 -57.59390625 107.76398437 -58.3828125 108.51171875 C-76.82094175 127.418614 -79.38256886 152.75155897 -79.32319641 177.88238525 C-79.32622314 179.71732766 -79.33011521 181.5522688 -79.33478898 183.38720775 C-79.34501061 188.39035824 -79.34290214 193.39343661 -79.33860838 198.39659286 C-79.33613048 203.80779387 -79.3451685 209.218978 -79.35264587 214.63017273 C-79.36536557 225.21640891 -79.36718996 235.80261969 -79.36484561 246.38886222 C-79.36305918 254.99818427 -79.36481905 263.60749863 -79.36907005 272.21681976 C-79.36966524 273.44433743 -79.37026043 274.6718551 -79.37087366 275.93657027 C-79.37208547 278.43066337 -79.3732996 280.92475646 -79.37451603 283.41884956 C-79.38538112 306.78486882 -79.383234 330.15087364 -79.37713119 353.51689371 C-79.37196334 374.86529464 -79.38321584 396.21364307 -79.40222941 417.56203607 C-79.42162898 439.51309789 -79.42986006 461.46413813 -79.42610615 483.41520858 C-79.42419728 495.72679507 -79.42665104 508.03834271 -79.44082069 520.34992218 C-79.45276251 530.83137836 -79.45410805 541.31277179 -79.44203053 551.79422888 C-79.43616141 557.13533053 -79.43498768 562.47631756 -79.44703293 567.81741142 C-79.45795803 572.71903365 -79.45471041 577.62044647 -79.44077124 582.52205917 C-79.43814242 584.28304076 -79.44043283 586.04403911 -79.44850711 587.80500415 C-79.51979359 604.53038536 -78.24134857 620.98802383 -71.0625 636.3125 C-70.64355469 637.24191406 -70.22460938 638.17132812 -69.79296875 639.12890625 C-61.81542203 655.29091013 -47.63455506 665.90843329 -31.07421875 672.3203125 C-6.08088148 680.55417458 23.4128335 680.08632979 47.24609375 668.35546875 C63.49290402 659.71463571 74.87662471 645.5706101 80.65771484 628.14111328 C83.82457006 617.33096415 85.08246353 606.98704498 85.14282227 595.77758789 C85.15272186 594.63539795 85.16262146 593.49320801 85.17282104 592.31640625 C85.20430827 588.55601038 85.22914288 584.7956019 85.25390625 581.03515625 C85.27448681 578.42198872 85.29548357 575.80882444 85.31687927 573.19566345 C85.36666184 567.03000136 85.4116538 560.86431411 85.45490164 554.69860309 C85.50925863 546.98588401 85.57005122 539.27321733 85.63085938 531.56054688 C85.73923325 517.8112383 85.83791286 504.06188126 85.9375 490.3125 C113.3275 490.3125 140.7175 490.3125 168.9375 490.3125 C168.99776176 504.55882528 169.05800658 518.80480025 169.0882616 533.05115223 C169.10476986 540.70465112 169.12559499 548.35805002 169.16381836 556.01147461 C169.19738277 562.73535695 169.21443496 569.45913115 169.22213173 576.18309212 C169.22760519 578.72745523 169.23828928 581.27181354 169.25469017 583.81612968 C169.5764465 635.87963471 157.57453412 683.14702298 121.0625 721.5 C89.31970796 752.08850869 44.76499743 763.51901498 1.75 763.5625 C1.05284882 763.56350708 0.35569763 763.56451416 -0.36257935 763.56555176 C-46.42008565 763.52092176 -89.55930502 749.61915231 -123.0625 717.3125 C-123.84109375 716.59707031 -124.6196875 715.88164062 -125.421875 715.14453125 C-152.53343943 689.52314146 -165.95620647 651.39287804 -171.0625 615.3125 C-171.31737324 613.55594621 -171.31737324 613.55594621 -171.57739544 611.76390648 C-172.42308941 604.00143495 -172.21093894 596.16454635 -172.20967102 588.36611938 C-172.21297372 586.52555844 -172.21670015 584.68499822 -172.2208125 582.84443891 C-172.23079497 577.7975919 -172.23454325 572.75075677 -172.23720181 567.70390129 C-172.24111621 562.2556343 -172.25069394 556.80737662 -172.25941467 551.3591156 C-172.27915022 538.20429547 -172.28924299 525.0494746 -172.29814246 511.89464337 C-172.30253137 505.68983636 -172.30789673 499.48503019 -172.31313133 493.28022385 C-172.33014302 472.635236 -172.34463418 451.99024867 -172.35188007 431.3452549 C-172.35235482 430.0110638 -172.35283071 428.67687271 -172.35330774 427.34268161 C-172.35354411 426.68108834 -172.35378049 426.01949508 -172.35402403 425.33785353 C-172.35522513 421.98630339 -172.35644061 418.63475326 -172.35766602 415.28320312 C-172.35790617 414.61809523 -172.35814632 413.95298733 -172.35839374 413.26772465 C-172.36627365 391.73925723 -172.38967824 370.21084513 -172.42222196 348.68240184 C-172.45662426 325.8824842 -172.47623989 303.08259737 -172.47952431 280.28265321 C-172.48168236 267.87009813 -172.49032688 255.45762431 -172.51598549 243.04509354 C-172.53780203 232.46709606 -172.54568956 221.88919958 -172.53601871 211.31118216 C-172.53150513 205.92453693 -172.53318643 200.5380996 -172.55278015 195.15148354 C-172.74041959 140.44266484 -164.0467569 89.49123494 -125.0625 48.3125 C-124.24265625 47.42820312 -123.4228125 46.54390625 -122.578125 45.6328125 C-90.77957482 12.42308406 -44.78783891 -0.17756736 0 0 Z " fill="#606A70" transform="translate(1604.0625,2121.6875)"/>
<path d="M0 0 C95.7 0 191.4 0 290 0 C290 28.05 290 56.1 290 85 C224.99 85 159.98 85 93 85 C93 160.24 93 235.48 93 313 C140.19 313 187.38 313 236 313 C236 339.73 236 366.46 236 394 C188.81 394 141.62 394 93 394 C93 479.14 93 564.28 93 652 C158.01 652 223.02 652 290 652 C290 680.05 290 708.1 290 737 C194.3 737 98.6 737 0 737 C0 493.79 0 250.58 0 0 Z " fill="#606A70" transform="translate(2676,2135)"/>
<path d="M0 0 C31.68 0 63.36 0 96 0 C104.02167306 25.21097249 104.02167306 25.21097249 106.99609375 35.703125 C107.52809379 37.56197806 108.06009959 39.42082949 108.59229755 41.27962589 C109.15381903 43.2426946 109.71388212 45.20617411 110.27355957 47.16976929 C112.3434522 54.42969993 114.42776267 61.68550255 116.51171875 68.94140625 C116.84163252 70.09050948 116.84163252 70.09050948 117.17821121 71.26282692 C122.38560855 89.39496169 127.68418368 107.5002183 132.99222565 125.60309982 C135.29112205 133.4435186 137.58887517 141.28427262 139.88671875 149.125 C140.14094604 149.99239744 140.39517334 150.85979488 140.65710449 151.7534771 C146.07644412 170.24504293 151.46841997 188.74453273 156.85217285 207.24648666 C157.55914223 209.67596116 158.26624302 212.10539737 158.97338867 214.53482056 C163.65491684 230.61852721 168.33339317 246.70311773 173.00610638 262.7893877 C175.14660955 270.15816108 177.28822139 277.52661171 179.43052387 284.89486217 C180.95555078 290.14044131 182.47899581 295.38647633 184.00120258 300.63287449 C184.94049297 303.86885293 185.88125446 307.10440234 186.82241249 310.33983803 C187.25661134 311.83361225 187.69020442 313.32756271 188.12312889 314.82170677 C190.27956556 322.26306646 192.47833327 329.67260673 195 337 C206.5349595 297.76620145 218.03007787 258.52108664 229.4375 219.25 C229.69733547 218.35551651 229.95717094 217.46103302 230.22488022 216.53944397 C232.59587564 208.37713245 234.966551 200.21472798 237.33695984 192.05224609 C242.80009088 173.24086928 248.27379501 154.4325744 253.75 135.625 C254.22337887 133.99913544 254.69675737 132.37327078 255.1701355 130.74740601 C262.9246345 104.11453354 270.6881545 77.48429346 278.45655441 50.85547256 C278.87540273 49.4197161 279.29422881 47.98395314 279.71303177 46.54818344 C280.70689374 43.14114172 281.70120648 39.73423301 282.69659424 36.32763672 C284.51119943 30.11574625 286.31870892 23.90194656 288.109375 17.68310547 C288.59851379 15.98963234 288.59851379 15.98963234 289.09753418 14.26194763 C289.703518 12.1626819 290.30694235 10.062675 290.90734863 7.96180725 C291.17059937 7.05136154 291.4338501 6.14091583 291.70507812 5.20288086 C291.93263794 4.40990097 292.16019775 3.61692108 292.39465332 2.7999115 C293 1 293 1 294 0 C296.83040672 -0.09520906 299.63634993 -0.12553631 302.46704102 -0.11352539 C303.79862244 -0.11374443 303.79862244 -0.11374443 305.15710449 -0.1139679 C308.10606284 -0.11326843 311.05495887 -0.10547448 314.00390625 -0.09765625 C316.04271917 -0.09579219 318.08153254 -0.09436823 320.12034607 -0.09336853 C325.49784574 -0.08954241 330.87531858 -0.07971132 336.25280762 -0.06866455 C341.73559201 -0.05845245 347.21838072 -0.05387134 352.70117188 -0.04882812 C363.46745973 -0.03808914 374.23372764 -0.02101159 385 0 C383.4031615 8.16469424 380.82409881 15.94257868 378.18414307 23.81506348 C377.68466155 25.31553458 377.18557469 26.81613711 376.68684649 28.31685877 C375.3200389 32.4259046 373.94764575 36.53306585 372.57430768 40.63993287 C371.09159655 45.07714347 369.61409559 49.51608876 368.13594055 53.95481873 C365.23825993 62.65349275 362.3357972 71.35056392 359.43174645 80.04711306 C356.03810619 90.21044388 352.64933225 100.37539512 349.26077208 110.54042059 C343.19978773 128.72168492 337.13456822 146.90153355 331.06689453 165.08056641 C325.20760657 182.63528325 319.35098479 200.19088631 313.49755859 217.74755859 C313.13859923 218.82421392 312.77963986 219.90086925 312.40980294 221.01015049 C311.68644299 223.17978768 310.96308323 225.34942493 310.23972367 227.51906225 C309.8827023 228.58990679 309.52568093 229.66075134 309.15784073 230.76404572 C308.80160295 231.83254305 308.44536518 232.90104039 308.07833232 234.00191644 C302.46927951 250.82534381 296.85793593 267.64800719 291.24628933 284.47056952 C289.22785611 290.52147593 287.20970425 296.5724761 285.19175693 302.62354457 C281.97953697 312.2557121 278.76627399 321.88753048 275.55110857 331.51871526 C274.08642107 335.90630248 272.62212393 340.29401859 271.15913582 344.68217278 C265.66690604 361.15475133 260.1480795 377.61730481 254.52607036 394.04611969 C253.31584544 397.58322663 252.11236266 401.12251036 250.91482663 404.6639328 C248.50508019 411.77712656 246.09130255 418.86847083 243.37440872 425.87187195 C237.6625887 440.85567802 236.84590401 454.67817776 236.98693204 470.64121389 C237.00958186 474.23191284 236.98508385 477.82237324 236.96690369 481.41305542 C236.94173539 487.6039366 236.94508475 493.7942435 236.96896362 499.98512268 C237.00344307 508.93548031 236.99311136 517.8853678 236.97256029 526.83574814 C236.940386 541.36420892 236.94342417 555.8924333 236.96923828 570.42089844 C236.99420671 584.51664759 237.00219854 598.61224155 236.98779297 612.70800781 C236.98690776 613.57987915 236.98602255 614.45175048 236.98511052 615.35004216 C236.98056548 619.72486421 236.97569127 624.09968582 236.97065353 628.47450733 C236.92942086 664.64981461 236.95220173 700.82467932 237 737 C206.64 737 176.28 737 145 737 C145.04302246 728.34934326 145.08604492 719.69868652 145.13037109 710.78588867 C145.2588673 682.92941002 145.31718374 655.07316519 145.33273234 627.21640397 C145.33522118 622.87058723 145.33832013 618.52477113 145.34179688 614.17895508 C145.34247861 613.3139843 145.34316034 612.44901352 145.34386273 611.5578315 C145.35626687 597.65445169 145.41780079 583.75171888 145.49833374 569.84858569 C145.58018777 555.52308256 145.6072953 541.19818507 145.58627188 526.87246114 C145.57599889 518.85059646 145.58920913 510.8303469 145.66541672 502.80879784 C145.97885526 468.46099074 145.14902964 437.24178319 131.63513184 404.99815941 C129.29314573 399.38310838 127.49696435 393.6130969 125.6953125 387.8046875 C125.09794774 385.96585367 124.49812611 384.12781386 123.89453125 382.29101562 C123.60658691 381.40969971 123.31864258 380.52838379 123.02197266 379.62036133 C122.72597168 378.71439209 122.4299707 377.80842285 122.125 376.875 C121.45961397 374.83789763 120.79425015 372.80078801 120.12890625 370.76367188 C118.76342969 366.58298059 117.39786319 362.40231869 116.03222656 358.22167969 C113.02004424 349.00019 110.00905644 339.77831026 106.99798584 330.55645752 C105.33204018 325.45428881 103.6660161 320.35214571 102 315.25 C101.33333296 313.20833346 100.66666629 311.16666679 100 309.125 C99.505 307.6090625 99.505 307.6090625 99 306.0625 C48.00000001 149.87500003 48.00000001 149.87500003 47.00003052 146.81259155 C46.33326363 144.77061922 45.66649523 142.72864738 44.99972534 140.68667603 C43.33457981 135.58719006 41.66946024 130.48769562 40.00439453 125.38818359 C36.64673734 115.1049542 33.28862881 104.82187253 29.9296875 94.5390625 C26.27879237 83.36227227 22.62963649 72.18491508 18.98156738 61.00720215 C17.9889006 57.96599505 16.99593802 54.92488465 16.00292969 51.88378906 C14.38826228 46.93848292 12.77479343 41.99278713 11.16217041 37.04681396 C10.56468663 35.21486352 9.96684052 33.38303119 9.36859131 31.55133057 C0 2.8639978 0 2.8639978 0 0 Z " fill="#606A70" transform="translate(3571,2135)"/>
</svg>
