<?xml version="1.0" encoding="UTF-8"?>
<svg version="1.1" xmlns="http://www.w3.org/2000/svg" width="540" height="398">
<path d="M0 0 C0.66 0 1.32 0 2 0 C6.60425925 8.41256943 10.95971005 16.88838226 14.99804688 25.58740234 C18.19625252 32.46541478 21.58136415 39.24121729 25 46.01171875 C26.00736743 48.01464851 27.00513294 50.02208487 28 52.03125 C31.23517102 58.55688061 34.53089472 65.03286765 38 71.4375 C41.21908061 77.3931135 44.14949565 83.45186782 47 89.59130859 C50.19723047 96.46816418 53.58202472 103.24252551 57 110.01171875 C58.00736743 112.01464851 59.00513294 114.02208487 60 116.03125 C63.55099726 123.19479746 67.19440087 130.29277471 70.98681641 137.33154297 C74.81952211 144.47319537 78.40603993 151.73615112 82 159 C82.6661363 160.33359839 83.33267882 161.66699412 84 163 C84.26103516 162.47792969 84.52207031 161.95585937 84.79101562 161.41796875 C88.58203125 153.8359375 92.37304688 146.25390625 96.1640625 138.671875 C96.65616211 137.68755493 96.65616211 137.68755493 97.15820312 136.68334961 C97.80507838 135.38976245 98.4522157 134.09630631 99.09960938 132.80297852 C100.73662628 129.53182679 102.36868849 126.25835285 103.9921875 122.98046875 C107.23167096 116.45184551 110.52869703 109.97118971 114 103.5625 C117.21908061 97.6068865 120.14949565 91.54813218 123 85.40869141 C126.19773205 78.53075698 129.58214933 71.75450203 133 64.98388672 C134.67531587 61.66024981 136.33693716 58.32977986 138 55 C138.66660157 53.66663412 139.33326822 52.33330078 140 51 C140.33 50.34 140.66 49.68 141 49 C142 47 143 45 144 43 C144.33 42.33991943 144.66 41.67983887 145 40.99975586 C145.66640624 39.66710607 146.33307273 38.33458638 147 37.00219727 C148.67281464 33.6594268 150.34097688 30.31448271 152 26.96484375 C156.50413795 17.88632788 161.18307012 8.91644466 166 0 C166.66 0 167.32 0 168 0 C169.82291667 3.64583333 171.64583333 7.29166667 173.46875 10.9375 C174.01840424 12.03677779 174.01840424 12.03677779 174.5791626 13.15826321 C175.59497459 15.18993152 176.61071345 17.22163639 177.62640381 19.25336552 C182.77451203 29.55102248 187.92596585 39.84700369 193.07806206 50.14266586 C203.65359622 71.27637566 214.2269015 92.41120014 224.79887766 113.54668998 C226.35402147 116.65572749 227.90918299 119.76475613 229.46435547 122.8737793 C229.92859128 123.80185745 229.92859128 123.80185745 230.40220559 124.74868465 C235.44124771 134.82239403 240.48170046 144.89539698 245.52265191 154.96815103 C250.70887749 165.33126839 255.89356631 175.69515334 261.07690239 186.05971628 C263.98322223 191.87105015 266.89025034 197.6820273 269.7989502 203.49217033 C272.52574922 208.93901699 275.25070115 214.38678352 277.97419548 219.83528328 C278.97651056 221.83963691 279.97951812 223.84364441 280.98324776 225.84729004 C282.34654124 228.56894755 283.70740382 231.29180642 285.06762695 234.01499939 C285.47071957 234.81827177 285.87381218 235.62154416 286.28911972 236.44915813 C289 241.88587753 289 241.88587753 289 243 C263.26 243 237.52 243 211 243 C199.6827774 221.49727706 199.6827774 221.49727706 195.39453125 212.82421875 C192.44569574 206.87527507 189.47172225 200.93889049 186.50094604 195.00088501 C184.85947936 191.71960317 183.21883738 188.43790905 181.578125 185.15625 C180.95508213 183.91015425 180.33203538 182.66406043 179.70898438 181.41796875 C175.47265625 172.9453125 171.23632812 164.47265625 167 156 C157.40416353 173.86630593 148.42401379 192.0405518 139.375 210.1875 C133.97125 221.015625 128.5675 231.84375 123 243 C97.26 243 71.52 243 45 243 C40.31526511 234.21612209 35.71798457 225.55151681 31.5 216.5625 C30.55700205 214.57373836 29.61298693 212.58545871 28.66796875 210.59765625 C28.21470215 209.64391113 27.76143555 208.69016602 27.29443359 207.70751953 C22.7618436 198.22686637 17.97391662 188.89328815 12.99926758 179.63818359 C7.32252166 169.04473494 2.08787876 158.2466234 -3 147.36035156 C-7.72999924 137.26753091 -12.72272967 127.31757811 -18 117.5 C-21.43932802 111.10164074 -24.76771615 104.65772405 -27.953125 98.12890625 C-29.37407213 95.22071044 -30.87466871 92.37024307 -32.421875 89.52734375 C-33.19849239 88.03936284 -33.97454895 86.55108907 -34.75 85.0625 C-35.32621094 84.05243896 -35.32621094 84.05243896 -35.9140625 83.02197266 C-37.41786139 80.05736137 -38.27665591 78.10613095 -37.45166016 74.80761719 C-36.419768 72.45699839 -35.24531462 70.24422106 -34 68 C-33.31965735 66.54941228 -32.65024144 65.09364646 -31.9921875 63.6328125 C-27.77077989 54.60769983 -23.3491227 45.7229909 -18.66821289 36.92749023 C-14.97512935 29.9863336 -11.44325309 22.97335258 -7.95556641 15.92724609 C-6.31264552 12.6137005 -4.65553169 9.30725757 -3 6 C-2.4225 4.845 -1.845 3.69 -1.25 2.5 C-0.63125 1.2625 -0.63125 1.2625 0 0 Z " fill="#00ADEE" transform="translate(244,76)"/>
<path d="M0 0 C-0.52884048 4.90853351 -2.14915292 8.58516581 -4.5625 12.8125 C-7.57758907 18.2708744 -10.38095349 23.77836135 -13 29.4375 C-18.68134814 41.6610066 -24.79505378 53.62972454 -31.0625 65.5625 C-35.63426408 74.26704141 -39.97503831 83.0288706 -44 92 C-42.68128906 92.36738281 -42.68128906 92.36738281 -41.3359375 92.7421875 C-35.63956964 94.88999833 -31.52110868 99.0142009 -27 103 C-25.90751953 103.94746094 -25.90751953 103.94746094 -24.79296875 104.9140625 C-10.92121731 117.77347705 -4.06415052 136.63753613 -2.78515625 155.1015625 C-2.12304448 176.44804585 -9.26489728 195.47375003 -23.2265625 211.56640625 C-30.79790376 219.47217071 -39.09354119 224.80733477 -49 229.3125 C-49.73532959 229.65031494 -50.47065918 229.98812988 -51.22827148 230.33618164 C-60.41556917 234.34756557 -69.35129816 235.37006473 -79.3125 235.3125 C-80.3221582 235.30758545 -81.33181641 235.3026709 -82.37207031 235.29760742 C-94.40884952 235.10898865 -104.21555161 232.46786662 -115 227 C-109.79455127 215.91432215 -104.50375677 204.884245 -98.98388672 193.95166016 C-97.31379981 190.63883764 -95.6576994 187.31903323 -94 184 C-93.33339842 182.66663413 -92.66673179 181.33330077 -92 180 C-91.67 179.34 -91.34 178.68 -91 178 C-90 176 -89 174 -88 172 C-87.66967773 171.3392749 -87.33935547 170.6785498 -86.99902344 169.99780273 C-86.33587266 168.67166323 -85.67246343 167.34565294 -85.00878906 166.01977539 C-83.28612919 162.57741991 -81.56874059 159.13257232 -79.859375 155.68359375 C-79.50617188 154.97267578 -79.15296875 154.26175781 -78.7890625 153.52929688 C-78.12070244 152.18378254 -77.45390655 150.8374895 -76.7890625 149.49023438 C-74.67216814 145.23420937 -72.39031461 141.10901428 -70 137 C-70.85722656 136.41992188 -71.71445313 135.83984375 -72.59765625 135.2421875 C-88.74040799 124.25057415 -100.5498605 111.955512 -107 93 C-107.25152832 92.32598145 -107.50305664 91.65196289 -107.76220703 90.95751953 C-110.28658409 83.60690639 -110.5392858 76.60221441 -110.5 68.875 C-110.49500488 67.59125488 -110.49000977 66.30750977 -110.48486328 64.98486328 C-110.15724041 47.12376838 -104.09474083 32.95388973 -93 19 C-92.48824219 18.26652344 -91.97648437 17.53304687 -91.44921875 16.77734375 C-90.97097656 16.19082031 -90.49273437 15.60429688 -90 15 C-89.34 15 -88.68 15 -88 15 C-87.67 14.01 -87.34 13.02 -87 12 C-64.50868154 -8.65039204 -27.05826618 -16.11981815 0 0 Z " fill="#00ADEE" transform="translate(128,84)"/>
<path d="M0 0 C0.66 0 1.32 0 2 0 C6.60425925 8.41256943 10.95971005 16.88838226 14.99804688 25.58740234 C18.19625252 32.46541478 21.58136415 39.24121729 25 46.01171875 C26.00736743 48.01464851 27.00513294 50.02208487 28 52.03125 C31.23517102 58.55688061 34.53089472 65.03286765 38 71.4375 C41.21908061 77.3931135 44.14949565 83.45186782 47 89.59130859 C50.19723047 96.46816418 53.58202472 103.24252551 57 110.01171875 C58.00736743 112.01464851 59.00513294 114.02208487 60 116.03125 C63.24233658 122.57212578 66.53989889 129.07131825 70 135.5 C72.87154548 140.83601635 75.65904755 146.20801791 78.375 151.625 C78.87580078 152.61983398 78.87580078 152.61983398 79.38671875 153.63476562 C80.27415824 155.41512262 81.13799447 157.20719038 82 159 C82.42539062 159.87398437 82.85078125 160.74796875 83.2890625 161.6484375 C84.90354638 166.9886534 81.87490005 171.66590626 79.48999023 176.3605957 C79.1289621 177.08309006 78.76793396 177.80558441 78.39596558 178.54997253 C77.20584393 180.92813231 76.00728783 183.30193243 74.80859375 185.67578125 C73.97995025 187.32747078 73.15183759 188.97942673 72.32423401 190.63163757 C70.14796532 194.97273819 67.96451245 199.31018622 65.77954102 203.64691162 C63.54984683 208.07557427 61.32696979 212.5076553 59.10351562 216.93945312 C54.74234028 225.62966021 50.37356724 234.31602362 46 243 C43.35661469 239.76212871 41.23930371 236.80628082 39.484375 233.0078125 C39.04198486 232.06301025 38.59959473 231.11820801 38.14379883 230.14477539 C37.68384521 229.14824951 37.2238916 228.15172363 36.75 227.125 C33.57407637 220.35903979 30.38471718 213.62928774 26.8125 207.0625 C23.04009482 200.12253576 19.50052614 193.08119311 15.99560547 186.00292969 C15.01596156 184.032111 14.02730743 182.06611072 13.03515625 180.1015625 C9.02236821 172.14664811 5.15248426 164.13496978 1.35791016 156.07373047 C-1.99049557 148.97799068 -5.47926551 141.95933016 -9.01611328 134.95605469 C-10.0168528 132.96649512 -11.00784464 130.97235304 -11.99609375 128.9765625 C-15.23977159 122.43307688 -18.53896627 115.9315006 -22 109.5 C-25.52549573 102.93875721 -28.97969433 96.34856717 -32.203125 89.6328125 C-33.26554327 87.4230278 -34.35106629 85.44715263 -35.671875 83.3671875 C-37.21410863 80.69095855 -37.87573407 79.10221022 -38 76 C-36.54353331 70.73660141 -33.80676464 65.96068526 -31.19335938 61.19921875 C-29.70623317 58.45862283 -28.33971514 55.66803012 -26.97363281 52.86572266 C-23.80162345 46.38012478 -20.42627299 40.0068705 -17.00439453 33.65063477 C-13.50940691 27.1358477 -10.22032842 20.52196689 -6.94042969 13.89697266 C-5.46822192 10.92733238 -3.98369903 7.96391519 -2.5 5 C-2.0153125 4.030625 -1.530625 3.06125 -1.03125 2.0625 C-0.6909375 1.381875 -0.350625 0.70125 0 0 Z " fill="#EC1B23" transform="translate(244,76)"/>
<path d="M0 0 C0.66 0 1.32 0 2 0 C12.8242779 21.62523023 23.64628619 43.2515949 34.46556854 64.87932491 C39.48881928 74.9206627 44.51282155 84.96162316 49.53857422 95.00170898 C53.9172957 103.74920732 58.29462641 112.49739992 62.67026472 121.24644095 C64.9887273 125.88205863 67.30790089 130.51731757 69.6287384 135.15174675 C71.81043849 139.5083902 73.99028641 143.86595515 76.16868019 148.2242527 C76.97103139 149.8286786 77.77407491 151.43275849 78.57784081 153.03647614 C79.67006202 155.21598677 80.75984864 157.39669712 81.84899902 159.57774353 C82.17194773 160.22072811 82.49489644 160.86371268 82.82763147 161.52618164 C85 165.88587879 85 165.88587879 85 167 C59.26 167 33.52 167 7 167 C-4.3172226 145.49727706 -4.3172226 145.49727706 -8.60546875 136.82421875 C-11.55430426 130.87527507 -14.52827775 124.93889049 -17.49905396 119.00088501 C-19.14052064 115.71960317 -20.78116262 112.43790905 -22.421875 109.15625 C-23.04491787 107.91015425 -23.66796462 106.66406043 -24.29101562 105.41796875 C-29.14550781 95.70898438 -29.14550781 95.70898438 -34 86 C-34.56203125 84.9996875 -35.1240625 83.999375 -35.703125 82.96875 C-37.20235367 79.53678075 -37.33286132 77.72377346 -37 74 C-35.96182455 71.39037409 -34.88472747 69.00841915 -33.60351562 66.52587891 C-33.24263351 65.80323853 -32.8817514 65.08059814 -32.50993347 64.33605957 C-31.31999993 61.96035646 -30.113318 59.59359921 -28.90625 57.2265625 C-28.07565384 55.57656627 -27.24611923 53.92603528 -26.41760254 52.2749939 C-24.23837584 47.93940506 -22.04482922 43.61121866 -19.84820557 39.28442383 C-17.60754559 34.86457519 -15.38052623 30.4378669 -13.15234375 26.01171875 C-8.78154066 17.33438379 -4.39557638 8.66480907 0 0 Z " fill="#EC1C24" transform="translate(448,152)"/>
<path d="M0 0 C-0.52884048 4.90853351 -2.14915292 8.58516581 -4.5625 12.8125 C-7.57758907 18.2708744 -10.38095349 23.77836135 -13 29.4375 C-19.16158356 42.69424038 -25.83398775 55.6638319 -32.62768555 68.60693359 C-36.06701944 75.16918925 -39.39563033 81.77205311 -42.59765625 88.453125 C-44 91 -44 91 -45.44587708 92.39692688 C-47.20618076 94.21267483 -48.14663212 95.93229391 -49.26831055 98.19604492 C-49.89862434 99.45701241 -49.89862434 99.45701241 -50.54167175 100.74345398 C-50.98553726 101.64666885 -51.42940277 102.54988373 -51.88671875 103.48046875 C-52.34859085 104.40845779 -52.81046295 105.33644684 -53.28633118 106.29255676 C-54.75904593 109.25476788 -56.22335709 112.22104419 -57.6875 115.1875 C-58.68499588 117.19753915 -59.68303625 119.2073082 -60.68164062 121.21679688 C-63.12741857 126.14141538 -65.56631132 131.06939691 -68 136 C-74.59632498 134.88139365 -78.79081872 131.02422719 -84 127 C-84.59425781 126.56300781 -85.18851563 126.12601563 -85.80078125 125.67578125 C-95.99538505 117.84434706 -102.92905296 104.96359947 -107 93 C-107.25152832 92.32598145 -107.50305664 91.65196289 -107.76220703 90.95751953 C-110.28658409 83.60690639 -110.5392858 76.60221441 -110.5 68.875 C-110.49500488 67.59125488 -110.49000977 66.30750977 -110.48486328 64.98486328 C-110.15724041 47.12376838 -104.09474083 32.95388973 -93 19 C-92.48824219 18.26652344 -91.97648437 17.53304687 -91.44921875 16.77734375 C-90.97097656 16.19082031 -90.49273437 15.60429688 -90 15 C-89.34 15 -88.68 15 -88 15 C-87.67 14.01 -87.34 13.02 -87 12 C-64.50868154 -8.65039204 -27.05826618 -16.11981815 0 0 Z " fill="#EC1B23" transform="translate(128,84)"/>
<path d="M0 0 C0.99 0 1.98 0 3 0 C3.46148437 1.00675781 3.92296875 2.01351562 4.3984375 3.05078125 C7.95937685 10.75300264 11.65395022 18.35083293 15.65234375 25.8359375 C20.99449757 35.91430479 26.10720811 46.10026545 31.1875 56.3125 C32.47073036 58.88649627 33.75453772 61.46020424 35.0383606 64.03390503 C35.86494363 65.69211774 36.69070864 67.3507385 37.51559448 69.00979614 C39.38649248 72.77212516 41.26486685 76.52998422 43.17041016 80.27490234 C43.50067703 80.92645798 43.83094391 81.57801361 44.17121887 82.24931335 C45.04915687 83.9791238 45.93127521 85.70681083 46.8137207 87.43432617 C48 90 48 90 48 92 C17.31 92 -13.38 92 -45 92 C-43.76079206 88.90198016 -42.53613695 85.92065121 -41.1171875 82.91796875 C-40.75898926 82.1595166 -40.40079102 81.40106445 -40.03173828 80.61962891 C-39.65001465 79.81702637 -39.26829102 79.01442383 -38.875 78.1875 C-38.47394043 77.34364746 -38.07288086 76.49979492 -37.65966797 75.63037109 C-32.18090545 64.1433404 -26.44229751 52.81629729 -20.5 41.5625 C-16.40003917 33.79337641 -12.54764208 25.94791634 -8.859375 17.9765625 C-6.04778021 11.91462086 -3.02206483 5.95913409 0 0 Z " fill="#00AEEF" transform="translate(168,227)"/>
<path d="M0 0 C0.89460938 -0.02384766 1.78921875 -0.04769531 2.7109375 -0.07226562 C10.70196012 -0.05484334 16.14380706 2.56091413 22.1484375 7.73828125 C29.11107936 15.77322871 31.625 22.86883538 31.625 33.5625 C30.57141765 42.83073222 25.87184977 50.79430039 18.625 56.5625 C10.05369723 61.8494718 0.77664844 63.15288074 -9.1328125 60.94921875 C-17.43501638 57.99529981 -24.05751525 52.50727225 -28.375 44.8125 C-31.95511657 36.70751387 -32.40500817 28.30855057 -29.45703125 19.94921875 C-26.65361024 13.76549948 -23.11024218 8.3393668 -17.375 4.5625 C-16.38113281 3.87929688 -15.38726562 3.19609375 -14.36328125 2.4921875 C-9.71137589 -0.13857447 -5.23750005 -0.06359821 0 0 Z " fill="#EC1B23" transform="translate(221.375,-0.5625)"/>
<path d="M0 0 C3.83669355 3.1391129 3.83669355 3.1391129 5.0625 4.6875 C5.0625 5.6775 5.0625 6.6675 5.0625 7.6875 C2.25 9.25 2.25 9.25 -0.9375 10.6875 C-1.9275 10.3575 -2.9175 10.0275 -3.9375 9.6875 C-3.9375 9.0275 -3.9375 8.3675 -3.9375 7.6875 C-8.06337749 7.35232489 -8.06337749 7.35232489 -11.8125 8.8125 C-13.44281294 11.52968824 -13.26765665 13.58402746 -12.9375 16.6875 C-12.2775 17.3475 -11.6175 18.0075 -10.9375 18.6875 C-7.7576705 18.39307134 -4.80037014 17.95868776 -1.75 17 C0.72045789 16.57405898 1.96823222 17.41598027 4.0625 18.6875 C4.43375 17.759375 4.805 16.83125 5.1875 15.875 C7.46941653 11.9957419 8.84695921 11.17074583 13.0625 9.6875 C16.05628699 9.1885355 19.03458363 8.88263239 22.0625 8.6875 C20.91472875 7.31325941 20.91472875 7.31325941 17.8125 7.5625 C14.72646211 7.66536793 12.04825886 7.96367967 9.0625 8.6875 C7.5 6.375 7.5 6.375 6.0625 3.6875 C6.3925 2.6975 6.7225 1.7075 7.0625 0.6875 C13.32212011 -2.44231006 21.01400952 -2.29237194 27.5625 -0.1875 C30.77306568 2.22042426 31.6175701 3.92318695 33.0625 7.6875 C33.41163633 11.15663897 33.34686079 14.58047879 33.25 18.0625 C33.22969727 19.45275391 33.22969727 19.45275391 33.20898438 20.87109375 C33.17383881 23.14383998 33.12464132 25.41535847 33.0625 27.6875 C29.31264675 27.7746747 25.56305445 27.82795003 21.8125 27.875 C20.21728516 27.91270508 20.21728516 27.91270508 18.58984375 27.95117188 C17.56503906 27.96083984 16.54023438 27.97050781 15.484375 27.98046875 C14.54174805 27.9961792 13.59912109 28.01188965 12.62792969 28.02807617 C9.58765802 27.62446188 8.21604735 26.85149224 6.0625 24.6875 C6.0625 23.6975 6.0625 22.7075 6.0625 21.6875 C5.4025 21.6875 4.7425 21.6875 4.0625 21.6875 C3.794375 22.30625 3.52625 22.925 3.25 23.5625 C2.0625 25.6875 2.0625 25.6875 -0.9375 27.6875 C-7.10536722 28.42361481 -13.86641961 29.10137951 -19.1875 25.4375 C-22.97253207 21.65246793 -24.22528396 19.09690306 -24.25 13.75 C-24.15161578 9.56252184 -23.73206562 6.96388728 -20.9375 3.6875 C-14.97155286 -1.68185242 -7.52192455 -3.36085991 0 0 Z M16.0625 16.6875 C16.0625 18.0075 16.0625 19.3275 16.0625 20.6875 C17.7125 20.6875 19.3625 20.6875 21.0625 20.6875 C21.7225 19.3675 22.3825 18.0475 23.0625 16.6875 C20.7525 16.6875 18.4425 16.6875 16.0625 16.6875 Z " fill="#221E1F" transform="translate(406.9375,370.3125)"/>
<path d="M0 0 C2.18359375 0.015625 2.18359375 0.015625 4.375 0.75 C7.3036285 4.07989253 9.27544117 7.86173935 11.375 11.75 C12.34195747 13.32008498 13.31945877 14.883781 14.3125 16.4375 C15.3334375 18.0771875 15.3334375 18.0771875 16.375 19.75 C19.66316124 15.87678305 22.16849086 11.85466735 24.625 7.4375 C24.98851563 6.79232422 25.35203125 6.14714844 25.7265625 5.48242188 C26.61336205 3.90718584 27.49474563 2.32890286 28.375 0.75 C31.345 0.75 34.315 0.75 37.375 0.75 C37.375 12.96 37.375 25.17 37.375 37.75 C34.405 37.75 31.435 37.75 28.375 37.75 C26.43409174 35.80909174 26.97580565 32.27706098 26.8125 29.6875 C26.72871094 28.39714844 26.64492187 27.10679687 26.55859375 25.77734375 C26.49800781 24.77832031 26.43742187 23.77929688 26.375 22.75 C25.95347656 23.46027344 25.53195313 24.17054688 25.09765625 24.90234375 C24.54980469 25.82144531 24.00195312 26.74054688 23.4375 27.6875 C22.61958984 29.06228516 22.61958984 29.06228516 21.78515625 30.46484375 C20.375 32.75 20.375 32.75 19.375 33.75 C16.5546875 34.15625 16.5546875 34.15625 13.375 33.75 C10.41716674 30.38832973 8.60140227 26.668468 6.375 22.75 C6.045 27.7 5.715 32.65 5.375 37.75 C-1.55859375 37.84765625 -1.55859375 37.84765625 -3.625 37.75 C-5.38572584 35.98927416 -4.75334784 33.6710371 -4.76394653 31.3260498 C-4.7619223 30.56876587 -4.75989807 29.81148193 -4.7578125 29.03125 C-4.75876923 28.25817505 -4.75972595 27.4851001 -4.76071167 26.68859863 C-4.76139341 25.05102456 -4.75953957 23.41344781 -4.75537109 21.77587891 C-4.75002271 19.26068079 -4.75531626 16.74566127 -4.76171875 14.23046875 C-4.76105797 12.64322877 -4.7597768 11.0559889 -4.7578125 9.46875 C-4.75983673 8.71146606 -4.76186096 7.95418213 -4.76394653 7.1739502 C-4.73595091 0.97985191 -4.73595091 0.97985191 0 0 Z " fill="#201D1E" transform="translate(53.625,360.25)"/>
<path d="M0 0 C1.20269531 -0.02578125 2.40539062 -0.0515625 3.64453125 -0.078125 C8.47390208 0.36913757 11.88316103 1.7282712 15.0625 5.4375 C15.43375 6.035625 15.805 6.63375 16.1875 7.25 C13.9375 9.8125 13.9375 9.8125 11.1875 12.25 C9.2578125 11.98046875 9.2578125 11.98046875 7.1875 11.25 C1.55811519 9.33619933 1.55811519 9.33619933 -4.1875 10.4375 C-7.01208851 12.14907365 -7.01208851 12.14907365 -8.8125 15.25 C-9.26581302 21.12504821 -9.26581302 21.12504821 -6.8125 26.25 C-2.66275191 28.73984886 0.55864979 28.15761769 5.1875 27.25 C5.17589844 26.61191406 5.16429687 25.97382813 5.15234375 25.31640625 C5.14332031 24.49011719 5.13429687 23.66382813 5.125 22.8125 C5.11339844 21.98878906 5.10179687 21.16507812 5.08984375 20.31640625 C5.1875 18.25 5.1875 18.25 6.1875 17.25 C7.70678038 17.17820036 9.22917482 17.16607993 10.75 17.1875 C11.57628906 17.19652344 12.40257812 17.20554687 13.25390625 17.21484375 C14.21103516 17.23224609 14.21103516 17.23224609 15.1875 17.25 C15.34986745 19.83585205 15.46845486 22.41151954 15.5625 25 C15.61277344 25.72960937 15.66304687 26.45921875 15.71484375 27.2109375 C15.7734375 29.359375 15.7734375 29.359375 15.1875 33.25 C11.49501704 36.90215943 8.08026051 37.77555429 3.07080078 37.90771484 C2.34618652 37.89691895 1.62157227 37.88612305 0.875 37.875 C0.12460449 37.86807129 -0.62579102 37.86114258 -1.39892578 37.85400391 C-7.81614659 37.60232092 -12.29480467 35.98753452 -16.8125 31.25 C-20.59262965 26.55347528 -20.3124206 21.19533861 -20.16015625 15.3828125 C-19.65939866 10.87036767 -18.67195838 8.78669852 -15.8125 5.25 C-10.49244575 1.12424365 -6.65063094 0.08499209 0 0 Z " fill="#221D1F" transform="translate(125.8125,360.75)"/>
<path d="M0 0 C3.3 0 6.6 0 10 0 C10 3.63 10 7.26 10 11 C10.66 10.67 11.32 10.34 12 10 C16.98066973 9.45355962 20.8958307 9.45795325 25.4375 11.6875 C28.81419634 14.73476255 30.70780616 17.33743971 31.50390625 21.8671875 C31.60773029 27.19682146 31.67836473 30.9912282 28.125 35.1875 C25.73492184 37.56025875 24.11963281 38.94564322 20.66162109 39.11352539 C19.23197021 39.10567017 19.23197021 39.10567017 17.7734375 39.09765625 C16.3800415 39.09390991 16.3800415 39.09390991 14.95849609 39.09008789 C13.77594238 39.08098389 12.59338867 39.07187988 11.375 39.0625 C5.744375 39.0315625 5.744375 39.0315625 0 39 C0 26.13 0 13.26 0 0 Z M11.8125 19.0625 C9.65323697 20.99053425 9.65323697 20.99053425 9.5625 24.5 C9.77101342 27.8553769 9.77101342 27.8553769 11.0625 30 C14.16186478 31.59967215 16.69958714 30.73342508 20 30 C21.43920901 28.77678378 21.43920901 28.77678378 21.3125 25.125 C21.29533649 21.70212293 21.29533649 21.70212293 19.1875 19 C16.27964439 17.67069458 14.69116614 17.66429073 11.8125 19.0625 Z " fill="#221E1F" transform="translate(192,359)"/>
<path d="M0 0 C9.24 0 18.48 0 28 0 C28 2.97 28 5.94 28 9 C22.06 9 16.12 9 10 9 C10 10.65 10 12.3 10 14 C15.28 14 20.56 14 26 14 C26 16.64 26 19.28 26 22 C20.72 22 15.44 22 10 22 C10 24.31 10 26.62 10 29 C16.27 29 22.54 29 29 29 C29 31.64 29 34.28 29 37 C19.43 37 9.86 37 0 37 C0 24.79 0 12.58 0 0 Z " fill="#231F20" transform="translate(285,361)"/>
<path d="M0 0 C2.97 0 5.94 0 9 0 C9 12.87 9 25.74 9 39 C3.493125 39.1546875 3.493125 39.1546875 -2.125 39.3125 C-3.2711377 39.35802002 -4.41727539 39.40354004 -5.59814453 39.45043945 C-14.04281266 39.56519691 -14.04281266 39.56519691 -17.65625 36.625 C-21.46551617 32.35862189 -22.48760959 28.90361634 -22.3125 23.125 C-21.55249139 17.95694145 -19.49438868 14.11210321 -15.3125 11 C-10.74592091 9.62141009 -5.41018108 8.79490946 -1 11 C-0.67 7.37 -0.34 3.74 0 0 Z M-10.3125 19.5625 C-12.35246661 22.00278248 -12.35246661 22.00278248 -11.9375 25.625 C-11.3249155 29.25516924 -11.3249155 29.25516924 -8 31 C-4.91666667 31 -4.91666667 31 -2 30 C0.1189488 27.51253836 0.00855853 26.14264222 -0.1875 22.875 C-0.74911961 19.69792816 -0.74911961 19.69792816 -4 18 C-7.91275555 17.62676173 -7.91275555 17.62676173 -10.3125 19.5625 Z " fill="#221E1F" transform="translate(337,359)"/>
<path d="M0 0 C1.05477539 -0.01160156 1.05477539 -0.01160156 2.13085938 -0.0234375 C6.21648718 -0.00812118 9.38891173 0.43836743 13.0625 2.25 C12.44711538 7.78846154 12.44711538 7.78846154 10.5 10.125 C10.025625 10.49625 9.55125 10.8675 9.0625 11.25 C8.216875 10.92 7.37125 10.59 6.5 10.25 C2.85260784 9.18894046 -0.16024664 9.09890987 -3.9375 9.25 C-4.2675 10.24 -4.5975 11.23 -4.9375 12.25 C-4.06867187 12.48074219 -3.19984375 12.71148437 -2.3046875 12.94921875 C10.50490602 16.57430506 10.50490602 16.57430506 14.0625 21.25 C14.83567826 24.74661214 14.84867148 27.75526692 14.0625 31.25 C11.87227082 34.07424288 10.23232793 35.66508603 7.0625 37.25 C4.11217368 37.40144814 1.20125382 37.48142405 -1.75 37.5 C-2.55759766 37.520625 -3.36519531 37.54125 -4.19726562 37.5625 C-8.97283176 37.59378954 -12.00812351 37.27872833 -15.9375 34.25 C-15.6075 31.94 -15.2775 29.63 -14.9375 27.25 C-12.38245285 26.30368624 -11.30055944 26.0944031 -8.75 27.1875 C-4.80402233 28.67820267 -1.10896468 28.41358685 3.0625 28.25 C3.0625 27.26 3.0625 26.27 3.0625 25.25 C2.18207031 25.00765625 1.30164063 24.7653125 0.39453125 24.515625 C-1.34763672 24.01289063 -1.34763672 24.01289063 -3.125 23.5 C-4.27355469 23.17515625 -5.42210937 22.8503125 -6.60546875 22.515625 C-10.620483 20.99057856 -13.96616237 19.19267526 -15.9375 15.25 C-16.51541538 8.1994324 -16.51541538 8.1994324 -14.1875 4.375 C-9.74834002 0.18246002 -5.9645959 -0.06524626 0 0 Z " fill="#221E1F" transform="translate(15.9375,360.75)"/>
<path d="M0 0 C4.52125284 4.64023318 4.60122075 10.27233309 4.55078125 16.45117188 C4.53402344 17.25103516 4.51726562 18.05089844 4.5 18.875 C4.49097656 19.70193359 4.48195312 20.52886719 4.47265625 21.38085938 C4.44931512 23.39986708 4.41345288 25.41872356 4.375 27.4375 C0.64624612 27.58310195 -3.08177434 27.67167043 -6.8125 27.75 C-7.86759766 27.79189453 -8.92269531 27.83378906 -10.00976562 27.87695312 C-17.8421632 28.00049252 -17.8421632 28.00049252 -21.82421875 25.13671875 C-24.20946704 21.56143335 -24.37812514 19.65500077 -23.625 15.4375 C-21.43711445 11.92125537 -19.63184006 10.68888269 -15.62109375 9.6875 C-12.62572342 9.17825168 -9.64571398 8.76028762 -6.625 8.4375 C-10.70761196 6.39619402 -15.32836653 7.42652742 -19.625 8.4375 C-21.1875 6.125 -21.1875 6.125 -22.625 3.4375 C-21.625 0.4375 -21.625 0.4375 -19.3125 -0.75 C-12.70607359 -2.20565328 -6.2927294 -2.71238336 0 0 Z M-12.625 16.4375 C-12.625 17.7575 -12.625 19.0775 -12.625 20.4375 C-10.975 20.4375 -9.325 20.4375 -7.625 20.4375 C-6.965 19.1175 -6.305 17.7975 -5.625 16.4375 C-7.935 16.4375 -10.245 16.4375 -12.625 16.4375 Z " fill="#211E1E" transform="translate(247.625,370.5625)"/>
<path d="M0 0 C6.80157993 6.00139405 6.80157993 6.00139405 7.578125 10.5 C7.80276254 16.40475809 7.28130011 20.38170259 3.125 24.875 C-2.50991103 28.96865488 -8.15612531 28.63562732 -14.875 27.875 C-19.3544723 25.78972841 -22.09748707 23.51628375 -23.875 18.875 C-24.53362967 13.55717528 -24.52560637 9.27630603 -22.25 4.375 C-16.32324172 -1.86369293 -7.99509623 -3.12851591 0 0 Z M-13.875 9.875 C-14.96068503 11.71767868 -14.96068503 11.71767868 -14.875 13.875 C-13.72713059 16.11856294 -12.6654233 18.0845767 -10.875 19.875 C-7.35754713 19.62251373 -7.35754713 19.62251373 -3.875 18.875 C-2.33336825 15.7917365 -2.57752465 13.26621901 -2.875 9.875 C-4.56664222 7.83470404 -4.56664222 7.83470404 -6.875 6.875 C-10.4345477 6.875 -11.32049506 7.49079539 -13.875 9.875 Z " fill="#221E1F" transform="translate(501.875,370.125)"/>
<path d="M0 0 C3.30975276 2.42177031 4.82050827 4.12301781 6.5625 7.875 C7.34295276 13.22667608 7.23918363 17.47150803 4.875 22.375 C1.69492252 25.8129216 -0.85917203 27.65573291 -5.55859375 28.30859375 C-16.87039562 28.32191743 -16.87039562 28.32191743 -21.4375 23.875 C-24.98945809 19.9678461 -25.05596426 15.68260633 -24.92578125 10.60546875 C-24.14377319 6.2324797 -21.87455865 3.57892458 -18.4375 0.875 C-12.92640365 -2.5607881 -5.97017572 -1.95387569 0 0 Z M-12.625 7.9375 C-14.78426303 9.86553425 -14.78426303 9.86553425 -14.875 13.375 C-14.66648658 16.7303769 -14.66648658 16.7303769 -13.375 18.875 C-10.17419949 20.52702607 -7.81108673 19.79506911 -4.4375 18.875 C-2.45562631 16.56281402 -2.41515707 15.33303016 -2.5625 12.3125 C-3.63236817 9.33215294 -4.6974768 8.40618943 -7.4375 6.875 C-10.39306001 6.65654802 -10.39306001 6.65654802 -12.625 7.9375 Z " fill="#221E1F" transform="translate(182.4375,370.125)"/>
<path d="M0 0 C3.3 0 6.6 0 10 0 C10.33 6.27 10.66 12.54 11 19 C15.60532389 20.45314664 15.60532389 20.45314664 18 19 C19.23759823 15.28720531 19.35608897 11.68693654 19.5625 7.8125 C19.60568359 7.06291016 19.64886719 6.31332031 19.69335938 5.54101562 C19.79922685 3.69421625 19.9000976 1.84713166 20 0 C22.97 0 25.94 0 29 0 C29 9.57 29 19.14 29 29 C23.4621875 29.1546875 23.4621875 29.1546875 17.8125 29.3125 C16.07963745 29.38078003 16.07963745 29.38078003 14.31176758 29.45043945 C6.75291807 29.5528808 6.75291807 29.5528808 2.82421875 26.66796875 C0.3267893 23.01541133 -0.12382281 20.43076391 -0.09765625 16.11328125 C-0.09443359 15.17548828 -0.09121094 14.23769531 -0.08789062 13.27148438 C-0.07532227 11.80678711 -0.07532227 11.80678711 -0.0625 10.3125 C-0.05798828 9.32443359 -0.05347656 8.33636719 -0.04882812 7.31835938 C-0.0370432 4.87888042 -0.01910783 2.43943259 0 0 Z " fill="#221E1F" transform="translate(351,369)"/>
<path d="M0 0 C3.526875 -0.061875 7.05375 -0.12375 10.6875 -0.1875 C12.342052 -0.22846802 12.342052 -0.22846802 14.0300293 -0.27026367 C23.14958118 -0.34783783 23.14958118 -0.34783783 27 3 C28.30475618 5.60951236 28.11301572 7.52701285 28.09765625 10.4453125 C28.09443359 11.52167969 28.09121094 12.59804688 28.08789062 13.70703125 C28.07951172 14.83496094 28.07113281 15.96289062 28.0625 17.125 C28.05798828 18.26066406 28.05347656 19.39632813 28.04882812 20.56640625 C28.03701615 23.37765638 28.02054507 26.1888023 28 29 C25.36 29 22.72 29 20 29 C19.93941406 27.96359375 19.87882813 26.9271875 19.81640625 25.859375 C19.73196629 24.48957127 19.64732003 23.11978025 19.5625 21.75 C19.52318359 21.06808594 19.48386719 20.38617188 19.44335938 19.68359375 C19.23333528 16.35551959 18.98065998 13.19744598 18 10 C16.15274948 9.30840599 16.15274948 9.30840599 14 9 C10.86729591 10.59266174 10.86729591 10.59266174 10.56762695 12.87939453 C10.54144287 13.62302246 10.51525879 14.36665039 10.48828125 15.1328125 C10.45283203 15.93847656 10.41738281 16.74414062 10.38085938 17.57421875 C10.34702148 18.83685547 10.34702148 18.83685547 10.3125 20.125 C10.27833984 20.97449219 10.24417969 21.82398438 10.20898438 22.69921875 C10.12640827 24.79901105 10.06153022 26.89948564 10 29 C6.7 29 3.4 29 0 29 C0 19.43 0 9.86 0 0 Z " fill="#231E20" transform="translate(512,369)"/>
<path d="M0 0 C1.47906892 -0.02689216 2.95827483 -0.04634621 4.4375 -0.0625 C5.26121094 -0.07410156 6.08492188 -0.08570313 6.93359375 -0.09765625 C9 0 9 0 10 1 C10.04080783 2.99958364 10.04254356 5.00045254 10 7 C12.31 7 14.62 7 17 7 C17 9.64 17 12.28 17 15 C14.69 15 12.38 15 10 15 C10 18.96 10 22.92 10 27 C11.98 26.67 13.96 26.34 16 26 C18.14809171 29.22213757 18.29386153 30.27775401 18 34 C16.20207025 35.79792975 13.61614796 35.25670277 11.1875 35.3125 C10.12917969 35.34988281 9.07085937 35.38726562 7.98046875 35.42578125 C4.33361833 34.90480262 3.2584367 33.83752304 1 31 C-0.50156874 27.99686252 -0.09281204 25.20932478 -0.0625 21.875 C-0.05347656 20.59367187 -0.04445313 19.31234375 -0.03515625 17.9921875 C-0.02355469 17.00476563 -0.01195312 16.01734375 0 15 C-1.32 15 -2.64 15 -4 15 C-4 12.36 -4 9.72 -4 7 C-2.68 7 -1.36 7 0 7 C0 4.69 0 2.38 0 0 Z " fill="#211D1E" transform="translate(445,363)"/>
<path d="M0 0 C3.3 0 6.6 0 10 0 C10 12.87 10 25.74 10 39 C6.7 39 3.4 39 0 39 C0 26.13 0 13.26 0 0 Z " fill="#231E1F" transform="translate(256,359)"/>
<path d="M0 0 C3.3 0 6.6 0 10 0 C10 12.87 10 25.74 10 39 C6.7 39 3.4 39 0 39 C0 26.13 0 13.26 0 0 Z " fill="#242021" transform="translate(145,359)"/>
<path d="M0 0 C3.3 0 6.6 0 10 0 C10 12.21 10 24.42 10 37 C6.7 37 3.4 37 0 37 C0 24.79 0 12.58 0 0 Z " fill="#221F1F" transform="translate(34,361)"/>
<path d="M0 0 C2.97 0 5.94 0 9 0 C9 9.57 9 19.14 9 29 C5.7 29 2.4 29 -1 29 C-1.02465881 25.03069011 -1.04284023 21.06140966 -1.05493164 17.09204102 C-1.05997057 15.74079614 -1.06680177 14.38955674 -1.07543945 13.03833008 C-1.08752419 11.09979566 -1.09269828 9.161222 -1.09765625 7.22265625 C-1.10289307 6.05484619 -1.10812988 4.88703613 -1.11352539 3.68383789 C-1 1 -1 1 0 0 Z " fill="#1F1B1D" transform="translate(466,369)"/>
<path d="M0 0 C3.5 0.25 3.5 0.25 5.5 2.25 C5.75 5.25 5.75 5.25 5.5 8.25 C3.5 10.25 3.5 10.25 0.0625 10.5625 C-3.5 10.25 -3.5 10.25 -5.5 9.0625 C-6.5 7.25 -6.5 7.25 -6.3125 4.6875 C-5.00804401 0.77413204 -4.14512056 0.29608004 0 0 Z " fill="#221C1D" transform="translate(470.5,356.75)"/>
</svg>
